<svg width="1243" height="833" viewBox="0 0 1243 833" fill="none" xmlns="http://www.w3.org/2000/svg">
<path d="M567.014 140.905H501.333V107.005H540.662C540.934 107.01 541.197 106.907 541.394 106.719C541.494 106.629 541.573 106.518 541.628 106.395C541.682 106.271 541.711 106.138 541.711 106.003C541.711 105.868 541.682 105.734 541.628 105.611C541.573 105.487 541.494 105.377 541.394 105.286C541.197 105.098 540.934 104.996 540.662 105H428.051C427.778 104.996 427.515 105.098 427.317 105.286C427.217 105.377 427.137 105.487 427.083 105.611C427.028 105.734 427 105.868 427 106.003C427 106.138 427.028 106.271 427.083 106.395C427.137 106.518 427.217 106.629 427.317 106.719C427.515 106.907 427.778 107.01 428.051 107.005H499.228V140.905H454.407C454.14 140.906 453.883 141.011 453.692 141.199C453.599 141.292 453.524 141.402 453.474 141.524C453.423 141.645 453.397 141.776 453.397 141.908C453.397 142.04 453.423 142.17 453.474 142.292C453.524 142.414 453.599 142.524 453.692 142.617C453.883 142.804 454.14 142.908 454.407 142.908H525.585V177.369C525.585 177.506 525.613 177.641 525.665 177.767C525.718 177.894 525.795 178.008 525.893 178.105C526.091 178.3 526.357 178.41 526.636 178.41C526.914 178.41 527.181 178.3 527.378 178.105C527.476 178.008 527.553 177.894 527.606 177.767C527.658 177.641 527.686 177.505 527.686 177.369V142.908H567.014C567.281 142.909 567.538 142.804 567.729 142.617C567.822 142.524 567.897 142.414 567.947 142.292C567.998 142.17 568.024 142.04 568.024 141.908C568.024 141.776 567.998 141.645 567.947 141.524C567.897 141.402 567.822 141.292 567.729 141.199C567.538 141.011 567.281 140.905 567.014 140.905Z" fill="#292F3D" fill-opacity="0.5"/>
<path d="M1242.27 106.996H1198.74V81.8649H1227.16C1227.25 81.8649 1227.35 81.8459 1227.44 81.8091C1227.53 81.7723 1227.61 81.7184 1227.67 81.6503C1227.81 81.5135 1227.89 81.3281 1227.89 81.1349C1227.89 80.9417 1227.81 80.7563 1227.67 80.6195C1227.61 80.5515 1227.53 80.4975 1227.44 80.4607C1227.35 80.4239 1227.25 80.405 1227.16 80.405H1171.68V53.3539H1200.1C1200.85 53.3539 1201.19 53.1008 1201.19 52.7134V27.6052H1229.61C1229.8 27.6052 1229.99 27.5283 1230.12 27.3915C1230.26 27.2546 1230.34 27.0689 1230.34 26.8753C1230.34 26.6817 1230.26 26.4961 1230.12 26.3592C1229.99 26.2223 1229.8 26.1454 1229.61 26.1454H1182.15V1.45967H1210.56C1210.76 1.46389 1210.95 1.3895 1211.1 1.25273C1211.17 1.18438 1211.22 1.10344 1211.26 1.01415C1211.3 0.92493 1211.32 0.82802 1211.32 0.729978C1211.32 0.631936 1211.3 0.535046 1211.26 0.44583C1211.22 0.356584 1211.17 0.27568 1211.1 0.207385C1210.95 0.0706525 1210.76 -0.0037823 1210.56 0.00028219H1129.18C1129.08 -0.00243057 1128.99 0.0144385 1128.9 0.0498899C1128.81 0.0853412 1128.72 0.138656 1128.65 0.206684C1128.58 0.274712 1128.53 0.356087 1128.49 0.44597C1128.45 0.535854 1128.43 0.632426 1128.43 0.729998C1128.43 0.82757 1128.45 0.924162 1128.49 1.01405C1128.53 1.10393 1128.58 1.18528 1128.65 1.25331C1128.72 1.32134 1128.81 1.37465 1128.9 1.41011C1128.99 1.44556 1129.08 1.46243 1129.18 1.45971H1180.63V26.1454H1148.24C1148.04 26.1454 1147.86 26.2223 1147.72 26.3592C1147.58 26.4961 1147.51 26.6818 1147.51 26.8754C1147.51 27.0689 1147.58 27.2546 1147.72 27.3915C1147.86 27.5284 1148.04 27.6053 1148.24 27.6053H1199.67V51.894H1118.73C1118.54 51.894 1118.35 51.9709 1118.21 52.1078C1118.08 52.2447 1118 52.4304 1118 52.624C1118 52.8176 1118.08 53.0032 1118.21 53.1401C1118.35 53.277 1118.54 53.3539 1118.73 53.3539H1170.16V80.405H1145.79C1145.7 80.4046 1145.6 80.4232 1145.51 80.4597C1145.42 80.4962 1145.34 80.5499 1145.28 80.6177C1145.21 80.6855 1145.15 80.7661 1145.12 80.8549C1145.08 80.9437 1145.06 81.0388 1145.06 81.1349C1145.06 81.2311 1145.08 81.3262 1145.12 81.415C1145.15 81.5038 1145.21 81.5844 1145.28 81.6522C1145.34 81.72 1145.42 81.7737 1145.51 81.8102C1145.6 81.8467 1145.7 81.8653 1145.79 81.8649H1197.23V106.996H1160.89C1160.7 106.996 1160.51 107.073 1160.38 107.21C1160.24 107.347 1160.16 107.532 1160.16 107.725C1160.16 107.919 1160.24 108.104 1160.38 108.241C1160.51 108.378 1160.7 108.455 1160.89 108.455H1212.33V133.547C1212.35 133.741 1212.43 133.922 1212.57 134.055C1212.71 134.187 1212.9 134.261 1213.09 134.261C1213.29 134.261 1213.48 134.187 1213.62 134.055C1213.76 133.922 1213.84 133.741 1213.86 133.547V108.454H1242.27C1242.46 108.454 1242.65 108.378 1242.79 108.241C1242.92 108.104 1243 107.919 1243 107.725C1243 107.532 1242.92 107.346 1242.79 107.21C1242.65 107.073 1242.46 106.996 1242.27 106.996Z" fill="#292F3D"/>
<path d="M124.271 804.996H80.7444V779.865H109.158C109.254 779.865 109.349 779.846 109.438 779.809C109.527 779.772 109.607 779.718 109.675 779.65C109.811 779.513 109.888 779.328 109.888 779.135C109.888 778.942 109.811 778.756 109.675 778.619C109.607 778.551 109.527 778.498 109.438 778.461C109.349 778.424 109.254 778.405 109.158 778.405H53.684V751.354H82.0992C82.8477 751.354 83.1903 751.101 83.1903 750.713V725.605H111.609C111.802 725.605 111.988 725.528 112.125 725.391C112.262 725.255 112.339 725.069 112.339 724.875C112.339 724.682 112.262 724.496 112.125 724.359C111.988 724.222 111.802 724.145 111.609 724.145H64.1485V699.46H92.5623C92.7606 699.464 92.9526 699.39 93.0963 699.253C93.1664 699.184 93.2228 699.103 93.2629 699.014C93.3036 698.925 93.3246 698.828 93.3246 698.73C93.3246 698.632 93.3036 698.535 93.2629 698.446C93.2228 698.357 93.1664 698.276 93.0963 698.207C92.9526 698.071 92.7606 697.996 92.5623 698H11.1821C11.0846 697.998 10.9875 698.014 10.8966 698.05C10.8057 698.085 10.7229 698.139 10.6529 698.207C10.583 698.275 10.5273 698.356 10.4894 698.446C10.4514 698.536 10.4318 698.632 10.4318 698.73C10.4318 698.828 10.4514 698.924 10.4894 699.014C10.5273 699.104 10.583 699.185 10.6529 699.253C10.7229 699.321 10.8057 699.375 10.8966 699.41C10.9875 699.446 11.0846 699.462 11.1821 699.46H62.6269V724.145H30.2379C30.0443 724.145 29.8586 724.222 29.7217 724.359C29.5848 724.496 29.5079 724.682 29.5079 724.875C29.5079 725.069 29.5848 725.255 29.7217 725.391C29.8586 725.528 30.0443 725.605 30.2379 725.605H81.6687V749.894H0.729956C0.536364 749.894 0.350782 749.971 0.213892 750.108C0.0770016 750.245 0 750.43 0 750.624C0 750.818 0.0770016 751.003 0.213892 751.14C0.350782 751.277 0.536364 751.354 0.729956 751.354H52.1624V778.405H27.7934C27.6973 778.405 27.602 778.423 27.5131 778.46C27.4241 778.496 27.3434 778.55 27.2753 778.618C27.2072 778.686 27.1531 778.766 27.1162 778.855C27.0793 778.944 27.0604 779.039 27.0604 779.135C27.0604 779.231 27.0793 779.326 27.1162 779.415C27.1531 779.504 27.2072 779.584 27.2753 779.652C27.3434 779.72 27.4241 779.774 27.5131 779.81C27.602 779.847 27.6973 779.865 27.7934 779.865H79.2259V804.996H42.8923C42.6989 804.996 42.5134 805.073 42.3767 805.21C42.24 805.347 42.1631 805.532 42.1631 805.725C42.1631 805.919 42.24 806.104 42.3767 806.241C42.5134 806.378 42.6989 806.455 42.8923 806.455H94.334V831.547C94.3463 831.741 94.4317 831.922 94.573 832.055C94.7144 832.187 94.9009 832.261 95.0947 832.261C95.2885 832.261 95.4751 832.187 95.6164 832.055C95.7577 831.922 95.8433 831.741 95.8556 831.547V806.454H124.271C124.464 806.454 124.65 806.378 124.786 806.241C124.923 806.104 125 805.919 125 805.725C125 805.532 124.923 805.346 124.786 805.21C124.65 805.073 124.464 804.996 124.271 804.996Z" fill="#292F3D"/>
</svg>
