<svg width="54" height="23" viewBox="0 0 54 23" fill="none" xmlns="http://www.w3.org/2000/svg">
<rect x="0.738281" y="0.560791" width="52.6482" height="22.3356" rx="1.5954" fill="url(#paint0_linear_449_3574)"/>
<path d="M26.2632 15.347V8.1486H27.5804V14.2341H30.9703V15.347H26.2632ZM31.8746 15.347V10.1907H33.151V15.347H31.8746ZM31.8032 9.22071V7.97502H33.2224V9.22071H31.8032ZM36.0481 15.347L33.8222 10.1907H35.1802L36.7935 14.2239H36.477L38.1311 10.1907H39.4074L37.1713 15.347H36.0481ZM42.4826 15.4492C41.904 15.4492 41.4071 15.3436 40.9919 15.1326C40.5835 14.9148 40.2669 14.6051 40.0423 14.2035C39.8245 13.8018 39.7156 13.3254 39.7156 12.774C39.7156 12.2362 39.8211 11.7665 40.0321 11.3649C40.2431 10.9633 40.5358 10.6502 40.9102 10.4256C41.2914 10.2009 41.7339 10.0886 42.2376 10.0886C42.7345 10.0886 43.1497 10.1941 43.4833 10.4051C43.8168 10.6161 44.0687 10.9123 44.2388 11.2935C44.4158 11.6746 44.5043 12.1205 44.5043 12.631V12.968H40.7468V12.2941H43.5956L43.422 12.437C43.422 11.9605 43.3199 11.5964 43.1157 11.3445C42.9183 11.0926 42.629 10.9667 42.2478 10.9667C41.9619 10.9667 41.7202 11.0348 41.5228 11.1709C41.3322 11.3071 41.1859 11.5011 41.0838 11.7529C40.9817 12.0048 40.9306 12.3111 40.9306 12.6719V12.8046C40.9306 13.3628 41.0668 13.7814 41.339 14.0605C41.6181 14.3328 42.0095 14.4689 42.5133 14.4689C42.806 14.4689 43.0782 14.4315 43.3301 14.3566C43.5888 14.2749 43.8338 14.1456 44.0653 13.9686L44.4431 14.8263C44.198 15.0237 43.9053 15.1769 43.5649 15.2858C43.2246 15.3947 42.8638 15.4492 42.4826 15.4492Z" fill="white"/>
<path d="M9.87556 7.12663C9.8223 7.06901 9.75886 7.02309 9.68886 6.99148C9.61886 6.95987 9.54367 6.9432 9.46759 6.94241C9.39151 6.94163 9.31603 6.95674 9.24546 6.9869C9.1749 7.01706 9.11062 7.06167 9.05632 7.11817C8.44205 7.76572 7.95479 8.53583 7.62264 9.38407C7.29049 10.2323 7.12003 11.1419 7.1211 12.0603C7.1201 13.014 7.30397 13.9578 7.6613 14.833C8.01863 15.7082 8.54179 16.4961 9.19831 17.148C9.30881 17.2563 9.45477 17.3147 9.6052 17.3107C9.75563 17.3068 9.89868 17.2408 10.004 17.1269C10.2561 16.8596 10.225 16.4341 9.98245 16.188C9.45557 15.6556 9.03629 15.0151 8.7501 14.3055C8.4639 13.596 8.31677 12.8321 8.31765 12.0603C8.31765 10.4989 8.90875 9.08303 9.86758 8.05281C10.0989 7.80329 10.1228 7.38884 9.87556 7.12663V7.12663Z" fill="white"/>
<path d="M11.2802 8.6171C11.1751 8.50248 11.0315 8.43669 10.8808 8.43416C10.7301 8.43162 10.5845 8.49254 10.4761 8.60357C10.0444 9.0553 9.70179 9.59357 9.46815 10.187C9.23452 10.7805 9.11455 11.4173 9.11524 12.0604C9.11524 13.4916 9.69756 14.7781 10.6253 15.667C10.7348 15.7696 10.8773 15.8236 11.0233 15.8177C11.1692 15.8119 11.3075 15.7467 11.4094 15.6357C11.6711 15.3583 11.6224 14.9219 11.3767 14.6766C11.0399 14.3409 10.7717 13.9355 10.5885 13.4856C10.4053 13.0356 10.3112 12.5506 10.3118 12.0604C10.3118 11.0878 10.6763 10.2047 11.269 9.55681C11.4972 9.30814 11.5347 8.88607 11.2802 8.6171Z" fill="white"/>
<path d="M15.7262 8.61698C15.8313 8.50236 15.9749 8.43657 16.1256 8.43404C16.2763 8.4315 16.4219 8.49242 16.5303 8.60345C16.962 9.05518 17.3046 9.59346 17.5383 10.1869C17.7719 10.7804 17.8919 11.4172 17.8912 12.0604C17.8912 13.4915 17.3089 14.778 16.3811 15.667C16.2716 15.7695 16.1291 15.8235 15.9832 15.8177C15.8372 15.8118 15.6989 15.7467 15.597 15.6357C15.3353 15.3582 15.384 14.9218 15.6297 14.6765C15.9665 14.3408 16.2347 13.9355 16.4179 13.4855C16.6011 13.0355 16.6953 12.5505 16.6946 12.0604C16.6946 11.0876 16.3301 10.2046 15.7374 9.5567C15.5092 9.30802 15.4718 8.88595 15.7262 8.61698V8.61698Z" fill="white"/>
<path d="M17.1297 7.12663C17.183 7.06901 17.2464 7.02309 17.3164 6.99148C17.3864 6.95987 17.4616 6.9432 17.5377 6.94241C17.6138 6.94163 17.6893 6.95674 17.7598 6.9869C17.8304 7.01706 17.8947 7.06167 17.949 7.11817C18.5632 7.76572 19.0505 8.53583 19.3827 9.38407C19.7148 10.2323 19.8853 11.1419 19.8842 12.0603C19.8852 13.014 19.7013 13.9578 19.344 14.833C18.9867 15.7082 18.4635 16.4961 17.807 17.148C17.6965 17.2563 17.5505 17.3147 17.4001 17.3107C17.2497 17.3068 17.1066 17.2408 17.0013 17.1269C16.7492 16.8596 16.7803 16.4341 17.0236 16.188C17.5504 15.6555 17.9695 15.015 18.2556 14.3054C18.5416 13.5959 18.6886 12.832 18.6876 12.0603C18.6876 10.4989 18.0966 9.08303 17.1377 8.05281C16.9064 7.80329 16.8825 7.38884 17.1297 7.12663Z" fill="white"/>
<path d="M13.5032 10.7916C13.1858 10.7916 12.8815 10.9253 12.6571 11.1632C12.4327 11.4012 12.3066 11.7239 12.3066 12.0604C12.3066 12.3968 12.4327 12.7196 12.6571 12.9575C12.8815 13.1954 13.1858 13.3291 13.5032 13.3291C13.8205 13.3291 14.1249 13.1954 14.3493 12.9575C14.5737 12.7196 14.6997 12.3968 14.6997 12.0604C14.6997 11.7239 14.5737 11.4012 14.3493 11.1632C14.1249 10.9253 13.8205 10.7916 13.5032 10.7916Z" fill="white"/>
<defs>
<linearGradient id="paint0_linear_449_3574" x1="0.738282" y1="11.7286" x2="53.3865" y2="11.7286" gradientUnits="userSpaceOnUse">
<stop stop-color="#FF6E3F"/>
<stop offset="1" stop-color="#FF5634"/>
</linearGradient>
</defs>
</svg>
