<svg width="11" height="8" viewBox="0 0 11 8" fill="none" xmlns="http://www.w3.org/2000/svg">
<path d="M5.77416 0.178423C5.55501 0.068336 5.31553 0.0112305 5.07303 0.0112305C4.83053 0.0112305 4.59106 0.068336 4.37191 0.178423L0.303725 2.22196C0.228848 2.25942 0.16617 2.31964 0.123662 2.39497C0.0811544 2.47031 0.0607377 2.55734 0.0650091 2.64501V2.66802V5.32312C0.0650091 5.44048 0.108978 5.55304 0.187244 5.63603C0.265509 5.71902 0.37166 5.76564 0.482344 5.76564C0.593028 5.76564 0.699179 5.71902 0.777445 5.63603C0.85571 5.55304 0.89968 5.44048 0.89968 5.32312V3.33534L1.73435 3.77431V6.20815C1.73436 6.26637 1.74521 6.32401 1.76626 6.37777C1.78731 6.43153 1.81817 6.48036 1.85705 6.52146L1.87791 6.5427L1.92799 6.59137C2.18959 6.83856 2.47238 7.0593 2.77268 7.25072C3.33024 7.60651 4.1357 7.97822 5.07303 7.97822C6.01037 7.97822 6.81582 7.60651 7.37422 7.25072C7.67453 7.0593 7.95732 6.83856 8.21891 6.59137L8.26899 6.5427L8.28818 6.52146H8.28985C8.32868 6.48018 8.35944 6.43118 8.38035 6.37726C8.40126 6.32334 8.41192 6.26557 8.41171 6.20727V3.77343L9.84902 3.01761C9.91928 2.98071 9.97832 2.92358 10.0194 2.85275C10.0604 2.78192 10.0818 2.70026 10.0811 2.61713C10.0804 2.53399 10.0577 2.45275 10.0154 2.3827C9.97319 2.31266 9.91321 2.25665 9.84234 2.22108L5.77416 0.177538V0.178423ZM5.80087 5.14788L7.57704 4.21329V6.01168C7.37905 6.18975 7.16774 6.35047 6.9452 6.49225C6.46109 6.80024 5.80504 7.09319 5.07303 7.09319C4.34103 7.09319 3.68581 6.80113 3.20087 6.49225C2.97832 6.35047 2.76701 6.18975 2.56902 6.01168V4.21329L4.3452 5.14788C4.80427 5.38861 5.3418 5.38861 5.80087 5.14788ZM5.41692 0.978493L8.70719 2.63085L5.42944 4.3549C5.31864 4.41309 5.19667 4.44336 5.07303 4.44336C4.94939 4.44336 4.82742 4.41309 4.71663 4.3549L1.43888 2.63085L4.72915 0.978493C4.83663 0.924479 4.95409 0.89646 5.07303 0.89646C5.19198 0.89646 5.30943 0.924479 5.41692 0.978493ZM1.85872 6.52323L1.85788 6.52234L1.85872 6.52323Z" fill="white"/>
</svg>
