<svg width="9" height="11" viewBox="0 0 9 11" fill="none" xmlns="http://www.w3.org/2000/svg">
<path d="M8.16681 7.22698V3.88808C8.16666 3.7417 8.12802 3.59793 8.05477 3.4712C7.98151 3.34447 7.87622 3.23923 7.74945 3.16604L4.82792 1.4966C4.70102 1.42334 4.55708 1.38477 4.41055 1.38477C4.26403 1.38477 4.12009 1.42334 3.99319 1.4966L1.07166 3.16604C0.94489 3.23923 0.839597 3.34447 0.766342 3.4712C0.693088 3.59793 0.654447 3.7417 0.654297 3.88808V7.22698C0.654447 7.37336 0.693088 7.51712 0.766342 7.64385C0.839597 7.77058 0.94489 7.87582 1.07166 7.94901L3.99319 9.61846C4.12009 9.69172 4.26403 9.73029 4.41055 9.73029C4.55708 9.73029 4.70102 9.69172 4.82792 9.61846L7.74945 7.94901C7.87622 7.87582 7.98151 7.77058 8.05477 7.64385C8.12802 7.51712 8.16666 7.37336 8.16681 7.22698Z" stroke="white" stroke-width="0.7977" stroke-linecap="round" stroke-linejoin="round"/>
<path d="M0.767578 3.45398L4.41115 5.56166L8.05472 3.45398" stroke="white" stroke-width="0.7977" stroke-linecap="round" stroke-linejoin="round"/>
<path d="M4.41016 9.7645V5.5575" stroke="white" stroke-width="0.7977" stroke-linecap="round" stroke-linejoin="round"/>
</svg>
