<svg width="26" height="26" viewBox="0 0 26 26" fill="none" xmlns="http://www.w3.org/2000/svg">
<path d="M22.3503 5.02049C21.807 4.477 21.162 4.04586 20.4521 3.7517C19.7422 3.45755 18.9813 3.30615 18.2129 3.30615C17.4444 3.30615 16.6835 3.45755 15.9736 3.7517C15.2637 4.04586 14.6187 4.477 14.0754 5.02049L12.948 6.14791L11.8206 5.02049C10.7233 3.92318 9.23504 3.30672 7.68321 3.30672C6.13138 3.30672 4.64311 3.92318 3.5458 5.02049C2.44849 6.1178 1.83203 7.60607 1.83203 9.1579C1.83203 10.7097 2.44849 12.198 3.5458 13.2953L4.67322 14.4227L12.948 22.6975L21.2228 14.4227L22.3503 13.2953C22.8938 12.7521 23.3249 12.1071 23.619 11.3972C23.9132 10.6872 24.0646 9.92634 24.0646 9.1579C24.0646 8.38946 23.9132 7.62855 23.619 6.91864C23.3249 6.20873 22.8938 5.56373 22.3503 5.02049V5.02049Z" stroke="white" stroke-width="1.5954" stroke-linecap="round" stroke-linejoin="round"/>
</svg>
