<svg width="7" height="10" viewBox="0 0 7 10" fill="none" xmlns="http://www.w3.org/2000/svg">
<path d="M1.18161 0.219407L1.71962 0.0474055C2.22412 -0.113596 2.76313 0.146907 2.97913 0.655913L3.40914 1.66992C3.59614 2.11143 3.49214 2.63094 3.15213 2.95394L2.20462 3.85295C2.26312 4.39096 2.44413 4.92046 2.74713 5.44147C3.03487 5.94554 3.42082 6.38675 3.88214 6.73898L5.02016 6.35898C5.45116 6.21548 5.92117 6.38098 6.18517 6.76948L6.80168 7.6745C7.10918 8.1265 7.05368 8.74951 6.67218 9.13251L6.26367 9.54302C5.85667 9.95152 5.27516 10.1 4.73765 9.93202C3.46764 9.53602 2.30112 8.3605 1.23611 6.40548C0.1696 4.44746 -0.206905 2.78544 0.107099 1.42142C0.239101 0.847415 0.647605 0.389909 1.18161 0.219407Z" fill="#828282"/>
</svg>
