<svg width="9" height="14" viewBox="0 0 9 14" fill="none" xmlns="http://www.w3.org/2000/svg">
<path d="M1.51923 0.30717L2.21095 0.0663676C2.85961 -0.159035 3.55262 0.205669 3.83034 0.918278L4.38321 2.33789C4.62364 2.956 4.48992 3.68331 4.05277 4.13552L2.83454 5.39413C2.90975 6.14734 3.14247 6.88865 3.53205 7.61806C3.902 8.32376 4.39823 8.94146 4.99136 9.43458L6.45453 8.90257C7.00869 8.70167 7.61298 8.93337 7.95242 9.47728L8.74508 10.7443C9.14044 11.3771 9.06908 12.2493 8.57857 12.7855L8.05335 13.3602C7.53005 13.9321 6.7824 14.14 6.09131 13.9048C4.45842 13.3504 2.95861 11.7047 1.5893 8.96767C0.218058 6.22644 -0.266022 3.89961 0.1377 1.98999C0.307417 1.18638 0.832641 0.545873 1.51923 0.30717Z" fill="url(#paint0_linear_917_3719)"/>
<defs>
<linearGradient id="paint0_linear_917_3719" x1="3.26544e-08" y1="9.85869" x2="8.80834" y2="9.87348" gradientUnits="userSpaceOnUse">
<stop stop-color="#F36B3D"/>
<stop offset="0.0001" stop-color="#FFBA08"/>
<stop offset="1" stop-color="#FB8133"/>
</linearGradient>
</defs>
</svg>
