<svg width="66" height="108" viewBox="0 0 66 108" fill="none" xmlns="http://www.w3.org/2000/svg">
<path d="M23.2329 1.02069C20.4764 0.479431 17.6186 0.851372 15.0924 2.08016C12.5663 3.30896 10.5095 5.32763 9.23364 7.83035C4.23389 16.8299 6.91374 29.1193 14.0934 34.229C21.273 39.3388 21.173 42.4086 30.0926 39.1288C39.0121 35.8489 36.6623 28.2893 38.8521 22.0796C41.042 15.8699 36.5023 -2.51913 23.2329 1.02069Z" fill="#001953"/>
<path d="M29.9919 32.0292C28.6613 32.627 27.279 33.1023 25.8621 33.4491C24.1901 33.7702 22.668 34.627 21.5261 35.8898C20.3841 37.1527 19.6843 38.7529 19.5324 40.4487C19.0424 44.9785 24.2422 56.2979 21.6423 64.4475C19.0425 72.5971 7.84303 69.4473 8.33301 78.2468C8.82298 87.0464 21.4123 89.7763 37.0315 87.8264C52.6508 85.8765 68.4 75.007 62.2303 67.0474C56.0606 59.0878 51.5708 59.4178 47.461 45.7785C43.6612 33.0391 40.2414 27.3594 29.9919 32.0292Z" fill="#148ACC"/>
<path d="M51.5708 93.1561C50.5904 92.1442 49.5592 91.183 48.481 90.2762C46.841 88.9063 47.621 91.0262 43.8212 89.1863C40.0214 87.3464 8.043 57.8779 2.29329 71.2672C-7.60621 94.316 23.6922 95.206 42.2913 96.8559C42.2913 96.8559 49.0009 98.2258 49.9609 99.3157C50.9208 100.406 55.6606 96.5259 51.5708 93.1561Z" fill="#305681"/>
<path d="M51.9508 98.4157C51.9508 98.4157 49.4409 94.8059 41.3713 94.2959C33.3017 93.7859 6.67308 88.7562 1.10336 82.2965" stroke="#001953" stroke-width="0.950681" stroke-linecap="round" stroke-linejoin="round"/>
<path d="M55.2509 92.7762C52.541 91.7762 52.871 90.9963 51.2511 90.2063C50.5199 89.8736 49.7557 89.6188 48.9712 89.4463C44.5614 88.3964 44.9714 97.4459 44.9714 97.4459C52.101 101.306 50.2211 104.386 52.971 106.905C53.3774 107.255 53.8664 107.494 54.3915 107.601C54.9166 107.708 55.4603 107.678 55.9708 107.515C58.3107 106.965 60.8206 104.786 61.6905 103.876C62.0053 103.537 62.2992 103.18 62.5705 102.806C67.7602 95.2761 58.7407 94.0461 55.2509 92.7762Z" fill="#000D2E"/>
<path d="M65.36 96.6558C64.08 92.086 56.7704 92.656 54.5205 91.2961C52.2706 89.9362 51.2507 90.2061 51.2507 90.2061C52.8706 90.9961 52.5406 91.7961 55.2505 92.776C58.7403 94.0459 67.7598 95.2759 62.5001 102.776C62.2288 103.15 61.9349 103.507 61.6201 103.845C60.7502 104.755 58.2403 106.935 55.9004 107.485C63.47 108.535 66.5699 100.966 65.36 96.6558Z" fill="#0066D1"/>
<path d="M52.4108 102.116C52.4108 102.116 56.4705 98.296 56.3106 94.7262C56.3106 94.7262 45.1811 88.6365 43.7212 90.5864C42.2613 92.5363 40.9613 96.3461 42.0213 97.726C43.0812 99.1059 45.0211 96.4161 52.4108 102.116Z" fill="#373586"/>
<path d="M48.5711 92.2762C48.5711 92.2762 46.6312 95.3961 46.8512 97.786C46.8512 97.786 48.8511 94.6161 51.161 93.5862C50.5868 95.3021 50.2503 97.0886 50.1611 98.8959C50.9558 97.4252 51.9899 96.0971 53.2209 94.9661C52.8467 96.6781 52.5762 98.4112 52.411 100.156C52.411 100.156 53.6509 96.816 54.5509 96.0461C54.5509 96.0461 51.971 97.386 51.261 98.8459C51.261 98.8459 51.971 95.4261 52.261 94.3561C52.261 94.3561 49.3511 96.176 48.7511 97.866C48.5216 97.089 48.4698 96.2703 48.5996 95.4706C48.7294 94.6709 49.0375 93.9106 49.5011 93.2462C49.5011 93.2462 46.5613 95.0861 45.8213 96.816" stroke="#000D2E" stroke-width="0.950681" stroke-linecap="round" stroke-linejoin="round"/>
<path d="M35.4817 21.7395C35.2717 17.8997 33.3618 16.2298 33.3618 16.2298C29.922 16.8997 24.4423 5.9503 23.9623 5.34034C23.4823 4.73037 22.1324 10.1501 21.2824 13.6199C20.4325 17.0897 11.2829 25.6193 11.2829 25.6193C12.3429 28.6192 16.7627 32.449 22.4124 32.8589C24.432 33.0048 26.4591 32.7079 28.3521 31.989C29.8517 31.4431 31.216 30.5801 32.3519 29.4591C33.3717 28.4532 34.1753 27.2497 34.7134 25.9223C35.2516 24.5949 35.5131 23.1715 35.4817 21.7395V21.7395Z" fill="#FF9F5A"/>
<path d="M16.0425 92.5062C16.0425 92.5062 17.2824 90.8263 18.7324 89.2563C20.1823 87.6864 19.7323 89.8863 23.2121 87.5664C26.692 85.2465 54.6605 51.9082 62.0901 64.4476C74.8695 86.0265 43.9611 90.9463 25.692 94.9861C25.692 94.9861 19.2123 97.2059 18.4023 98.4159C17.5924 99.6258 12.4527 96.416 16.0425 92.5062Z" fill="#3D71A5"/>
<path d="M16.9326 97.8156C16.9326 97.8156 18.9325 93.8958 26.8321 92.2759C34.7317 90.6559 60.4304 81.9664 65.0502 74.7968" stroke="#001953" stroke-width="0.950681" stroke-linecap="round" stroke-linejoin="round"/>
<path d="M12.3728 92.6064C14.9427 91.2764 14.5127 90.5265 16.0126 89.5365C16.693 89.1235 17.4175 88.7881 18.1725 88.5366C22.4123 86.9167 23.1723 95.9462 23.1723 95.9462C16.5926 100.686 18.8525 103.496 16.4926 106.346C16.1363 106.748 15.6821 107.051 15.1741 107.227C14.666 107.402 14.1213 107.443 13.5928 107.346C11.2029 107.096 8.43303 105.256 7.45308 104.466C7.09377 104.178 6.75928 103.86 6.45313 103.516C0.293443 96.6962 9.07298 94.3163 12.3728 92.6064Z" fill="#000D2E"/>
<path d="M2.85349 97.7558C3.53346 93.0561 10.8531 92.7561 12.913 91.0462C14.9729 89.3363 16.0128 89.5362 16.0128 89.5362C14.5129 90.5362 14.9429 91.2762 12.373 92.6061C9.07317 94.316 0.293625 96.6959 6.48331 103.476C6.78946 103.82 7.12395 104.137 7.48326 104.425C8.48321 105.215 11.2331 107.055 13.6229 107.305C6.25331 109.285 2.21352 102.186 2.85349 97.7558Z" fill="#0066D1"/>
<path d="M32.2919 29.4192C32.0019 37.3388 23.0423 37.8988 23.0423 37.8988C23.0523 38.0953 23.0523 38.2922 23.0423 38.4887C23.0423 38.4887 33.2818 39.7487 33.9818 32.859C33.1745 31.8493 32.5978 30.6753 32.2919 29.4192V29.4192Z" fill="#FF9F5A"/>
<path d="M32.2918 29.4192C31.1559 30.5402 29.7917 31.4031 28.292 31.9491C26.3991 32.6679 24.3719 32.9648 22.3523 32.819C22.7978 34.4755 23.023 36.1834 23.0223 37.8988V37.8988C23.0223 37.8988 32.0018 37.4188 32.2918 29.4192Z" fill="#CB2909"/>
<path d="M31.0317 76.7469C31.0317 76.7469 30.2618 67.0074 42.7211 71.6671C48.5708 73.857 50.7207 74.997 52.1107 74.957L55.4205 77.1069L55.9105 79.9567L33.8316 79.0468L31.0317 76.7469Z" fill="#E3E2E0"/>
<path d="M31.032 76.7469C31.032 76.7469 34.5518 70.6372 40.0315 70.6372C45.5112 70.6372 48.4411 75.237 52.2509 74.327L56.2507 76.7469C53.1201 76.9448 49.9835 76.4709 47.0512 75.357C42.7814 73.5371 38.4016 69.9772 31.032 76.7469Z" fill="#F4F4F4"/>
<path d="M31.032 76.7469L33.8318 79.0468L56.9207 80.0467L55.4207 77.1569C52.7119 77.1252 50.0316 76.6 47.5111 75.607C44.1213 74.067 41.6914 72.7971 39.1515 72.8371C36.6117 72.8771 34.4618 73.7271 31.032 76.7469Z" fill="#E5E5E5"/>
<path d="M29.6421 72.4171C30.541 73.6893 31.0422 75.1997 31.0821 76.7569C32.502 75.487 31.572 73.767 29.6421 72.4171Z" fill="#F4F4F4"/>
<path d="M31.032 76.7467C28.5321 72.5969 25.0323 71.487 21.9425 71.827H21.5825H21.2225L20.9025 71.897H20.7825L20.5425 71.957L20.3725 72.007L20.1825 72.057L19.8926 72.137H19.8326L19.4926 72.2569L19.1926 72.3669C18.3754 72.6756 17.5968 73.0783 16.8727 73.5669C16.5927 73.7469 16.3027 73.9169 16.0028 74.0769C12.3029 76.0768 6.78323 76.5967 6.78323 76.5967L5.53329 79.8066L28.2422 78.9166L31.092 76.5967L31.032 76.7467Z" fill="#E5E5E5"/>
<path d="M29.6418 72.4171C28.6454 70.9711 27.3453 69.7603 25.8323 68.869C24.3193 67.9778 22.6299 67.4278 20.8822 67.2573C17.7802 67.0841 14.7333 66.363 11.8827 65.1274L7.76291 69.7172C7.76291 69.7172 13.1126 71.8471 17.9324 71.0871L19.0323 70.9271C22.5022 70.4372 28.1819 70.0972 30.3918 75.2269C30.6118 75.7369 30.8517 76.4669 31.0017 76.7669H31.0517C31.0226 75.2093 30.5319 73.6955 29.6418 72.4171V72.4171Z" fill="#E3E2E0"/>
<path d="M19.1324 72.5172C19.229 72.4718 19.3293 72.435 19.4324 72.4072C23.0622 71.1172 27.812 71.4072 31.0118 76.717C30.8618 76.417 30.6218 75.717 30.4018 75.177C28.1919 70.0473 22.5122 70.3873 19.0424 70.8773C16.33 72.1195 13.4374 72.9228 10.4728 73.2571L7.77298 76.067C10.5882 75.9773 13.3607 75.3529 15.9426 74.2271C16.2425 74.0671 16.5325 73.8971 16.8125 73.7171C17.5366 73.2285 18.3152 72.8258 19.1324 72.5172V72.5172Z" fill="#F4F4F4"/>
<path d="M31.0322 76.7466C31.0322 76.7466 29.3523 70.9969 36.6119 67.1871C43.1916 63.7373 46.1114 59.8075 46.1114 59.8075L52.7011 66.4672C52.7011 66.4672 48.7013 71.0269 39.4417 70.657C32.9821 70.417 31.0322 76.7466 31.0322 76.7466Z" fill="#F0F3F8"/>
<path d="M31.032 76.7468C31.032 76.7468 31.772 71.0571 29.8321 68.2772C27.7322 65.2774 20.9226 60.0276 20.4426 58.6577L14.7929 61.9275C19.2742 64.2828 23.5257 67.0513 27.4922 70.1971C28.4994 70.9882 29.3333 71.9778 29.9422 73.1044C30.5511 74.2311 30.9221 75.4708 31.032 76.7468V76.7468Z" fill="#F0F3F8"/>
<path d="M30.9523 80.8967C29.7082 80.8751 28.5047 80.4505 27.5225 79.6867C27.4717 79.6365 27.4429 79.5682 27.4425 79.4967C27.4412 79.4616 27.4488 79.4267 27.4645 79.3953C27.4802 79.3638 27.5036 79.3368 27.5324 79.3167L30.8823 76.5569C30.9256 76.5202 30.9805 76.5001 31.0373 76.5001C31.094 76.5001 31.1489 76.5202 31.1923 76.5569L34.2521 79.3067C34.2807 79.3289 34.303 79.358 34.317 79.3912C34.3311 79.4245 34.3363 79.4609 34.3321 79.4967C34.3334 79.5319 34.3258 79.5668 34.3101 79.5982C34.2944 79.6297 34.271 79.6567 34.2421 79.6767C33.3196 80.4515 32.157 80.8826 30.9523 80.8967Z" fill="#F0A64F"/>
<path d="M59.3106 81.1565L33.8218 80.1565H28.2221L3.50337 81.0365C3.22623 81.0471 2.95623 80.9472 2.75276 80.7587C2.5493 80.5702 2.42904 80.3087 2.41843 80.0315C2.40782 79.7544 2.50774 79.4844 2.6962 79.2809C2.88467 79.0775 3.14625 78.9572 3.42338 78.9466L28.1821 78.0566H33.8619L59.3906 79.1166C59.669 79.1166 59.9361 79.2272 60.133 79.4241C60.3299 79.621 60.4405 79.8881 60.4405 80.1665C60.4405 80.445 60.3299 80.7121 60.133 80.909C59.9361 81.1059 59.669 81.2165 59.3906 81.2165L59.3106 81.1565Z" fill="#000D2E"/>
<path d="M28.3122 79.2868C29.0821 79.8433 30.0046 80.1494 30.9544 80.1638C31.9043 80.1781 32.8356 79.8998 33.6219 79.3668L31.022 77.1069L28.3122 79.2868Z" fill="#000D2E"/>
<path d="M34.6416 76.2368C35.9277 75.1777 37.5099 74.542 39.1713 74.4169C40.0111 74.3545 40.8553 74.4288 41.6712 74.6369C42.4632 74.8522 43.2358 75.1331 43.9811 75.4769C45.3516 76.2123 46.7878 76.8182 48.2709 77.2868C49.786 77.6252 51.3406 77.753 52.8907 77.6668C52.9404 77.6665 52.9885 77.6848 53.0254 77.7181C53.0624 77.7514 53.0857 77.7972 53.0906 77.8467C53.0916 77.8935 53.0761 77.9392 53.0469 77.9757C53.0176 78.0123 52.9765 78.0374 52.9306 78.0467C51.3304 78.3368 49.6911 78.3368 48.0909 78.0467C46.528 77.6632 45.0172 77.0924 43.5911 76.3468C42.2253 75.6977 40.7336 75.3563 39.2213 75.3469C37.6969 75.3882 36.2048 75.7964 34.8715 76.5368V76.5368C34.8499 76.5493 34.826 76.5575 34.8012 76.5607C34.7764 76.564 34.7512 76.5623 34.727 76.5558C34.7029 76.5493 34.6802 76.5381 34.6604 76.5228C34.6406 76.5076 34.624 76.4885 34.6116 76.4668C34.5905 76.4306 34.582 76.3883 34.5874 76.3467C34.5928 76.3051 34.6119 76.2665 34.6416 76.2368Z" fill="#C3C3C3"/>
<path d="M37.1117 76.9269C37.6418 76.5409 38.2547 76.2841 38.9016 76.1769C39.5346 76.0586 40.1816 76.035 40.8215 76.1069C41.452 76.175 42.0707 76.3263 42.6614 76.5569C42.9614 76.6669 43.2414 76.8069 43.5314 76.9269C43.8214 77.0469 44.0714 77.2469 44.3213 77.4269C44.3676 77.4575 44.3999 77.5051 44.4112 77.5595C44.4224 77.6138 44.4117 77.6704 44.3813 77.7169C44.3561 77.7524 44.3204 77.7792 44.2791 77.7936C44.2379 77.8079 44.1932 77.8091 44.1513 77.7968L42.4214 77.3769C41.8415 77.2669 41.2815 77.1469 40.7115 77.0969C40.147 77.037 39.579 77.0169 39.0116 77.0369C38.4415 77.0648 37.8755 77.1485 37.3217 77.2869V77.2869C37.2687 77.2991 37.2131 77.2903 37.1664 77.2623C37.1198 77.2344 37.0859 77.1894 37.0717 77.1369C37.0578 77.1017 37.0542 77.0633 37.0613 77.0261C37.0684 76.9889 37.0859 76.9545 37.1117 76.9269V76.9269Z" fill="#C3C3C3"/>
<path d="M28.192 76.2169C26.0721 74.507 23.2722 73.647 20.8024 74.6369C19.5724 75.1269 18.3825 75.9169 17.0425 76.4568C15.7152 77.0422 14.2725 77.3191 12.8228 77.2668C12.7812 77.2619 12.7429 77.2418 12.7153 77.2105C12.6876 77.1791 12.6725 77.1386 12.6728 77.0968C12.6766 77.06 12.6923 77.0254 12.7176 76.9983C12.7428 76.9712 12.7763 76.9532 12.8127 76.9468C14.1776 76.8042 15.5037 76.4073 16.7225 75.7769C17.9425 75.1569 19.0824 74.327 20.4524 73.777C21.8527 73.1734 23.4208 73.0813 24.8821 73.517C26.3032 73.9583 27.5466 74.841 28.4319 76.0369C28.4601 76.0666 28.4758 76.1059 28.4758 76.1469C28.4758 76.1878 28.4601 76.2271 28.4319 76.2569C28.4051 76.2788 28.3716 76.2908 28.337 76.2908C28.3023 76.2908 28.2688 76.2788 28.242 76.2569L28.192 76.2169Z" fill="#C3C3C3"/>
<path d="M27.572 77.237C26.1107 76.3228 24.3877 75.9184 22.6722 76.087C21.8133 76.1951 20.9705 76.4066 20.1623 76.717C19.3052 77.0438 18.4222 77.298 17.5225 77.4769C17.4789 77.4827 17.4347 77.4714 17.3992 77.4453C17.3638 77.4192 17.3399 77.3803 17.3325 77.3369C17.3225 77.3011 17.3262 77.2629 17.3428 77.2296C17.3594 77.1964 17.3879 77.1705 17.4225 77.157C18.2325 76.747 19.0024 76.317 19.8424 75.917C20.6919 75.4903 21.6086 75.213 22.5522 75.0971C23.5124 74.9831 24.4859 75.0946 25.3955 75.4227C26.305 75.7507 27.1256 76.2863 27.792 76.987C27.8088 77.001 27.8223 77.0186 27.8316 77.0385C27.8409 77.0584 27.8456 77.08 27.8456 77.102C27.8456 77.1239 27.8409 77.1455 27.8316 77.1654C27.8223 77.1853 27.8088 77.2029 27.792 77.217C27.7636 77.2397 27.7283 77.252 27.692 77.252C27.6556 77.252 27.6203 77.2397 27.592 77.217L27.572 77.237Z" fill="#C3C3C3"/>
<path d="M26.812 77.937C26.522 77.857 26.192 77.777 25.8821 77.717C25.5789 77.6476 25.2716 77.5975 24.9621 77.567C24.3447 77.4965 23.7199 77.5269 23.1122 77.657C23.022 77.6889 22.9229 77.6836 22.8366 77.6423C22.7504 77.6011 22.684 77.5272 22.6522 77.4371C22.6204 77.3469 22.6257 77.2478 22.6669 77.1615C22.7082 77.0752 22.782 77.0089 22.8722 76.9771C23.5541 76.642 24.3159 76.5035 25.0721 76.5771C25.8178 76.6319 26.5372 76.8763 27.162 77.2871C27.2021 77.3141 27.2363 77.3489 27.2626 77.3894C27.2889 77.4299 27.3068 77.4754 27.3152 77.5229C27.3236 77.5705 27.3223 77.6193 27.3115 77.6664C27.3006 77.7135 27.2804 77.7579 27.252 77.797C27.2097 77.8584 27.1498 77.9056 27.0802 77.9323C27.0106 77.9591 26.9346 77.9642 26.862 77.947L26.812 77.937Z" fill="#C3C3C3"/>
<path d="M16.3927 101.495C16.3927 101.495 11.8829 98.2355 11.5829 94.6757C11.5829 94.6757 21.8224 87.2061 23.5223 88.946C25.2223 90.6859 27.0022 94.3057 26.1322 95.8057C25.2622 97.3056 22.9924 94.9057 16.3927 101.495Z" fill="#373586"/>
<path d="M18.9528 91.2362C18.9528 91.2362 21.2827 94.0861 21.3727 96.4859C21.3727 96.4859 19.0028 93.5961 16.5529 92.8761C17.3523 94.499 17.9211 96.2256 18.2428 98.0059C17.2675 96.649 16.0709 95.4659 14.703 94.506C15.297 96.1411 15.7912 97.8108 16.1829 99.5058C16.1829 99.5058 14.573 96.4159 13.5731 95.756C13.5731 95.756 16.3029 96.7559 17.1929 98.1059C17.1929 98.1059 16.0429 94.796 15.5929 93.7861C15.5929 93.7861 18.7228 95.216 19.5228 96.7859C19.6509 95.9857 19.5978 95.167 19.3677 94.39C19.1375 93.613 18.7361 92.8975 18.1928 92.2961C18.1928 92.2961 21.3427 93.7361 22.2926 95.356" stroke="#000D2E" stroke-width="0.950681" stroke-linecap="round" stroke-linejoin="round"/>
<path d="M38.0916 39.3386C38.0916 39.3386 32.9118 35.8488 37.2016 31.859C41.4914 27.8692 44.9712 32.289 54.2908 38.5287C62.2903 43.8684 61.9004 48.6382 55.8907 69.9771C55.6992 70.6699 55.3412 71.3054 54.848 71.8282C54.3548 72.351 53.7413 72.7454 53.0608 72.9769C50.5109 73.8469 46.4911 74.5269 44.7312 71.057C42.0614 65.7773 50.101 54.2979 47.6311 50.0581C45.1612 45.8183 40.1914 42.0985 38.0916 39.3386Z" fill="#28A5EB"/>
<path d="M50.4713 80.6567C50.7705 80.3455 51.0447 80.0112 51.2912 79.6568C52.2912 78.2969 52.4912 75.517 52.4812 74.747C52.2294 73.5033 52.1121 72.2361 52.1312 70.9672C52.2912 69.0873 48.1314 69.6673 47.4614 71.2872C46.9815 72.5171 46.8114 74.0671 45.4115 75.037C44.0116 76.007 43.4116 76.547 43.5616 77.9669C43.7116 79.3868 44.7515 76.6869 45.5015 76.6969C46.2515 76.7069 46.2915 79.6168 44.4516 80.6967C42.6117 81.7767 46.0815 82.0367 47.2714 79.1668C46.9191 80.0432 46.2522 80.7564 45.4015 81.1667C43.9916 81.8367 47.1014 82.9666 48.3114 79.8468C48.1138 80.3177 47.8513 80.7586 47.5314 81.1567C47.1514 81.5167 48.5813 81.6867 49.3413 80.6467C49.0936 80.9897 48.7435 81.2453 48.3414 81.3767C47.9814 81.4867 48.6413 82.5067 50.4713 80.6567Z" fill="#FF9F5A"/>
<path d="M44.8413 70.0973C44.8413 70.0973 48.8411 66.6774 54.8408 70.0273" stroke="#001953" stroke-width="0.950681" stroke-linecap="round" stroke-linejoin="round"/>
<path d="M45.4014 81.1968C46.5081 80.5331 47.3387 79.493 47.7413 78.267" stroke="#CB2909" stroke-width="0.950681" stroke-linecap="round" stroke-linejoin="round"/>
<path d="M47.571 81.1865C48.1292 80.6268 48.5442 79.9408 48.781 79.1866" stroke="#CB2909" stroke-width="0.950681" stroke-linecap="round" stroke-linejoin="round"/>
<path d="M48.2912 81.4165C48.9871 81.0758 49.5348 80.4926 49.8311 79.7766" stroke="#CB2909" stroke-width="0.950681" stroke-linecap="round" stroke-linejoin="round"/>
<path d="M21.4724 20.8798C21.4724 20.8798 21.4725 27.2294 24.2023 25.5495" stroke="#CB2909" stroke-width="0.950681" stroke-linecap="round" stroke-linejoin="round"/>
<path d="M28.4418 24.7994C28.4418 24.9194 28.2019 29.4192 23.7921 28.1993" stroke="#CB2909" stroke-width="0.950681" stroke-linecap="round" stroke-linejoin="round"/>
<path d="M22.6622 17.2301C22.6622 17.2301 24.7121 14.2302 28.0819 15.0602" stroke="#001953" stroke-width="0.950681" stroke-linecap="round" stroke-linejoin="round"/>
<path d="M24.5723 20.0099C24.6574 19.8243 24.7972 19.6692 24.9731 19.5654C25.1489 19.4616 25.3523 19.4142 25.5559 19.4294C25.7595 19.4447 25.9536 19.5219 26.1121 19.6507C26.2705 19.7795 26.3857 19.9537 26.4422 20.1499C26.4851 20.2773 26.5019 20.412 26.4916 20.546C26.4813 20.68 26.4441 20.8106 26.3822 20.9299C26.3037 21.0923 26.1828 21.2305 26.0322 21.3298C25.9551 21.3725 25.8749 21.4093 25.7922 21.4398C25.6663 21.4814 25.5334 21.4975 25.4012 21.4872C25.269 21.4769 25.1402 21.4404 25.0223 21.3798C24.9021 21.3207 24.795 21.238 24.7074 21.1366C24.6198 21.0353 24.5534 20.9173 24.5123 20.7899C24.4693 20.6625 24.4525 20.5278 24.4628 20.3938C24.4732 20.2598 24.5104 20.1292 24.5723 20.0099Z" fill="#001953"/>
<path d="M14.2528 18.81C14.2528 18.81 16.5727 16.2202 19.5625 17.6001" stroke="#001953" stroke-width="0.950681" stroke-linecap="round" stroke-linejoin="round"/>
<path d="M15.9428 22.1197C16.002 21.9995 16.0847 21.8924 16.186 21.8048C16.2874 21.7172 16.4053 21.6509 16.5328 21.6097C16.7244 21.5368 16.9338 21.5245 17.1327 21.5746C17.3315 21.6246 17.5101 21.7346 17.6443 21.8896C17.7786 22.0445 17.8619 22.237 17.8831 22.441C17.9043 22.6449 17.8623 22.8504 17.7627 23.0296C17.6792 23.1917 17.5552 23.3295 17.4028 23.4296L17.1728 23.5396C16.9147 23.6198 16.6356 23.5983 16.3928 23.4796C16.2728 23.4212 16.1656 23.3393 16.0777 23.2389C15.9898 23.1384 15.9229 23.0213 15.881 22.8946C15.839 22.7678 15.8229 22.634 15.8335 22.5009C15.8441 22.3678 15.8813 22.2382 15.9428 22.1197V22.1197Z" fill="#001953"/>
<path d="M35.4515 15.8801C35.4515 15.8801 37.6014 18.9599 37.4514 21.3198C37.3014 23.6797 41.6411 19.9399 39.7912 15.8801C37.9413 11.8203 34.5715 14.4201 35.4515 15.8801Z" fill="#FF9F5A"/>
<path d="M38.3013 15.8197C38.3013 15.8197 37.1914 16.3297 38.2413 18.2496C38.2413 18.2496 37.9913 17.0696 39.0213 16.8897" stroke="#CB2909" stroke-width="0.950681" stroke-linecap="round" stroke-linejoin="round"/>
<path d="M17.4226 30.3193C16.5576 29.4858 16.0487 28.3498 16.0027 27.1494V27.1494C15.4027 26.2595 14.9527 22.8897 14.2628 24.9596C13.5728 27.0295 15.5627 30.5393 15.5627 30.5393C16.1126 30.4593 16.7326 30.3893 17.4526 30.3493L17.4226 30.3193Z" fill="#D8864E"/>
<path d="M19.7425 30.319C19.7425 30.319 18.1126 29.259 17.8326 28.2091C17.5526 27.1591 16.8326 25.3292 16.6126 25.3292C16.3881 25.5722 16.2176 25.86 16.1125 26.1738C16.0073 26.4875 15.9699 26.8199 16.0027 27.1491C16.0487 28.3495 16.5576 29.4854 17.4226 30.319V30.319H17.9426C18.4825 30.319 19.0725 30.319 19.7125 30.319H19.7425Z" fill="#D8864E"/>
<path d="M14.1128 28.7394C13.4128 27.3194 12.9828 24.9096 12.3929 25.8495C12.0437 27.1242 12.1138 28.4775 12.5928 29.7093C12.7959 30.2116 13.0331 30.6994 13.3028 31.1692C13.8171 30.947 14.3534 30.7794 14.9027 30.6693C14.699 30.0032 14.4345 29.3572 14.1128 28.7394V28.7394Z" fill="#D8864E"/>
<path d="M23.0126 33.4193C19.2417 33.4677 15.4984 34.0708 11.9031 35.2092C12.277 37.126 13.0842 38.932 14.263 40.489C13.693 46.1987 7.03337 53.7383 4.84348 56.4181C3.70949 58.0013 2.93646 59.8139 2.57883 61.7281C2.2212 63.6424 2.28767 65.6118 2.77358 67.4976C3.87352 70.7774 5.57345 72.7273 11.2332 72.4173C16.8929 72.1074 23.7125 56.0482 25.7824 48.8685C27.1923 43.9988 24.7425 37.2691 23.0126 33.4193Z" fill="#28A5EB"/>
<path d="M21.5726 30.4191C20.9426 30.3691 20.3527 30.3392 19.7927 30.3292C19.2327 30.3192 18.5628 30.3292 18.0228 30.3292H17.5028C16.7828 30.3292 16.1629 30.4391 15.6129 30.5191L14.953 30.6491C14.4036 30.7593 13.8674 30.9269 13.353 31.1491C12.1531 31.6891 11.9331 32.279 11.9331 32.279C11.7678 33.242 11.7678 34.226 11.9331 35.1889C15.5198 34.0602 19.2527 33.4639 23.0125 33.419C22.1826 31.5891 21.5726 30.4191 21.5726 30.4191Z" fill="#C4C5C6"/>
<path d="M14.2627 40.4889C15.9194 40.2873 17.5963 40.6389 19.0325 41.4889" stroke="#001953" stroke-width="0.950681" stroke-linecap="round" stroke-linejoin="round"/>
</svg>
