<svg width="67" height="44" viewBox="0 0 67 44" fill="none" xmlns="http://www.w3.org/2000/svg">
<path d="M22.8615 21.701C16.9996 21.4177 11.1368 22.3735 5.27411 23.3183C3.43934 23.6192 1.49288 24.6457 2.87687 26.8596C3.63845 28.0695 5.22162 28.4295 6.629 28.5886C12.7083 29.291 18.9402 28.5178 25.0604 28.5236" fill="url(#paint0_linear_14_2197)"/>
<path d="M66.1736 13.4784C67.0651 18.9795 64.5029 26.9187 58.5527 28.5235C56.1488 29.1734 53.2766 28.9426 50.7735 28.931L41.7153 28.866L23.9288 28.736C20.0184 28.7068 15.8621 28.6069 12.5966 26.4404C8.7212 23.8607 6.79307 19.0979 9.36614 14.9958C11.5826 11.4536 15.7271 9.31136 19.6726 8.45563C26.291 7.02161 33.1562 8.92225 39.7455 7.72987C40.8233 7.53785 41.8827 7.25348 42.9118 6.87992C48.8504 4.71349 54.7539 1.72712 60.8158 5.2626C62.2508 6.16205 63.4732 7.36265 64.3983 8.78125C65.3234 10.1999 65.9292 11.8025 66.1736 13.4784V13.4784Z" fill="url(#paint1_linear_14_2197)"/>
<path d="M17.0406 1.64443C16.0498 0.587872 15.4457 0.381238 14.8425 1.8861C14.1141 3.62558 13.7298 5.48976 13.7109 7.3755C11.2252 7.91605 8.90163 9.03414 6.92824 10.6393C5.37299 9.57411 3.62097 8.82968 1.77462 8.44955C0.209788 8.09543 0.0156828 8.71535 0.332306 10.1319C0.740951 11.8729 1.25403 13.5878 1.86878 15.2672C2.22626 16.3295 2.55456 17.3978 2.91783 18.4544C3.16855 19.5271 3.64647 20.5335 4.31936 21.4057C6.0775 23.5713 9.49555 24.8345 12.1685 25.1887C15.1941 25.5903 18.0313 24.817 20.0952 22.5031C21.9361 20.3206 23.1605 17.6858 23.6416 14.8713C23.9208 13.2899 23.7856 11.663 23.2491 10.1494C22.6625 8.47286 21.4434 7.25131 20.4002 5.84646C19.3619 4.38243 18.2402 2.97944 17.0406 1.64443V1.64443Z" fill="url(#paint2_linear_14_2197)"/>
<path d="M61.7124 9.11047C67.4051 14.5708 66.8127 20.8568 63.6647 26.4229C60.1768 32.5906 54.4315 36.7693 48.0238 39.4849C40.4613 42.6953 31.8022 44.3369 23.7005 42.4362C22.0707 42.0521 20.2884 41.2555 19.8134 39.6323C18.3885 34.8512 25.7928 34.9395 28.4317 34.7153C33.8544 34.2496 39.5997 34.1904 44.8466 32.4139C50.6385 30.4658 54.754 26.3104 57.6503 20.9926" fill="url(#paint3_linear_14_2197)"/>
<path d="M65.8406 17.9053C65.8199 15.3216 64.9504 12.8163 63.3659 10.7753C59.3388 5.67579 51.5004 5.51579 46.101 8.28467C39.9042 11.4535 38.9251 19.8535 41.3524 25.7671C41.464 26.0387 39.1834 25.962 39.0076 25.9737C37.3719 26.092 33.9831 25.7787 33.3265 27.7976C33.1455 28.5194 33.2292 29.2821 33.5623 29.9475C33.8938 30.6105 34.4532 31.1318 35.138 31.4156C35.7106 31.5713 36.3046 31.6332 36.8969 31.5989H49.6248C52.9428 31.5989 55.4517 31.009 57.4448 28.1343C58.4772 26.6528 59.2621 24.9938 60.3762 23.5598" fill="url(#paint4_linear_14_2197)"/>
<path d="M16.4245 19.7887C16.5652 20.041 16.6259 20.3301 16.5987 20.6177C16.5714 20.9053 16.4576 21.1779 16.2721 21.3994C16.1344 21.5645 15.9607 21.6958 15.7644 21.7833C15.568 21.8708 15.3543 21.9122 15.1394 21.9043C14.9246 21.8963 14.7145 21.8392 14.5251 21.7374C14.3358 21.6356 14.1724 21.4917 14.0473 21.3169C13.921 21.1419 13.8361 20.9404 13.799 20.7278C13.762 20.5151 13.7737 20.2969 13.8333 20.0894C13.8929 19.882 13.9989 19.6908 14.1432 19.5303C14.2875 19.3698 14.4665 19.2442 14.6664 19.1629C14.8227 19.0872 14.9925 19.0433 15.1659 19.0338C15.3393 19.0243 15.5129 19.0494 15.6765 19.1077C15.8402 19.1659 15.9905 19.2561 16.1189 19.373C16.2474 19.4899 16.3512 19.6312 16.4245 19.7887V19.7887Z" fill="url(#paint5_linear_14_2197)"/>
<path d="M22.3987 8.34973C22.6154 8.71552 22.8853 9.02798 23.137 9.38212C23.2732 9.56601 23.3891 9.76409 23.4828 9.97289C23.5737 10.1786 23.6465 10.3919 23.7003 10.6103C23.7997 11.0207 23.8759 11.4363 23.9286 11.8552C24.003 12.2811 24.0558 12.7105 24.0869 13.1417C24.2118 14.9102 23.9581 16.6851 23.3428 18.3478C22.7236 19.998 21.751 21.4928 20.4931 22.7274C19.8723 23.3392 19.1772 23.8708 18.4241 24.3097C18.0402 24.5248 17.6302 24.6895 17.2042 24.7997C16.7808 24.9055 16.3378 24.9055 15.9144 24.7997C16.7306 24.711 17.497 24.3635 18.1017 23.8081C18.7262 23.2838 19.3029 22.7049 19.8248 22.0783C20.8591 20.8333 21.6793 19.4251 22.2521 17.9112C22.8271 16.3997 23.1538 14.8051 23.2194 13.1892V11.9735C23.2274 11.5596 23.2118 11.1457 23.1728 10.7336C23.1592 10.5349 23.1297 10.3377 23.0845 10.1437C23.038 9.94088 22.9713 9.74324 22.8853 9.55376C22.6886 9.16724 22.5258 8.7644 22.3987 8.34973V8.34973Z" fill="url(#paint6_linear_14_2197)"/>
<defs>
<linearGradient id="paint0_linear_14_2197" x1="2.40823" y1="25.267" x2="25.0604" y2="25.267" gradientUnits="userSpaceOnUse">
<stop stop-color="#FB8530"/>
<stop offset="1" stop-color="#FEB50B"/>
</linearGradient>
<linearGradient id="paint1_linear_14_2197" x1="8.19464" y1="16.3047" x2="66.3463" y2="16.3047" gradientUnits="userSpaceOnUse">
<stop stop-color="#FB8530"/>
<stop offset="1" stop-color="#FEB50B"/>
</linearGradient>
<linearGradient id="paint2_linear_14_2197" x1="0.20398" y1="13.0473" x2="23.7832" y2="13.0473" gradientUnits="userSpaceOnUse">
<stop stop-color="#FB8530"/>
<stop offset="1" stop-color="#FEB50B"/>
</linearGradient>
<linearGradient id="paint3_linear_14_2197" x1="19.6331" y1="26.1774" x2="66.0237" y2="26.1774" gradientUnits="userSpaceOnUse">
<stop stop-color="#FB8530"/>
<stop offset="1" stop-color="#FEB50B"/>
</linearGradient>
<linearGradient id="paint4_linear_14_2197" x1="33.2331" y1="19.0512" x2="65.8406" y2="19.0512" gradientUnits="userSpaceOnUse">
<stop stop-color="#FB8530"/>
<stop offset="1" stop-color="#FEB50B"/>
</linearGradient>
<linearGradient id="paint5_linear_14_2197" x1="13.7779" y1="20.4685" x2="16.605" y2="20.4685" gradientUnits="userSpaceOnUse">
<stop stop-color="#FB8530"/>
<stop offset="1" stop-color="#FEB50B"/>
</linearGradient>
<linearGradient id="paint6_linear_14_2197" x1="15.9144" y1="16.6144" x2="24.1179" y2="16.6144" gradientUnits="userSpaceOnUse">
<stop stop-color="#FB8530"/>
<stop offset="1" stop-color="#FEB50B"/>
</linearGradient>
</defs>
</svg>
