<svg width="158" height="169" viewBox="0 0 158 169" fill="none" xmlns="http://www.w3.org/2000/svg">
<path d="M106.337 81.0885L104.181 67.5669C104.181 67.5669 63.5723 53.0974 56.6506 59.2104C49.7289 65.3234 29.7811 84.0363 29.7811 84.0363L42.6071 95.0276L44.6419 93.1928L44.2332 96.045L47.0854 98.4884L65.1983 82.2016L64.1809 86.2798L65.607 87.2972C73.9548 83.6276 106.311 81.0885 106.311 81.0885H106.337Z" fill="#402F42"/>
<path d="M101.433 53.306L91.6937 49.4017C84.4329 54.9669 76.9112 60.5843 75.9286 60.8973C73.8938 61.506 67.546 53.7582 65.6243 54.5408C63.7026 55.3234 70.1199 59.1234 69.1026 59.8017C68.0852 60.4799 59.6331 56.5495 59.6331 56.5495C60.3235 58.6834 61.7793 60.4861 63.72 61.6103C64.72 62.1234 65.4591 62.4799 65.4591 62.4799C64.8527 62.2469 64.2702 61.9557 63.72 61.6103C62.2219 60.9266 60.8537 59.988 59.6765 58.8364C59.1635 58.2277 58.607 61.5843 62.8243 64.6364L63.9809 65.3929C63.5548 65.1408 63.1722 64.8886 62.8243 64.6364L60.2157 62.8973C60.2157 62.8973 61.9548 70.3842 76.346 69.5494C84.172 69.0973 93.2242 65.1147 100.963 60.7929C100.059 59.1234 99.7459 56.6626 101.433 53.306Z" fill="#D8864E"/>
<path d="M127.685 16.515C127.685 16.515 122.328 17.2106 117.172 10.6368L117.067 10.5063C116.737 10.089 116.572 9.83679 116.572 9.83679C116.572 9.83679 112.537 12.7759 111.181 19.3498C111.054 20.2689 110.993 21.1959 110.998 22.1237C110.998 31.4366 117.85 30.7497 117.85 30.7497C120.937 30.8481 123.946 29.7694 126.267 27.7323C125.711 24.7323 125.859 21.2106 127.685 16.515Z" fill="#FF9F5A"/>
<path d="M110.972 20.2629C110.972 20.2629 106.12 7.71515 117.824 2.21953C129.528 -3.27609 138.694 5.69777 140.511 18.4977C142.328 31.2976 150.233 19.9325 156.346 27.6629L156.407 27.7411C157.373 29.005 157.826 30.5874 157.674 32.1711C157.522 33.7548 156.778 35.2226 155.589 36.2802C154.014 37.7404 152.261 38.9967 150.372 40.0193C145.789 42.341 136.189 45.5236 129.441 43.1236C123.807 41.1237 127.407 33.9585 126.276 27.6976C125.746 24.7324 125.894 21.1672 127.72 16.5151C121.998 16.8194 118.642 12.4021 117.207 10.6369L117.102 10.5064L116.607 9.83689C116.607 9.83689 113.72 12.3151 112.694 14.9586C112.028 16.7013 111.473 18.4846 111.033 20.2977" fill="#F03400"/>
<path d="M120.05 39.2628C122.735 37.0431 125.966 35.5838 129.407 35.0367C128.354 31.767 128.112 28.2903 128.702 24.9064C125.224 30.8107 117.824 30.715 117.824 30.715L119.241 35.2889L118.424 37.628L120.05 39.2628Z" fill="#FF9F5A"/>
<path d="M117.824 30.7151L119.241 35.289C119.241 35.289 126.076 34.6803 126.241 27.6978C126.241 27.6978 123.581 30.3586 117.824 30.7151Z" fill="#CB2909"/>
<path d="M118.424 37.6279L120.05 39.2627C120.05 39.2627 128.911 31.3236 138.98 36.8193C149.05 42.3149 145.702 69.4886 133.18 86.2798L106.311 81.0624L103.563 63.6712C103.563 63.6712 97.7633 60.6191 101.433 53.2974L90.7459 49.0366C90.7459 49.0366 105.528 29.3932 119.241 35.2975L118.424 37.6279Z" fill="#148ACC"/>
<path d="M106.337 63.9931C108.471 64.2589 110.637 63.9777 112.633 63.1757C115.476 61.854 118.833 63.9931 120.667 66.28" stroke="#001953" stroke-width="0.86956" stroke-linecap="round" stroke-linejoin="round"/>
<path d="M120.667 42.0803C127.38 43.4281 132.163 37.9847 132.415 34.9064C125.354 34.5151 120.05 39.2542 120.05 39.2542L118.424 37.6194L119.241 35.2803C118.384 34.8998 117.489 34.6084 116.572 34.4108C116.572 34.4108 113.946 40.7325 120.667 42.0803Z" fill="#C4C5C6"/>
<path d="M106.311 81.0886C106.311 81.0886 73.955 83.6278 65.6072 87.2973C57.2594 90.9668 53.1899 93.8103 54.0073 106.219C54.8246 118.628 56.042 138.601 55.4333 143.062L72.7289 144.288L73.955 141.027L74.3637 144.288H79.0419C79.0419 144.288 77.6158 133.697 77.8158 126.575C78.0158 119.454 78.8332 116.601 78.2245 114.567C77.6158 112.532 73.3376 112.688 73.3376 112.688C73.3376 112.688 105.72 112.123 117.824 110.08C129.929 108.036 136.442 94.4277 133.181 86.2712L106.311 81.0886Z" fill="#402F42"/>
<path d="M67.4677 63.8193C67.1263 63.9158 66.7607 63.873 66.4509 63.7002C66.1412 63.5274 65.9126 63.2387 65.8155 62.8976L60.3025 43.1412C60.2086 42.8011 60.2528 42.4377 60.4254 42.1299C60.598 41.8222 60.885 41.595 61.2242 41.4977C61.3938 41.4501 61.5711 41.4364 61.746 41.4574C61.9208 41.4785 62.0898 41.5338 62.2433 41.6202C62.3968 41.7066 62.5317 41.8225 62.6403 41.9611C62.749 42.0998 62.8292 42.2585 62.8764 42.4282L68.3981 62.1759C68.4892 62.5171 68.4428 62.8805 68.2688 63.1878C68.0948 63.4952 67.8071 63.7219 67.4677 63.8193V63.8193Z" fill="#C4C5C6"/>
<path d="M66.1809 64.1496C65.9272 64.2193 65.6563 64.1864 65.4268 64.0578C65.1973 63.9292 65.0277 63.7154 64.9548 63.4626L59.2505 43.0453C59.1807 42.7917 59.2137 42.5208 59.3423 42.2913C59.4708 42.0618 59.6847 41.8922 59.9375 41.8193V41.8193C60.1923 41.7498 60.4642 41.784 60.6939 41.9143C60.9236 42.0446 61.0925 42.2605 61.1635 42.5149L66.8678 62.9496C66.9299 63.1996 66.8932 63.4639 66.7652 63.6874C66.6372 63.911 66.4279 64.0765 66.1809 64.1496V64.1496Z" fill="#818589"/>
<path d="M119.241 35.2888L117.824 30.7149C117.824 30.7149 110.972 31.4019 110.972 22.0889C110.972 21.4628 110.972 20.8628 111.041 20.2976H110.972C110.972 20.2976 104.537 26.9323 106.337 32.1236C106.72 33.2106 107.111 34.3584 107.45 35.5236C111.207 34.0192 115.267 33.5845 119.241 35.2888Z" fill="#F03400"/>
<path d="M128.754 18.8804C128.754 18.8804 131.581 16.9761 132.72 19.75C133.002 20.3016 133.1 20.929 133 21.5405C132.9 22.1519 132.608 22.7155 132.165 23.1487C131.722 23.5819 131.152 23.8621 130.538 23.9484C129.925 24.0347 129.3 23.9225 128.754 23.6282C128.754 23.6282 129.954 20.863 128.754 18.8804Z" fill="#FF9F5A"/>
<path d="M132.415 24.2453C132.415 24.6086 132.307 24.9637 132.105 25.2656C131.903 25.5675 131.616 25.8026 131.281 25.9412C130.945 26.0799 130.575 26.1157 130.219 26.0442C129.863 25.9727 129.536 25.7971 129.28 25.5396C129.024 25.2821 128.85 24.9544 128.78 24.5979C128.71 24.2414 128.748 23.8722 128.888 23.5371C129.028 23.202 129.265 22.9161 129.567 22.7155C129.87 22.5149 130.226 22.4088 130.589 22.4105C130.83 22.4105 131.068 22.4581 131.29 22.5504C131.512 22.6427 131.714 22.778 131.884 22.9484C132.053 23.1189 132.188 23.3213 132.279 23.5438C132.37 23.7664 132.416 24.0048 132.415 24.2453V24.2453Z" fill="#FFEE3A"/>
<path d="M124.241 39.9672C124.24 40.1509 124.184 40.3299 124.08 40.4817C123.977 40.6336 123.831 40.7515 123.661 40.8206C123.491 40.8897 123.304 40.9069 123.124 40.87C122.944 40.8331 122.779 40.7438 122.65 40.6134C122.521 40.4829 122.433 40.3171 122.398 40.1369C122.363 39.9566 122.382 39.77 122.452 39.6005C122.523 39.431 122.642 39.2862 122.795 39.1843C122.948 39.0824 123.127 39.0281 123.311 39.0281C123.434 39.0281 123.556 39.0524 123.669 39.0997C123.783 39.147 123.885 39.2163 123.972 39.3037C124.059 39.391 124.127 39.4946 124.173 39.6085C124.219 39.7224 124.243 39.8443 124.241 39.9672V39.9672Z" fill="#FFEE3A"/>
<path d="M33.0332 86.8276C33.0332 86.8276 27.0332 93.7059 23.7811 95.5232C20.5289 97.3406 12.5898 98.8797 9.22463 99.0797C5.85944 99.2797 0.781197 102.749 0.981196 106.61C1.18119 110.471 15.842 106.61 20.7289 107.019C25.6159 107.428 28.0506 107.323 30.3984 104.271C32.7462 101.219 41.3027 96.8276 41.294 93.8363L33.0332 86.8276Z" fill="#D8864E"/>
<path d="M25.8158 101.21C25.8158 101.21 25.2593 103.758 22.9637 103.819" stroke="#CB2909" stroke-width="0.86956" stroke-linecap="round" stroke-linejoin="round"/>
<path d="M73.9549 141.027L72.7288 144.288L61.2593 143.48C61.2593 143.48 61.1115 154.358 56.9897 157.106C52.868 159.853 40.3898 161.453 41.2768 165.506C41.8681 168.236 43.2507 168.558 52.2593 167.636C61.268 166.714 66.3027 164.74 70.8853 165.958C75.4679 167.175 72.8679 157.106 73.6331 151.914C74.1201 148.601 75.5375 146.654 76.1027 144.288H74.3636L73.9549 141.027Z" fill="#FF9F5A"/>
<path d="M1.03326 105.715C1.03326 105.715 4.79845 104.532 6.0767 104.993" stroke="#CB2909" stroke-width="0.86956" stroke-linecap="round" stroke-linejoin="round"/>
<path d="M2.12909 103.184C2.12909 103.184 4.73776 102.401 6.0508 102.758" stroke="#CB2909" stroke-width="0.86956" stroke-linecap="round" stroke-linejoin="round"/>
<path d="M4.54657 100.906C4.54657 100.906 6.47699 100.323 7.15525 100.906" stroke="#CB2909" stroke-width="0.86956" stroke-linecap="round" stroke-linejoin="round"/>
<path d="M127.181 85.1146C127.181 85.1146 130.737 103.271 114.25 103.784C97.7634 104.297 65.607 106.123 70.6244 112.688C75.6417 119.254 71.6592 127.236 73.9548 141.027" stroke="white" stroke-width="0.5" stroke-miterlimit="10"/>
<path d="M117.824 83.3062C117.337 83.2192 107.32 97.3931 121.624 101.837" stroke="white" stroke-width="0.86956" stroke-miterlimit="10"/>
<path d="M95.1721 82.132C95.1721 82.132 72.3722 77.5494 68.0331 78.0972C63.694 78.6451 44.6158 93.1928 44.6158 93.1928" stroke="white" stroke-width="0.86956" stroke-miterlimit="10"/>
<path d="M93.3372 47.5757L102.346 51.7756" stroke="#001953" stroke-width="0.86956" stroke-linecap="round" stroke-linejoin="round"/>
<path d="M101.433 53.3062L107.154 46.5845" stroke="#001953" stroke-width="0.86956" stroke-linecap="round" stroke-linejoin="round"/>
<path d="M116.781 19.6021C116.781 19.6021 115.215 23.9499 117.511 23.4977" stroke="#CB2909" stroke-width="0.86956" stroke-linecap="round" stroke-linejoin="round"/>
<path d="M119.972 24.1151C119.972 24.1934 119.824 27.4977 116.589 26.6194" stroke="#CB2909" stroke-width="0.86956" stroke-linecap="round" stroke-linejoin="round"/>
<path d="M131.537 19.9235C131.537 19.9235 130.102 19.567 129.633 22.1757C129.633 22.1757 130.285 20.8714 131.372 21.4801" stroke="#CB2909" stroke-width="0.86956" stroke-linecap="round" stroke-linejoin="round"/>
<path d="M122.189 22.5932C122.189 22.5932 121.537 21.2889 121.12 21.4976C120.702 21.7063 121.676 24.8454 121.772 24.8193C121.867 24.7932 124.441 23.1672 123.894 22.6019C123.346 22.0367 122.189 22.5932 122.189 22.5932Z" fill="#F8593E"/>
<path d="M113.189 22.2453C113.189 22.2453 114.059 21.054 114.424 21.3323C114.789 21.6105 113.337 24.5497 113.241 24.5062C113.146 24.4627 110.876 22.454 111.502 21.9758C112.128 21.4975 113.189 22.2453 113.189 22.2453Z" fill="#F8593E"/>
<path d="M119.111 19.7587C119.181 19.6908 119.264 19.6381 119.355 19.6037C119.447 19.5693 119.544 19.554 119.641 19.5587C119.789 19.5607 119.932 19.6066 120.053 19.6907C120.174 19.7748 120.267 19.8931 120.321 20.0305C120.374 20.1679 120.385 20.3181 120.352 20.4618C120.319 20.6055 120.244 20.7361 120.137 20.8369C120.042 20.9283 119.925 20.9941 119.798 21.0282H119.607C119.408 21.0222 119.221 20.9378 119.085 20.7935C119.017 20.7237 118.964 20.6406 118.929 20.5493C118.895 20.4579 118.88 20.3605 118.885 20.263C118.892 20.072 118.973 19.8912 119.111 19.7587V19.7587Z" fill="#001953"/>
<path d="M112.668 19.0806C112.738 19.0124 112.821 18.9589 112.912 18.923C113.003 18.8872 113.1 18.8698 113.198 18.8719C113.396 18.8787 113.583 18.9626 113.719 19.1056C113.856 19.2486 113.931 19.4394 113.928 19.6371C113.922 19.8352 113.838 20.0229 113.694 20.1588C113.598 20.2527 113.477 20.3162 113.346 20.3414H113.163C112.965 20.3354 112.777 20.251 112.642 20.1067C112.505 19.9638 112.431 19.7735 112.433 19.5762C112.446 19.3872 112.529 19.2101 112.668 19.0806Z" fill="#001953"/>
<path d="M142.337 58.2888C144.528 55.1236 148.85 48.4193 141.224 42.7932C137.285 39.8976 130.328 46.7932 130.328 46.7932L117.285 58.8627C118.685 60.8192 122.502 65.1844 131.198 70.0974C135.348 66.5981 139.085 62.6362 142.337 58.2888Z" fill="#28A5EB"/>
<path d="M119.059 58.1146C122.236 62.241 126.431 65.4712 131.233 67.4885" stroke="#F97B43" stroke-width="0.86956" stroke-linecap="round" stroke-linejoin="round"/>
<path d="M117.285 58.8627L111.198 64.4974C111.198 64.4974 75.5459 67.3496 73.5459 66.7409C71.5459 66.1322 70.4938 56.1496 68.459 55.7496C66.4242 55.3496 69.6764 62.054 68.459 62.054C67.2416 62.054 62.3721 54.1149 62.3721 54.1149C61.7678 56.2782 61.9846 58.5886 62.9808 60.6018C63.5373 61.567 63.9981 62.2626 63.9981 62.2626C63.6177 61.7388 63.2831 61.1831 62.9982 60.6018C62.1356 59.1996 61.5153 57.6622 61.1634 56.054C61.0677 55.2453 58.7373 57.7931 60.6069 62.6887L61.1286 63.8887C60.9257 63.4713 60.7518 63.0714 60.6069 62.6887L59.3286 59.7148C59.3286 59.7148 56.7199 66.9409 69.1025 74.1669C81.485 81.393 103.807 80.9843 112.354 80.7843C117.302 80.6626 124.789 75.7321 131.25 70.0974C122.493 65.1844 118.65 60.8192 117.285 58.8627Z" fill="#FF9F5A"/>
</svg>
