<svg width="99" height="192" viewBox="0 0 99 192" fill="none" xmlns="http://www.w3.org/2000/svg">
<path d="M46.9112 32.4001C46.5881 32.2318 46.2748 32.0454 45.9729 31.8416C45.9729 33.4166 45.6601 35.2318 44.6268 36.3098C43.4483 37.5553 46.7492 40.4038 50.3908 39.8676C54.0325 39.3315 55.8142 37.533 55.8142 37.533C55.8142 37.533 53.7979 35.9579 53.7085 32.0482L53.3566 32.2605C52.3778 32.8154 51.2765 33.1187 50.1515 33.143C49.0266 33.1674 47.9132 32.9121 46.9112 32.4001V32.4001Z" fill="#E29B8D"/>
<path d="M62.1195 20.3415C61.7621 19.1183 60.4439 19.7383 60.4439 19.7383C60.8293 15.5493 60.2038 3.70288 48.5975 4.54068C36.9912 5.37848 38.9461 19.783 38.9461 19.783C37.4604 19.0513 36.5891 20.6655 37.6447 23.352C38.6054 25.7984 40.7334 25.3683 40.7334 25.3683C41.8508 27.9735 43.6729 30.2153 45.9947 31.8417C46.2967 32.0455 46.61 32.232 46.9331 32.4002C47.9337 32.9148 49.0463 33.1729 50.1713 33.1515C51.2962 33.13 52.3983 32.8297 53.3785 32.2773L53.7304 32.0651C57.5005 29.6913 59.109 25.2845 59.109 25.2845C61.7565 25.9715 62.4714 21.5647 62.1195 20.3415Z" fill="#EAB2A5"/>
<path d="M61.5111 20.4979C61.5837 20.5761 61.2374 20.079 60.8688 20.3359C60.6802 20.5266 60.55 20.7673 60.4936 21.0295C60.4372 21.2917 60.4569 21.5646 60.5504 21.816C60.7738 22.1176 61.0475 22.799 60.5504 23.1062C60.0533 23.4134 60.2153 23.5642 60.2153 23.5642C60.3611 23.384 60.5546 23.2485 60.7738 23.1732C61.1257 23.0559 61.1257 22.4416 60.7738 21.9668C60.4219 21.4921 60.9134 19.8165 61.5111 20.4979Z" fill="#BC6262"/>
<path d="M37.9186 20.5647C37.8627 20.6485 38.1476 20.1235 38.5441 20.3357C38.7533 20.5037 38.9093 20.7286 38.9936 20.9833C39.0778 21.238 39.0866 21.5116 39.0189 21.7711C38.829 22.1007 38.6335 22.8044 39.1417 23.0558C39.65 23.3071 39.5271 23.4747 39.5271 23.4747C39.362 23.3149 39.1579 23.2013 38.9351 23.1451C38.5776 23.0669 38.5106 22.4581 38.8066 21.9499C39.1026 21.4416 38.438 19.8219 37.9186 20.5647Z" fill="#BC6262"/>
<path d="M48.162 27.8872C48.3923 28.1726 48.6846 28.4018 49.0167 28.5573C49.3489 28.7128 49.7121 28.7906 50.0788 28.7846C50.4454 28.7787 50.806 28.6893 51.1329 28.5231C51.4599 28.357 51.7446 28.1185 51.9656 27.8258C52.189 27.4907 51.6528 27.1835 51.407 27.513C50.7536 28.496 49.2399 28.3005 48.5753 27.4516C48.3295 27.1332 47.8939 27.5745 48.134 27.8872H48.162Z" fill="#1D2937"/>
<path d="M43.9897 25.1223C44.6468 25.1223 45.1794 24.5896 45.1794 23.9326C45.1794 23.2756 44.6468 22.7429 43.9897 22.7429C43.3327 22.7429 42.8 23.2756 42.8 23.9326C42.8 24.5896 43.3327 25.1223 43.9897 25.1223Z" fill="#CE7A7A"/>
<path d="M44.5323 22.2467C45.1055 22.2226 45.5418 21.5284 45.5068 20.6963C45.4718 19.8642 44.9787 19.2092 44.4055 19.2333C43.8322 19.2574 43.3959 19.9516 43.4309 20.7837C43.4659 21.6158 43.959 22.2708 44.5323 22.2467Z" fill="#332535"/>
<path d="M43.6825 18.4759C43.5875 18.5988 43.6825 18.4759 43.7551 18.4424C43.9148 18.3677 44.0839 18.3151 44.2578 18.286C44.4685 18.2475 44.6856 18.2629 44.8889 18.3307C44.9447 18.3307 45.1067 18.4535 45.0564 18.4089C45.3916 18.6937 45.8831 18.2078 45.5424 17.9173C45.1748 17.6547 44.7258 17.5313 44.2756 17.5692C43.8255 17.6071 43.4034 17.8037 43.0848 18.124C42.8167 18.4815 43.4144 18.8222 43.6825 18.4759V18.4759Z" fill="#332535"/>
<path d="M55.3782 25.1223C56.0352 25.1223 56.5679 24.5896 56.5679 23.9326C56.5679 23.2756 56.0352 22.7429 55.3782 22.7429C54.7212 22.7429 54.1885 23.2756 54.1885 23.9326C54.1885 24.5896 54.7212 25.1223 55.3782 25.1223Z" fill="#CE7A7A"/>
<path d="M55.9566 20.7978C55.9916 19.9657 55.5553 19.2716 54.982 19.2475C54.4088 19.2233 53.9157 19.8783 53.8807 20.7105C53.8457 21.5426 54.282 22.2367 54.8552 22.2608C55.4285 22.285 55.9215 21.63 55.9566 20.7978Z" fill="#332535"/>
<path d="M55.6853 18.476C55.7802 18.5989 55.6853 18.476 55.6127 18.4425C55.453 18.3679 55.2839 18.3153 55.11 18.2861C54.8992 18.2477 54.6821 18.263 54.4789 18.3308C54.423 18.3308 54.261 18.4537 54.3113 18.409C53.9706 18.6938 53.4791 18.2079 53.8198 17.9175C54.1887 17.6555 54.6383 17.5326 55.0891 17.5704C55.54 17.6083 55.9629 17.8044 56.2829 18.1241C56.551 18.4816 55.9534 18.8223 55.6853 18.476V18.476Z" fill="#332535"/>
<path d="M48.9828 19.7103C49.204 19.9535 49.3629 20.2467 49.4456 20.5649C49.5283 20.8831 49.5324 21.2166 49.4575 21.5367C49.2173 22.3913 48.4075 23.1229 48.4968 23.8323C48.5862 24.5416 50.4238 24.6031 50.4238 24.6031C50.4238 24.6031 48.5918 24.2233 48.7482 23.6368C48.8766 22.9442 50.7365 20.7101 48.9828 19.7103Z" fill="#CE7A7A"/>
<path d="M63.8903 10.9134C60.4106 6.81935 65.3033 5.4677 60.8686 1.83725C57.0259 -1.30728 51.7646 1.90427 50.4241 2.82027C50.4241 2.82027 43.973 -1.23467 39.5383 2.39578C35.1036 6.02624 38.8737 7.86938 35.3996 11.9634C31.9255 16.0574 27.4964 13.5161 28.8927 19.7102C30.289 25.9044 34.8467 24.1282 33.7296 27.3398C32.6125 30.5513 34.5339 31.741 37.159 33.1485C38.6726 33.964 42.331 34.7515 45.3191 35.2709C45.7659 34.1835 45.9882 33.017 45.9726 31.8415C43.6508 30.2152 41.8287 27.9734 40.7112 25.3682C40.7112 25.3682 38.5832 25.7982 37.6225 23.3519C36.5669 20.6653 37.4382 19.0512 38.9239 19.7828C39.2981 19.9895 40.1862 20.7603 40.7894 23.5194C40.7894 23.5194 40.0242 18.4089 41.4206 16.387C42.8169 14.3651 46.4473 14.3595 48.6815 12.1254C49.1138 11.6742 49.489 11.1714 49.7985 10.6285C50.0977 11.136 50.4578 11.6049 50.8709 12.0249C53.105 14.259 56.7355 14.259 58.1318 16.2864C59.5281 18.3139 58.7574 23.4189 58.7574 23.4189C59.4667 20.2129 60.4665 19.7102 60.7234 19.6321C60.8604 19.5784 61.0072 19.5545 61.1541 19.5618C61.3011 19.5692 61.4448 19.6076 61.5757 19.6747C61.7067 19.7418 61.8219 19.8359 61.9138 19.9508C62.0056 20.0657 62.072 20.1989 62.1086 20.3414C62.4604 21.5646 61.7399 25.9714 59.0757 25.2844C59.0757 25.2844 57.4672 29.6912 53.6971 32.0649C53.7105 33.1932 53.9281 34.3096 54.3394 35.3603C57.4783 34.8408 61.6003 34.0086 63.1865 33.1262C65.8116 31.7187 67.7274 30.5346 66.6103 27.3174C65.4932 24.1003 70.0564 25.8764 71.4528 19.6879C72.8491 13.4994 67.342 15.0074 63.8903 10.9134Z" fill="#332535"/>
<path d="M65.9403 91.9002C65.3817 88.9456 60.3047 77.0712 60.3047 77.0712C60.3047 77.0712 56.5346 77.7526 49.1341 77.7526C44.7321 77.7676 40.3498 77.166 36.1147 75.9653V75.9653L29.4124 91.9002C29.4124 91.9002 43.2807 101.769 43.5599 101.58C43.8392 101.39 67.3422 96.8209 67.3422 96.8209C66.731 95.2251 66.2619 93.5785 65.9403 91.9002V91.9002Z" fill="#332535"/>
<path d="M58.5452 91.085C58.5452 91.085 63.2424 90.99 66.1245 94.3412C69.0065 97.6924 67.6157 107.841 65.3816 113.985C63.1475 120.129 64.1696 121.989 62.1254 122.921C60.0812 123.854 52.4405 124.692 50.9548 121.525C49.4691 118.358 49.8377 102.351 49.1842 100.58C48.5307 98.8095 51.8931 91.8055 58.5452 91.085Z" fill="#3B2A3D"/>
<path d="M43.0628 166.721C43.0628 166.721 43.4817 167.006 41.8005 167.631C40.1193 168.257 38.3152 169.251 38.7174 171.977C39.1195 174.702 38.656 176.333 37.7176 177.987C36.7793 179.64 35.8521 181.176 36.042 183.74C36.2319 186.303 37.4216 189.71 38.4828 190.246C39.544 190.783 42.7556 191.922 43.6716 191.017C44.5875 190.112 45.47 181.919 45.4533 181.154C45.4365 180.388 45.7381 174.758 46.6318 172.938C47.5254 171.117 49.0055 168.927 48.9329 168.43C48.8603 167.933 43.0516 166.721 43.0516 166.721" fill="#F97B43"/>
<path d="M50.4519 116.951C50.4519 116.951 48.9662 130.428 47.1622 135.572C45.3581 140.716 42.6939 164.208 42.1354 167.034C41.5769 169.86 46.7768 171.301 47.8045 170.944C48.8322 170.586 52.7084 156.545 55.9535 149.418C59.1985 142.291 59.8632 137.957 61.159 131.188C62.4548 124.418 63.6277 122.927 64.0857 118.207C64.4096 114.912 51.636 109.584 50.4519 116.951Z" fill="#402F42"/>
<path d="M0.245649 101.775C0.245649 101.775 -0.525119 97.4857 12.6953 93.481C25.9157 89.4763 31.9646 89.387 34.4333 90.0405C36.902 90.6939 42.8113 94.5813 42.1355 97.5694C41.4596 100.558 4.55192 107.366 0.245649 101.775Z" fill="#3B2A3D"/>
<path d="M69.2914 97.3907C67.0573 97.67 65.0075 95.6258 63.4268 96.1843C61.8462 96.7428 57.0037 98.6027 57.0037 98.6027L56.9255 98.6418C56.6213 100.797 57.1333 102.988 58.361 104.786C61.4887 104.707 65.4375 106.338 68.2693 107.55C71.5255 108.947 72.179 108.483 72.8269 106.338C73.4748 104.194 71.5255 97.1115 69.2914 97.3907Z" fill="#F97B43"/>
<path d="M58.3608 104.775C57.1331 102.977 56.6212 100.786 56.9254 98.6307C56.9254 98.5525 56.9254 98.4855 56.9589 98.4073C56.9924 98.3291 45.4085 98.0721 37.3153 97.0556C29.9539 96.1285 17.5601 94.8941 12.673 95.4526C7.78581 96.0112 2.96569 96.7205 1.01083 99.8874C-0.944024 103.054 -0.374323 107.517 12.4607 108.645C27.5411 109.974 39.8734 106.69 46.5758 106.176C52.1611 105.752 57.5621 105.294 58.3999 105.294C58.6289 105.305 58.5619 105.121 58.3608 104.775Z" fill="#402F42"/>
<path d="M94.6094 42.2749C95.5789 40.5685 96.3777 38.7706 96.9943 36.9074C97.6031 34.6733 98.6699 29.1606 97.8321 28.4122C96.9943 27.6637 96.6704 28.7194 96.5196 29.2779C96.2068 30.4731 95.8214 33.115 95.5701 34.1427C95.3187 35.1704 95.5031 33.0256 95.6315 31.9868C95.7712 30.7915 96.3297 27.2504 96.2627 26.731C96.1956 26.2116 95.7544 25.7145 95.3132 25.9155C94.3022 26.3791 93.8721 32.7966 93.6934 32.9754C93.5147 33.1541 93.8219 27.552 93.8889 26.7142C93.9559 25.8764 93.5985 24.5192 92.9059 24.7426C91.6213 25.1503 91.7888 30.8865 91.6604 32.0035C91.5263 33.5004 91.2638 31.4841 91.275 30.825C91.2862 30.166 90.9622 25.4799 90.2864 25.3235C89.3704 25.1168 88.9627 25.8262 89.0576 27.2225C89.1526 28.6188 89.5882 34.0198 89.281 34.3103C88.9738 34.6007 88.2757 33.6847 87.8344 32.8916C87.3932 32.0985 85.4439 30.3112 84.595 31.082C83.746 31.8527 84.7737 31.8751 85.5165 33.21C86.2148 34.3703 86.777 35.6072 87.1921 36.8963C87.5552 38.1474 88.9236 41.3645 90.0574 42.3643C91.1912 43.364 93.5091 43.2468 94.6094 42.2749Z" fill="#FEAC97"/>
<path d="M80.8638 58.5562C79.7223 59.8764 79.0367 61.5295 78.909 63.2702C78.8084 65.9902 79.6797 69.481 81.6346 70.006C83.5895 70.5311 88.0577 60.7512 88.0577 60.7512L80.8638 58.5562Z" fill="#FB8E55"/>
<path d="M82.4223 59.3324L75.463 51.3454C71.5924 46.4582 67.0068 40.9958 65.6607 40.0295C64.3147 39.0633 60.3044 38.0244 60.3044 38.0244C60.3044 38.0244 60.9132 46.6816 60.3044 47.983C59.6956 49.2844 63.0971 51.5185 66.9174 55.8304C72.5754 62.1809 80.6126 70.2126 81.6347 70.0282C82.5228 69.8663 82.3217 63.3706 81.6347 60.3601C82.0313 59.8071 82.4223 59.3324 82.4223 59.3324Z" fill="#F97B43"/>
<path d="M79.4623 60.8462L80.8642 58.5562C81.4227 58.344 90.0185 42.2415 90.0185 42.2415C90.0185 42.2415 93.9282 42.666 94.8051 42.1633C94.8051 42.1633 92.571 52.0605 88.544 59.8129C84.517 67.5653 83.5898 69.7939 81.635 70.0061C79.6801 70.2183 79.4623 60.8462 79.4623 60.8462Z" fill="#FB8E55"/>
<path d="M63.4323 47.6368C63.8512 40.7948 62.3152 38.6333 61.55 38.354C60.7848 38.0748 55.9926 36.8404 54.3896 35.4441C54.3896 35.4441 54.3896 38.5272 50.1057 38.7953C45.0063 39.1025 45.1292 35.6675 45.1292 35.6675C45.1292 35.6675 40.8117 37.5944 38.2984 38.0133C35.785 38.4322 35.0868 42.4816 35.3661 45.8328C35.5671 48.2344 36.3714 53.0937 37.1478 57.6513C37.455 59.4498 37.7566 61.198 38.0191 62.7283C38.5776 65.884 37.2707 71.4693 36.0922 75.9767C40.3272 77.1773 44.7096 77.7789 49.1115 77.764C56.54 77.764 60.2821 77.0826 60.2821 77.0826C59.6905 74.3851 59.3798 71.6336 59.355 68.8722C59.5225 63.4153 63.0078 54.4788 63.4323 47.6368Z" fill="#F97B43"/>
<path d="M43.8335 61.2761C45.5968 60.3214 47.6109 59.9315 49.6031 60.1591C51.686 60.3953 53.6978 61.0589 55.5124 62.1083C51.7056 61.1037 47.7443 60.8214 43.8335 61.2761V61.2761Z" fill="#E56239"/>
<path d="M62.9015 51.7197C62.9015 51.7197 63.5271 47.3073 63.4991 45.7266L63.3036 43.621L61.9576 56.0874L62.9015 51.7197" fill="#E56239"/>
<path d="M36.3489 44.5203C36.7409 46.1987 36.9581 47.9132 36.9968 49.6364C37.0471 52.3732 36.6115 55.1268 37.0359 57.076C37.4604 59.0253 37.5107 58.6679 37.5107 58.6679C37.5107 58.6679 36.7678 55.5401 37.0806 53.965C37.3934 52.39 37.7062 46.3131 36.3489 44.5203Z" fill="#E56239"/>
<path d="M38.2985 38.0244C38.2985 38.0244 33.7353 38.7673 31.5961 41.4705C29.4569 44.1738 28.7085 58.8744 27.8707 64.3703C27.0329 69.8663 25.9159 75.5968 29.9205 75.9878C32.8025 76.267 35.7292 64.3703 37.1479 57.6624C36.3716 53.1103 36.5503 47.6088 36.3548 45.2127C36.0644 41.8392 35.7795 38.421 38.2985 38.0244Z" fill="#F97B43"/>
<path d="M26.9043 72.352C26.9043 72.352 29.9204 65.9848 33.5508 61.5165C37.1813 57.0483 39.3093 54.8533 39.3093 54.8533C39.3093 54.8533 41.1748 57.9252 42.1969 58.2491C42.9397 58.4837 35.8184 71.3634 34.5729 73.1787C33.3274 74.9939 27.7142 78.9539 26.9043 72.352Z" fill="#FB8E55"/>
<path d="M54.4903 44.738H43.8335V58.6901H54.4903V44.738Z" fill="#F4E2DC"/>
<path d="M53.1273 44.738H44.8778V57.238H53.1273V44.738Z" fill="white"/>
<path d="M55.3171 55.3388H53.2784V53.6632H55.3171C56.032 53.6632 56.6296 52.8533 56.6296 51.8982V50.083C56.6296 49.1279 56.032 48.318 55.3171 48.318H53.7364V46.6425H55.3171C56.9647 46.6425 58.3052 48.184 58.3052 50.083V51.8982C58.3052 53.8084 56.9647 55.3388 55.3171 55.3388Z" fill="#F4E2DC"/>
<path d="M39.4156 55.5846C39.5218 55.4059 41.929 50.8427 43.2583 49.9993C45.4528 48.8211 47.7413 47.8272 50.1003 47.0279C50.9381 46.8548 51.5749 47.1899 51.6363 47.4468C51.7983 48.1841 50.3908 48.9492 49.3072 49.3681C47.8596 49.8942 46.4408 50.4963 45.0568 51.1722C44.7775 51.4291 48.0729 50.2395 49.2625 49.9267C50.4522 49.6139 51.8876 48.9213 52.4462 49.4072C53.0047 49.8932 53.1443 50.5913 52.1669 50.8818C51.1895 51.1722 47.1401 52.2669 45.7941 52.859C44.448 53.451 44.9339 53.2443 45.2355 53.1047C46.788 52.6395 48.3757 52.3014 49.9831 52.0938C51.3068 51.9877 51.9714 51.8145 52.2842 52.1273C52.597 52.4401 53.0885 53.2108 51.9714 53.6632C50.8544 54.1157 47.7098 54.501 46.9446 54.7803C46.4495 54.9696 45.989 55.2395 45.5818 55.579C46.1033 55.2893 46.6697 55.0891 47.2574 54.987C48.4806 54.7077 50.4355 54.1827 51.1113 54.4284C51.6363 54.6127 51.8318 55.1545 51.1113 55.5846C50.3908 56.0147 48.2851 56.3219 47.4808 56.7743C46.6765 57.2267 45.7717 58.2767 44.8948 58.5225C44.0179 58.7682 43.2807 57.9639 42.6607 57.6232C42.0407 57.2825 38.8571 56.4559 39.4156 55.5846Z" fill="#F4E2DC"/>
<path d="M38.9856 55.2885C39.0917 55.1098 41.499 50.5466 42.8227 49.7032C45.0166 48.5253 47.3052 47.5332 49.6647 46.7374C50.5025 46.5587 51.1448 46.8938 51.2007 47.1563C51.3683 47.888 49.9608 48.6532 48.8772 49.0721C47.4296 49.5981 46.0108 50.2003 44.6268 50.8761C44.3475 51.1331 47.6429 49.949 48.8269 49.6306C50.011 49.3122 51.4576 48.6253 52.0162 49.1112C52.5747 49.5971 52.7143 50.3008 51.7369 50.5857C50.7595 50.8706 46.7101 51.9709 45.364 52.5629C44.018 53.1549 44.4983 52.9539 44.8055 52.8087C46.3588 52.3467 47.9463 52.0087 49.553 51.7977C50.8823 51.6916 51.547 51.5184 51.8598 51.8312C52.1725 52.144 52.664 52.9148 51.547 53.3672C50.4299 53.8196 47.2854 54.205 46.5202 54.4842C46.025 54.6735 45.5645 54.9434 45.1574 55.2829C45.6818 55.0069 46.2478 54.8183 46.833 54.7244C48.0562 54.4451 50.011 53.9145 50.6868 54.1659C51.2119 54.3502 51.4073 54.8976 50.6868 55.322C49.9663 55.7465 47.8551 56.0593 47.0564 56.5117C46.2577 56.9641 45.3417 58.0142 44.4704 58.2599C43.5991 58.5057 41.89 58.6062 41.2588 58.2599C40.6277 57.9136 38.4383 56.1766 38.9856 55.2885Z" fill="#FEAC97"/>
</svg>
