<svg width="74" height="163" viewBox="0 0 74 163" fill="none" xmlns="http://www.w3.org/2000/svg">
<path d="M60.1142 57.2346C58.2571 57.9734 56.2472 58.2456 54.2605 58.0272C52.2738 57.8088 50.371 57.1065 48.7188 55.9819C45.5173 53.6891 42.5517 51.9854 38.4639 51.8625C35.9219 51.7866 33.5445 52.8553 31.1242 53.4653C28.998 54.0035 27.3739 55.7215 25.079 56.0395C22.067 56.4543 18.9833 54.5952 17.6174 51.8483C16.2511 49.1008 16.5416 45.6929 18.0725 43.0398C19.1805 41.094 20.2023 39.6497 18.9547 37.4838C18.6467 37.036 18.3803 36.5611 18.1587 36.0649C17.9991 35.5764 17.937 35.0613 17.9757 34.5488C18.0868 31.7473 20.1952 29.6497 21.5972 27.3288C21.9576 26.8074 22.2145 26.2216 22.3539 25.6032C22.6047 24.0111 21.35 22.6356 20.6793 21.1735C18.5103 16.4298 22.2138 11.0364 25.8174 8.17733C27.94 6.4986 30.479 5.81977 32.7846 4.45191C33.8278 3.83067 34.7783 3.05806 35.8358 2.45517C37.6786 1.40838 39.6866 1.3722 41.7307 1.65403C47.5573 2.47351 54.1836 6.74067 55.5315 12.8777C56.4494 17.0363 54.9506 21.8737 59.0419 24.7908C60.2757 25.6679 61.8352 26.1913 62.674 27.4511C64.4669 30.1374 61.8352 34.1085 63.4701 36.8916C63.8763 37.4841 64.3477 38.0291 64.8757 38.5163C66.1779 39.9053 67.1708 41.5547 67.7889 43.3555C68.4069 45.1564 68.6362 47.0678 68.4614 48.9638C68.4037 49.8921 68.1535 50.7982 67.7266 51.6245C67.1063 52.736 66.0519 53.5194 65.0194 54.2599C63.5145 55.4194 61.8819 56.403 60.1534 57.1913L60.1142 57.2346Z" fill="#181C25"/>
<path d="M65.3995 41.6967C63.5888 40.1337 63.202 37.3939 63.7254 35.0511C64.0658 33.5202 64.7436 32.0254 64.6824 30.4552C64.6296 29.472 64.2916 28.5254 63.7097 27.731C63.1277 26.9367 62.3271 26.329 61.4055 25.9822C60.4657 25.6468 59.4297 25.6214 58.5368 25.1703C57.1781 24.5165 56.4284 23.1374 55.93 21.7695C55.3888 20.2819 55.6146 19.0079 55.6074 17.4372C55.6217 15.4426 55.5355 13.4486 55.349 11.4627C55.1161 9.17396 53.7534 6.90662 52.1939 5.2605C51.9717 5.02608 51.7383 4.79878 51.4946 4.58216C47.4466 0.9393 39.7053 -0.65279 34.9041 2.30767C33.95 2.89578 33.3548 3.7117 32.5949 4.47361C31.7756 5.2501 30.8697 5.92967 29.8949 6.49889C27.9828 7.63772 26.0141 8.67871 23.9964 9.61784C22.7269 10.2533 21.433 10.9358 20.5003 12.0116C19.3998 13.358 18.839 15.0654 18.9266 16.8021C19.0221 18.5264 19.4985 20.208 20.3214 21.7262C20.8769 22.8092 21.5476 23.8417 21.8987 25.0077C22.4726 26.9031 21.3754 28.6863 19.9841 29.8992C18.9301 30.8237 17.7218 31.6645 17.1444 32.9463C16.9078 33.4816 16.7949 34.0634 16.8141 34.6484C16.8334 35.2334 16.9842 35.8065 17.2555 36.3252C17.7717 37.2817 18.6718 37.9896 19.1524 38.9676C19.3792 39.4399 19.4999 39.9562 19.506 40.4801C19.5122 41.004 19.4036 41.5229 19.188 42.0004C18.6325 43.2098 17.3666 44.3325 17.7824 45.6102" stroke="#292F3D" stroke-width="1.31749" stroke-miterlimit="10"/>
<path d="M58.2464 97.8619C57.7999 99.1005 57.2129 100.284 56.4969 101.389C53.5955 106.041 49.6231 109.931 44.9114 112.735C41.2828 114.836 37.4784 114.743 33.7672 113.927C31.2323 113.371 28.7081 111.616 26.2593 109.985C23.5431 108.209 21.0738 106.083 18.9155 103.66C17.0691 101.573 15.4128 98.9663 15.1294 94.0387C15.0184 92.0965 15.212 89.9448 15.8751 88.6238C16.6782 87.0353 17.8937 87.0893 18.9767 87.2774C25.1045 88.3349 31.0422 92.945 37.2134 93.0317C40.659 93.0786 43.8717 91.0787 47.1813 89.27C49.7376 87.8726 52.5599 86.3387 55.2309 86.6312C57.6405 86.9018 60.025 92.8548 58.2464 97.8619Z" fill="url(#paint0_linear_14_2205)"/>
<path opacity="0.2" d="M58.2464 97.8619C57.7999 99.1005 57.2129 100.284 56.4969 101.389C53.5955 106.041 49.6231 109.931 44.9114 112.735C41.2828 114.836 37.4784 114.743 33.7672 113.927C31.2323 113.371 28.7081 111.616 26.2593 109.985C23.5431 108.209 21.0738 106.083 18.9155 103.66C17.0691 101.573 15.4128 98.9663 15.1294 94.0387C15.0184 92.0965 15.212 89.9448 15.8751 88.6238C16.6782 87.0353 17.8937 87.0893 18.9767 87.2774C25.1045 88.3349 31.0422 92.945 37.2134 93.0317C40.659 93.0786 43.8717 91.0787 47.1813 89.27C49.7376 87.8726 52.5599 86.3387 55.2309 86.6312C57.6405 86.9018 60.025 92.8548 58.2464 97.8619Z" fill="url(#paint1_linear_14_2205)"/>
<path d="M19.7368 86.2993C19.5859 85.9599 19.4356 85.6098 19.2776 85.2525C17.6171 81.5121 16.4051 77.5884 15.6669 73.5631C15.4019 72.1188 15.1328 70.5267 14.032 69.5558C12.5082 68.2094 9.54261 68.3827 7.65647 68.6354C6.77479 68.7542 5.89809 69.0173 5.35634 69.7359C5.03506 70.8462 4.41786 73.0109 4.49416 75.0793C4.28267 83.7833 11.1168 90.9635 16.6851 96.8513C17.7609 97.9816 18.9194 99.1258 20.4034 99.5844C21.8879 100.043 23.7705 99.5844 24.4193 98.1401C24.8963 97.0969 24.6058 95.8733 24.2297 94.7903C23.5532 92.9477 22.6329 91.2041 21.4935 89.6058C20.8009 88.5639 20.2125 87.4564 19.7368 86.2993V86.2993Z" fill="#FFC5AB"/>
<path d="M46.5679 41.2525C46.6107 41.1012 46.6541 40.9493 46.6933 40.7979C47.2564 38.6896 47.2957 37.7615 44.8398 37.8629L27.6284 38.5846C27.9622 40.0865 27.9872 41.4727 28.4464 42.9746C29.4932 46.2668 31.4869 49.5341 34.9936 50.509C38.346 51.4365 41.652 50.0574 43.6992 47.3498C45.0177 45.5083 45.9897 43.4422 46.5679 41.2525V41.2525Z" fill="#F4F4F4"/>
<path d="M52.4374 39.0037C52.6837 40.5181 52.4727 42.0716 51.8315 43.4655C50.0391 47.2022 45.6323 47.9314 41.9069 48.0757C40.5272 48.1326 39.1452 48.0589 37.7794 47.8555C36.5639 47.6751 35.4779 47.8555 34.2512 47.8305C31.8046 47.7755 29.4195 47.0539 27.3528 45.7436C26.3188 45.1434 25.4711 44.2689 24.9035 43.2168C24.1864 41.744 24.4051 40 24.7781 38.4043C24.9641 37.478 25.2853 36.584 25.7316 35.7512C26.2336 34.8736 26.9548 34.1301 27.3706 33.2239C28.156 31.4983 27.5103 29.4802 28.2095 27.7836C28.9211 26.3358 29.9732 25.0822 31.2754 24.13C32.8313 23.0002 34.8357 22.6429 36.7468 22.7765C38.6579 22.91 40.5084 23.4986 42.3298 24.0867C43.764 24.5597 44.9973 24.2676 46.0481 25.4587C46.8834 26.4045 46.593 27.9462 46.8585 29.0939C47.7549 32.9391 51.835 34.9567 52.4374 39.0037Z" fill="#181C25"/>
<path d="M26.0617 56.1115C23.6302 60.314 20.891 64.3426 18.2699 68.4294C16.8108 70.7074 15.3299 73.0283 14.5445 75.6243C10.9373 75.5377 8.01743 74.7919 4.48924 74.1095C5.05544 69.2864 6.88217 64.8951 9.14442 60.6931C11.5005 56.3174 14.0354 52.0289 16.2512 47.5849C18.0441 43.9746 21.4215 39.6427 25.9322 41.8087C29.3962 43.4838 28.8586 48.278 28.141 51.3755C27.6899 53.0497 26.9889 54.6463 26.0617 56.1115V56.1115Z" fill="#FFC5AB"/>
<path d="M17.2518 62.3644C17.0189 64.5125 17.0795 67.1045 18.876 68.2848C20.1057 69.0936 21.7982 68.8877 23.0392 68.0937C24.2796 67.2997 25.1327 66.0251 25.7927 64.7041C28.0299 60.0732 28.3507 54.7469 26.6856 49.8809C26.2626 48.6318 24.5915 43.7653 22.8057 44.5415C21.949 44.9028 21.1352 47.4296 20.7657 48.2603C20.1713 49.6018 19.6565 50.9771 19.2241 52.3792C18.2452 55.6359 17.5847 58.98 17.2518 62.3644V62.3644Z" fill="#FCB08E"/>
<path d="M53.3302 86.2993C53.4811 85.9599 53.6314 85.6098 53.7894 85.2525C55.4485 81.5116 56.6605 77.588 57.4002 73.5631C57.6657 72.1188 57.9343 70.5267 59.0351 69.5558C60.5589 68.2094 63.5244 68.3827 65.4106 68.6354C66.2922 68.7542 67.1263 69.0032 67.6675 69.7217C67.9468 70.7009 68.6231 72.9203 68.5728 75.0793C68.7844 83.7833 61.9502 90.9635 56.3819 96.8513C55.3061 97.9816 54.1482 99.1258 52.6636 99.5844C51.1791 100.043 49.2929 99.5844 48.6442 98.1401C48.1672 97.0969 48.4612 95.8733 48.8378 94.7903C49.5142 92.9478 50.4342 91.2041 51.5735 89.6058C52.2646 88.563 52.8529 87.4556 53.3302 86.2993V86.2993Z" fill="#FFC5AB"/>
<path d="M47.0052 56.1115C49.4361 60.314 52.1759 64.3426 54.7934 68.4294C56.256 70.7074 57.737 73.0283 58.5223 75.6243C62.1295 75.5377 65.0328 74.9083 68.561 74.2259C67.9907 69.4027 66.1847 64.8951 63.9224 60.6931C61.5664 56.3174 59.0314 52.0289 56.8156 47.5849C55.0227 43.9746 51.6448 39.6427 47.1341 41.8087C43.6706 43.4838 44.2083 48.278 44.9259 51.3755C45.377 53.0497 46.078 54.6463 47.0052 56.1115V56.1115Z" fill="#FFC5AB"/>
<path d="M55.8151 62.3644C56.048 64.5125 55.9873 67.1045 54.1909 68.2848C52.9611 69.0936 51.2687 68.8877 50.0277 68.0937C48.7873 67.2997 47.9341 66.0251 47.2706 64.7041C45.0345 60.0727 44.715 54.7464 46.3813 49.8809C46.8042 48.6318 48.4753 43.7653 50.2611 44.5415C51.1178 44.9028 51.9317 47.4296 52.3012 48.2603C52.894 49.6024 53.4087 50.9776 53.8428 52.3792C54.8219 55.6359 55.4824 58.98 55.8151 62.3644Z" fill="#FCB08E"/>
<path d="M54.5675 90.3207C53.5636 87.6349 52.0576 85.4399 51.1826 82.664C50.0063 78.8988 49.2067 73.5268 50.5552 69.6281C51.9893 65.4908 53.7531 62.2236 53.8571 57.6135C53.9504 53.6679 53.162 49.7763 52.3731 45.9317C51.5841 42.087 51.2432 41.0183 47.5397 40.4368C46.2198 40.2314 44.9146 39.8701 43.5952 39.6357C41.3613 39.2437 39.0973 39.0491 36.8293 39.0542H36.6499C34.3815 39.0536 32.1174 39.253 29.884 39.6499C28.5646 39.8849 27.263 40.2457 25.9394 40.4516C22.2359 41.0326 21.8843 42.1374 21.1025 45.9459C20.3208 49.7544 19.5288 53.6822 19.6179 57.6282C19.726 62.2379 21.4863 65.5051 22.9204 69.6423C24.2725 73.541 23.4728 78.9131 22.293 82.6782C21.4251 85.4542 19.9156 87.6492 18.9116 90.335C18.8132 90.5392 18.7806 90.7689 18.8183 90.9924C18.8737 91.1245 18.9553 91.244 19.0584 91.3435C19.1612 91.4427 19.2833 91.5197 19.4172 91.5698C24.3367 94.1618 29.855 94.9379 35.2515 95.3385L36.6392 95.4364H36.8329L38.2206 95.3385C43.6166 94.9379 49.1313 94.1618 54.0544 91.5698C54.1883 91.5196 54.3106 91.4424 54.4136 91.3431C54.5166 91.2438 54.5981 91.1244 54.6532 90.9924C54.6965 90.765 54.6665 90.5299 54.5675 90.3207V90.3207Z" fill="#FB8133"/>
<g style="mix-blend-mode:soft-light">
<path opacity="0.5" d="M49.7977 47.6617C48.1124 47.7879 46.4224 47.8093 44.7351 47.7258C38.675 47.4269 36.248 45.9473 31.5655 45.8671C28.8261 45.8318 26.0971 46.2637 23.4654 47.149V44.5852C26.0887 43.6545 28.8238 43.2217 31.5655 43.3033C36.3987 43.4714 38.8407 45.2507 44.5698 45.3543C46.3184 45.3858 48.0665 45.2572 49.7977 44.9697V47.6617Z" fill="#F3F7F8"/>
<path opacity="0.5" d="M49.7977 52.2502C48.3713 52.2346 46.4705 52.3001 44.3677 52.2037C38.4209 51.9373 35.9697 50.7806 31.1063 50.6919C28.532 50.6166 25.9615 50.9844 23.4654 51.785V48.9011C25.9514 48.0522 28.5239 47.6798 31.0971 47.7964C36.0533 47.9708 38.5235 49.4708 44.2208 49.5523C46.3694 49.5854 48.3154 49.3782 49.7977 49.25V52.2502Z" fill="#F3F7F8"/>
<path opacity="0.5" d="M49.7977 56.1797C48.0405 56.0664 46.0185 56.0979 44.0004 56.0275C38.1668 55.8337 35.6913 55.1769 30.6471 55.0929C28.2368 54.998 25.8256 55.2461 23.4654 55.8319V53.0497C25.8138 52.419 28.223 52.1631 30.6287 52.289C35.7079 52.4439 38.2063 53.4374 43.8718 53.4844C45.9255 53.5049 47.9881 53.3548 49.7977 53.3105L49.7977 56.1797Z" fill="#F3F7F8"/>
<path opacity="0.5" d="M49.7977 60.1016C47.7098 59.9062 45.5666 59.9077 43.633 59.861C37.9127 59.7331 35.413 59.5186 30.1879 59.4399C28.1111 59.4086 25.7797 59.3985 23.4654 59.861V57.2143C25.7564 56.7103 28.0756 56.7092 30.1604 56.7632C35.3626 56.8987 37.8891 57.4384 43.5228 57.4549C45.4817 57.4642 47.6609 57.3658 49.7977 57.3947V60.1016Z" fill="#F3F7F8"/>
<path opacity="0.5" d="M49.7977 65.1438C47.3791 64.8359 45.1146 64.808 43.2657 64.7773C37.6586 64.6945 35.1346 64.8847 29.7287 64.7988C27.5759 64.7646 25.398 64.6908 23.4654 64.9713V62.0391C25.3733 61.7163 27.538 61.7681 29.692 61.8235C35.0172 61.9613 37.5718 62.1365 43.1738 62.1253C45.0378 62.1251 47.3336 62.0624 49.7977 62.1685L49.7977 65.1438Z" fill="#F3F7F8"/>
<path opacity="0.5" d="M49.7977 69.0344C47.5083 68.6982 45.2042 68.5332 42.8983 68.5403C37.4046 68.5111 34.8563 69.1475 29.2695 69.0568C27.0406 69.0206 25.0164 68.8782 23.4654 68.9445V65.8006C24.9901 65.6926 27.0003 65.8017 29.2236 65.8567C34.6718 65.992 37.2546 65.7525 42.8248 65.7108C44.594 65.6998 47.0064 65.6794 49.7977 65.868V69.0344Z" fill="#F3F7F8"/>
<g style="mix-blend-mode:soft-light">
<path d="M54.3176 73.0603C51.0944 72.6074 47.843 72.3855 44.5881 72.3963C37.3841 72.4267 33.9397 73.6037 26.2175 73.503C23.1313 73.4627 20.6267 73.2349 19.061 73.0603V69.519C20.5895 69.6506 23.0741 69.8306 26.1437 69.8879C33.603 70.0269 37.0988 69.3026 44.5143 69.2239C46.756 69.2001 50.1421 69.2269 54.3176 69.519V73.0603Z" fill="#F3F7F8"/>
</g>
</g>
<path d="M31.5225 46.48C33.7027 48.9746 37.898 49.1734 40.8452 48.1516C42.8425 47.4585 44.2552 45.8699 44.298 43.6933C44.3449 41.2562 42.2222 39.5235 41.6841 37.2525C41.4363 35.9603 41.3544 34.6418 41.4405 33.3289C41.4797 31.798 41.4904 30.2675 41.5623 28.7402C40.1534 28.4078 38.7059 28.2683 37.2594 28.3253C35.9364 28.3793 34.617 28.2422 33.2975 28.3253C33.1909 28.3201 33.0857 28.352 32.9999 28.4155C32.9338 28.4954 32.8993 28.5968 32.9031 28.7004C32.7273 30.7654 32.9031 32.856 32.7594 34.9245C32.634 36.827 32.211 38.7401 31.1066 40.3139C30.4752 41.2397 30.1729 42.3507 30.2483 43.4688C30.3237 44.587 30.7724 45.6474 31.5225 46.48V46.48Z" fill="#FFC5AB"/>
<path d="M35.5348 6.60305C36.6491 6.04227 37.8734 5.7341 39.1205 5.70049C40.3557 5.65925 41.5907 5.7856 42.7919 6.07609C45.2388 6.6272 47.4778 7.86454 49.2464 9.64301C51.0493 11.4263 52.2266 13.7451 52.6023 16.2529C52.7196 17.4972 52.7639 18.7473 52.7349 19.9967C52.6971 21.2187 52.9121 22.4352 53.3663 23.5703C53.9229 24.6516 54.7428 25.5754 55.7504 26.2565C56.7401 26.9782 57.8337 27.5525 58.8917 28.2094C59.4573 28.5138 59.9549 28.9301 60.3544 29.4331C60.6981 29.9916 60.8655 30.6407 60.835 31.2958C60.8431 31.9333 60.7623 32.5688 60.5949 33.184C60.4115 33.7837 60.1838 34.369 59.9136 34.935C59.6561 35.4809 59.5425 36.0835 59.5838 36.6856C59.6536 37.2904 59.8258 37.879 60.093 38.426C60.6164 39.5416 61.2615 40.6098 61.7926 41.7361C62.3518 42.8585 62.7029 44.0731 62.8287 45.3209C62.9385 46.5668 62.7832 47.8219 62.3731 49.0035C62.749 47.8172 62.8712 46.5651 62.7318 45.3285C62.5886 44.1017 62.2228 42.9112 61.6524 41.8156C61.1076 40.7036 60.4548 39.6497 59.9064 38.5234C59.622 37.957 59.4352 37.3468 59.354 36.7183C59.3023 36.075 59.4147 35.4292 59.6806 34.8413C59.9369 34.2819 60.1537 33.7053 60.3294 33.1157C60.4812 32.5262 60.5547 31.9192 60.5481 31.3105C60.5761 30.7155 60.425 30.1258 60.1144 29.6175C59.7354 29.1536 59.2671 28.7704 58.7373 28.4907C57.6941 27.845 56.5861 27.2707 55.5714 26.5378C54.5107 25.8275 53.6472 24.86 53.0615 23.7257C52.5892 22.5461 52.3692 21.2807 52.4158 20.011C52.447 18.7739 52.4075 17.536 52.2976 16.3034C51.9354 13.8603 50.8052 11.5958 49.0706 9.83768C47.35 8.06718 45.1612 6.82263 42.7598 6.24935C41.5697 5.93048 40.3419 5.77379 39.1098 5.78355C37.8726 5.79241 36.6523 6.07213 35.5348 6.60305V6.60305Z" fill="#292F3D"/>
<path d="M41.5837 36.9458C41.3886 35.7445 41.3272 34.5254 41.4007 33.3106C41.4369 31.7802 41.4476 30.2492 41.5195 28.7223C40.1105 28.3902 38.6631 28.2504 37.2166 28.307C35.8936 28.361 34.5778 28.2239 33.2543 28.307C33.2035 28.2975 33.1511 28.2997 33.1014 28.3136C33.0517 28.3279 33.006 28.3536 32.9679 28.3885C32.9295 28.4237 32.8998 28.4673 32.8811 28.5158C32.8623 28.5643 32.855 28.6165 32.8598 28.6683C32.6845 30.7329 32.8598 32.8269 32.7202 34.8955C32.68 35.489 32.6058 36.0796 32.498 36.6645C32.7059 36.8449 32.9138 37.0253 33.1325 37.1843C33.9536 37.7855 34.9002 38.1929 35.9013 38.376C36.9024 38.5592 37.9319 38.5133 38.9127 38.2418C39.8709 37.9664 40.7744 37.528 41.5837 36.9458V36.9458Z" fill="#FCB08E"/>
<path d="M47.1522 20.538C47.1355 18.6615 46.8357 16.7981 46.2629 15.0111C43.9323 8.15192 35.3802 6.58174 30.3175 11.596C24.6702 17.1882 27.0471 30.3286 33.1464 34.8699C33.9666 35.4717 34.9125 35.8798 35.913 36.0637C36.9135 36.2475 37.9426 36.2023 38.9231 35.9315C44.8288 34.2349 47.2775 26.8666 47.1522 20.538Z" fill="#FFC5AB"/>
<path d="M39.6007 23.33C39.5716 23.4164 39.5632 23.5084 39.5763 23.5987C39.5893 23.6889 39.6234 23.7748 39.6758 23.8494C39.7282 23.9241 39.7974 23.9853 39.8779 24.0282C39.9583 24.0711 40.0477 24.0945 40.1389 24.0965C40.23 24.0985 40.3204 24.079 40.4026 24.0396C40.4848 24.0001 40.5566 23.9419 40.6122 23.8697C40.6677 23.7974 40.7055 23.713 40.7224 23.6234C40.7394 23.5338 40.735 23.4415 40.7097 23.354C40.7143 22.9371 40.4808 22.592 40.1715 22.5824C39.8627 22.5727 39.6104 22.9131 39.6007 23.33Z" fill="#292F3D"/>
<path d="M32.0973 23.3247C32.0973 23.7416 32.3308 24.0866 32.635 24.0912C32.9398 24.0958 33.1966 23.7656 33.2063 23.3487C33.2155 22.9318 32.9729 22.5868 32.6686 22.5822C32.3639 22.5776 32.107 22.9078 32.0973 23.3247Z" fill="#292F3D"/>
<path d="M47.1415 14.5957C45.3018 7.59229 36.8903 5.40087 31.4795 10.0472C30.6659 10.7955 29.9664 11.659 29.4032 12.6101C28.8798 13.4118 28.1521 14.0183 27.6929 14.8953C27.2183 15.804 26.9236 16.7957 26.825 17.816C26.7318 18.8052 27.0513 19.6716 27.0762 20.6246C27.0663 20.1272 27.163 19.6335 27.3596 19.1765C27.5562 18.7195 27.8483 18.3098 28.2163 17.975C28.8274 17.5084 29.4861 17.1079 30.1815 16.78C30.8827 16.445 31.4409 15.8701 31.7552 15.1593C33.9069 17.9964 37.245 18.8664 40.5331 19.6899C43.2867 20.3754 46.3129 22.1265 46.3776 25.3683C46.3776 25.7326 46.4494 26.0933 46.5891 26.4298C46.7626 25.9931 46.8712 25.5332 46.9117 25.065C46.9693 24.5381 47.1237 24.0111 47.2241 23.4801C47.4359 22.3923 47.5713 21.291 47.6292 20.1843C47.7479 18.3075 47.5835 16.4235 47.1415 14.5957V14.5957Z" fill="#FCB08E"/>
<path d="M48.7083 26.6143C49.2568 26.1778 49.6717 25.5962 49.9059 24.9355C50.6408 22.7696 50.5623 20.3545 50.4726 18.0224C50.4732 16.7238 50.3202 15.4297 50.017 14.167C49.6153 12.8479 48.9411 11.6279 48.0381 10.5858C46.8549 9.16129 45.3488 8.03977 43.645 7.31452C41.9411 6.58926 40.0888 6.28121 38.2419 6.41599C36.8078 6.54238 35.7498 7.23548 34.488 7.8241C33.2256 8.41222 31.8058 8.71189 30.5113 9.14151C29.016 9.63993 27.4744 10.1598 26.2875 11.203C25.4346 11.99 24.7693 12.9585 24.3407 14.037C23.8478 15.3306 23.6958 16.7291 23.8993 18.0983C23.9725 19.2576 24.2329 20.3975 24.6704 21.4736C25.1326 22.4557 26.1657 23.0942 27.0907 23.5855C26.951 23.5131 27.0907 21.8925 27.0657 21.6433C26.9994 20.2005 27.1701 18.7566 27.5713 17.369C27.9978 16.0297 28.8509 15.2031 29.9589 14.3943C30.4133 14.0758 30.8349 13.7131 31.2177 13.3113C31.4042 13.1054 32.2109 12.156 32.0784 11.867C32.7054 13.3289 33.6818 14.6144 34.9217 15.6108C37.2614 17.2768 39.8128 18.6232 42.5086 19.6145L43.0931 19.8453C43.8395 20.1096 44.5311 20.5085 45.1337 21.0221C46.4674 22.2426 46.5678 24.116 46.5138 25.8091C46.4963 25.9936 46.5134 26.1797 46.5643 26.3579C46.8405 27.1845 48.1706 27.0148 48.7083 26.6143Z" fill="#181C25"/>
<path d="M11.8916 67.3677L11.4645 68.3824H62.04L61.5308 67.2449L11.8916 67.3677Z" fill="#B8D1CE"/>
<path d="M58.5473 100.555H14.9355L11.8125 67.8663C11.8 67.7299 11.8158 67.5924 11.8588 67.4623C11.9019 67.3323 11.9713 67.2125 12.0627 67.1105C12.1537 67.009 12.2648 66.9275 12.3889 66.8712C12.5131 66.8149 12.6475 66.7849 12.7838 66.7833H60.7204C60.9261 66.7861 61.1257 66.853 61.2915 66.9747C61.4573 67.0964 61.581 67.2668 61.6454 67.4622C61.6886 67.5922 61.7046 67.7298 61.6923 67.8663L58.5473 100.555Z" fill="#292F3D"/>
<path d="M58.8918 101.479H14.5945L11.4216 68.79C11.4032 68.583 11.4499 68.3755 11.5552 68.1964C11.6606 68.0173 11.8193 67.8756 12.0091 67.7911C12.1347 67.7356 12.2704 67.7069 12.4077 67.707H61.0791C61.2164 67.707 61.3521 67.7357 61.4777 67.7911C61.6674 67.8757 61.826 68.0174 61.9313 68.1965C62.0365 68.3756 62.0832 68.5831 62.0648 68.79L58.8918 101.479Z" fill="#555E78"/>
<path d="M58.8663 101.48H14.5945V103.462H58.8663V101.48Z" fill="#292F3D"/>
<path d="M43.8031 22.1869L45.8921 22.0198" stroke="#292F3D" stroke-width="0.362311" stroke-miterlimit="10"/>
<path d="M29.2287 22.1869L27.1443 22.0198" stroke="#292F3D" stroke-width="0.362311" stroke-miterlimit="10"/>
<path d="M37.2318 23.0114C37.2167 23.6665 37.3958 24.3115 37.7465 24.865C38.0972 25.4186 38.6038 25.856 39.2026 26.1222C39.7998 26.3862 40.4621 26.466 41.1049 26.3513C41.7477 26.2366 42.3417 25.9328 42.8108 25.4786C43.1631 25.1378 43.436 24.7234 43.6098 24.2651C43.7837 23.8068 43.8543 23.3157 43.8166 22.827C43.779 22.3382 43.6339 21.8638 43.3919 21.4375C43.1498 21.0112 42.8167 20.6436 42.4163 20.3608C41.7919 19.9213 41.0338 19.7133 40.2725 19.7728C39.5113 19.8322 38.7946 20.1554 38.246 20.6865C37.6147 21.2975 37.2502 22.133 37.2318 23.0114V23.0114Z" stroke="#292F3D" stroke-width="0.362311" stroke-miterlimit="10"/>
<path d="M29.2287 22.8387C29.2137 23.4935 29.3926 24.1382 29.743 24.6916C30.0934 25.245 30.5996 25.6825 31.198 25.9489C31.7949 26.2132 32.4571 26.2933 33.0999 26.1791C33.7427 26.0649 34.3367 25.7615 34.8061 25.3078C35.1587 24.9674 35.4318 24.5534 35.606 24.0953C35.7802 23.6372 35.8512 23.1464 35.814 22.6577C35.7769 22.169 35.6324 21.6946 35.3909 21.2682C35.1493 20.8417 34.8168 20.4738 34.4168 20.1906C33.793 19.7497 33.0347 19.5408 32.2731 19.5998C31.5115 19.6588 30.7945 19.982 30.246 20.5137C29.6137 21.1243 29.2481 21.9599 29.2287 22.8387V22.8387Z" stroke="#292F3D" stroke-width="0.362311" stroke-miterlimit="10"/>
<path d="M37.6079 21.2629C37.6079 21.2629 36.8323 20.7838 35.4567 21.2195" stroke="#292F3D" stroke-width="0.362311" stroke-miterlimit="10"/>
<path d="M39.8162 84.5878C39.8179 85.1985 39.6389 85.796 39.3018 86.3051C38.9646 86.8142 38.4843 87.2122 37.9214 87.4489C37.3599 87.6834 36.7411 87.7451 36.1444 87.626C35.5476 87.5069 35 87.2124 34.5716 86.7803C34.2496 86.4561 34.0032 86.0649 33.8498 85.6345C33.6964 85.2042 33.6399 84.7453 33.6843 84.2906C33.7286 83.8359 33.8727 83.3966 34.1064 83.004C34.34 82.6114 34.6573 82.2751 35.0358 82.0193C35.626 81.6219 36.3362 81.4428 37.0442 81.5127C37.7523 81.5827 38.4137 81.8974 38.9147 82.4025C39.4917 82.9835 39.8157 83.769 39.8162 84.5878V84.5878Z" fill="#292F3D"/>
<path d="M31.5117 115.952C33.5375 115.591 35.5562 115.187 37.557 114.851C47.5968 113.165 58.0707 111.187 67.1921 106.45C69.2934 105.368 71.495 103.631 72.5708 101.48C75.4395 95.8185 69.7204 90.5122 64.1374 92.1186C54.8147 94.7972 46.7186 100.613 37.7792 104.393C36.288 105.028 34.7856 105.689 33.2761 106.353C31.978 106.923 30.6764 107.497 29.3677 108.057" fill="url(#paint2_linear_14_2205)"/>
<path d="M29.3748 108.053C27.8796 108.692 26.3807 109.317 24.8748 109.898C23.3688 110.479 14.4227 112.472 16.4092 115.858C16.7961 116.522 17.6604 116.696 18.4208 116.793C22.795 117.345 27.1803 116.728 31.5224 115.945" fill="#FFC5AB"/>
<path d="M21.637 117.017C19.7111 117.238 17.6924 117.169 15.9 117.274C15.0928 117.324 14.286 117.371 13.4792 117.364C12.1959 117.33 10.9152 117.227 9.64273 117.057L6.8637 116.735C6.29684 116.761 5.73954 116.583 5.29252 116.234C4.84392 115.882 4.53424 115.384 4.41849 114.826C3.88521 113.733 3.41356 112.611 3.00578 111.465C2.77644 110.703 2.52878 109.956 3.0379 109.248C3.3035 108.912 3.62646 108.624 3.99193 108.4C4.43667 108.083 4.91821 107.821 5.42602 107.62C7.11137 106.999 8.67851 107.664 10.2523 108.274C11.8987 108.976 13.5932 109.559 15.3226 110.021C17.2143 110.39 19.133 110.603 21.0595 110.66C22.5905 110.758 24.9679 110.638 26.2262 111.674C26.7389 112.1 27.5028 113.071 27.4921 113.764C27.4921 114.642 26.4163 115.429 25.7497 115.812C24.4757 116.491 23.0759 116.901 21.637 117.017V117.017Z" fill="#FFC5AB"/>
<path d="M30.6367 148.89C31.6586 150.547 32.9637 152.099 33.9896 153.583C34.4554 154.251 34.9182 154.919 35.4237 155.551C36.2448 156.544 37.1186 157.492 38.0412 158.392L40.0135 160.389C40.3418 160.853 40.8264 161.185 41.3787 161.322C41.931 161.459 42.5142 161.393 43.0218 161.136C45.2051 160.526 47.2742 160.475 47.3242 157.677C47.3568 155.905 46.6968 153.901 45.2158 152.894C43.4983 151.731 41.6305 150.854 39.9951 149.544C38.5456 148.275 37.1947 146.898 35.9543 145.425C34.9289 144.276 33.5483 142.32 31.9562 141.973C31.3074 141.829 30.0812 141.829 29.5466 142.27C28.8729 142.822 28.9157 144.154 29.0304 144.916C29.2948 146.334 29.8411 147.686 30.6367 148.89Z" fill="#FFC5AB"/>
<path d="M14.8243 117.328C13.1925 116.966 11.1382 116.382 10.1627 115.024C9.44596 113.967 9.16346 112.674 9.37381 111.414C9.52465 110.169 10.6076 109.292 11.7798 108.858C10.6169 108.017 9.27986 107.447 7.86739 107.192C6.45493 106.936 5.0031 107.001 3.61904 107.382C3.31367 107.462 3.01696 107.572 2.73329 107.71C-1.0492 109.569 0.765093 114.273 3.48653 116.176C4.73004 117.04 6.17971 117.561 7.68895 117.685C8.90086 117.782 9.71832 117.739 10.9338 117.735C12.4041 117.735 13.164 117.472 14.8243 117.328Z" fill="#E6E6E6"/>
<path d="M34.4808 154.32C35.7676 155.403 37.5034 156.645 39.1705 156.587C40.4358 156.494 41.6162 155.916 42.4657 154.973C43.3479 154.078 43.355 152.681 42.9677 151.486C44.35 151.887 45.625 152.592 46.6996 153.55C47.7741 154.508 48.621 155.693 49.1781 157.02C49.3069 157.309 49.4055 157.61 49.4722 157.919C50.3686 162.06 45.5781 163.544 42.4086 162.576C40.9604 162.128 39.6565 161.305 38.6292 160.19C37.8011 159.294 37.324 158.623 36.5785 157.663C35.6713 156.501 35.4058 155.732 34.4808 154.32Z" fill="#E6E6E6"/>
<path d="M31.8635 133.212C32.634 136.168 33.4122 139.15 34.3122 142.057C34.3226 142.116 34.342 142.173 34.3698 142.226C34.7928 143.432 35.3055 144.598 35.7107 145.808C35.9747 146.577 36.1949 147.36 36.3701 148.154C36.4512 148.528 36.5122 148.907 36.5531 149.287C36.5906 149.463 36.6016 149.643 36.5857 149.822C36.5421 149.92 36.4798 150.008 36.4022 150.082C36.3248 150.156 36.2335 150.213 36.1337 150.252C35.9486 150.325 35.7519 150.366 35.5527 150.37C34.762 150.376 33.9781 150.224 33.2471 149.923C32.7884 149.757 32.3328 149.562 31.8848 149.382C31.4473 149.216 31.025 149.013 30.6225 148.775C30.4524 148.623 30.3062 148.447 30.1888 148.251C30.0451 148.06 29.9018 147.869 29.7622 147.674C29.4824 147.287 29.2098 146.893 28.9443 146.494C27.7472 144.667 26.6426 142.781 25.6347 140.844C24.6058 138.916 23.6344 136.999 22.5907 135.097C17.6783 126.122 12.7232 116.624 10.758 106.483C10.3065 104.144 10.2958 101.346 11.2962 99.1512C13.9279 93.375 21.6081 94.6022 23.8204 100.007C27.5102 109.032 28.0014 119.035 30.5904 128.443C31.0276 130.014 31.4435 131.609 31.8635 133.212Z" fill="#FFC5AB"/>
<path d="M25.4845 140.558C24.5126 138.732 23.5734 136.89 22.5944 135.1C17.6785 126.126 12.7269 116.627 10.7617 106.487C10.3138 104.144 10.3031 101.35 11.3035 99.1547C13.9352 93.3785 21.6154 94.6057 23.8277 100.01C27.5174 109.035 28.0087 119.039 30.5977 128.446C31.0314 130.017 31.4472 131.613 31.8672 133.216C32.2254 134.595 32.5842 135.981 32.9603 137.36" fill="url(#paint3_linear_14_2205)"/>
<defs>
<linearGradient id="paint0_linear_14_2205" x1="1482.1" y1="14350.8" x2="5901.05" y2="14350.8" gradientUnits="userSpaceOnUse">
<stop stop-color="#258EE8"/>
<stop offset="1" stop-color="#2AB5ED"/>
</linearGradient>
<linearGradient id="paint1_linear_14_2205" x1="15.1" y1="114.465" x2="58.8649" y2="114.465" gradientUnits="userSpaceOnUse">
<stop stop-color="#258EE8"/>
<stop offset="1" stop-color="#2AB5ED"/>
</linearGradient>
<linearGradient id="paint2_linear_14_2205" x1="29.3677" y1="115.952" x2="73.3364" y2="115.952" gradientUnits="userSpaceOnUse">
<stop stop-color="#258EE8"/>
<stop offset="1" stop-color="#2AB5ED"/>
</linearGradient>
<linearGradient id="paint3_linear_14_2205" x1="10.4707" y1="140.558" x2="32.9603" y2="140.558" gradientUnits="userSpaceOnUse">
<stop stop-color="#258EE8"/>
<stop offset="1" stop-color="#2AB5ED"/>
</linearGradient>
</defs>
</svg>
