<svg width="54" height="103" viewBox="0 0 54 103" fill="none" xmlns="http://www.w3.org/2000/svg">
<path d="M34.2937 5.96674C35.7885 5.96674 37.2391 5.76343 38.2585 4.29102C40.2733 1.39427 43.3315 -1.20179 46.7683 1.73903C48.751 3.43883 47.2603 6.93174 48.9647 8.61148C50.4755 10.0965 52.3934 9.8491 53.1631 12.3152C54.2994 15.9421 50.7211 19.1229 49.5729 22.259C48.6102 24.8917 50.7818 25.91 51.7492 27.9385C52.5023 29.5203 52.1157 31.2161 51.2979 32.7252C49.8552 35.3905 46.6555 37.5364 47.3972 40.9893C48.0174 43.8694 48.6062 46.4374 46.0674 48.6199C44.3349 50.117 41.1232 51.48 41.3695 54.2508C41.4577 55.2324 42.1306 56.0685 42.3162 57.0341C42.606 58.5632 41.6232 60.0523 40.4829 61.0906C37.88 63.4799 35.5989 65.7318 33.6328 68.7379C32.803 70.0236 29.4704 72.9203 30.8123 74.6768C28.3949 71.484 25.836 68.3931 23.6357 65.0382C21.8265 62.2795 19.0988 58.2425 20.9566 54.843C21.5327 53.7886 22.6083 53.0011 22.9027 51.8288C23.4347 49.7196 21.3713 47.7724 20.6056 45.9626C19.3972 43.1232 20.2877 39.8776 22.4027 37.7518C23.4061 36.7495 24.4942 35.6465 24.6431 34.2342C24.8046 32.6891 23.8373 31.2487 23.4061 29.8244C23.0125 28.5001 22.7428 27.1421 22.6003 25.7679C22.4638 24.806 22.4911 23.828 22.681 22.8752C23.1123 21.0861 24.6958 20.0884 25.9042 18.8188C28.7248 15.792 27.242 12.2344 28.4751 8.71685C29.5872 5.56068 31.9926 5.96674 34.2937 5.96674Z" fill="url(#paint0_linear_14_2328)"/>
<path d="M32.9486 73.5491C32.3989 63.3929 32.8216 53.2074 34.2109 43.1316C35.4662 33.5886 37.1134 24.0016 39.6097 14.9495C40.4281 11.9542 41.362 9.03131 42.4114 6.18079" stroke="#55C25C" stroke-width="1.20664" stroke-miterlimit="10" stroke-linecap="round"/>
<path d="M33.2658 52.9536C36.4111 49.0683 40.1835 46.3612 44.2439 45.0778" stroke="#55C25C" stroke-width="1.20664" stroke-miterlimit="10" stroke-linecap="round"/>
<path d="M36.4305 28.6166C36.2024 23.3214 35.2797 18.079 33.6861 13.0242" stroke="#55C25C" stroke-width="1.20664" stroke-miterlimit="10" stroke-linecap="round"/>
<path d="M34.6402 39.3829C33.1738 34.7604 30.9055 30.432 27.939 26.5956" stroke="#55C25C" stroke-width="1.20664" stroke-miterlimit="10" stroke-linecap="round"/>
<path d="M33.0586 53.3252C32.8469 51.8578 32.4648 50.4202 31.92 49.0413C31.2929 47.5587 30.5383 46.1332 29.6647 44.781C29.0697 43.8177 28.4651 42.8657 27.851 41.9249" stroke="#55C25C" stroke-width="1.20664" stroke-miterlimit="10" stroke-linecap="round"/>
<path d="M13.5016 26.555C12.418 26.7537 11.3379 26.8189 10.3952 25.8894C8.53736 24.0682 5.96306 22.6119 3.87155 25.2246C2.66257 26.7336 4.23005 29.0583 3.22268 30.498C2.33212 31.7883 0.906095 31.8777 0.68846 33.7722C0.362011 36.559 3.3922 38.3687 4.6573 40.482C5.7168 42.2591 4.28273 43.2894 3.8515 44.9124C3.52506 46.1615 4.03708 47.3464 4.83883 48.32C6.25284 50.0524 8.86779 51.1595 8.80365 53.7721C8.75096 55.9467 8.68682 57.8899 10.8184 59.1195C12.2811 59.9631 14.7953 60.5066 15.0009 62.5511C15.069 63.2733 14.6985 63.9714 14.6945 64.7016C14.6945 65.8493 15.6131 66.7908 16.5844 67.395C18.7795 68.656 20.7994 70.2001 22.5921 71.9875C23.3738 72.7991 26.1864 74.4416 25.4608 75.9025C26.7786 73.2492 28.2092 70.6485 29.3454 67.9105C30.2761 65.6546 31.6987 62.3484 29.8855 60.1417C29.3214 59.4556 28.4348 59.0341 28.0597 58.2266C27.3868 56.7702 28.6118 55.0624 28.9182 53.6507C29.1222 52.5675 29.0016 51.4482 28.5715 50.4333C28.1414 49.4185 27.421 48.5533 26.5008 47.9466C25.6383 47.3584 24.6956 46.7296 24.3973 45.7033C24.0668 44.6077 24.5662 43.4274 24.6876 42.3358C24.7821 41.3157 24.7821 40.2891 24.6876 39.269C24.6567 38.5608 24.5068 37.8629 24.2443 37.2044C23.6842 35.9628 22.3865 35.4639 21.3511 34.7091C18.889 32.9039 19.4732 30.1172 18.0952 27.7399C16.8542 25.5974 15.1739 26.2508 13.5016 26.555Z" fill="url(#paint1_linear_14_2328)"/>
<path d="M26.7691 75.5103C25.4096 68.0247 23.2684 60.7025 20.3806 53.6639C17.7124 47.0446 14.7366 40.5261 11.1985 34.6049C10.0324 32.6537 8.79158 30.7869 7.47589 29.0044" stroke="#26A87C" stroke-width="0.866115" stroke-miterlimit="10"/>
<path d="M5.57333 40.5111C8.65949 40.8367 11.6715 41.6654 14.4898 42.9646C15.1265 43.1779 15.7275 43.4858 16.2726 43.878" stroke="#26A87C" stroke-width="0.866115" stroke-miterlimit="10"/>
<path d="M19.493 51.3745C16.451 50.0698 13.1151 49.6037 9.83202 50.0246" stroke="#26A87C" stroke-width="0.866115" stroke-miterlimit="10"/>
<path d="M22.854 60.5653C19.9265 58.6642 16.4745 57.7334 12.9881 57.9051" stroke="#26A87C" stroke-width="0.866115" stroke-miterlimit="10"/>
<path d="M16.0779 43.6885C15.3042 39.6859 15.0815 35.5964 15.4158 31.5334" stroke="#26A87C" stroke-width="0.866115" stroke-miterlimit="10"/>
<path d="M19.3745 51.0558C19.7094 47.1879 20.6886 43.4032 22.2718 39.8583" stroke="#26A87C" stroke-width="0.866115" stroke-miterlimit="10"/>
<path d="M23.0775 60.7831C22.9804 59.6336 23.0185 58.4766 23.1909 57.336C23.4145 56.0637 23.7434 54.8123 24.1742 53.5945C24.4589 52.7228 24.7557 51.8583 25.0648 51.0007" stroke="#26A87C" stroke-width="0.866115" stroke-miterlimit="10"/>
<path d="M38.9036 75.2775H11.7775L16.5361 102.608H34.1444L38.9036 75.2775Z" fill="#292F3D"/>
<path d="M42.2236 67.6058H8.45358V75.2778H42.2236V67.6058Z" fill="#292F3D"/>
<path d="M12.4063 78.9038H38.2707L38.9036 75.2775H11.7775L12.4063 78.9038Z" fill="#3B4255"/>
<defs>
<linearGradient id="paint0_linear_14_2328" x1="-4592.36" y1="-37334.8" x2="-2312.72" y2="-37334.8" gradientUnits="userSpaceOnUse">
<stop stop-color="#6CCE4B"/>
<stop offset="1" stop-color="#83DB3B"/>
</linearGradient>
<linearGradient id="paint1_linear_14_2328" x1="-5337.04" y1="-24884.7" x2="-3477.48" y2="-24884.7" gradientUnits="userSpaceOnUse">
<stop stop-color="#26A87C"/>
<stop offset="1" stop-color="#55C25C"/>
</linearGradient>
</defs>
</svg>
