<svg width="100" height="98" viewBox="0 0 100 98" fill="none" xmlns="http://www.w3.org/2000/svg">
<path d="M41.8638 32.1302V35.9806C42.5367 36.4436 43.1845 36.9419 43.8046 37.4734C44.1146 37.9153 44.3135 38.4254 44.3843 38.9605C44.3843 38.9605 41.383 43.9949 39.3845 43.9949C37.3861 43.9949 34.4951 43.0266 32.0158 40.0104C29.5356 36.995 30.051 37.1523 30.051 37.1523L32.1714 35.6767L32.467 33.1043C32.467 33.1043 36.4474 36.529 41.8638 32.1302Z" fill="#FFC5AB"/>
<path d="M46.087 37.3508L42.2754 36.2721L37.5424 40.0105L32.1481 35.7007L28.3365 36.6279L32.0732 43.4927L37.2113 45.9078L40.589 45.809L43.5731 43.067L45.5888 39.5675L46.087 37.3508Z" fill="#F2F2F2"/>
<path d="M47.5765 19.4971C46.7539 18.9138 49.9916 15.6708 50.1077 13.7985C50.2929 10.7829 48.7408 8.82304 49.0306 8.84634C49.1286 8.72391 48.9721 5.06091 46.2087 4.61758C43.7121 4.22093 45.4907 1.60204 41.1686 1.23455C36.8464 0.867055 37.9589 -1.34943 33.8516 1.23455C29.9873 3.67271 31.5806 2.75104 29.4603 3.56763C27.004 4.53589 27.8555 2.3078 25.5153 3.87683C24.7045 4.35695 24.0408 5.05015 23.5964 5.88108C23.1521 6.712 22.944 7.64884 22.9948 8.58976C23.1373 10.4098 23.4418 12.2134 23.9047 13.9793C24.4259 16.2541 25.8159 15.8516 25.5845 17.969C25.5355 18.5021 25.6466 19.0376 25.9036 19.5073C26.1605 19.9769 26.5517 20.3592 27.0271 20.6054L29.9239 22.0111H42.9702L47.5765 19.4971Z" fill="#292F3D"/>
<path d="M46.0869 37.351C46.0869 37.351 43.451 45.6865 38.5558 45.6865C33.6606 45.6865 28.3594 36.6281 28.3594 36.6281C28.3594 36.6281 22.3574 36.9895 21.0367 39.5446C19.7159 42.0989 11.3845 71.1879 16.5465 97.0384H54.4874C54.4874 97.0384 56.4051 71.1879 54.4874 48.9646C54.4874 48.9473 54.4874 36.3835 46.0869 37.351Z" fill="#FAFAFA"/>
<path d="M46.0871 37.3509L42.2754 36.2722L37.5424 40.0114L39.5985 43.254L46.0871 37.3509Z" fill="#E0E0E0"/>
<path d="M28.3365 36.6279L32.1481 35.7007L37.5424 40.0105L35.2475 43.2539L28.3365 36.6279Z" fill="#E0E0E0"/>
<path d="M41.864 32.6901C41.864 33.507 39.3386 35.0937 37.3048 35.1868C35.2717 35.2806 32.925 34.9538 32.3807 33.9385L32.4902 33.0055L41.0068 32.3114L41.6845 32.1302H41.864V32.6901Z" fill="#FCB08E"/>
<path d="M45.0677 18.5696V12.381C45.0693 12.2311 45.0349 12.0829 44.9675 11.949C44.9 11.815 44.8014 11.6992 44.6799 11.6113C44.5585 11.5233 44.4177 11.4657 44.2694 11.4433C44.1211 11.421 43.9696 11.4345 43.8277 11.4828C41.6865 12.2856 39.4367 12.7614 37.1538 12.8943C34.7291 12.7793 32.3242 12.3999 29.9818 11.7627C29.844 11.7304 29.7007 11.7296 29.5625 11.7605C29.4244 11.7913 29.2949 11.8529 29.1839 11.9407C29.0727 12.0291 28.9826 12.1412 28.9202 12.2688C28.8578 12.3965 28.8247 12.5364 28.8233 12.6785V21.836C28.8233 21.836 28.3482 20.2669 27.0851 20.2669C25.822 20.2669 25.1097 21.836 25.1097 21.836V24.9799C25.1097 24.9799 25.2258 27.3947 26.969 27.3947C28.713 27.3947 28.7072 26.3681 28.7072 26.3681C28.7072 26.3681 30.4454 34.4583 36.2036 34.4583C41.9626 34.4583 45.0678 28.4155 45.0678 26.2398C45.0678 26.2398 48.7287 27.0273 48.7287 22.7401V20.022C48.7047 19.7344 48.6179 19.4557 48.4743 19.2054C48.3072 18.9354 48.0692 18.7165 47.7862 18.5725C47.5032 18.4285 47.186 18.365 46.8694 18.3888C45.0678 18.3888 45.0678 19.7187 45.0678 19.7187L45.0677 18.5696Z" fill="#FFC5AB"/>
<path d="M44.0187 11.4301C44.0187 11.366 40.543 13.4891 37.1539 13.7633C33.7647 14.0375 30.9148 12.6608 30.2017 13.0575C29.2984 13.5766 28.7591 16.668 28.7887 16.6213V12.6375C28.7888 12.495 28.8211 12.3543 28.8832 12.2261C28.9454 12.0979 29.0359 11.9854 29.1477 11.8971C29.2589 11.809 29.3887 11.7474 29.5272 11.717C29.6658 11.6867 29.8094 11.6883 29.9473 11.7218C34.9932 12.8183 38.967 12.9875 44.0187 11.4301Z" fill="#FCB08E"/>
<path d="M99.3106 48.4277C99.705 49.2033 98.8594 49.7344 98.6971 49.9329C98.5349 50.1313 93.9402 52.7795 93.9402 52.7795C93.9402 52.7795 96.4895 56.279 96.2985 56.9032C96.1075 57.5273 94.3692 58.5302 92.7874 58.769C92.1928 58.9085 91.5717 58.8858 90.9889 58.7033C90.406 58.5208 89.8829 58.1852 89.474 57.7315C88.8078 56.9493 88.0832 54.8149 88.7379 53.4967C89.3925 52.1784 98.8824 47.582 99.3106 48.4277Z" fill="#FFC5AB"/>
<path d="M95.1102 52.0092C95.2714 52.0068 95.4276 52.0653 95.5474 52.1731C95.6679 52.2814 95.7435 52.431 95.7591 52.5922C95.7984 52.7519 95.7916 52.9195 95.7394 53.0755C95.6872 53.2314 95.5918 53.3694 95.4644 53.4733C95.4644 53.4733 96.4434 53.2921 96.5356 53.9747C96.5628 54.176 96.5485 54.3807 96.4937 54.5762C96.4389 54.7718 96.3447 54.9541 96.2169 55.1119C96.2169 55.1119 96.9646 55.2173 96.9003 55.8118C96.837 56.4071 96.5125 56.7513 95.545 57.2643C95.1918 57.4913 94.778 57.6061 94.3583 57.5936C93.9386 57.5812 93.5324 57.4419 93.1933 57.1943C92.5329 56.7513 93.1521 56.0275 93.1521 56.0275C93.1521 56.0275 92.3008 55.7072 92.3411 55.3161C92.3823 54.925 92.99 54.4531 92.99 54.4531C92.8406 54.4692 92.6898 54.4413 92.5561 54.3729C92.4224 54.3044 92.3116 54.1984 92.2374 54.0678C91.6115 53.1752 94.1485 52.0669 95.1102 52.0092Z" fill="#FFC5AB"/>
<path d="M88.686 54.7793C88.686 54.6747 88.1821 52.598 89.6593 51.3382C91.1365 50.0783 91.6866 50.3995 92.0638 50.6556C92.7184 51.1052 94.2244 53.6594 93.6101 54.0678C92.9959 54.4762 91.675 53.0822 91.3391 52.318C91.1308 53.2691 91.5129 54.2778 90.7594 55.1819C90.0068 56.086 88.9405 55.8291 88.686 54.7793Z" fill="#FCB08E"/>
<path d="M91.5589 59.9415L87.7185 54.1438C87.7185 54.1438 76.3577 59.3297 72.0759 62.9635C71.9757 63.0504 71.8581 63.1149 71.731 63.1529C71.6039 63.1909 71.4702 63.2013 71.3388 63.1837C71.2073 63.166 71.0811 63.1206 70.9686 63.0504C70.856 62.9802 70.7597 62.8868 70.686 62.7766C67.7892 58.4429 55.6231 39.9702 50.6637 38.512C50.2989 38.7277 54.719 38.7804 55.2468 62.5954C55.2468 62.5954 59.2091 72.2435 67.888 75.0019C68.8421 75.302 69.8606 75.3325 70.8309 75.09C73.1019 74.5416 77.5797 73.1476 81.015 70.208C80.9977 70.208 89.8791 63.8034 91.5589 59.9415Z" fill="url(#paint0_linear_14_2120)"/>
<path d="M41.8638 5.34668C41.8638 5.34668 38.6484 8.84638 35.885 8.48474C33.1215 8.1231 32.5196 6.57736 30.0049 6.92741C27.491 7.27736 27.0677 9.08551 27.0677 9.08551" stroke="#3A4355" stroke-width="0.86212" stroke-miterlimit="10"/>
<path d="M45.5484 6.55396C45.5484 6.55396 42.4894 10.812 39.9113 11.0044C38.2039 11.0911 36.4952 10.8617 34.8711 10.3278C34.8711 10.3278 33.2201 9.84369 32.386 10.3862" stroke="#3A4355" stroke-width="0.86212" stroke-miterlimit="10"/>
<path d="M15.7186 84.6905L34.4547 86.353L41.2619 58.9733L18.6499 55.9407L15.7186 84.6905Z" fill="#FFFFFE"/>
<path d="M41.4759 62.0353L37.5424 89.4495C37.5255 89.5732 37.4842 89.6922 37.4208 89.7998C37.3575 89.9074 37.2734 90.0013 37.1735 90.0761C37.0739 90.1507 36.9603 90.2044 36.8395 90.2341C36.7187 90.2638 36.5932 90.2689 36.4703 90.249L17.856 87.3909C17.6186 87.353 17.4046 87.2261 17.2574 87.036C17.1102 86.8446 17.0405 86.6047 17.0623 86.3641L19.6816 59.3872C19.6941 59.2621 19.7316 59.1409 19.7919 59.0306C19.8812 58.8645 20.0184 58.729 20.1856 58.6418C20.3529 58.5546 20.5425 58.5196 20.7298 58.5415L40.6591 60.9797C40.7818 60.9951 40.9002 61.0346 41.0076 61.0959C41.115 61.1572 41.2093 61.2392 41.2849 61.337C41.4383 61.5354 41.507 61.7864 41.4759 62.0353V62.0353Z" fill="url(#paint1_linear_14_2120)"/>
<path d="M26.1757 83.2492C26.1757 83.2492 30.9722 84.9998 32.9534 85.1216C34.9353 85.2443 37.9301 84.7017 38.747 81.3775C39.5638 78.0525 37.0087 77.5157 37.0087 77.5157L33.3132 77.09C33.3132 77.09 32.1019 76.9096 32.5597 76.3028C32.5597 76.3028 35.6937 75.8417 36.6151 75.0372C37.5365 74.2319 37.1594 73.7889 37.1594 73.7889C36.9439 73.5161 36.6514 73.3145 36.3197 73.2103C35.9881 73.1062 35.6328 73.1044 35.3001 73.2051C34.1415 73.5492 31.621 74.0919 29.8194 75.4629C28.0177 76.8331 27.0387 77.6557 26.1815 77.5396L26.1757 83.2492Z" fill="#FFC5AB"/>
<path d="M41.0121 61.9542L41.2559 59.6856C41.2819 59.4411 41.2126 59.196 41.0623 59.0014C40.9125 58.8079 40.6929 58.6808 40.4505 58.6473L19.3857 55.7307C19.1961 55.704 19.0028 55.736 18.8319 55.8224C18.661 55.9088 18.5206 56.0455 18.4298 56.2141C18.3691 56.3262 18.3315 56.4495 18.3194 56.5764L15.6894 83.6818C15.6664 83.8938 15.7157 84.1074 15.8294 84.2879C15.9427 84.4679 16.1141 84.6039 16.3152 84.6732L17.4219 85.0701" stroke="url(#paint2_linear_14_2120)" stroke-width="1.72424" stroke-miterlimit="10"/>
<path d="M16.2051 60.4369L13.7489 69.5423C13.5348 70.481 13.1692 71.3736 12.9032 72.2892C12.7986 72.6161 12.8505 73.013 13.4532 73.316L26.199 77.061V83.4771C26.199 83.4771 6.88398 83.7216 2.32468 77.061C2.32468 77.061 -0.572115 73.9171 1.48398 70.0611C1.48398 70.2076 15.6024 40.5068 21.5697 38.8328C21.8942 38.8328 17.6362 48.4273 16.2282 60.4138" fill="url(#paint3_linear_14_2120)"/>
<defs>
<linearGradient id="paint0_linear_14_2120" x1="50.6423" y1="56.8819" x2="91.5589" y2="56.8819" gradientUnits="userSpaceOnUse">
<stop stop-color="#D93764"/>
<stop offset="1" stop-color="#F24F60"/>
</linearGradient>
<linearGradient id="paint1_linear_14_2120" x1="-2.00378e+06" y1="-22599.4" x2="-2.03969e+06" y2="-22599.4" gradientUnits="userSpaceOnUse">
<stop stop-color="#FF7A01"/>
<stop offset="1" stop-color="#FEB800"/>
</linearGradient>
<linearGradient id="paint2_linear_14_2120" x1="-2.19963e+06" y1="-21040.4" x2="-2.24239e+06" y2="-21040.4" gradientUnits="userSpaceOnUse">
<stop stop-color="#FF7A01"/>
<stop offset="1" stop-color="#FEB800"/>
</linearGradient>
<linearGradient id="paint3_linear_14_2120" x1="5107.37" y1="33274.9" x2="6032.4" y2="33274.9" gradientUnits="userSpaceOnUse">
<stop stop-color="#D93764"/>
<stop offset="1" stop-color="#F24F60"/>
</linearGradient>
</defs>
</svg>
