<svg width="388" height="270" viewBox="0 0 388 270" fill="none" xmlns="http://www.w3.org/2000/svg">
<rect width="388" height="270" rx="10.202" fill="#2C2E37"/>
<path d="M118.595 161.598C117.091 161.598 115.848 161.098 114.867 160.098C113.887 159.099 113.396 157.866 113.396 156.399C113.396 154.923 113.887 153.69 114.867 152.7C115.848 151.7 117.091 151.2 118.595 151.2C119.5 151.2 120.333 151.414 121.095 151.843C121.866 152.262 122.466 152.833 122.894 153.557L121.195 154.542C120.947 154.095 120.595 153.747 120.138 153.5C119.681 153.243 119.166 153.114 118.595 153.114C117.624 153.114 116.838 153.419 116.238 154.028C115.648 154.638 115.353 155.428 115.353 156.399C115.353 157.361 115.648 158.146 116.238 158.756C116.838 159.365 117.624 159.67 118.595 159.67C119.166 159.67 119.681 159.546 120.138 159.299C120.604 159.041 120.956 158.694 121.195 158.256L122.894 159.241C122.466 159.965 121.871 160.541 121.109 160.97C120.347 161.389 119.509 161.598 118.595 161.598ZM130.146 160.513C129.412 161.236 128.517 161.598 127.46 161.598C126.404 161.598 125.508 161.236 124.775 160.513C124.052 159.779 123.69 158.884 123.69 157.827C123.69 156.771 124.052 155.88 124.775 155.157C125.508 154.423 126.404 154.057 127.46 154.057C128.517 154.057 129.412 154.423 130.146 155.157C130.879 155.88 131.245 156.771 131.245 157.827C131.245 158.884 130.879 159.779 130.146 160.513ZM126.075 159.241C126.446 159.613 126.908 159.798 127.46 159.798C128.013 159.798 128.475 159.613 128.846 159.241C129.217 158.87 129.403 158.399 129.403 157.827C129.403 157.256 129.217 156.785 128.846 156.413C128.475 156.042 128.013 155.856 127.46 155.856C126.908 155.856 126.446 156.042 126.075 156.413C125.713 156.785 125.532 157.256 125.532 157.827C125.532 158.399 125.713 158.87 126.075 159.241ZM137.955 151.4H139.797V161.398H137.955V160.555C137.412 161.251 136.641 161.598 135.641 161.598C134.679 161.598 133.856 161.236 133.17 160.513C132.494 159.779 132.156 158.884 132.156 157.827C132.156 156.771 132.494 155.88 133.17 155.157C133.856 154.423 134.679 154.057 135.641 154.057C136.641 154.057 137.412 154.404 137.955 155.099V151.4ZM134.555 159.284C134.936 159.656 135.412 159.841 135.984 159.841C136.555 159.841 137.026 159.656 137.398 159.284C137.769 158.903 137.955 158.418 137.955 157.827C137.955 157.237 137.769 156.756 137.398 156.385C137.026 156.004 136.555 155.814 135.984 155.814C135.412 155.814 134.936 156.004 134.555 156.385C134.184 156.756 133.998 157.237 133.998 157.827C133.998 158.418 134.184 158.903 134.555 159.284ZM142.396 153.4C142.092 153.4 141.825 153.29 141.596 153.071C141.377 152.843 141.268 152.576 141.268 152.271C141.268 151.967 141.377 151.7 141.596 151.472C141.825 151.243 142.092 151.129 142.396 151.129C142.711 151.129 142.977 151.243 143.196 151.472C143.425 151.7 143.539 151.967 143.539 152.271C143.539 152.576 143.425 152.843 143.196 153.071C142.977 153.29 142.711 153.4 142.396 153.4ZM141.482 161.398V154.257H143.325V161.398H141.482ZM148.982 154.057C149.762 154.057 150.405 154.319 150.91 154.842C151.424 155.366 151.681 156.09 151.681 157.013V161.398H149.839V157.242C149.839 156.766 149.71 156.404 149.453 156.156C149.196 155.899 148.853 155.771 148.425 155.771C147.949 155.771 147.568 155.918 147.282 156.213C146.996 156.509 146.854 156.951 146.854 157.542V161.398H145.011V154.257H146.854V155.057C147.301 154.39 148.01 154.057 148.982 154.057ZM158.725 154.257H160.524V161.055C160.524 162.16 160.158 163.003 159.425 163.583C158.701 164.164 157.825 164.455 156.796 164.455C156.025 164.455 155.344 164.307 154.754 164.012C154.173 163.717 153.726 163.283 153.411 162.712L154.983 161.812C155.344 162.479 155.968 162.812 156.854 162.812C157.434 162.812 157.892 162.66 158.225 162.355C158.558 162.05 158.725 161.617 158.725 161.055V160.284C158.182 161.008 157.42 161.37 156.439 161.37C155.43 161.37 154.583 161.017 153.897 160.313C153.221 159.599 152.883 158.732 152.883 157.713C152.883 156.704 153.226 155.842 153.911 155.128C154.597 154.414 155.44 154.057 156.439 154.057C157.42 154.057 158.182 154.419 158.725 155.142V154.257ZM155.283 159.127C155.663 159.489 156.144 159.67 156.725 159.67C157.306 159.67 157.782 159.489 158.153 159.127C158.534 158.756 158.725 158.284 158.725 157.713C158.725 157.151 158.534 156.69 158.153 156.328C157.782 155.956 157.306 155.771 156.725 155.771C156.144 155.771 155.663 155.956 155.283 156.328C154.911 156.69 154.725 157.151 154.725 157.713C154.725 158.284 154.911 158.756 155.283 159.127ZM171.893 156.213C172.769 156.718 173.207 157.48 173.207 158.499C173.207 159.346 172.907 160.041 172.307 160.584C171.707 161.127 170.969 161.398 170.093 161.398H165.851V151.4H169.793C170.65 151.4 171.369 151.667 171.95 152.2C172.541 152.724 172.836 153.395 172.836 154.214C172.836 155.042 172.521 155.709 171.893 156.213ZM169.793 153.243H167.822V155.442H169.793C170.098 155.442 170.351 155.337 170.55 155.128C170.76 154.919 170.865 154.657 170.865 154.342C170.865 154.028 170.765 153.766 170.565 153.557C170.365 153.347 170.108 153.243 169.793 153.243ZM170.093 159.556C170.427 159.556 170.703 159.446 170.922 159.227C171.141 158.999 171.25 158.713 171.25 158.37C171.25 158.037 171.141 157.761 170.922 157.542C170.703 157.313 170.427 157.199 170.093 157.199H167.822V159.556H170.093ZM174.414 161.398V150.972H176.256V161.398H174.414ZM184.027 160.513C183.294 161.236 182.399 161.598 181.342 161.598C180.285 161.598 179.39 161.236 178.657 160.513C177.933 159.779 177.571 158.884 177.571 157.827C177.571 156.771 177.933 155.88 178.657 155.157C179.39 154.423 180.285 154.057 181.342 154.057C182.399 154.057 183.294 154.423 184.027 155.157C184.76 155.88 185.127 156.771 185.127 157.827C185.127 158.884 184.76 159.779 184.027 160.513ZM179.956 159.241C180.328 159.613 180.789 159.798 181.342 159.798C181.894 159.798 182.356 159.613 182.727 159.241C183.098 158.87 183.284 158.399 183.284 157.827C183.284 157.256 183.098 156.785 182.727 156.413C182.356 156.042 181.894 155.856 181.342 155.856C180.789 155.856 180.328 156.042 179.956 156.413C179.594 156.785 179.413 157.256 179.413 157.827C179.413 158.399 179.594 158.87 179.956 159.241ZM189.822 161.598C188.746 161.598 187.846 161.236 187.123 160.513C186.408 159.789 186.051 158.894 186.051 157.827C186.051 156.761 186.408 155.866 187.123 155.142C187.846 154.419 188.746 154.057 189.822 154.057C190.517 154.057 191.15 154.223 191.722 154.557C192.293 154.89 192.726 155.337 193.021 155.899L191.436 156.828C191.293 156.532 191.074 156.299 190.779 156.128C190.493 155.956 190.17 155.871 189.808 155.871C189.256 155.871 188.798 156.056 188.437 156.428C188.075 156.79 187.894 157.256 187.894 157.827C187.894 158.389 188.075 158.856 188.437 159.227C188.798 159.589 189.256 159.77 189.808 159.77C190.179 159.77 190.508 159.689 190.793 159.527C191.088 159.356 191.307 159.122 191.45 158.827L193.05 159.741C192.736 160.303 192.293 160.755 191.722 161.098C191.15 161.431 190.517 161.598 189.822 161.598ZM200.609 161.398H198.466L195.867 158.156V161.398H194.024V151.4H195.867V157.399L198.324 154.257H200.523L197.652 157.785L200.609 161.398ZM202.754 156.285C202.754 156.475 202.878 156.632 203.125 156.756C203.382 156.87 203.692 156.975 204.054 157.07C204.415 157.156 204.777 157.27 205.139 157.413C205.501 157.547 205.806 157.775 206.053 158.099C206.31 158.423 206.439 158.827 206.439 159.313C206.439 160.046 206.163 160.613 205.61 161.012C205.068 161.403 204.387 161.598 203.568 161.598C202.102 161.598 201.102 161.032 200.569 159.898L202.168 158.999C202.378 159.618 202.844 159.927 203.568 159.927C204.225 159.927 204.554 159.722 204.554 159.313C204.554 159.122 204.425 158.97 204.168 158.856C203.92 158.732 203.616 158.623 203.254 158.527C202.892 158.432 202.53 158.313 202.168 158.17C201.806 158.027 201.497 157.804 201.24 157.499C200.992 157.185 200.869 156.794 200.869 156.328C200.869 155.623 201.126 155.071 201.64 154.671C202.164 154.262 202.811 154.057 203.582 154.057C204.163 154.057 204.692 154.19 205.168 154.457C205.644 154.714 206.02 155.085 206.296 155.571L204.725 156.428C204.496 155.942 204.116 155.699 203.582 155.699C203.344 155.699 203.144 155.752 202.982 155.856C202.83 155.961 202.754 156.104 202.754 156.285ZM211.35 164.255V151.115H213.192V164.255H211.35ZM227.029 160.098C226.02 161.098 224.792 161.598 223.344 161.598C221.897 161.598 220.669 161.098 219.659 160.098C218.66 159.089 218.16 157.856 218.16 156.399C218.16 154.942 218.66 153.714 219.659 152.714C220.669 151.705 221.897 151.2 223.344 151.2C224.792 151.2 226.02 151.705 227.029 152.714C228.039 153.714 228.543 154.942 228.543 156.399C228.543 157.856 228.039 159.089 227.029 160.098ZM221.045 158.756C221.664 159.365 222.43 159.67 223.344 159.67C224.259 159.67 225.025 159.365 225.644 158.756C226.263 158.137 226.572 157.351 226.572 156.399C226.572 155.447 226.263 154.661 225.644 154.042C225.025 153.424 224.259 153.114 223.344 153.114C222.43 153.114 221.664 153.424 221.045 154.042C220.426 154.661 220.117 155.447 220.117 156.399C220.117 157.351 220.426 158.137 221.045 158.756ZM233.814 154.057C234.594 154.057 235.237 154.319 235.742 154.842C236.256 155.366 236.513 156.09 236.513 157.013V161.398H234.671V157.242C234.671 156.766 234.542 156.404 234.285 156.156C234.028 155.899 233.685 155.771 233.257 155.771C232.78 155.771 232.4 155.918 232.114 156.213C231.828 156.509 231.685 156.951 231.685 157.542V161.398H229.843V154.257H231.685V155.057C232.133 154.39 232.842 154.057 233.814 154.057ZM238.086 161.398V150.972H239.929V161.398H238.086ZM242.529 153.4C242.225 153.4 241.958 153.29 241.729 153.071C241.51 152.843 241.401 152.576 241.401 152.271C241.401 151.967 241.51 151.7 241.729 151.472C241.958 151.243 242.225 151.129 242.529 151.129C242.843 151.129 243.11 151.243 243.329 151.472C243.558 151.7 243.672 151.967 243.672 152.271C243.672 152.576 243.558 152.843 243.329 153.071C243.11 153.29 242.843 153.4 242.529 153.4ZM241.615 161.398V154.257H243.458V161.398H241.615ZM249.115 154.057C249.895 154.057 250.538 154.319 251.043 154.842C251.557 155.366 251.814 156.09 251.814 157.013V161.398H249.972V157.242C249.972 156.766 249.843 156.404 249.586 156.156C249.329 155.899 248.986 155.771 248.558 155.771C248.081 155.771 247.701 155.918 247.415 156.213C247.129 156.509 246.986 156.951 246.986 157.542V161.398H245.144V154.257H246.986V155.057C247.434 154.39 248.143 154.057 249.115 154.057ZM254.944 158.584C255.192 159.479 255.863 159.927 256.958 159.927C257.663 159.927 258.196 159.689 258.558 159.213L260.043 160.07C259.338 161.089 258.301 161.598 256.929 161.598C255.749 161.598 254.801 161.241 254.087 160.527C253.373 159.813 253.016 158.913 253.016 157.827C253.016 156.751 253.368 155.856 254.073 155.142C254.777 154.419 255.682 154.057 256.787 154.057C257.834 154.057 258.696 154.419 259.372 155.142C260.057 155.866 260.4 156.761 260.4 157.827C260.4 158.065 260.376 158.318 260.329 158.584H254.944ZM254.916 157.156H258.558C258.453 156.671 258.234 156.309 257.901 156.071C257.577 155.833 257.206 155.714 256.787 155.714C256.291 155.714 255.882 155.842 255.558 156.099C255.234 156.347 255.02 156.699 254.916 157.156Z" fill="white"/>
<path d="M192.241 136.225C183.399 136.225 176.23 129.01 176.23 120.112C176.23 111.214 183.399 104 192.241 104C201.083 104 208.252 111.214 208.252 120.112C208.252 129.01 201.083 136.225 192.241 136.225ZM188.239 112.068V128.156L200.247 120.112L188.239 112.068Z" fill="white"/>
</svg>
