<svg width="44" height="33" viewBox="0 0 44 33" fill="none" xmlns="http://www.w3.org/2000/svg">
<path d="M21.6435 19.0974C21.8346 19.0974 22.0257 19.0974 22.2168 18.9064L26.9945 15.6598C27.3767 15.4689 27.95 15.2779 28.5233 15.2779H40.754C42.2829 15.2779 43.6206 13.9411 43.6206 12.4133V2.86461C43.6206 1.33682 42.2829 0 40.754 0H23.5546C22.0257 0 20.688 1.33682 20.688 2.86461V18.1425C20.688 18.5245 20.8791 18.9064 21.2613 18.9064C21.2613 19.0974 21.4524 19.0974 21.6435 19.0974ZM40.754 1.90974C41.3273 1.90974 41.7096 2.29168 41.7096 2.86461V12.4133C41.7096 12.9862 41.3273 13.3682 40.754 13.3682H28.5233C27.5678 13.3682 26.6123 13.5591 25.8478 14.1321L22.599 16.4237V2.86461C22.599 2.29168 22.9813 1.90974 23.5546 1.90974H40.754Z" fill="url(#paint0_linear)"/>
<path d="M10.5105 21.5417C7.2617 21.5417 4.77734 19.0591 4.77734 15.8125C4.77734 12.566 7.2617 10.0834 10.5105 10.0834C13.7592 10.0834 16.2436 12.566 16.2436 15.8125C16.2436 19.0591 13.7592 21.5417 10.5105 21.5417ZM10.5105 11.9931C8.40832 11.9931 6.68839 13.7118 6.68839 15.8125C6.68839 17.9132 8.40832 19.632 10.5105 19.632C12.6126 19.632 14.3326 17.9132 14.3326 15.8125C14.3326 13.7118 12.6126 11.9931 10.5105 11.9931Z" fill="white"/>
<path d="M20.066 33C19.4927 33 19.1105 32.6181 19.1105 32.0452V28.2258C19.1105 26.698 17.7728 25.3612 16.2439 25.3612H4.77763C3.24879 25.3612 1.91105 26.698 1.91105 28.2258V32.0452C1.91105 32.6181 1.52884 33 0.955526 33C0.38221 33 0 32.6181 0 32.0452V28.2258C0 25.5522 2.10216 23.4515 4.77763 23.4515H16.2439C18.9194 23.4515 21.0216 25.5522 21.0216 28.2258V32.0452C21.0216 32.6181 20.6394 33 20.066 33Z" fill="white"/>
<defs>
<linearGradient id="paint0_linear" x1="43.6206" y1="19.0974" x2="20.688" y2="19.0974" gradientUnits="userSpaceOnUse">
<stop stop-color="#FB8133"/>
<stop offset="1" stop-color="#FFBA08"/>
</linearGradient>
</defs>
</svg>
