<svg width="35" height="33" viewBox="0 0 35 33" fill="none" xmlns="http://www.w3.org/2000/svg">
<path d="M17.1858 32.9166C16.7905 32.9166 16.4697 32.596 16.4697 32.201V23.6142C16.4697 23.2193 16.7905 22.8987 17.1858 22.8987C17.5811 22.8987 17.9019 23.2193 17.9019 23.6142V32.201C17.9019 32.596 17.5811 32.9166 17.1858 32.9166Z" fill="white"/>
<path d="M23.6304 32.917C23.4943 32.917 23.3568 32.8784 23.2337 32.7968L16.789 28.5031C16.4596 28.2842 16.3708 27.8405 16.5899 27.5113C16.809 27.1821 17.2516 27.0934 17.5824 27.3124L24.0271 31.606C24.3565 31.825 24.4453 32.2687 24.2262 32.5979C24.0887 32.8054 23.861 32.917 23.6304 32.917Z" fill="white"/>
<path d="M10.7413 32.9166C10.5093 32.9166 10.283 32.805 10.1441 32.5975C9.92498 32.2683 10.0138 31.8247 10.3432 31.6057L16.7879 27.3122C17.1173 27.0919 17.5627 27.182 17.7804 27.5112C17.9995 27.8403 17.9107 28.284 17.5813 28.503L11.1366 32.7964C11.0163 32.878 10.8788 32.9166 10.7413 32.9166Z" fill="white"/>
<path d="M31.5075 5.72477H2.86432C1.28465 5.72477 0 4.44099 0 2.86238C0 1.28378 1.28465 0 2.86432 0H31.5075C33.0871 0 34.3718 1.28378 34.3718 2.86238C34.3718 4.44099 33.0871 5.72477 31.5075 5.72477ZM2.86432 1.43119C2.0752 1.43119 1.43216 2.0738 1.43216 2.86238C1.43216 3.65097 2.0752 4.29358 2.86432 4.29358H31.5075C32.2966 4.29358 32.9396 3.65097 32.9396 2.86238C32.9396 2.0738 32.2966 1.43119 31.5075 1.43119H2.86432Z" fill="white"/>
<path d="M29.3592 24.3297H5.01249C3.8281 24.3297 2.86426 23.3665 2.86426 22.183V5.0088C2.86426 4.6138 3.18506 4.29321 3.58034 4.29321H30.7913C31.1866 4.29321 31.5074 4.6138 31.5074 5.0088V22.183C31.5074 23.3665 30.5436 24.3297 29.3592 24.3297ZM4.29642 5.72439V22.183C4.29642 22.578 4.61722 22.8986 5.01249 22.8986H29.3592C29.7544 22.8986 30.0753 22.578 30.0753 22.183V5.72439H4.29642Z" fill="white"/>
<path d="M9.30921 20.0362C9.12589 20.0362 8.94258 19.9661 8.80223 19.8273C8.52296 19.5482 8.52296 19.0945 8.80223 18.8154L14.5309 13.0909C14.7729 12.849 15.151 12.8118 15.4346 13.0007L19.1854 15.4995L24.503 8.85609C24.7507 8.54982 25.2004 8.49687 25.5098 8.74446C25.8177 8.99205 25.8678 9.44143 25.6215 9.75056L19.8929 16.9063C19.6609 17.1954 19.247 17.2626 18.9362 17.0551L15.1281 14.5191L9.81476 19.8287C9.67584 19.9661 9.49253 20.0362 9.30921 20.0362Z" fill="url(#paint0_linear)"/>
<defs>
<linearGradient id="paint0_linear" x1="8.59277" y1="20.0362" x2="25.7779" y2="20.0362" gradientUnits="userSpaceOnUse">
<stop stop-color="#FB8133"/>
<stop offset="1" stop-color="#FFBA08"/>
</linearGradient>
</defs>
</svg>
