<svg width="40" height="39" viewBox="0 0 40 39" fill="none" xmlns="http://www.w3.org/2000/svg">
<path d="M28.5476 38.7811C22.7523 38.7811 18.0371 34.0692 18.0371 28.2778C18.0371 22.4865 22.7523 17.7745 28.5476 17.7745C34.343 17.7745 39.0582 22.4865 39.0582 28.2778C39.0582 34.0692 34.343 38.7811 28.5476 38.7811ZM28.5476 19.3904C23.6433 19.3904 19.6541 23.3784 19.6541 28.2778C19.6541 33.1772 23.6433 37.1652 28.5476 37.1652C33.452 37.1652 37.4412 33.1772 37.4412 28.2778C37.4412 23.3784 33.452 19.3904 28.5476 19.3904Z" fill="url(#paint0_linear)"/>
<path d="M26.9306 32.3175C26.7172 32.3175 26.5102 32.2318 26.3582 32.0815L23.1242 28.8498C22.8089 28.5347 22.8089 28.0225 23.1242 27.7074C23.4395 27.3923 23.9521 27.3923 24.2674 27.7074L26.8902 30.3283L31.9805 24.5144C32.2748 24.1767 32.7858 24.1444 33.1221 24.4385C33.4585 24.7326 33.4924 25.2416 33.1981 25.5777L27.5386 32.0411C27.3915 32.2092 27.1796 32.3094 26.9565 32.3175C26.9484 32.3175 26.9387 32.3175 26.9306 32.3175Z" fill="white"/>
<path d="M15.6115 33.9335H4.29251C2.06428 33.9335 0.25 32.1221 0.25 29.8938V8.88736C0.25 6.65906 2.06428 4.84766 4.29251 4.84766H7.52652C7.97281 4.84766 8.33502 5.20961 8.33502 5.6556C8.33502 6.10158 7.97281 6.46354 7.52652 6.46354H4.29251C2.95525 6.46354 1.867 7.55103 1.867 8.88736V29.8938C1.867 31.2302 2.95525 32.3177 4.29251 32.3177H15.6115C16.0578 32.3177 16.42 32.6796 16.42 33.1256C16.42 33.5716 16.0578 33.9335 15.6115 33.9335Z" fill="white"/>
<path d="M26.9308 14.5429C26.4845 14.5429 26.1223 14.181 26.1223 13.735V8.88736C26.1223 7.55103 25.0341 6.46354 23.6968 6.46354H20.4628C20.0165 6.46354 19.6543 6.10158 19.6543 5.6556C19.6543 5.20961 20.0165 4.84766 20.4628 4.84766H23.6968C25.925 4.84766 27.7393 6.65906 27.7393 8.88736V13.735C27.7393 14.181 27.3771 14.5429 26.9308 14.5429Z" fill="white"/>
<path d="M18.8458 9.69529H9.14377C7.8065 9.69529 6.71826 8.6078 6.71826 7.27147V4.03971C6.71826 3.59372 7.08047 3.23176 7.52676 3.23176H10.0331C10.4099 1.38966 12.0414 0 13.9948 0C15.9481 0 17.5797 1.38966 17.9564 3.23176H20.4628C20.9091 3.23176 21.2713 3.59372 21.2713 4.03971V7.27147C21.2713 8.6078 20.183 9.69529 18.8458 9.69529ZM8.33526 4.84765V7.27147C8.33526 7.71584 8.69747 8.07941 9.14377 8.07941H18.8458C19.2921 8.07941 19.6543 7.71584 19.6543 7.27147V4.84765H17.2288C16.7825 4.84765 16.4203 4.48569 16.4203 4.03971C16.4203 2.70337 15.332 1.61588 13.9948 1.61588C12.6575 1.61588 11.5693 2.70337 11.5693 4.03971C11.5693 4.48569 11.2071 4.84765 10.7608 4.84765H8.33526Z" fill="white"/>
<path d="M22.0796 14.5429H5.90958C5.46328 14.5429 5.10107 14.1809 5.10107 13.7349C5.10107 13.2889 5.46328 12.9269 5.90958 12.9269H22.0796C22.5259 12.9269 22.8881 13.2889 22.8881 13.7349C22.8881 14.1809 22.5259 14.5429 22.0796 14.5429Z" fill="white"/>
<path d="M17.2286 19.3905H5.90958C5.46328 19.3905 5.10107 19.0286 5.10107 18.5825C5.10107 18.1365 5.46328 17.7745 5.90958 17.7745H17.2286C17.6749 17.7745 18.0371 18.1365 18.0371 18.5825C18.0371 19.0286 17.6749 19.3905 17.2286 19.3905Z" fill="white"/>
<path d="M13.9946 24.2382H5.90958C5.46328 24.2382 5.10107 23.8762 5.10107 23.4302C5.10107 22.9842 5.46328 22.6222 5.90958 22.6222H13.9946C14.4409 22.6222 14.8031 22.9842 14.8031 23.4302C14.8031 23.8762 14.4409 24.2382 13.9946 24.2382Z" fill="white"/>
<defs>
<linearGradient id="paint0_linear" x1="18.0371" y1="38.7811" x2="39.0582" y2="38.7811" gradientUnits="userSpaceOnUse">
<stop stop-color="#FB8133"/>
<stop offset="1" stop-color="#FFBA08"/>
</linearGradient>
</defs>
</svg>
