<svg width="34" height="30" viewBox="0 0 34 30" fill="none" xmlns="http://www.w3.org/2000/svg">
<path d="M31.0634 0H2.0709C1.52166 0 0.99492 0.218183 0.606551 0.606551C0.218183 0.99492 0 1.52166 0 2.0709V22.7799C0 23.3291 0.218183 23.8558 0.606551 24.2442C0.99492 24.6326 1.52166 24.8508 2.0709 24.8508H17.6026L18.1928 24.1259L19.1558 22.9455L19.0626 22.7799H2.0709V2.0709H31.0634V10.9343C31.8501 11.4436 32.5494 12.0764 33.1343 12.8085V2.0709C33.1343 1.52166 32.9162 0.99492 32.5278 0.606551C32.1394 0.218183 31.6127 0 31.0634 0Z" fill="white"/>
<path d="M5.17773 6.21265H22.7804V7.86936H5.17773V6.21265Z" fill="white"/>
<path d="M5.17773 10.3545H16.5677V12.0112H5.17773V10.3545Z" fill="white"/>
<path d="M5.17773 17.6027H15.5322V19.2594H5.17773V17.6027Z" fill="white"/>
<path d="M26.3624 11.6281C25.0373 11.6176 23.7399 12.0071 22.6397 12.7456C21.5396 13.4841 20.6877 14.5373 20.1956 15.7676C19.7035 16.9979 19.594 18.348 19.8813 19.6416C20.1687 20.9351 20.8396 22.1119 21.8064 23.0181L19.7976 25.4721L20.7295 29.21L24.5193 24.592C25.7189 24.9467 26.9955 24.9467 28.1951 24.592L31.9848 29.21L32.9167 25.4721L30.908 23.0181C31.8747 22.1119 32.5456 20.9351 32.833 19.6416C33.1204 18.348 33.0108 16.9979 32.5187 15.7676C32.0266 14.5373 31.1748 13.4841 30.0746 12.7456C28.9744 12.0071 27.677 11.6176 26.352 11.6281H26.3624ZM26.3624 22.6867C25.4824 22.6745 24.6258 22.4024 23.9001 21.9046C23.1744 21.4068 22.6121 20.7056 22.2838 19.8892C21.9556 19.0727 21.876 18.1774 22.0552 17.3158C22.2343 16.4543 22.6642 15.6649 23.2907 15.047C23.9172 14.429 24.7125 14.0101 25.5764 13.8429C26.4404 13.6757 27.3345 13.7676 28.1464 14.1071C28.9582 14.4467 29.6516 15.0186 30.1392 15.7511C30.6269 16.4836 30.8872 17.344 30.8873 18.2239C30.8763 19.4149 30.3941 20.5531 29.5461 21.3895C28.6981 22.2258 27.5534 22.6923 26.3624 22.6867Z" fill="url(#paint0_linear_652_4159)"/>
<defs>
<linearGradient id="paint0_linear_652_4159" x1="19.7246" y1="20.419" x2="32.9897" y2="20.419" gradientUnits="userSpaceOnUse">
<stop stop-color="#FB8530"/>
<stop offset="1" stop-color="#FEB50B"/>
</linearGradient>
</defs>
</svg>
