<svg width="24" height="23" viewBox="0 0 24 23" fill="none" xmlns="http://www.w3.org/2000/svg">
<path d="M21.0841 18.0408C22.5465 16.7375 23.3745 15.0003 23.3745 13.1975C23.3745 11.2816 22.4776 9.48987 20.849 8.15196C19.2639 6.85027 17.1659 6.1333 14.941 6.1333C12.7162 6.1333 10.6182 6.85027 9.03333 8.15205C7.40471 9.48987 6.50781 11.2816 6.50781 13.1975C6.50781 15.1134 7.40471 16.9052 9.03333 18.2431C10.6182 19.5449 12.7162 20.2618 14.941 20.2618C15.2375 20.2618 15.5358 20.2487 15.8316 20.2227L16.3369 20.6607C18.0778 22.1692 20.3041 22.9997 22.6076 22.9998H23.3743V21.3679L23.1497 21.1434C22.264 20.255 21.562 19.2007 21.0841 18.0408ZM17.3411 19.5019L16.3272 18.6231L15.9891 18.6645C15.6413 18.707 15.2914 18.7284 14.941 18.7284C11.1365 18.7284 8.04113 16.2472 8.04113 13.1975C8.04113 10.1478 11.1365 7.66662 14.941 7.66662C18.7456 7.66662 21.841 10.1478 21.841 13.1975C21.841 14.7169 21.0829 16.1354 19.7065 17.1917L19.2649 17.5305L19.4687 18.1072C19.8862 19.285 20.4999 20.3836 21.2838 21.3567C19.824 21.113 18.4596 20.4712 17.3411 19.5019Z" fill="white"/>
<path d="M2.4912 14.4456C3.20885 13.5371 3.77231 12.5169 4.15906 11.4257L4.36127 10.8519L3.9201 10.5134C2.62215 9.51738 1.90734 8.18062 1.90734 6.74932C1.90734 3.8732 4.83065 1.53332 8.42393 1.53332C11.0674 1.53332 13.3481 2.79974 14.3692 4.61432C14.5588 4.60512 14.7492 4.59995 14.9405 4.59995C15.3247 4.59995 15.7054 4.61858 16.0825 4.65586C15.688 3.63357 15.0027 2.70036 14.0605 1.92651C12.5482 0.684194 10.5466 0 8.42393 0C6.30124 0 4.29969 0.684194 2.78727 1.92651C1.23105 3.20487 0.374023 4.91763 0.374023 6.74932C0.374023 8.46471 1.15755 10.1176 2.54223 11.3609C2.09035 12.4484 1.43007 13.4369 0.598606 14.2708L0.374023 14.4953V16.0998H1.14068C2.55838 16.0996 3.95658 15.7695 5.22462 15.1355C5.08557 14.6085 5.0041 14.0679 4.98164 13.5234C4.212 13.9744 3.369 14.2866 2.4912 14.4456Z" fill="url(#paint0_linear_426_3306)"/>
<defs>
<linearGradient id="paint0_linear_426_3306" x1="0.374024" y1="8.0499" x2="16.0825" y2="8.0499" gradientUnits="userSpaceOnUse">
<stop stop-color="#FB8530"/>
<stop offset="1" stop-color="#FEB50B"/>
</linearGradient>
</defs>
</svg>
