<svg width="186" height="186" viewBox="0 0 186 186" fill="none" xmlns="http://www.w3.org/2000/svg">
<g filter="url(#filter0_d_4157_11012)">
<circle cx="93" cy="78" r="61" fill="url(#paint0_linear_4157_11012)"/>
</g>
<path d="M77.1196 87.719H72.433V94H65.0407V87.719H50.5944V82.1144L66.3936 59.5994H72.433V81.8728H77.1196V87.719ZM65.0407 81.8728V71.0502L57.5035 81.8728H65.0407ZM94.5426 71.7266C96.6685 71.7266 98.5528 72.1936 100.195 73.1277C101.87 74.0296 103.159 75.318 104.061 76.993C104.995 78.6679 105.462 80.6005 105.462 82.7908C105.462 85.11 104.914 87.1553 103.819 88.9269C102.756 90.6662 101.21 92.0191 99.1809 92.9854C97.1838 93.9195 94.8486 94.3865 92.1751 94.3865C89.9848 94.3865 87.8106 94.0322 85.6525 93.3236C83.5267 92.615 81.8034 91.6809 80.4828 90.5213L82.8986 85.11C85.9585 87.3325 89.0829 88.4437 92.2718 88.4437C96.2981 88.4437 98.3112 86.6561 98.3112 83.0807C98.3112 81.3736 97.7797 80.0368 96.7168 79.0705C95.6861 78.072 94.2688 77.5727 92.465 77.5727C91.3377 77.5727 90.1942 77.7821 89.0346 78.2008C87.9073 78.6196 86.8926 79.1994 85.9908 79.9402H81.6907V59.5994H103.771V65.3973H89.0346V73.0794C90.5485 72.1775 92.3845 71.7266 94.5426 71.7266ZM134.915 94H126.315L120.372 86.5111L114.43 94H105.878L116.217 81.3897L106.506 69.5041H115.106L120.372 76.3165L125.639 69.5041H134.287L124.576 81.3897L134.915 94Z" fill="white"/>
<path d="M75.416 108.064V113.344C74.968 113.579 74.3813 113.771 73.656 113.92C72.9307 114.059 72.1947 114.128 71.448 114.128C70.3173 114.128 69.3413 113.899 68.52 113.44C67.6987 112.971 67.0693 112.299 66.632 111.424C66.2053 110.549 65.992 109.504 65.992 108.288C65.992 107.083 66.2053 106.048 66.632 105.184C67.0693 104.309 67.688 103.643 68.488 103.184C69.2987 102.715 70.2533 102.48 71.352 102.48C72.152 102.48 72.8827 102.603 73.544 102.848C74.216 103.083 74.792 103.44 75.272 103.92L74.76 104.928C74.2053 104.459 73.6613 104.123 73.128 103.92C72.6053 103.707 72.0133 103.6 71.352 103.6C70.0613 103.6 69.0693 104.005 68.376 104.816C67.6933 105.616 67.352 106.773 67.352 108.288C67.352 109.835 67.704 111.013 68.408 111.824C69.112 112.624 70.136 113.024 71.48 113.024C72.4293 113.024 73.3413 112.875 74.216 112.576V109.104H71.384V108.064H75.416ZM81.6951 105.76C81.9618 105.76 82.2071 105.792 82.4311 105.856L82.3991 107.04C82.1538 106.955 81.8711 106.912 81.5511 106.912C80.7725 106.912 80.1911 107.157 79.8071 107.648C79.4338 108.128 79.2471 108.715 79.2471 109.408V114H77.9511V108.208C77.9511 107.376 77.9085 106.624 77.8231 105.952H79.0551L79.1831 107.44C79.3858 106.896 79.7111 106.48 80.1591 106.192C80.6071 105.904 81.1191 105.76 81.6951 105.76ZM86.9198 114.112C86.1624 114.112 85.4958 113.941 84.9198 113.6C84.3438 113.259 83.8958 112.773 83.5758 112.144C83.2664 111.515 83.1118 110.779 83.1118 109.936C83.1118 109.093 83.2664 108.357 83.5758 107.728C83.8958 107.099 84.3438 106.613 84.9198 106.272C85.4958 105.931 86.1624 105.76 86.9198 105.76C87.6771 105.76 88.3438 105.931 88.9198 106.272C89.4958 106.613 89.9384 107.099 90.2478 107.728C90.5678 108.357 90.7278 109.093 90.7278 109.936C90.7278 110.779 90.5678 111.515 90.2478 112.144C89.9384 112.773 89.4958 113.259 88.9198 113.6C88.3438 113.941 87.6771 114.112 86.9198 114.112ZM86.9198 113.04C87.7198 113.04 88.3331 112.779 88.7598 112.256C89.1864 111.723 89.3998 110.949 89.3998 109.936C89.3998 108.955 89.1811 108.197 88.7438 107.664C88.3064 107.12 87.6984 106.848 86.9198 106.848C86.1304 106.848 85.5171 107.12 85.0798 107.664C84.6424 108.197 84.4238 108.955 84.4238 109.936C84.4238 110.949 84.6371 111.723 85.0638 112.256C85.5011 112.779 86.1198 113.04 86.9198 113.04ZM104.878 105.952L101.902 114H100.654L98.3503 107.712L96.0623 114H94.8143L91.8383 105.952H93.1983L95.4703 112.448L97.8223 105.952H98.9583L101.278 112.464L103.598 105.952H104.878ZM108.46 106.976V111.376C108.46 111.973 108.583 112.395 108.828 112.64C109.074 112.875 109.42 112.992 109.868 112.992C110.167 112.992 110.455 112.944 110.732 112.848V113.952C110.402 114.059 110.028 114.112 109.612 114.112C108.844 114.112 108.242 113.899 107.804 113.472C107.378 113.035 107.164 112.395 107.164 111.552V106.976H105.596V105.952H107.164V103.888L108.46 103.424V105.952H110.764V106.976H108.46ZM116.342 105.76C118.273 105.76 119.238 106.821 119.238 108.944V114H117.942V109.008C117.942 108.261 117.793 107.717 117.494 107.376C117.195 107.024 116.726 106.848 116.086 106.848C115.339 106.848 114.742 107.077 114.294 107.536C113.846 107.995 113.622 108.613 113.622 109.392V114H112.326V102.224H113.622V107.264C113.878 106.773 114.241 106.4 114.71 106.144C115.19 105.888 115.734 105.76 116.342 105.76Z" fill="white"/>
<defs>
<filter id="filter0_d_4157_11012" x="0" y="0" width="186" height="186" filterUnits="userSpaceOnUse" color-interpolation-filters="sRGB">
<feFlood flood-opacity="0" result="BackgroundImageFix"/>
<feColorMatrix in="SourceAlpha" type="matrix" values="0 0 0 0 0 0 0 0 0 0 0 0 0 0 0 0 0 0 127 0" result="hardAlpha"/>
<feOffset dy="15"/>
<feGaussianBlur stdDeviation="16"/>
<feColorMatrix type="matrix" values="0 0 0 0 0 0 0 0 0 0 0 0 0 0 0 0 0 0 0.2 0"/>
<feBlend mode="normal" in2="BackgroundImageFix" result="effect1_dropShadow_4157_11012"/>
<feBlend mode="normal" in="SourceGraphic" in2="effect1_dropShadow_4157_11012" result="shape"/>
</filter>
<linearGradient id="paint0_linear_4157_11012" x1="32" y1="139" x2="154" y2="139" gradientUnits="userSpaceOnUse">
<stop stop-color="#258EE8"/>
<stop offset="1" stop-color="#2AB5ED"/>
</linearGradient>
</defs>
</svg>
