<svg width="186" height="186" viewBox="0 0 186 186" fill="none" xmlns="http://www.w3.org/2000/svg">
<path d="M93 139C126.689 139 154 111.689 154 78C154 44.3106 126.689 17 93 17C59.3106 17 32 44.3106 32 78C32 111.689 59.3106 139 93 139Z" fill="url(#paint0_linear_910_2827)"/>
<path d="M75.5 95.8871V101.21C75.0484 101.447 74.457 101.64 73.7258 101.79C72.9947 101.93 72.2527 102 71.5 102C70.3602 102 69.3763 101.769 68.5484 101.306C67.7205 100.834 67.086 100.156 66.6452 99.2742C66.215 98.3921 66 97.3387 66 96.1129C66 94.8982 66.215 93.8548 66.6452 92.9839C67.086 92.1018 67.7097 91.4304 68.5161 90.9677C69.3334 90.495 70.2957 90.2581 71.4032 90.2581C72.2097 90.2581 72.9463 90.3821 73.6129 90.629C74.2903 90.8659 74.871 91.2258 75.3548 91.7097L74.8387 92.7258C74.2795 92.253 73.7312 91.9143 73.1935 91.7097C72.6666 91.495 72.0699 91.3871 71.4032 91.3871C70.1021 91.3871 69.1021 91.7954 68.4032 92.6129C67.715 93.4194 67.371 94.5857 67.371 96.1129C67.371 97.6724 67.7258 98.8599 68.4355 99.6774C69.1452 100.484 70.1774 100.887 71.5323 100.887C72.4892 100.887 73.4086 100.737 74.2903 100.435V96.9355H71.4355V95.8871H75.5ZM81.8297 93.5645C82.0986 93.5645 82.3459 93.5968 82.5717 93.6613L82.5394 94.8548C82.2921 94.7692 82.0072 94.7258 81.6846 94.7258C80.8997 94.7258 80.3136 94.9728 79.9265 95.4677C79.5502 95.9516 79.362 96.5433 79.362 97.2419V101.871H78.0556V96.0323C78.0556 95.1936 78.0126 94.4355 77.9265 93.7581H79.1685L79.2975 95.2581C79.5018 94.7097 79.8297 94.2903 80.2814 94C80.733 93.7097 81.2491 93.5645 81.8297 93.5645ZM87.0966 101.984C86.3331 101.984 85.6611 101.811 85.0804 101.468C84.4998 101.124 84.0482 100.634 83.7256 100C83.4137 99.3659 83.2579 98.624 83.2579 97.7742C83.2579 96.9244 83.4137 96.1825 83.7256 95.5484C84.0482 94.9143 84.4998 94.4244 85.0804 94.0806C85.6611 93.7369 86.3331 93.5645 87.0966 93.5645C87.86 93.5645 88.5321 93.7369 89.1127 94.0806C89.6933 94.4244 90.1395 94.9143 90.4514 95.5484C90.774 96.1825 90.9353 96.9244 90.9353 97.7742C90.9353 98.624 90.774 99.3659 90.4514 100C90.1395 100.634 89.6933 101.124 89.1127 101.468C88.5321 101.811 87.86 101.984 87.0966 101.984ZM87.0966 100.903C87.903 100.903 88.5213 100.64 88.9514 100.113C89.3815 99.5756 89.5966 98.7954 89.5966 97.7742C89.5966 96.7853 89.3761 96.0212 88.9353 95.4839C88.4944 94.9355 87.8815 94.6613 87.0966 94.6613C86.3008 94.6613 85.6826 94.9355 85.2417 95.4839C84.8008 96.0212 84.5804 96.7853 84.5804 97.7742C84.5804 98.7954 84.7955 99.5756 85.2256 100.113C85.6664 100.64 86.2901 100.903 87.0966 100.903ZM105.2 93.7581L102.2 101.871H100.942L98.6193 95.5323L96.3128 101.871H95.0547L92.0547 93.7581H93.4257L95.716 100.306L98.087 93.7581H99.2322L101.571 100.323L103.909 93.7581H105.2ZM108.81 94.7903V99.2258C108.81 99.8276 108.934 100.253 109.181 100.5C109.429 100.737 109.778 100.855 110.23 100.855C110.531 100.855 110.822 100.806 111.101 100.71V101.823C110.768 101.93 110.391 101.984 109.972 101.984C109.198 101.984 108.591 101.769 108.149 101.339C107.72 100.898 107.504 100.253 107.504 99.4032V94.7903H105.923V93.7581H107.504V91.6774L108.81 91.2097V93.7581H111.133V94.7903H108.81ZM116.756 93.5645C118.703 93.5645 119.675 94.6341 119.675 96.7742V101.871H118.369V96.8387C118.369 96.0857 118.219 95.5373 117.917 95.1935C117.616 94.8387 117.143 94.6613 116.498 94.6613C115.745 94.6613 115.143 94.8921 114.692 95.3548C114.24 95.8175 114.014 96.4405 114.014 97.2258V101.871H112.708V90H114.014V95.0806C114.272 94.5857 114.638 94.2097 115.111 93.9516C115.595 93.6935 116.143 93.5645 116.756 93.5645Z" fill="white"/>
<path d="M50.9605 82V79.0397H43.7463V75.8555L51.6571 64.462H55.3139V75.6316H57.6026V79.0397H55.3139V82H50.9605ZM50.9605 75.6316V69.8851H51.6073L46.9554 76.6764V75.6316H50.9605ZM65.2548 82.2736C64.4754 82.2736 63.6959 82.1907 62.9164 82.0249C62.137 81.8756 61.4155 81.66 60.7522 81.3781C60.0888 81.0962 59.5249 80.7645 59.0606 80.383L60.4537 76.9998C61.1834 77.4973 61.9462 77.8788 62.7423 78.1441C63.5384 78.3929 64.3427 78.5173 65.1553 78.5173C66.0011 78.5173 66.6562 78.3348 67.1206 77.97C67.6015 77.6051 67.842 77.091 67.842 76.4276C67.842 75.7643 67.6181 75.2419 67.1703 74.8604C66.7226 74.479 66.1172 74.2883 65.3543 74.2883C64.7905 74.2883 64.2681 74.3878 63.7871 74.5868C63.3062 74.7692 62.8501 75.0511 62.4189 75.4326H59.583V64.462H71.076V68.1686H63.8617V72.0742H62.8418C63.2398 71.6099 63.7622 71.2616 64.409 71.0294C65.0558 70.7807 65.769 70.6563 66.5484 70.6563C67.6762 70.6563 68.6629 70.8967 69.5087 71.3777C70.3545 71.8421 71.0096 72.4971 71.474 73.3429C71.9549 74.1887 72.1954 75.1755 72.1954 76.3033C72.1954 77.4973 71.9135 78.5504 71.3496 79.4626C70.7857 80.3581 69.9814 81.0547 68.9366 81.5522C67.9083 82.0332 66.6811 82.2736 65.2548 82.2736ZM74.35 76.8505V73.4176H82.4846V76.8505H74.35ZM85.6991 82V78.6417L91.0227 73.0942C91.6695 72.4308 92.1339 71.8503 92.4158 71.3528C92.6977 70.8553 92.8387 70.3495 92.8387 69.8353C92.8387 69.2051 92.6231 68.7325 92.1919 68.4174C91.7773 68.1023 91.172 67.9447 90.3759 67.9447C89.7125 67.9447 89.0326 68.0691 88.336 68.3179C87.6561 68.5501 86.9678 68.9315 86.2713 69.4622L84.8533 66.1287C85.6328 65.5317 86.5698 65.059 87.6644 64.7108C88.7589 64.3625 89.8867 64.1884 91.0476 64.1884C92.3909 64.1884 93.527 64.3874 94.4557 64.7854C95.3844 65.1834 96.0892 65.7639 96.5702 66.5268C97.0677 67.2731 97.3165 68.2018 97.3165 69.3129C97.3165 70.3743 97.0677 71.3943 96.5702 72.3728C96.0892 73.3347 95.2849 74.3629 94.1572 75.4575L90.0774 79.4377V78.2685H97.9633V82H85.6991ZM106.387 82.2736C104.231 82.2736 102.572 81.4859 101.411 79.9104C100.267 78.3183 99.6949 76.0711 99.6949 73.1688C99.6949 70.2334 100.267 68.0028 101.411 66.477C102.572 64.9512 104.231 64.1884 106.387 64.1884C108.559 64.1884 110.218 64.9512 111.362 66.477C112.506 68.0028 113.079 70.2251 113.079 73.1439C113.079 76.0628 112.506 78.3183 111.362 79.9104C110.218 81.4859 108.559 82.2736 106.387 82.2736ZM106.387 78.6168C107.183 78.6168 107.772 78.1856 108.153 77.3232C108.551 76.4608 108.75 75.0677 108.75 73.1439C108.75 71.8669 108.659 70.8387 108.476 70.0592C108.311 69.2798 108.053 68.7159 107.705 68.3676C107.357 68.0028 106.917 67.8203 106.387 67.8203C105.591 67.8203 104.994 68.2349 104.596 69.0642C104.214 69.8768 104.023 71.2367 104.023 73.1439C104.023 74.4209 104.106 75.4657 104.272 76.2784C104.455 77.0744 104.72 77.6632 105.068 78.0446C105.417 78.4261 105.856 78.6168 106.387 78.6168ZM121.303 82.2736C119.147 82.2736 117.489 81.4859 116.328 79.9104C115.183 78.3183 114.611 76.0711 114.611 73.1688C114.611 70.2334 115.183 68.0028 116.328 66.477C117.489 64.9512 119.147 64.1884 121.303 64.1884C123.476 64.1884 125.134 64.9512 126.278 66.477C127.423 68.0028 127.995 70.2251 127.995 73.1439C127.995 76.0628 127.423 78.3183 126.278 79.9104C125.134 81.4859 123.476 82.2736 121.303 82.2736ZM121.303 78.6168C122.099 78.6168 122.688 78.1856 123.069 77.3232C123.467 76.4608 123.666 75.0677 123.666 73.1439C123.666 71.8669 123.575 70.8387 123.393 70.0592C123.227 69.2798 122.97 68.7159 122.621 68.3676C122.273 68.0028 121.834 67.8203 121.303 67.8203C120.507 67.8203 119.91 68.2349 119.512 69.0642C119.13 69.8768 118.94 71.2367 118.94 73.1439C118.94 74.4209 119.023 75.4657 119.188 76.2784C119.371 77.0744 119.636 77.6632 119.985 78.0446C120.333 78.4261 120.772 78.6168 121.303 78.6168ZM127.886 82L134.005 74.537V76.4525L128.234 69.3627H133.408L136.543 73.4673H134.951L138.11 69.3627H143.259L137.488 76.4774V74.4873L143.632 82H138.408L134.951 77.5471H136.543L133.06 82H127.886Z" fill="white"/>
<defs>
<linearGradient id="paint0_linear_910_2827" x1="32" y1="139" x2="154" y2="139" gradientUnits="userSpaceOnUse">
<stop stop-color="#258EE8"/>
<stop offset="1" stop-color="#2AB5ED"/>
</linearGradient>
</defs>
</svg>
