<svg width="96" height="27" viewBox="0 0 96 27" fill="none" xmlns="http://www.w3.org/2000/svg">
<rect width="96" height="27" rx="1.90751" fill="url(#paint0_linear_658_2758)"/>
<path d="M31.9565 18.1221C31.0612 18.1221 30.2921 17.943 29.6491 17.5849C29.0143 17.2187 28.526 16.7059 28.1842 16.0467C27.8424 15.3793 27.6714 14.594 27.6714 13.6906C27.6714 12.7872 27.8424 12.0059 28.1842 11.3466C28.526 10.6874 29.0143 10.1787 29.6491 9.82062C30.2921 9.45437 31.0612 9.27125 31.9565 9.27125C32.5587 9.27125 33.0999 9.35671 33.5801 9.52762C34.0685 9.69853 34.4876 9.95083 34.8376 10.2845L34.3248 11.5297C33.9423 11.2205 33.572 11.0007 33.2139 10.8705C32.8639 10.7321 32.4611 10.663 32.0053 10.663C31.1345 10.663 30.4671 10.9275 30.0032 11.4565C29.5474 11.9774 29.3195 12.7221 29.3195 13.6906C29.3195 14.3335 29.4213 14.8829 29.6247 15.3386C29.8282 15.7944 30.1293 16.1403 30.5281 16.3763C30.9351 16.6124 31.4274 16.7304 32.0053 16.7304C32.4611 16.7304 32.8639 16.6653 33.2139 16.535C33.572 16.3967 33.9423 16.1688 34.3248 15.8514L34.8376 17.0966C34.4876 17.4222 34.0685 17.6745 33.5801 17.8535C33.0999 18.0326 32.5587 18.1221 31.9565 18.1221ZM36.1874 18V9.01488H37.7134V18H36.1874ZM41.7511 18.1221C41.214 18.1221 40.7419 17.9959 40.335 17.7436C39.9281 17.4832 39.6106 17.1129 39.3828 16.6327C39.1549 16.1525 39.0409 15.5787 39.0409 14.9114C39.0409 14.244 39.1549 13.6743 39.3828 13.2022C39.6106 12.7221 39.9281 12.3558 40.335 12.1035C40.7419 11.8431 41.214 11.7129 41.7511 11.7129C42.272 11.7129 42.7278 11.8431 43.1184 12.1035C43.5172 12.3558 43.7817 12.6976 43.9119 13.129H43.7777L43.9119 11.8349H45.3769C45.3525 12.0872 45.3281 12.3436 45.3037 12.604C45.2874 12.8645 45.2792 13.1209 45.2792 13.3732V18H43.7655L43.7532 16.7304H43.8997C43.7695 17.1536 43.505 17.4913 43.1062 17.7436C42.7074 17.9959 42.2557 18.1221 41.7511 18.1221ZM42.1784 16.9501C42.6586 16.9501 43.0452 16.7833 43.3382 16.4496C43.6312 16.1078 43.7777 15.595 43.7777 14.9114C43.7777 14.2277 43.6312 13.719 43.3382 13.3854C43.0452 13.0517 42.6586 12.8848 42.1784 12.8848C41.6982 12.8848 41.3116 13.0517 41.0186 13.3854C40.7256 13.719 40.5792 14.2277 40.5792 14.9114C40.5792 15.595 40.7216 16.1078 41.0064 16.4496C41.2994 16.7833 41.6901 16.9501 42.1784 16.9501ZM49.1384 18.1221C48.6094 18.1221 48.1211 18.061 47.6735 17.939C47.234 17.8087 46.8637 17.6297 46.5625 17.4018L46.9898 16.3763C47.2991 16.5879 47.6409 16.7507 48.0153 16.8647C48.3897 16.9786 48.7681 17.0356 49.1506 17.0356C49.5576 17.0356 49.8587 16.9664 50.054 16.828C50.2575 16.6897 50.3592 16.5025 50.3592 16.2665C50.3592 16.0793 50.2941 15.9328 50.1639 15.827C50.0418 15.713 49.8424 15.6276 49.5657 15.5706L48.3449 15.3386C47.824 15.2247 47.4252 15.0294 47.1485 14.7527C46.8799 14.4759 46.7456 14.1138 46.7456 13.6661C46.7456 13.2836 46.8474 12.9459 47.0508 12.6529C47.2624 12.3599 47.5595 12.132 47.942 11.9692C48.3327 11.7983 48.7885 11.7129 49.3093 11.7129C49.7651 11.7129 50.1924 11.7739 50.5912 11.896C50.9981 12.0181 51.3399 12.2012 51.6166 12.4453L51.1772 13.4342C50.9249 13.2307 50.6359 13.072 50.3104 12.9581C49.9848 12.8441 49.6674 12.7872 49.3582 12.7872C48.9349 12.7872 48.6257 12.8645 48.4303 13.0191C48.235 13.1656 48.1374 13.3569 48.1374 13.5929C48.1374 13.7719 48.1943 13.9225 48.3083 14.0446C48.4303 14.1585 48.6175 14.244 48.8698 14.301L50.0906 14.5329C50.6359 14.6387 51.0469 14.8259 51.3237 15.0945C51.6085 15.3549 51.7509 15.713 51.7509 16.1688C51.7509 16.5757 51.6411 16.9257 51.4213 17.2187C51.2016 17.5117 50.8964 17.7355 50.5057 17.8901C50.1151 18.0448 49.6593 18.1221 49.1384 18.1221ZM55.2544 18.1221C54.7253 18.1221 54.237 18.061 53.7894 17.939C53.3499 17.8087 52.9796 17.6297 52.6785 17.4018L53.1057 16.3763C53.415 16.5879 53.7568 16.7507 54.1312 16.8647C54.5056 16.9786 54.884 17.0356 55.2666 17.0356C55.6735 17.0356 55.9746 16.9664 56.17 16.828C56.3734 16.6897 56.4752 16.5025 56.4752 16.2665C56.4752 16.0793 56.4101 15.9328 56.2798 15.827C56.1578 15.713 55.9584 15.6276 55.6816 15.5706L54.4608 15.3386C53.94 15.2247 53.5412 15.0294 53.2644 14.7527C52.9959 14.4759 52.8616 14.1138 52.8616 13.6661C52.8616 13.2836 52.9633 12.9459 53.1668 12.6529C53.3784 12.3599 53.6754 12.132 54.058 11.9692C54.4486 11.7983 54.9044 11.7129 55.4253 11.7129C55.881 11.7129 56.3083 11.7739 56.7071 11.896C57.114 12.0181 57.4559 12.2012 57.7326 12.4453L57.2931 13.4342C57.0408 13.2307 56.7519 13.072 56.4263 12.9581C56.1008 12.8441 55.7834 12.7872 55.4741 12.7872C55.0509 12.7872 54.7416 12.8645 54.5463 13.0191C54.351 13.1656 54.2533 13.3569 54.2533 13.5929C54.2533 13.7719 54.3103 13.9225 54.4242 14.0446C54.5463 14.1585 54.7335 14.244 54.9858 14.301L56.2066 14.5329C56.7519 14.6387 57.1629 14.8259 57.4396 15.0945C57.7244 15.3549 57.8669 15.713 57.8669 16.1688C57.8669 16.5757 57.757 16.9257 57.5373 17.2187C57.3175 17.5117 57.0123 17.7355 56.6217 17.8901C56.231 18.0448 55.7752 18.1221 55.2544 18.1221ZM59.1606 18V13.4098C59.1606 13.1493 59.1525 12.8848 59.1362 12.6163C59.1281 12.3477 59.1077 12.0872 59.0752 11.8349H60.5524L60.7233 13.5197H60.4791C60.5605 13.1127 60.6948 12.775 60.882 12.5064C61.0773 12.2378 61.3133 12.0384 61.59 11.9082C61.8668 11.778 62.1679 11.7129 62.4934 11.7129C62.6399 11.7129 62.7579 11.721 62.8475 11.7373C62.937 11.7454 63.0265 11.7658 63.116 11.7983L63.1038 13.1412C62.9492 13.0761 62.8149 13.0354 62.701 13.0191C62.5952 13.0028 62.4609 12.9947 62.2981 12.9947C61.9481 12.9947 61.6511 13.068 61.4069 13.2144C61.1709 13.3609 60.9918 13.5644 60.8698 13.8249C60.7558 14.0853 60.6989 14.3824 60.6989 14.716V18H59.1606ZM66.6535 18.1221C66.0187 18.1221 65.4693 17.9919 65.0054 17.7314C64.5415 17.471 64.1794 17.1007 63.9189 16.6205C63.6666 16.1403 63.5405 15.5706 63.5405 14.9114C63.5405 14.2521 63.6666 13.6865 63.9189 13.2144C64.1794 12.7343 64.5415 12.364 65.0054 12.1035C65.4693 11.8431 66.0187 11.7129 66.6535 11.7129C67.2883 11.7129 67.8377 11.8431 68.3016 12.1035C68.7736 12.364 69.1358 12.7343 69.3881 13.2144C69.6486 13.6865 69.7788 14.2521 69.7788 14.9114C69.7788 15.5706 69.6486 16.1403 69.3881 16.6205C69.1358 17.1007 68.7736 17.471 68.3016 17.7314C67.8377 17.9919 67.2883 18.1221 66.6535 18.1221ZM66.6535 16.9501C67.1337 16.9501 67.5162 16.7833 67.8011 16.4496C68.0859 16.1078 68.2284 15.595 68.2284 14.9114C68.2284 14.2277 68.0859 13.719 67.8011 13.3854C67.5162 13.0517 67.1337 12.8848 66.6535 12.8848C66.1733 12.8848 65.7908 13.0517 65.506 13.3854C65.2211 13.719 65.0787 14.2277 65.0787 14.9114C65.0787 15.595 65.2211 16.1078 65.506 16.4496C65.7908 16.7833 66.1733 16.9501 66.6535 16.9501ZM73.8782 18.1221C73.2434 18.1221 72.694 17.9919 72.2301 17.7314C71.7662 17.471 71.404 17.1007 71.1436 16.6205C70.8913 16.1403 70.7651 15.5706 70.7651 14.9114C70.7651 14.2521 70.8913 13.6865 71.1436 13.2144C71.404 12.7343 71.7662 12.364 72.2301 12.1035C72.694 11.8431 73.2434 11.7129 73.8782 11.7129C74.513 11.7129 75.0624 11.8431 75.5263 12.1035C75.9983 12.364 76.3605 12.7343 76.6128 13.2144C76.8732 13.6865 77.0035 14.2521 77.0035 14.9114C77.0035 15.5706 76.8732 16.1403 76.6128 16.6205C76.3605 17.1007 75.9983 17.471 75.5263 17.7314C75.0624 17.9919 74.513 18.1221 73.8782 18.1221ZM73.8782 16.9501C74.3584 16.9501 74.7409 16.7833 75.0257 16.4496C75.3106 16.1078 75.453 15.595 75.453 14.9114C75.453 14.2277 75.3106 13.719 75.0257 13.3854C74.7409 13.0517 74.3584 12.8848 73.8782 12.8848C73.398 12.8848 73.0155 13.0517 72.7306 13.3854C72.4458 13.719 72.3034 14.2277 72.3034 14.9114C72.3034 15.595 72.4458 16.1078 72.7306 16.4496C73.0155 16.7833 73.398 16.9501 73.8782 16.9501ZM78.3194 18V13.3732C78.3194 13.1209 78.3113 12.8645 78.295 12.604C78.2787 12.3436 78.2543 12.0872 78.2218 11.8349H79.6989L79.821 13.0557H79.6745C79.8454 12.6325 80.1059 12.3029 80.4558 12.0669C80.8139 11.8309 81.2372 11.7129 81.7255 11.7129C82.2138 11.7129 82.6167 11.8309 82.9341 12.0669C83.2596 12.2948 83.4875 12.6529 83.6177 13.1412H83.4224C83.5933 12.7017 83.8741 12.3558 84.2648 12.1035C84.6554 11.8431 85.103 11.7129 85.6076 11.7129C86.2994 11.7129 86.8162 11.9163 87.1581 12.3233C87.4999 12.7302 87.6708 13.365 87.6708 14.2277V18H86.1448V14.2888C86.1448 13.8004 86.0634 13.4505 85.9006 13.2389C85.7379 13.0191 85.4774 12.9092 85.1193 12.9092C84.6961 12.9092 84.3624 13.0598 84.1183 13.3609C83.8741 13.6539 83.752 14.0527 83.752 14.5573V18H82.226V14.2888C82.226 13.8004 82.1446 13.4505 81.9818 13.2389C81.8191 13.0191 81.5586 12.9092 81.2005 12.9092C80.7773 12.9092 80.4436 13.0598 80.1995 13.3609C79.9635 13.6539 79.8454 14.0527 79.8454 14.5573V18H78.3194Z" fill="white"/>
<path d="M20.65 8H8.55C8.40413 8 8.26424 8.05795 8.16109 8.16109C8.05795 8.26424 8 8.40413 8 8.55V18.45C8 18.5959 8.05795 18.7358 8.16109 18.8389C8.26424 18.9421 8.40413 19 8.55 19H20.65C20.7959 19 20.9358 18.9421 21.0389 18.8389C21.1421 18.7358 21.2 18.5959 21.2 18.45V8.55C21.2 8.40413 21.1421 8.26424 21.0389 8.16109C20.9358 8.05795 20.7959 8 20.65 8V8ZM20.1 17.9H19V17.35H16.25V17.9H9.1V9.1H20.1V17.9ZM13.6595 12.2405C13.6595 11.9911 13.7586 11.7518 13.935 11.5755C14.1113 11.3991 14.3506 11.3 14.6 11.3C15.1225 11.3 15.5405 11.7235 15.5405 12.2405C15.5405 12.763 15.1225 13.1865 14.6 13.1865C14.0775 13.1865 13.6595 12.763 13.6595 12.2405ZM11.1405 13.1095C11.1405 12.719 11.4595 12.4 11.85 12.4C12.0382 12.4 12.2186 12.4748 12.3517 12.6078C12.4847 12.7409 12.5595 12.9213 12.5595 13.1095C12.5595 13.5 12.2405 13.8135 11.85 13.8135C11.4595 13.8135 11.1405 13.5 11.1405 13.1095V13.1095ZM16.6405 13.1095C16.6405 12.9213 16.7153 12.7409 16.8483 12.6078C16.9814 12.4748 17.1618 12.4 17.35 12.4C17.5382 12.4 17.7186 12.4748 17.8517 12.6078C17.9847 12.7409 18.0595 12.9213 18.0595 13.1095C18.0595 13.5 17.7405 13.8135 17.35 13.8135C16.9595 13.8135 16.6405 13.5 16.6405 13.1095V13.1095ZM19 15.227V15.7H10.2V15.227C10.2 14.71 11.0525 14.2865 11.85 14.2865C12.1525 14.2865 12.4605 14.347 12.73 14.4515C13.1425 14.072 13.885 13.8135 14.6 13.8135C15.315 13.8135 16.0575 14.072 16.47 14.4515C16.7395 14.347 17.0475 14.2865 17.35 14.2865C18.1475 14.2865 19 14.71 19 15.227Z" fill="white"/>
<defs>
<linearGradient id="paint0_linear_658_2758" x1="7.15256e-07" y1="13.5" x2="96" y2="13.5" gradientUnits="userSpaceOnUse">
<stop stop-color="#FF6E3F"/>
<stop offset="1" stop-color="#FF5634"/>
</linearGradient>
</defs>
</svg>
