<svg width="20" height="20" viewBox="0 0 20 20" fill="none" xmlns="http://www.w3.org/2000/svg">
<path d="M15 6.66663H15.8333C16.7174 6.66663 17.5652 7.01782 18.1904 7.64294C18.8155 8.26806 19.1667 9.1159 19.1667 9.99996C19.1667 10.884 18.8155 11.7319 18.1904 12.357C17.5652 12.9821 16.7174 13.3333 15.8333 13.3333H15" stroke="#cccccc" stroke-linecap="round" stroke-linejoin="round"/>
<path d="M1.66699 6.66663H15.0003V14.1666C15.0003 15.0507 14.6491 15.8985 14.024 16.5236C13.3989 17.1488 12.551 17.5 11.667 17.5H5.00032C4.11627 17.5 3.26842 17.1488 2.6433 16.5236C2.01818 15.8985 1.66699 15.0507 1.66699 14.1666V6.66663Z" stroke="#cccccc" stroke-linecap="round" stroke-linejoin="round"/>
<path d="M5 0.833374V3.33337" stroke="#cccccc" stroke-linecap="round" stroke-linejoin="round"/>
<path d="M8.33301 0.833374V3.33337" stroke="#cccccc" stroke-linecap="round" stroke-linejoin="round"/>
<path d="M11.667 0.833374V3.33337" stroke="#cccccc" stroke-linecap="round" stroke-linejoin="round"/>
</svg>
