<svg width="406" height="523" viewBox="0 0 406 523" fill="none" xmlns="http://www.w3.org/2000/svg">
<path d="M95.723 392.889C95.0939 393.886 131.755 233.78 120.863 236.192C119.876 236.414 100.818 238.186 97.9804 243.932C89.7649 260.582 83.8809 391.683 83.8809 391.683L95.723 392.889Z" fill="#FFB1A5"/>
<path d="M84.5881 385.53C84.5881 385.53 78.6794 412.873 101.019 415.888C101.733 415.984 102.459 415.831 103.073 415.454C103.687 415.077 104.151 414.5 104.387 413.821L104.461 413.636C104.71 412.89 104.67 412.078 104.348 411.36C104.026 410.642 103.445 410.071 102.721 409.76C99.0823 408.135 93.4327 404.038 96.2328 394.71C96.2328 394.71 99.4647 394.317 101.241 400.322C101.346 400.685 101.53 401.021 101.78 401.306C102.029 401.591 102.338 401.818 102.686 401.97C103.033 402.123 103.409 402.198 103.788 402.189C104.167 402.181 104.54 402.089 104.88 401.921C105.361 401.68 105.754 401.296 106.006 400.822C106.258 400.348 106.356 399.808 106.286 399.276C105.744 395.067 103.622 384.94 95.4804 382.22L84.5881 385.53Z" fill="#FFB1A5"/>
<path d="M91.3926 282.399C91.3926 282.399 112.511 312.067 112.622 311.501C112.733 310.935 120.023 269.835 120.023 269.835L94.3901 258.76L91.3926 282.399Z" fill="#F3978E"/>
<path d="M399.61 116H274.391C270.861 116 268 118.854 268 122.375V237.901C268 241.422 270.861 244.276 274.391 244.276H399.61C403.139 244.276 406.001 241.422 406.001 237.901V122.375C406.001 118.854 403.139 116 399.61 116Z" fill="#1F222C"/>
<path d="M363.996 197.443H319.112H311V162H363.996V170.861V197.443Z" stroke="url(#paint0_linear_918_4060)" stroke-width="2.58768" stroke-linecap="round" stroke-linejoin="round"/>
<path d="M311 162L337.506 182.827L363.996 162" stroke="url(#paint1_linear_918_4060)" stroke-width="2.58768" stroke-linecap="round" stroke-linejoin="round"/>
<path d="M247.943 0.824951H124.477C122.426 0.824951 120.764 2.48325 120.764 4.52887V34.6032C120.764 36.6488 122.426 38.3071 124.477 38.3071H247.943C249.993 38.3071 251.656 36.6488 251.656 34.6032V4.52887C251.656 2.48325 249.993 0.824951 247.943 0.824951Z" fill="#1A1C25"/>
<path d="M138.6 14.1886H226.391" stroke="#F2F2F2" stroke-width="1.45204" stroke-miterlimit="10" stroke-linecap="round"/>
<path d="M138.6 23.1716H174.36" stroke="#F2F2F2" stroke-width="1.45204" stroke-miterlimit="10" stroke-linecap="round"/>
<path d="M135.023 34.0741V48.6806L153.44 34.0741H135.023Z" fill="#1A1C25"/>
<path d="M7.9689 61.429H70.2756C72.389 61.429 74.4159 62.2665 75.9103 63.7572C77.4048 65.248 78.2443 67.27 78.2443 69.3782V127.337C78.2443 129.445 77.4048 131.467 75.9103 132.958C74.4159 134.448 72.389 135.286 70.2756 135.286H10.51C9.12984 135.286 7.76318 135.015 6.48806 134.488C5.21295 133.961 4.05435 133.189 3.07842 132.215C2.10249 131.242 1.32834 130.086 0.800166 128.814C0.271996 127.542 0.000152777 126.178 0.000152777 124.802V69.4275C-0.0063527 68.3794 0.194963 67.3404 0.592516 66.3703C0.990069 65.4001 1.576 64.518 2.31662 63.7746C3.05723 63.0312 3.93791 62.4413 4.90795 62.0387C5.87799 61.6362 6.91827 61.4289 7.9689 61.429Z" fill="#1A1C25"/>
<path d="M56.9353 104.257L56.9353 104.257L52.4822 99.8143L52.466 99.7982L52.4511 99.7809C52.152 99.4346 51.7831 99.1551 51.3682 98.9606C50.9564 98.7677 50.5087 98.6628 50.0538 98.6528C49.1403 98.6697 48.2705 99.0453 47.6333 99.6979L47.6266 99.7047L47.6265 99.7046L45.0731 102.24L44.7599 102.55L44.365 102.353L43.8962 102.12C43.7842 102.064 43.6871 102.019 43.5868 101.973C43.553 101.958 43.5189 101.942 43.4836 101.926C43.3486 101.863 43.2048 101.794 43.0531 101.703L43.0427 101.697L43.0325 101.69C40.4656 100.013 38.1895 97.9303 36.2935 95.5234C35.4225 94.5002 34.697 93.362 34.1378 92.141L33.9454 91.7209L34.2951 91.419C34.7092 91.0616 35.0846 90.6677 35.4553 90.2787C35.6414 90.0834 35.8263 89.8894 36.0143 89.7018L36.0143 89.7018L36.7298 88.9881L36.7466 88.9713L36.7647 88.9559C37.1218 88.6508 37.4084 88.2723 37.6048 87.8465C37.8013 87.4206 37.903 86.9575 37.903 86.4889C37.903 86.0202 37.8013 85.5571 37.6048 85.1312C37.4084 84.7054 37.1218 84.3269 36.7647 84.0218L36.7459 84.0058L36.7286 83.9884L34.515 81.768C34.2442 81.5128 33.991 81.2395 33.7571 80.9502L32.2749 79.4595L32.2741 79.4587C31.6301 78.8088 30.7585 78.433 29.8423 78.4104C29.3924 78.4112 28.9473 78.5033 28.5341 78.681C28.1189 78.8595 27.7446 79.1208 27.4344 79.4486L27.4283 79.455L27.422 79.4612L24.6342 82.2423L24.634 82.2424C23.6932 83.1803 23.1111 84.4167 22.988 85.737C22.9014 87.7042 23.2357 89.6674 23.9689 91.4958L23.9725 91.5048L23.9759 91.5139C25.3423 95.2594 27.3944 98.719 30.0279 101.717L30.037 101.727L30.0369 101.727C33.4766 105.825 37.7457 109.151 42.5643 111.487L42.5736 111.492L42.5736 111.492C44.74 112.588 47.0846 113.29 49.4977 113.567H50.0179H50.0277V113.567C50.837 113.58 51.6398 113.421 52.3829 113.101C53.1231 112.783 53.7871 112.311 54.3315 111.719L54.3987 111.64L56.9353 104.257ZM56.9353 104.257L56.9435 104.265M56.9353 104.257L56.9435 104.265M56.9435 104.265C57.2721 104.581 57.5329 104.96 57.71 105.379C57.8871 105.799 57.9769 106.249 57.974 106.704C57.9711 107.159 57.8755 107.609 57.693 108.026C57.5105 108.443 57.2449 108.819 56.9122 109.131L56.9052 109.138M56.9435 104.265L56.9052 109.138M56.9052 109.138L56.8983 109.144M56.9052 109.138L56.8983 109.144M56.8983 109.144L55.8789 110.161M56.8983 109.144L55.8789 110.161M55.8789 110.161C55.3484 110.616 54.8537 111.11 54.3991 111.64L55.8789 110.161ZM54.9917 109.373L55.011 109.357L55.0289 109.339L55.96 108.41C56.1893 108.215 56.3745 107.973 56.5031 107.701C56.6361 107.419 56.7051 107.111 56.7051 106.799C56.7051 106.487 56.6361 106.179 56.5031 105.897C56.3745 105.625 56.1893 105.383 55.96 105.188L51.5408 100.779C51.1795 100.369 50.6831 100.102 50.1413 100.025L50.0749 100.015L50.008 100.02C49.7135 100.043 49.4265 100.124 49.1634 100.258C48.9088 100.387 48.6815 100.565 48.494 100.78L45.7233 103.532L45.7097 103.546L45.6969 103.56C45.5155 103.764 45.2704 103.902 45.0008 103.951C44.766 103.994 44.5247 103.967 44.3062 103.875L44.2479 103.807L44.1562 103.755C43.8766 103.595 43.5871 103.452 43.2894 103.329C42.9666 103.187 42.6562 103.019 42.3614 102.826L42.3574 102.824C39.6491 101.081 37.2527 98.8984 35.2678 96.3659L35.2679 96.3658L35.2596 96.3556C34.2494 95.1218 33.4123 93.7567 32.7713 92.2981V92.2304L32.7248 92.1177C32.6338 91.897 32.6142 91.6536 32.6688 91.4215C32.7232 91.1902 32.8485 90.9814 33.0275 90.8241L33.1111 90.7526L33.129 90.7373L33.1457 90.7207L35.1317 88.7395L35.1317 88.7395L35.8353 88.0377C36.2705 87.6455 36.538 87.1005 36.5813 86.5159L36.5856 86.4578L36.579 86.4C36.5141 85.836 36.2529 85.313 35.8416 84.9218L33.6268 82.7124L33.6117 82.6973L33.5956 82.6833C33.3316 82.4542 33.0838 82.207 32.8541 81.9437L32.8401 81.9276L32.825 81.9125L31.4139 80.5049C31.2271 80.2843 30.9973 80.1039 30.7384 79.9748C30.4696 79.8407 30.1754 79.7649 29.8753 79.7522L29.8361 79.7506L29.797 79.7539C29.2173 79.8034 28.6771 80.0676 28.2827 80.4946L25.6025 83.1683C25.2208 83.5117 24.9096 83.9262 24.6865 84.3885C24.4614 84.8552 24.3304 85.3616 24.301 85.8787C24.1806 87.6716 24.5251 89.4651 25.3013 91.0863C26.7206 94.6361 28.7149 97.929 31.2045 100.834C34.5127 104.824 38.6296 108.071 43.2848 110.361C45.2644 111.426 47.4329 112.095 49.6692 112.333L49.7016 112.336H49.7342H50.1229C50.7474 112.348 51.3673 112.227 51.9415 111.981C52.5131 111.736 53.0264 111.374 53.4473 110.916C53.6585 110.705 53.8451 110.509 54.0219 110.322C54.3478 109.979 54.6403 109.67 54.9917 109.373Z" fill="white" stroke="url(#paint2_linear_918_4060)" stroke-width="1.23054"/>
<path d="M204.634 320.186L159.609 314.206L159.967 318.673L121.468 323.78C121.468 323.78 96.5996 385.922 118.47 522.512H149.79L161.053 384.015H165.062L175.979 522.512H207.286C229.157 385.922 204.634 320.186 204.634 320.186Z" fill="#8E716C"/>
<path d="M146.74 383.978H179.405" stroke="#282828" stroke-width="1.51356" stroke-linecap="round" stroke-linejoin="round"/>
<path d="M230.882 254.673C227.033 248.52 205.384 248.754 204.249 248.618C198.402 247.942 207.95 294.37 220.162 334.965C220.717 336.798 221.652 338.493 222.906 339.941C224.161 341.389 225.707 342.557 227.445 343.37C229.182 344.183 231.071 344.621 232.99 344.657C234.908 344.693 236.812 344.326 238.579 343.579L238.826 343.481C241.703 342.267 244.077 340.106 245.551 337.359C247.026 334.612 247.512 331.444 246.93 328.382C241.145 297.803 235.335 261.761 230.882 254.673Z" fill="#FFB1A5"/>
<path d="M236.038 271.47L208.407 282.163L205.816 269.082L234.422 261.958L236.038 271.47Z" fill="#F3978E"/>
<path d="M241.256 297.631C241.256 297.631 228.168 315.154 228.797 314.354C229.426 313.554 239.06 286.051 239.06 286.051L241.256 297.631Z" fill="#F3978E"/>
<path d="M259.97 274.054L222.458 322.549C221.293 324.054 220.453 325.783 219.992 327.628C219.531 329.473 219.458 331.393 219.778 333.267C220.098 335.141 220.803 336.929 221.851 338.518C222.898 340.106 224.264 341.461 225.863 342.496V342.496C227.456 343.531 229.246 344.227 231.121 344.539C232.996 344.852 234.915 344.774 236.759 344.312C238.603 343.85 240.331 343.013 241.835 341.854C243.339 340.694 244.587 339.237 245.501 337.574L276.734 280.096L259.97 274.054Z" fill="#FFB1A5"/>
<path d="M269.679 286.507C266.769 285.566 264.205 283.786 262.309 281.392C260.413 278.998 259.271 276.097 259.028 273.055C258.784 270.014 259.45 266.969 260.941 264.305C262.432 261.641 264.681 259.478 267.404 258.088C270.127 256.699 273.202 256.147 276.24 256.5C279.278 256.854 282.143 258.098 284.472 260.075C286.801 262.052 288.491 264.674 289.327 267.609C290.163 270.544 290.108 273.66 289.169 276.564C288.545 278.494 287.546 280.283 286.228 281.827C284.91 283.372 283.3 284.642 281.49 285.566C279.68 286.489 277.705 287.048 275.679 287.209C273.652 287.371 271.613 287.132 269.679 286.507V286.507Z" fill="#FFB1A5"/>
<path d="M285.712 262.536C285.712 262.536 289.956 258.155 282.443 255.079C274.931 252.002 265.642 252.716 259.709 267.077L285.712 262.536Z" fill="#FFB1A5"/>
<path d="M293.451 231.895L309.166 238.688C309.375 238.783 309.561 238.921 309.712 239.093C309.862 239.266 309.975 239.468 310.041 239.687C310.108 239.905 310.127 240.136 310.097 240.362C310.068 240.589 309.99 240.807 309.87 241.001L289.257 279.505C289.034 279.937 288.659 280.272 288.203 280.444C287.748 280.617 287.244 280.616 286.79 280.44L271.087 273.648C270.879 273.554 270.694 273.417 270.543 273.246C270.392 273.075 270.279 272.875 270.211 272.657C270.144 272.44 270.123 272.211 270.151 271.985C270.178 271.759 270.253 271.541 270.371 271.347L291.033 232.843C291.253 232.42 291.619 232.091 292.064 231.917C292.509 231.742 293.001 231.735 293.451 231.895V231.895Z" fill="#372F5F"/>
<path d="M292.005 231.219L307.708 238.011C307.916 238.105 308.101 238.242 308.252 238.413C308.403 238.584 308.516 238.784 308.584 239.002C308.651 239.219 308.672 239.448 308.644 239.674C308.617 239.9 308.542 240.118 308.424 240.312L287.762 278.865C287.541 279.3 287.166 279.637 286.711 279.812C286.255 279.987 285.75 279.987 285.295 279.813L269.579 273.02C269.371 272.925 269.185 272.787 269.034 272.615C268.883 272.443 268.771 272.24 268.704 272.022C268.638 271.803 268.619 271.572 268.648 271.346C268.678 271.119 268.756 270.901 268.876 270.707L289.55 232.105C289.781 231.684 290.158 231.362 290.61 231.199C291.062 231.036 291.558 231.043 292.005 231.219Z" fill="#261B43"/>
<path d="M290.229 235.132L304.032 241.1L287.194 272.479L273.391 266.51L290.229 235.132Z" fill="#E6E6E6"/>
<path d="M304.032 241.1L273.391 266.51L290.229 235.132L304.032 241.1Z" fill="white"/>
<path d="M277.933 253.799C280.26 254.299 282.503 255.127 284.594 256.26C285.27 256.642 285.802 257.233 286.111 257.943C286.421 258.653 286.49 259.445 286.309 260.198V260.198C286.136 260.887 285.758 261.509 285.226 261.981C284.693 262.453 284.03 262.753 283.324 262.844L275.157 263.865C275.157 263.865 270.902 271.248 265.289 272.011L270.433 259.177L277.933 253.799Z" fill="#FFB1A5"/>
<path d="M173.646 193.613C172.745 193.613 231.549 201.735 241.257 268.676L210.8 273.291L204.632 323.743H119.517L102.605 230.443C102.605 230.443 121.466 203.482 156.499 193.527L173.646 193.613Z" fill="#FB8530"/>
<path d="M85.7337 263.853C88.6942 255.977 98.4797 238.216 103.003 230.628L119.04 284.772C106.704 281.08 82.7732 271.728 85.7337 263.853Z" fill="#FB8530"/>
<path d="M210.74 273.291L213.392 244.078" stroke="#282828" stroke-width="1.51356" stroke-linecap="round" stroke-linejoin="round"/>
<path d="M179.235 194.573V171.341H151.937V194.844C149.424 195.65 146.975 196.641 144.609 197.81L165.888 210.459L187.66 197.81C185.002 196.376 182.171 195.288 179.235 194.573V194.573Z" fill="#FFB1A5"/>
<path d="M151.689 174.171C151.689 174.171 156.624 187.153 169.675 186.033C181.702 185.012 179.79 167.009 179.79 167.009L151.689 174.171Z" fill="#282828"/>
<path d="M139.785 156.906C135.504 160.783 125.932 146.102 130.077 141.98C134.221 137.858 137.355 144.318 137.355 144.318L139.205 148.699L140.599 154.642L140.932 156.193L139.785 156.906Z" fill="#F3978E"/>
<path d="M132.066 147.197C132.066 147.197 135.311 145.745 138.234 150.434" stroke="#282828" stroke-width="1.21823" stroke-linecap="round" stroke-linejoin="round"/>
<path d="M190.375 156.463C194.31 160.684 205.092 146.853 201.317 142.398C197.542 137.944 193.916 144.121 193.916 144.121L191.708 148.33L189.82 154.138L189.352 155.651L190.375 156.463Z" fill="#F3978E"/>
<path d="M198.887 147.419C198.887 147.419 195.778 145.696 192.521 150.114" stroke="#282828" stroke-width="1.21823" stroke-linecap="round" stroke-linejoin="round"/>
<path d="M132.275 127.964C132.275 147.407 147.14 156.623 165.458 156.623C183.776 156.623 198.64 147.407 198.64 127.964C198.64 108.522 183.838 95.3057 165.458 95.3057C147.078 95.3057 132.275 108.534 132.275 127.964Z" fill="#282828"/>
<path d="M136.788 129.318C136.801 139.257 137.935 149.164 140.168 158.851C141.821 166.012 146.459 171.008 153.034 175.032L154.267 175.771C157.724 177.862 161.681 178.988 165.724 179.031C169.767 179.075 173.747 178.034 177.248 176.017V176.017C184.366 171.882 189.349 166.431 190.879 158.789C192.658 149.07 193.693 139.23 193.975 129.355C193.975 129.355 196.627 99.2434 165.801 99.8218C134.974 100.4 136.788 129.318 136.788 129.318Z" fill="#FFB1A5"/>
<path d="M163.492 146.508V150.68C163.493 150.92 163.539 151.158 163.628 151.381C163.812 151.79 164.139 152.119 164.547 152.306C164.955 152.494 165.417 152.528 165.848 152.403L167.76 151.898" stroke="#282828" stroke-width="1.51356" stroke-linecap="round" stroke-linejoin="round"/>
<path d="M158.598 130.351L143.277 133.932C143.277 133.932 143.968 130.044 150.235 128.629C156.501 127.214 158.598 130.351 158.598 130.351Z" fill="#282828"/>
<path d="M172.193 130.351L186.996 133.932C186.996 133.932 186.318 130.044 180.273 128.629C174.229 127.214 172.193 130.351 172.193 130.351Z" fill="#282828"/>
<path d="M152.777 144.146C154.201 144.146 155.355 142.994 155.355 141.574C155.355 140.154 154.201 139.002 152.777 139.002C151.353 139.002 150.199 140.154 150.199 141.574C150.199 142.994 151.353 144.146 152.777 144.146Z" fill="#282828"/>
<path d="M179.84 141.574C179.84 142.083 179.689 142.58 179.405 143.003C179.122 143.426 178.719 143.755 178.248 143.95C177.777 144.145 177.259 144.196 176.759 144.096C176.259 143.997 175.799 143.752 175.439 143.392C175.078 143.033 174.833 142.575 174.733 142.076C174.634 141.577 174.685 141.06 174.88 140.59C175.075 140.12 175.405 139.718 175.829 139.436C176.253 139.153 176.752 139.002 177.262 139.002C177.945 139.002 178.601 139.273 179.085 139.755C179.568 140.238 179.84 140.892 179.84 141.574Z" fill="#282828"/>
<path d="M155.352 157.251H175.273C175.273 157.251 166.392 167.969 155.352 157.251Z" fill="white"/>
<path d="M159.447 150.307C163.735 146.03 163.735 139.096 159.447 134.819C155.16 130.542 148.209 130.542 143.921 134.819C139.634 139.096 139.634 146.03 143.921 150.307C148.209 154.584 155.16 154.584 159.447 150.307Z" stroke="#FB8530" stroke-width="1.64892" stroke-miterlimit="10"/>
<path d="M186.43 150.314C190.717 146.037 190.717 139.103 186.43 134.826C182.142 130.549 175.191 130.549 170.904 134.826C166.616 139.103 166.616 146.037 170.904 150.314C175.191 154.591 182.142 154.591 186.43 150.314Z" stroke="#FB8530" stroke-width="1.64892" stroke-miterlimit="10"/>
<path d="M162.693 142.571C162.693 142.571 165.296 140.11 167.714 142.571" stroke="#FB8530" stroke-width="1.64892" stroke-miterlimit="10"/>
<path d="M140.696 142.571L137.242 142.485" stroke="#FB8530" stroke-width="1.64892" stroke-miterlimit="10"/>
<path d="M189.66 142.571L193.139 142.485" stroke="#FB8530" stroke-width="1.64892" stroke-miterlimit="10"/>
<path d="M193.532 139.31C193.532 139.31 181.197 122.685 184.046 105.851C187.036 107.61 189.612 109.987 191.602 112.823C193.591 115.659 194.948 118.888 195.58 122.291C197.973 134.141 193.532 139.31 193.532 139.31Z" fill="#282828"/>
<path d="M136.787 140.43C136.787 140.43 151.109 121.553 148.259 104.744C141.98 108.744 137.545 115.062 135.924 122.316C133.543 134.141 136.787 140.43 136.787 140.43Z" fill="#282828"/>
<path d="M192.508 112.484C192.508 112.484 176.682 129.712 133.396 126.807C133.396 126.807 140.021 101.446 161.003 98.7512C161.003 98.7512 185.23 95.8594 192.508 112.484Z" fill="#282828"/>
<path d="M211.801 95.5733C213.62 84.3286 205.957 73.7415 194.685 71.9263C183.413 70.1111 172.8 77.7552 170.98 88.9999C169.161 100.245 176.823 110.832 188.096 112.647C199.368 114.462 209.981 106.818 211.801 95.5733Z" fill="#282828"/>
<rect x="8.39258" y="193.226" width="341.98" height="329.634" fill="url(#paint3_linear_918_4060)"/>
<defs>
<linearGradient id="paint0_linear_918_4060" x1="311" y1="197.443" x2="363.996" y2="197.443" gradientUnits="userSpaceOnUse">
<stop stop-color="#258EE8"/>
<stop offset="1" stop-color="#2AB5ED"/>
</linearGradient>
<linearGradient id="paint1_linear_918_4060" x1="311" y1="182.827" x2="363.996" y2="182.827" gradientUnits="userSpaceOnUse">
<stop stop-color="#258EE8"/>
<stop offset="1" stop-color="#2AB5ED"/>
</linearGradient>
<linearGradient id="paint2_linear_918_4060" x1="22.3594" y1="103.419" x2="57.8177" y2="103.511" gradientUnits="userSpaceOnUse">
<stop stop-color="#F36B3D"/>
<stop offset="0.0001" stop-color="#FFBA08"/>
<stop offset="1" stop-color="#FB8133"/>
</linearGradient>
<linearGradient id="paint3_linear_918_4060" x1="179.383" y1="193.226" x2="179.383" y2="411.412" gradientUnits="userSpaceOnUse">
<stop stop-color="#15171E" stop-opacity="0"/>
<stop offset="1" stop-color="#15171E"/>
</linearGradient>
</defs>
</svg>
