<svg width="28" height="28" viewBox="0 0 28 28" fill="none" xmlns="http://www.w3.org/2000/svg">
<path d="M9.33398 4.66665V18.6666C9.33398 19.2855 9.57982 19.879 10.0174 20.3166C10.455 20.7541 11.0485 21 11.6673 21H21.0007C21.6195 21 22.213 20.7541 22.6506 20.3166C23.0882 19.879 23.334 19.2855 23.334 18.6666V8.44898C23.3339 8.13813 23.2718 7.83043 23.1512 7.54393C23.0306 7.25744 22.8539 6.99793 22.6317 6.78065L18.7642 2.99831C18.3282 2.57208 17.7428 2.33339 17.1332 2.33331H11.6673C11.0485 2.33331 10.455 2.57915 10.0174 3.01673C9.57982 3.45432 9.33398 4.04781 9.33398 4.66665V4.66665Z" stroke="url(#paint0_linear_917_3734)" stroke-width="1.64706" stroke-linecap="round" stroke-linejoin="round"/>
<path d="M18.668 21V23.3333C18.668 23.9522 18.4221 24.5457 17.9846 24.9832C17.547 25.4208 16.9535 25.6667 16.3346 25.6667H7.0013C6.38246 25.6667 5.78897 25.4208 5.35139 24.9832C4.9138 24.5457 4.66797 23.9522 4.66797 23.3333V10.5C4.66797 9.88115 4.9138 9.28766 5.35139 8.85007C5.78897 8.41249 6.38246 8.16666 7.0013 8.16666H9.33464" stroke="url(#paint1_linear_917_3734)" stroke-width="1.64706" stroke-linecap="round" stroke-linejoin="round"/>
<defs>
<linearGradient id="paint0_linear_917_3734" x1="9.33398" y1="15.4782" x2="23.0358" y2="15.5051" gradientUnits="userSpaceOnUse">
<stop stop-color="#F36B3D"/>
<stop offset="0.0001" stop-color="#FFBA08"/>
<stop offset="1" stop-color="#FB8133"/>
</linearGradient>
<linearGradient id="paint1_linear_917_3734" x1="4.66797" y1="20.49" x2="18.3698" y2="20.5187" gradientUnits="userSpaceOnUse">
<stop stop-color="#F36B3D"/>
<stop offset="0.0001" stop-color="#FFBA08"/>
<stop offset="1" stop-color="#FB8133"/>
</linearGradient>
</defs>
</svg>
