<svg width="11" height="11" viewBox="0 0 11 11" fill="none" xmlns="http://www.w3.org/2000/svg">
<path d="M9.87793 1.8333C9.83629 1.82901 9.79431 1.82901 9.75266 1.8333H1.1971C1.14227 1.83414 1.0878 1.84236 1.03516 1.85774L5.45043 6.25469L9.87793 1.8333Z" fill="#828282"/>
<path d="M10.331 2.25806L5.88207 6.68861C5.76757 6.80243 5.61268 6.86632 5.45123 6.86632C5.28979 6.86632 5.1349 6.80243 5.0204 6.68861L0.611233 2.29167C0.597678 2.34149 0.590491 2.39282 0.589844 2.44445V8.55556C0.589844 8.71763 0.654228 8.87307 0.768834 8.98768C0.88344 9.10228 1.03888 9.16667 1.20095 9.16667H9.75651C9.91859 9.16667 10.074 9.10228 10.1886 8.98768C10.3032 8.87307 10.3676 8.71763 10.3676 8.55556V2.44445C10.3652 2.38078 10.3528 2.3179 10.331 2.25806ZM1.61957 8.55556H1.19484V8.11861L3.41623 5.91556L3.84707 6.34639L1.61957 8.55556ZM9.7504 8.55556H9.32262L7.09512 6.34639L7.52595 5.91556L9.74734 8.11861L9.7504 8.55556Z" fill="#828282"/>
</svg>
