<svg width="14" height="14" viewBox="0 0 14 14" fill="none" xmlns="http://www.w3.org/2000/svg">
<path d="M12.5728 2.33332C12.5198 2.32786 12.4664 2.32786 12.4134 2.33332H1.52447C1.45468 2.3344 1.38536 2.34486 1.31836 2.36443L6.9378 7.96054L12.5728 2.33332Z" fill="url(#paint0_linear_917_3679)"/>
<path d="M13.1478 2.8739L7.48556 8.51279C7.33983 8.65765 7.1427 8.73896 6.93722 8.73896C6.73174 8.73896 6.53462 8.65765 6.38889 8.51279L0.777222 2.91668C0.759971 2.98008 0.750824 3.04542 0.75 3.11112V10.8889C0.75 11.0952 0.831944 11.293 0.977806 11.4389C1.12367 11.5847 1.3215 11.6667 1.52778 11.6667H12.4167C12.6229 11.6667 12.8208 11.5847 12.9666 11.4389C13.1125 11.293 13.1944 11.0952 13.1944 10.8889V3.11112C13.1913 3.0301 13.1756 2.95006 13.1478 2.8739V2.8739ZM2.06056 10.8889H1.52V10.3328L4.34722 7.5289L4.89556 8.07724L2.06056 10.8889ZM12.4089 10.8889H11.8644L9.02944 8.07724L9.57778 7.5289L12.405 10.3328L12.4089 10.8889Z" fill="url(#paint1_linear_917_3679)"/>
<defs>
<linearGradient id="paint0_linear_917_3679" x1="1.31836" y1="6.29475" x2="12.3329" y2="6.35227" gradientUnits="userSpaceOnUse">
<stop stop-color="#F36B3D"/>
<stop offset="0.0001" stop-color="#FFBA08"/>
<stop offset="1" stop-color="#FB8133"/>
</linearGradient>
<linearGradient id="paint1_linear_917_3679" x1="0.75" y1="9.06571" x2="12.9293" y2="9.11074" gradientUnits="userSpaceOnUse">
<stop stop-color="#F36B3D"/>
<stop offset="0.0001" stop-color="#FFBA08"/>
<stop offset="1" stop-color="#FB8133"/>
</linearGradient>
</defs>
</svg>
