<svg width="31" height="20" viewBox="0 0 31 20" fill="none" xmlns="http://www.w3.org/2000/svg">
          <path d="M4.68298 0.186657C3.79255 0.48032 2.72074 1.41026 2.27553 2.25862C1.97872 2.81332 1.89628 3.31907 1.81383 5.2442C1.6984 7.85455 1.51702 8.34399 0.51117 8.62134C0.0164894 8.76817 0 8.78448 0 9.76336C0 10.7586 0.0164895 10.7749 0.52766 10.9217C1.51702 11.2317 1.6984 11.7048 1.81383 14.3152C1.92926 16.8439 2.12713 17.4802 3.08351 18.3775C3.5617 18.8343 5.26011 19.6827 5.44149 19.5685C5.50745 19.5195 5.65585 19.1769 5.75479 18.7854C5.95266 18.0838 5.95266 18.0675 5.39202 17.5128C4.65 16.7787 4.45213 16.0445 4.45213 13.9562C4.45213 11.9006 4.23777 11.1175 3.46277 10.3507L2.86915 9.76336L3.46277 9.19235C4.22128 8.45819 4.45213 7.65877 4.45213 5.63575C4.45213 3.4659 4.66649 2.65017 5.39202 2.0139C5.96915 1.52446 5.96915 1.52446 5.77128 0.790299C5.65585 0.398747 5.50745 0.0398243 5.45798 0.00719493C5.40851 -0.0254344 5.04574 0.0561393 4.68298 0.186657ZM25.1628 0.741355C24.9154 1.44289 24.9154 1.60603 25.0968 1.72023C25.2122 1.80181 25.3606 1.86707 25.4266 1.86707C25.4926 1.86707 25.7069 2.11179 25.9213 2.38914C26.2511 2.86226 26.317 3.17224 26.3995 5.21157C26.5149 7.82192 26.7622 8.62134 27.6362 9.33918L28.1968 9.79599L27.7021 10.1549C26.7622 10.8564 26.4984 11.6559 26.416 14.1031C26.3335 16.5339 26.0697 17.3823 25.2947 17.7249C25.0638 17.8228 24.9154 18.0023 24.9649 18.1165C24.9979 18.2144 25.1298 18.6059 25.2452 18.9811C25.4101 19.5522 25.4926 19.6337 25.7894 19.5522C27.0755 19.1606 28.0979 18.3286 28.642 17.2355C29.0543 16.3871 29.1037 16.1098 29.1532 14.2662C29.1862 13.1405 29.2851 12.0148 29.384 11.7701C29.5654 11.3133 30.258 10.8401 30.7527 10.8401C30.9505 10.8401 31 10.628 31 9.77968C31 8.96394 30.9505 8.71922 30.7527 8.71922C30.291 8.71922 29.6479 8.32767 29.417 7.88718C29.2521 7.5772 29.1862 6.87567 29.1862 5.65207C29.1862 2.82963 28.5596 1.39394 26.9436 0.545579C25.542 -0.204895 25.509 -0.204896 25.1628 0.741355ZM8.77234 13.1568C8.09628 13.3363 7.75 13.8583 7.75 14.6741C7.75 15.865 9.05266 16.5829 10.1904 15.9956C11.1468 15.5061 11.3447 14.462 10.6356 13.6462C10.1904 13.1079 9.58032 12.961 8.77234 13.1568ZM14.7085 13.1568C14.0324 13.3363 13.6862 13.8583 13.6862 14.6741C13.6862 15.865 14.9888 16.5829 16.1266 15.9956C17.083 15.5061 17.2809 14.462 16.5718 13.6462C16.1266 13.1079 15.5165 12.961 14.7085 13.1568ZM20.8096 13.1568C20.1335 13.3363 19.7872 13.8583 19.7872 14.6741C19.7872 15.865 21.0899 16.5829 22.2277 15.9956C23.184 15.5061 23.3819 14.462 22.6729 13.6462C22.2277 13.1079 21.6176 12.961 20.8096 13.1568Z" fill="url(#paint0_linear_55_5196)"/>
          <defs>
          <linearGradient id="paint0_linear_55_5196" x1="2.30968e-07" y1="9.78947" x2="31" y2="9.78947" gradientUnits="userSpaceOnUse">
          <stop stop-color="#FB8530"/>
          <stop offset="1" stop-color="#FEB50B"/>
          </linearGradient>
          </defs>
          </svg>