<svg width="51" height="51" viewBox="0 0 51 51" fill="none" xmlns="http://www.w3.org/2000/svg">
<circle cx="25.3694" cy="25.3694" r="25.3694" fill="#1F212C"/>
<path d="M34.657 16.6723C32.978 15.8867 31.1827 15.3158 29.3057 14.9907C29.0752 15.4075 28.8059 15.968 28.6202 16.4139C26.6249 16.1139 24.648 16.1139 22.6895 16.4139C22.5038 15.968 22.2284 15.4075 21.9958 14.9907C20.1169 15.3158 18.3195 15.8888 16.6404 16.6765C13.2538 21.7942 12.3357 26.7848 12.7947 31.7045C15.0409 33.3819 17.2178 34.4009 19.3579 35.0677C19.8863 34.3404 20.3576 33.5674 20.7636 32.7526C19.9903 32.4588 19.2498 32.0962 18.55 31.6753C18.7357 31.5378 18.9172 31.394 19.0927 31.246C23.3607 33.2423 27.998 33.2423 32.215 31.246C32.3925 31.394 32.574 31.5378 32.7576 31.6753C32.0558 32.0983 31.3132 32.4609 30.54 32.7547C30.946 33.5674 31.4152 34.3425 31.9457 35.0697C34.0878 34.4029 36.2667 33.384 38.5129 31.7045C39.0515 26.0013 37.5928 21.0565 34.657 16.6723ZM21.345 28.6789C20.0638 28.6789 19.0131 27.4828 19.0131 26.0263C19.0131 24.5697 20.0414 23.3716 21.345 23.3716C22.6487 23.3716 23.6994 24.5676 23.6769 26.0263C23.6789 27.4828 22.6487 28.6789 21.345 28.6789ZM29.9626 28.6789C28.6814 28.6789 27.6307 27.4828 27.6307 26.0263C27.6307 24.5697 28.659 23.3716 29.9626 23.3716C31.2663 23.3716 32.317 24.5676 32.2945 26.0263C32.2945 27.4828 31.2663 28.6789 29.9626 28.6789Z" fill="white"/>
</svg>
