<svg width="51" height="51" viewBox="0 0 51 51" fill="none" xmlns="http://www.w3.org/2000/svg">
<circle cx="25.6311" cy="25.3694" r="25.3694" fill="#1F212C"/>
<path d="M21.226 35.5205C20.4787 35.5205 20.6057 35.2383 20.348 34.5268L18.1509 27.296L35.0638 17.2622" fill="#C8DAEA"/>
<path d="M21.2275 35.8265C21.8041 35.8265 22.0588 35.5628 22.3807 35.2499L25.4558 32.2598L21.62 29.9468" fill="#A9C9DD"/>
<path d="M21.6181 30.0261L30.9125 36.8929C31.9732 37.4781 32.7385 37.1751 33.0028 35.9083L36.7861 18.08C37.1734 16.5271 36.1941 15.8225 35.1794 16.2832L12.9639 24.8494C11.4475 25.4577 11.4565 26.3037 12.6875 26.6806L18.3885 28.4601L31.5869 20.1334C32.21 19.7555 32.782 19.9585 32.3126 20.3752" fill="url(#paint0_linear_14_598)"/>
<defs>
<linearGradient id="paint0_linear_14_598" x1="28.3456" y1="25.3365" x2="31.9448" y2="33.5371" gradientUnits="userSpaceOnUse">
<stop stop-color="#EFF7FC"/>
<stop offset="1" stop-color="white"/>
</linearGradient>
</defs>
</svg>
