<?xml version="1.0" encoding="utf-8"?>
<!-- Generator: Adobe Illustrator 24.3.0, SVG Export Plug-In . SVG Version: 6.00 Build 0)  -->
<svg version="1.1" id="Layer_1" xmlns="http://www.w3.org/2000/svg" xmlns:xlink="http://www.w3.org/1999/xlink" x="0px" y="0px"
	 viewBox="0 0 250 150" style="enable-background:new 0 0 250 150;" xml:space="preserve">
<style type="text/css">
	.st0{fill:#102346;}
	.st1{fill:#FDC90B;}
	.st2{fill:none;stroke:#102346;stroke-width:0.9748;stroke-miterlimit:10;}
</style>
<g>
	<path class="st0" d="M180.9,55.5c0,14.6,0,29.1,0,43.8c0.3,0,0.6,0,0.8,0c7.1,0,14.3,0,21.4,0c0.3,0,0.7,0,1,0
		c1.2,0.1,1.9,0.7,2.2,1.8c0.4,1.2,0.4,2.4,0.1,3.6c-0.3,1.3-1.2,1.9-2.6,1.9c-5.1,0-10.2,0-15.3,0c-3.7,0-7.4,0-11.1,0
		c-0.4,0-0.8,0-1.2,0c-2.4-0.2-3.5-1.2-3.9-3.7c-0.1-0.4-0.1-0.7-0.1-1.1c0-16.4,0-32.8,0-49.2c0-0.6,0.1-1.2,0.2-1.8
		c0.5-1.9,1.7-2.8,3.7-2.9c0.4,0,0.7,0,1.1,0c8.3,0,16.6,0,24.9,0c2.3,0,3.1,1.2,3.2,2.8c0.1,0.8,0.1,1.7,0,2.5
		c-0.2,1.3-1,2-2.3,2.1c-0.4,0-0.8,0.1-1.2,0.1c-6.7,0-13.4,0-20,0C181.5,55.5,181.2,55.5,180.9,55.5z"/>
	<path class="st0" d="M221.4,99.7c0-0.4,0-0.7,0-1c0-15.6,0-31.2,0-46.8c0-0.5,0-1-0.1-1.4c-0.2-1-0.8-1.6-1.7-2
		c-1.5-0.6-3-0.6-4.5-0.1c-1.5,0.4-2.2,1.4-2.3,3c0,0.2,0,0.5,0,0.7c0,16.8,0,33.6,0,50.5c0,0.5,0,0.9,0.1,1.4
		c0.4,2.1,1.7,3.2,3.9,3.2c1.7,0,3.3,0,5,0c6.8,0,13.6,0,20.4,0c1.9,0,2.7-0.7,3-2.5c0.1-1,0.1-2.1-0.1-3.1c-0.2-1.1-1-1.7-2.1-1.8
		c-0.4,0-0.8-0.1-1.2-0.1c-6.5,0-12.9,0-19.4,0C222,99.7,221.7,99.7,221.4,99.7z"/>
	<path class="st0" d="M193.6,82.2c-3.4,0-6-2.7-6-6.1c0-3.5,2.6-6.1,6.1-6.1c3.5,0,6.2,2.7,6.1,6.2
		C199.8,79.6,197.1,82.3,193.6,82.2z"/>
	<g>
		<g>
			<circle class="st1" cx="12.2" cy="55" r="7.4"/>
			<circle class="st1" cx="12.2" cy="77.3" r="7.4"/>
			<circle class="st1" cx="12.2" cy="99.5" r="7.4"/>
			<circle class="st1" cx="34.5" cy="55" r="7.4"/>
			<circle class="st1" cx="34.5" cy="77.3" r="7.4"/>
			<circle class="st1" cx="34.5" cy="99.5" r="7.4"/>
			<circle class="st1" cx="56.7" cy="55" r="7.4"/>
			<circle class="st1" cx="56.7" cy="77.3" r="7.4"/>
			<circle class="st1" cx="56.7" cy="99.5" r="7.4"/>
		</g>
	</g>
	<path class="st0" d="M142.5,55.5c0,0.4,0,0.7,0,1c0,15.6,0,31.2,0,46.8c0,0.5,0,1-0.1,1.4c-0.2,1-0.8,1.6-1.7,2
		c-1.5,0.6-3,0.6-4.5,0.1c-1.5-0.4-2.2-1.4-2.3-3c0-0.2,0-0.5,0-0.7c0-16.8,0-33.6,0-50.5c0-0.5,0-0.9,0.1-1.4
		c0.4-2.1,1.7-3.2,3.9-3.2c1.7,0,3.3,0,5,0c6.8,0,13.6,0,20.4,0c1.9,0,2.7,0.7,3,2.5c0.1,1,0.1,2.1-0.1,3.1c-0.2,1.1-1,1.7-2.1,1.8
		c-0.4,0-0.8,0.1-1.2,0.1c-6.5,0-12.9,0-19.4,0C143.2,55.5,142.9,55.5,142.5,55.5z"/>
	<path class="st0" d="M155.2,82.2c-3.4,0-6.1-2.7-6.1-6.1c0-3.4,2.7-6.1,6.1-6.1c3.4,0,6.2,2.8,6.2,6.1
		C161.4,79.6,158.7,82.2,155.2,82.2z"/>
	<path class="st0" d="M124.7,76.1h-1c-1.8,0-3.2,1.4-3.2,3.2v5.9v6.3l0,5.8c0,1.5-1,2.8-2.4,3.1c-1.9,0.4-4.4,0.7-7.5,0.7
		c-13.5,0-22.4-8.7-22.4-23.4c0-14.5,9.2-23.3,23.3-23.3c4.1,0,7.2,0.5,9.8,1.3c1.7,0.5,3.5-0.4,4-2.1v0c0.5-1.7-0.4-3.4-2.1-3.9
		c-2.8-0.8-6.8-1.6-11.5-1.6c-19.4,0-31.3,12.6-31.4,29.9c0,9,3.1,16.8,8.1,21.6c5.7,5.4,12.9,7.7,21.7,7.7c6.4,0,11.9-1.3,15.6-2.4
		c1.3-0.4,2.2-1.6,2.2-3l0-22.4C127.9,77.5,126.4,76.1,124.7,76.1z"/>
	<ellipse class="st2" cx="229.1" cy="46.3" rx="3.5" ry="3.5"/>
	<g>
		<path class="st0" d="M229.1,46.7h-1v1.8h-0.6v-4.4h1.5c0.5,0,0.9,0.1,1.1,0.3c0.3,0.2,0.4,0.6,0.4,1c0,0.3-0.1,0.5-0.2,0.7
			c-0.1,0.2-0.4,0.4-0.6,0.5l1,1.9v0h-0.6L229.1,46.7z M228.1,46.3h0.9c0.3,0,0.5-0.1,0.7-0.2c0.2-0.1,0.3-0.3,0.3-0.6
			c0-0.3-0.1-0.5-0.2-0.6c-0.2-0.1-0.4-0.2-0.7-0.2h-0.9V46.3z"/>
	</g>
</g>
</svg>
