<svg width="120" height="129" viewBox="0 0 120 129" fill="none" xmlns="http://www.w3.org/2000/svg">
<path d="M33.4702 53.387C32.9297 53.1056 32.4055 52.7936 31.9004 52.4526C31.9004 55.0876 31.3772 58.1243 29.6486 59.9276C27.6771 62.0112 33.1992 66.7765 39.2913 65.8795C45.3834 64.9825 48.364 61.9739 48.364 61.9739C48.364 61.9739 44.9909 59.3389 44.8415 52.7984L44.2528 53.1534C42.6153 54.0818 40.7729 54.5891 38.891 54.6299C37.009 54.6706 35.1464 54.2436 33.4702 53.387Z" fill="#E29B8D"/>
<path d="M58.912 33.2142C58.314 31.1679 56.1089 32.2051 56.1089 32.2051C56.7536 25.1973 55.7071 5.37936 36.291 6.78091C16.8748 8.18246 20.1451 32.2798 20.1451 32.2798C17.6596 31.0558 16.202 33.7561 17.968 38.2504C19.5751 42.343 23.135 41.6235 23.135 41.6235C25.0045 45.9818 28.0526 49.7321 31.9368 52.4528C32.4419 52.7938 32.966 53.1058 33.5065 53.3872C35.1804 54.248 37.0418 54.6799 38.9238 54.644C40.8057 54.6081 42.6493 54.1057 44.2892 53.1817L44.8778 52.8266C51.1848 48.8555 53.8758 41.4834 53.8758 41.4834C58.3047 42.6326 59.5007 35.2605 58.912 33.2142Z" fill="#EAB2A5"/>
<path d="M57.8935 33.4758C58.015 33.6066 57.4357 32.775 56.819 33.2048C56.5035 33.5239 56.2858 33.9265 56.1914 34.3652C56.0971 34.8038 56.13 35.2603 56.2864 35.6809C56.6601 36.1854 57.118 37.3254 56.2864 37.8393C55.4548 38.3532 55.7258 38.6055 55.7258 38.6055C55.9697 38.3041 56.2935 38.0774 56.6601 37.9514C57.2488 37.7552 57.2488 36.7274 56.6601 35.9332C56.0715 35.139 56.8937 32.3358 57.8935 33.4758Z" fill="#BC6262"/>
<path d="M18.4258 33.5876C18.3323 33.7277 18.8089 32.8494 19.4723 33.2045C19.8221 33.4855 20.0833 33.8617 20.2242 34.2878C20.3651 34.7139 20.3798 35.1716 20.2665 35.6058C19.9488 36.1571 19.6218 37.3344 20.472 37.7548C21.3223 38.1753 21.1167 38.4556 21.1167 38.4556C20.8405 38.1883 20.499 37.9983 20.1263 37.9043C19.5283 37.7735 19.4162 36.7551 19.9114 35.9048C20.4066 35.0545 19.2947 32.3449 18.4258 33.5876Z" fill="#BC6262"/>
<path d="M35.5622 45.8375C35.9475 46.3149 36.4365 46.6983 36.9921 46.9584C37.5477 47.2186 38.1554 47.3486 38.7688 47.3387C39.3822 47.3288 39.9853 47.1792 40.5323 46.9013C41.0792 46.6233 41.5556 46.2244 41.9253 45.7347C42.299 45.1741 41.402 44.6602 40.9909 45.2114C39.8977 46.8559 37.3655 46.5289 36.2536 45.1087C35.8425 44.5761 35.1137 45.3142 35.5155 45.8375H35.5622Z" fill="#1D2937"/>
<path d="M28.584 41.212C29.6831 41.212 30.5742 40.3209 30.5742 39.2218C30.5742 38.1226 29.6831 37.2316 28.584 37.2316C27.4848 37.2316 26.5938 38.1226 26.5938 39.2218C26.5938 40.3209 27.4848 41.212 28.584 41.212Z" fill="#CE7A7A"/>
<path d="M29.4896 36.4014C30.4486 36.361 31.1785 35.1998 31.1199 33.8078C31.0613 32.4157 30.2364 31.3199 29.2774 31.3603C28.3184 31.4006 27.5885 32.5619 27.6471 33.9539C27.7057 35.346 28.5306 36.4418 29.4896 36.4014Z" fill="#332535"/>
<path d="M28.068 30.0932C27.9091 30.2987 28.068 30.0932 28.1894 30.0371C28.4566 29.9123 28.7395 29.8243 29.0304 29.7755C29.383 29.7112 29.7461 29.7369 30.0862 29.8502C30.1796 29.8502 30.4506 30.0558 30.3665 29.9811C30.9271 30.4576 31.7494 29.6447 31.1794 29.1588C30.5645 28.7195 29.8134 28.5131 29.0603 28.5764C28.3072 28.6397 27.6011 28.9687 27.0682 29.5045C26.6197 30.1025 27.6195 30.6725 28.068 30.0932Z" fill="#332535"/>
<path d="M47.6347 41.212C48.7339 41.212 49.6249 40.3209 49.6249 39.2218C49.6249 38.1226 48.7339 37.2316 47.6347 37.2316C46.5356 37.2316 45.6445 38.1226 45.6445 39.2218C45.6445 40.3209 46.5356 41.212 47.6347 41.212Z" fill="#CE7A7A"/>
<path d="M48.6003 33.9775C48.6589 32.5854 47.929 31.4242 46.97 31.3839C46.0111 31.3435 45.1862 32.4393 45.1276 33.8314C45.069 35.2234 45.7989 36.3846 46.7579 36.425C47.7169 36.4654 48.5417 35.3696 48.6003 33.9775Z" fill="#332535"/>
<path d="M48.1493 30.0934C48.3081 30.299 48.1493 30.0934 48.0278 30.0374C47.7606 29.9125 47.4777 29.8245 47.1869 29.7757C46.8342 29.7114 46.4711 29.7372 46.131 29.8505C46.0376 29.8505 45.7666 30.0561 45.8507 29.9813C45.2808 30.4578 44.4585 29.6449 45.0285 29.1591C45.6456 28.7209 46.3978 28.5152 47.152 28.5785C47.9061 28.6418 48.6136 28.9699 49.1491 29.5048C49.5975 30.1028 48.5978 30.6727 48.1493 30.0934Z" fill="#332535"/>
<path d="M36.9357 32.1583C37.3059 32.5651 37.5716 33.0557 37.7099 33.588C37.8483 34.1203 37.8552 34.6782 37.7299 35.2137C37.3281 36.6433 35.9733 37.8673 36.1228 39.054C36.2723 40.2406 39.3463 40.3434 39.3463 40.3434C39.3463 40.3434 36.2816 39.708 36.5432 38.7269C36.7581 37.5683 39.8696 33.8308 36.9357 32.1583Z" fill="#CE7A7A"/>
<path d="M61.8741 17.4418C56.053 10.5929 64.2381 8.33173 56.8192 2.25834C50.3908 -3.00216 41.589 2.37045 39.3465 3.90282C39.3465 3.90282 28.5546 -2.88069 21.1357 3.1927C13.7168 9.2661 20.0238 12.3495 14.212 19.1984C8.40022 26.0474 0.990683 21.796 3.3266 32.1581C5.66253 42.5203 13.287 39.549 11.4182 44.9216C9.5495 50.2942 12.7637 52.2844 17.1553 54.639C19.6874 56.0032 25.8075 57.3207 30.8064 58.1896C31.5538 56.3706 31.9257 54.4191 31.8996 52.4526C28.0154 49.7319 24.9673 45.9815 23.0978 41.6233C23.0978 41.6233 19.5379 42.3427 17.9308 38.2502C16.1648 33.7559 17.6224 31.0556 20.1079 32.2796C20.7339 32.6253 22.2195 33.9147 23.2287 38.5305C23.2287 38.5305 21.9486 29.981 24.2845 26.5986C26.6204 23.2162 32.6938 23.2069 36.4313 19.4694C37.1546 18.7146 37.7822 17.8735 38.3 16.9653C38.8004 17.8142 39.4029 18.5987 40.094 19.3012C43.8315 23.0387 49.9049 23.0387 52.2408 26.4304C54.5767 29.8222 53.2873 38.3623 53.2873 38.3623C54.4739 32.9991 56.1465 32.1581 56.5763 32.0273C56.8054 31.9376 57.0511 31.8975 57.2969 31.9098C57.5427 31.9221 57.7831 31.9865 58.0022 32.0987C58.2212 32.2109 58.414 32.3683 58.5676 32.5606C58.7213 32.7528 58.8324 32.9755 58.8935 33.214C59.4822 35.2602 58.2768 42.6324 53.8199 41.4831C53.8199 41.4831 51.1289 48.8553 44.8219 52.8264C44.8443 54.7138 45.2084 56.5815 45.8964 58.3391C51.1476 57.4702 58.0432 56.078 60.6968 54.6017C65.0884 52.2471 68.2933 50.2662 66.4245 44.8842C64.5558 39.5023 72.1896 42.4736 74.5255 32.1208C76.8614 21.7679 67.6485 24.2907 61.8741 17.4418Z" fill="#332535"/>
<path d="M113.265 69.9067C114.887 67.052 116.223 64.0444 117.255 60.9274C118.273 57.1899 120.058 47.9677 118.656 46.7156C117.255 45.4636 116.713 47.2295 116.46 48.1639C115.937 50.1635 115.292 54.583 114.872 56.3023C114.451 58.0215 114.76 54.4335 114.975 52.6956C115.208 50.6961 116.143 44.7722 116.031 43.9032C115.918 43.0342 115.18 42.2027 114.442 42.539C112.751 43.3146 112.031 54.0504 111.732 54.3494C111.433 54.6484 111.947 45.2767 112.059 43.8752C112.172 42.4736 111.574 40.2031 110.415 40.5768C108.266 41.2589 108.546 50.8549 108.331 52.7236C108.107 55.2277 107.668 51.8547 107.687 50.7521C107.705 49.6496 107.163 41.8102 106.033 41.5486C104.5 41.2029 103.818 42.3895 103.977 44.7254C104.136 47.0614 104.865 56.0967 104.351 56.5826C103.837 57.0685 102.669 55.5361 101.931 54.2093C101.193 52.8825 97.9318 49.8925 96.5116 51.1819C95.0913 52.4714 96.8106 52.5087 98.0533 54.7419C99.2214 56.683 100.162 58.7523 100.856 60.9087C101.464 63.0017 103.753 68.3837 105.65 70.0562C107.546 71.7287 111.424 71.5325 113.265 69.9067Z" fill="#FEAC97"/>
<path d="M90.2677 97.1436C88.3579 99.3522 87.2111 102.118 86.9974 105.03C86.8292 109.58 88.2868 115.42 91.5571 116.298C94.8274 117.176 102.302 100.816 102.302 100.816L90.2677 97.1436Z" fill="#FB8E55"/>
<path d="M92.8775 98.4422L81.2353 85.0807C74.7601 76.905 67.089 67.7669 64.8371 66.1504C62.5853 64.5339 55.8765 62.796 55.8765 62.796C55.8765 62.796 56.895 77.2787 55.8765 79.4558C54.8581 81.6329 60.5484 85.3704 66.9395 92.5837C76.4046 103.207 89.8502 116.644 91.5601 116.335C93.0457 116.064 92.7094 105.198 91.5601 100.161C92.2235 99.2364 92.8775 98.4422 92.8775 98.4422Z" fill="#F97B43"/>
<path d="M87.9258 100.975L90.271 97.1437C91.2054 96.7886 105.585 69.8508 105.585 69.8508C105.585 69.8508 112.126 70.5609 113.593 69.72C113.593 69.72 109.855 86.277 103.119 99.246C96.3818 112.215 94.8308 115.943 91.5605 116.298C88.2902 116.653 87.9258 100.975 87.9258 100.975Z" fill="#FB8E55"/>
<path d="M61.1089 78.8766C61.8097 67.4306 59.2402 63.8146 57.9601 63.3474C56.68 62.8802 48.6631 60.8153 45.9815 58.4794C45.9815 58.4794 45.9815 63.6371 38.8149 64.0856C30.2841 64.5995 30.4897 58.8531 30.4897 58.8531C30.4897 58.8531 23.267 62.0767 19.0623 62.7775C14.8577 63.4782 13.6897 70.2524 14.1569 75.8586C14.4933 79.8764 15.8388 88.0054 17.1375 95.6299C17.6514 98.6385 18.156 101.563 18.5952 104.123C19.5295 109.402 17.3431 118.746 15.3716 126.287C21 128.137 34.5 128.137 34.5 128.137H45.5H55.8391C54.8494 123.624 54.3296 119.021 54.2881 114.401C54.5684 105.273 60.3988 90.3227 61.1089 78.8766Z" fill="#F97B43"/>
<path d="M28.3223 101.694C31.2721 100.097 34.6415 99.4443 37.9743 99.825C41.4588 100.22 44.8242 101.33 47.8599 103.086C41.4916 101.405 34.8646 100.933 28.3223 101.694Z" fill="#E56239"/>
<path d="M60.2197 85.7068C60.2197 85.7068 61.2662 78.3253 61.2195 75.681L60.8925 72.1584L58.6406 93.0135L60.2197 85.7068Z" fill="#E56239"/>
<path d="M15.8008 73.6628C16.4565 76.4707 16.8198 79.3389 16.8847 82.2216C16.9687 86.8001 16.2399 91.4065 16.9501 94.6674C17.6602 97.9284 17.7443 97.3304 17.7443 97.3304C17.7443 97.3304 16.5016 92.0979 17.0248 89.463C17.5481 86.8281 18.0713 76.6622 15.8008 73.6628Z" fill="#E56239"/>
<path d="M19.0629 62.796C19.0629 62.796 11.4291 64.0387 7.85044 68.5611C4.27181 73.0834 3.01976 97.676 1.6182 106.87C0.21665 116.064 -1.65209 125.651 5.04734 126.305C9.86868 126.772 14.7648 106.87 17.1381 95.6484C15.8393 88.0333 16.1383 78.8298 15.8113 74.8213C15.3254 69.1778 14.8489 63.4594 19.0629 62.796Z" fill="#F97B43"/>
<path d="M0 120.223C0 120.223 5.04558 109.571 11.119 102.096C17.1924 94.621 20.7523 90.949 20.7523 90.949C20.7523 90.949 23.8731 96.088 25.583 96.6299C26.8257 97.0224 14.9125 118.569 12.8289 121.606C10.7452 124.642 1.35483 131.267 0 120.223Z" fill="#FB8E55"/>
<path d="M46.15 74.0273H28.3223V97.3679H46.15V74.0273Z" fill="#F4E2DC"/>
<path d="M43.867 74.0273H30.0664V94.9385H43.867V74.0273Z" fill="white"/>
<path d="M47.5335 91.7613H44.123V88.9582H47.5335C48.7295 88.9582 49.7293 87.6033 49.7293 86.0055V82.9689C49.7293 81.3711 48.7295 80.0162 47.5335 80.0162H44.8892V77.2131H47.5335C50.2899 77.2131 52.5324 79.792 52.5324 82.9689V86.0055C52.5324 89.2011 50.2899 91.7613 47.5335 91.7613Z" fill="#F4E2DC"/>
<path d="M20.9298 92.1726C21.1073 91.8736 25.1344 84.2398 27.3582 82.8289C31.0294 80.8579 34.8579 79.1952 38.8042 77.8581C40.2058 77.5684 41.271 78.129 41.3738 78.5588C41.6447 79.7922 39.2901 81.0723 37.4774 81.7731C35.0557 82.653 32.6822 83.6604 30.3669 84.7911C29.8997 85.2209 35.4125 83.2307 37.4027 82.7074C39.3929 82.1842 41.7942 81.0256 42.7286 81.8385C43.6629 82.6514 43.8965 83.8194 42.2614 84.3052C40.6262 84.7911 33.8521 86.6225 31.6003 87.6129C29.3484 88.6033 30.1613 88.2576 30.6659 88.024C33.263 87.2457 35.9191 86.6801 38.608 86.3328C40.8225 86.1553 41.9344 85.8656 42.4576 86.3889C42.9809 86.9121 43.8031 88.2015 41.9344 88.9584C40.0656 89.7152 34.8052 90.3599 33.5251 90.8271C32.6967 91.1438 31.9263 91.5953 31.2452 92.1633C32.1175 91.6785 33.0651 91.3437 34.0483 91.1728C36.0946 90.7056 39.3649 89.8273 40.4954 90.2385C41.3738 90.5468 41.7008 91.4531 40.4954 92.1726C39.2901 92.8921 35.7675 93.406 34.4221 94.1628C33.0766 94.9197 31.5629 96.6763 30.0959 97.0874C28.629 97.4985 27.3956 96.153 26.3584 95.583C25.3213 95.0131 19.9954 93.6302 20.9298 92.1726Z" fill="#F4E2DC"/>
<path d="M20.21 91.6772C20.3875 91.3782 24.4147 83.7444 26.6291 82.3335C30.2992 80.3629 34.1279 78.7032 38.0751 77.372C39.4767 77.073 40.5512 77.6336 40.6447 78.0727C40.925 79.2968 38.5704 80.5768 36.7577 81.2776C34.3359 82.1576 31.9624 83.165 29.6471 84.2956C29.1799 84.7254 34.6927 82.7446 36.6736 82.212C38.6544 81.6794 41.0745 80.5301 42.0088 81.343C42.9432 82.1559 43.1768 83.3332 41.5416 83.8098C39.9065 84.2863 33.1323 86.127 30.8805 87.1174C28.6287 88.1079 29.4322 87.7715 29.9461 87.5286C32.5446 86.7558 35.2003 86.1903 37.8883 85.8373C40.1121 85.6598 41.224 85.3702 41.7472 85.8934C42.2704 86.4167 43.0927 87.7061 41.224 88.4629C39.3552 89.2198 34.0947 89.8645 32.8146 90.3317C31.9862 90.6483 31.2159 91.0998 30.5348 91.6678C31.4121 91.206 32.3589 90.8904 33.3379 90.7334C35.3841 90.2662 38.6544 89.3786 39.785 89.7991C40.6633 90.1074 40.9904 91.0231 39.785 91.7332C38.5797 92.4433 35.0478 92.9666 33.7116 93.7234C32.3755 94.4803 30.8431 96.2369 29.3855 96.648C27.9279 97.0591 25.0687 97.2273 24.0129 96.648C22.9571 96.0687 19.2943 93.1628 20.21 91.6772Z" fill="#FEAC97"/>
</svg>
