<svg width="47" height="47" viewBox="0 0 47 47" fill="none" xmlns="http://www.w3.org/2000/svg">
<g clip-path="url(#clip0_893_3974)">
<path d="M3.91602 33.9445H14.3605V47H3.91602V33.9445ZM32.6382 33.9445H43.0827V47H32.6382V33.9445Z" fill="#FFDC5D"/>
<path d="M43.0827 37.4955C43.0827 37.4955 39.166 40.1066 32.6382 38.8011V32.2733H43.0827V37.4955ZM3.91602 37.4955C3.91602 37.4955 7.83268 40.1066 14.3605 38.8011V32.2733H3.91602V37.4955Z" fill="#F9CA55"/>
<path d="M5.19922 24.2885H15.6437V34.733H5.19922V24.2885ZM31.3404 23.6357H41.7848V34.0802H31.3404V23.6357Z" fill="#EF9645"/>
<path d="M0.488436 15.4513C0.488436 15.4513 0.492353 13.852 2.09035 13.8559C3.69096 13.8611 3.68574 15.4604 3.68574 15.4604L3.66094 22.8812C3.91552 22.7637 4.18185 22.6579 4.46124 22.5666L4.49388 12.267C4.49388 12.267 4.4991 10.6677 6.0958 10.6729C7.6938 10.6769 7.68988 12.2775 7.68988 12.2775L7.66246 21.9647C7.92227 21.9412 8.18991 21.9229 8.45885 21.9099L8.49541 10.6795C8.49541 10.6795 8.49932 9.08016 10.0986 9.08669C11.6979 9.09191 11.6914 10.6912 11.6914 10.6912L11.6549 21.919C11.929 21.9347 12.1927 21.9621 12.4565 21.9869L12.4891 11.4915C12.4891 11.4915 12.4943 9.89222 14.091 9.89875C15.689 9.90266 15.6825 11.5007 15.6825 11.5007L15.6512 22.5992L15.6472 23.4883V24.286C10.8506 24.2742 7.64027 28.2575 7.62591 32.2551C7.62591 33.0541 8.42491 33.0593 8.42491 33.0593C8.43796 28.2575 11.6457 25.0758 16.4436 25.0902L18.7949 19.6225C18.7949 19.6225 19.3106 18.1094 20.8264 18.6277C22.3382 19.1395 21.8251 20.6552 21.8251 20.6552L20.6593 24.709C20.1971 26.32 19.765 27.9415 19.5378 29.597C18.8876 34.2761 14.8626 37.8742 10.0085 37.8611C4.71452 37.8389 0.432297 33.5332 0.449269 28.2392C0.450575 27.9598 0.467547 27.6935 0.493658 27.4428L0.45188 27.4376L0.488436 15.4513ZM46.5014 15.4513C46.5014 15.4513 46.4975 13.852 44.8995 13.8559C43.2989 13.8611 43.3028 15.4604 43.3028 15.4604L43.3276 22.8812C43.0744 22.7637 42.8067 22.6579 42.5286 22.5666L42.496 12.267C42.496 12.267 42.4908 10.6677 40.8941 10.6729C39.2948 10.6769 39.2987 12.2775 39.2987 12.2775L39.3274 21.9647C39.0689 21.9412 38.8013 21.9229 38.531 21.9099L38.4958 10.6795C38.4958 10.6795 38.4905 9.08016 36.8912 9.08669C35.2919 9.09191 35.2985 10.6912 35.2985 10.6912L35.335 21.919C35.0609 21.9347 34.7971 21.9621 34.5334 21.9869L34.5008 11.4915C34.5008 11.4915 34.4942 9.89222 32.8975 9.89875C31.2995 9.90266 31.3061 11.5007 31.3061 11.5007L31.3374 22.5992L31.3413 23.4883V24.286C36.1379 24.2742 39.3483 28.2575 39.364 32.2551C39.364 33.0541 38.565 33.0593 38.565 33.0593C38.5506 28.2575 35.3429 25.0758 30.5462 25.0902L28.1949 19.6225C28.1949 19.6225 27.6805 18.1094 26.1635 18.6277C24.653 19.1395 25.1647 20.6552 25.1647 20.6552L26.3306 24.709C26.7928 26.32 27.2249 27.9415 27.4521 29.597C28.1022 34.2761 32.126 37.8742 36.9813 37.8611C42.2754 37.8389 46.5589 33.5332 46.5406 28.2392C46.5393 27.9598 46.5223 27.6935 46.4962 27.4428L46.538 27.4376L46.5014 15.4513Z" fill="#FFDC5D"/>
<path d="M30.7325 8.43128C30.4544 8.43128 30.1724 8.3425 29.9361 8.15972C29.3642 7.71844 29.2598 6.89856 29.7011 6.32803L33.5903 1.29511C34.0277 0.725889 34.8502 0.616222 35.4207 1.06011C35.9925 1.50139 36.097 2.32128 35.6557 2.89181L31.7665 7.92472C31.5106 8.25764 31.1241 8.43128 30.7325 8.43128ZM16.3452 8.43128C15.9549 8.43128 15.5684 8.25633 15.3112 7.92342L11.422 2.89181C10.982 2.32128 11.0878 1.50139 11.6583 1.06011C12.2288 0.620139 13.0474 0.724583 13.49 1.29511L17.3792 6.32803C17.8192 6.89856 17.7148 7.71844 17.1442 8.15972C16.9053 8.34381 16.6246 8.43128 16.3452 8.43128ZM23.4984 7.83333C22.7777 7.83333 22.1928 7.24844 22.1928 6.52778V1.30556C22.1928 0.584889 22.7777 0 23.4984 0C24.2203 0 24.8039 0.584889 24.8039 1.30556V6.52778C24.8039 7.24844 24.2203 7.83333 23.4984 7.83333Z" fill="#5DADEC"/>
</g>
<defs>
<clipPath id="clip0_893_3974">
<rect width="47" height="47" fill="white"/>
</clipPath>
</defs>
</svg>
