<svg width="37" height="52" viewBox="0 0 37 52" fill="none" xmlns="http://www.w3.org/2000/svg">
<path d="M23.0641 27.7919C22.2148 27.4885 21.6666 26.7844 21.6666 25.9979C21.6666 25.2135 22.2148 24.5115 23.0641 24.2082C29.237 22.0004 32.5 15.5026 32.5 5.41674C32.5 4.81874 32.0146 4.33337 31.4166 4.33337C30.8186 4.33337 30.3333 4.81874 30.3333 5.41674C30.3333 14.6337 27.6423 20.2692 22.3361 22.1672C20.6136 22.7826 19.5 24.2884 19.5 26.0022C19.5 27.7139 20.6136 29.2176 22.3361 29.8329C27.6423 31.7309 30.3333 37.3664 30.3333 46.5834C30.3333 47.1814 30.8186 47.6667 31.4166 47.6667C32.0146 47.6667 32.5 47.1814 32.5 46.5834C32.5 36.4975 29.237 29.9996 23.0641 27.7919Z" fill="white"/>
<path d="M14.4969 22.1671C9.19074 20.2691 6.49974 14.6336 6.49974 5.41662C6.49974 4.81862 6.01437 4.33325 5.41637 4.33325C4.81837 4.33325 4.33301 4.81862 4.33301 5.41662C4.33301 15.5025 7.59601 22.0003 13.7689 24.2081C14.6182 24.5115 15.1664 25.2156 15.1664 26.0021C15.1664 26.7865 14.6182 27.4885 13.7689 27.7918C7.59601 29.9996 4.33301 36.4974 4.33301 46.5833C4.33301 47.1813 4.81837 47.6666 5.41637 47.6666C6.01437 47.6666 6.49974 47.1813 6.49974 46.5833C6.49974 37.3663 9.19074 31.7308 14.4969 29.8328C16.2194 29.2174 17.333 27.7116 17.333 25.9978C17.333 24.2861 16.2194 22.7825 14.4969 22.1671Z" fill="white"/>
<path d="M33.5833 0H3.25C1.45813 0 0 1.45813 0 3.25C0 5.04187 1.45813 6.5 3.25 6.5H33.5834C35.3752 6.5 36.8334 5.04187 36.8334 3.25C36.8333 1.45813 35.3751 0 33.5833 0ZM33.5833 4.33337H3.25C2.65413 4.33337 2.16663 3.848 2.16663 3.25C2.16663 2.652 2.65413 2.16663 3.25 2.16663H33.5834C34.1791 2.16663 34.6666 2.652 34.6666 3.25C34.6666 3.848 34.1791 4.33337 33.5833 4.33337Z" fill="white"/>
<path d="M33.5833 45.5H3.25C1.45813 45.5 0 46.9581 0 48.75C0 50.5419 1.45813 52 3.25 52H33.5834C35.3752 52 36.8334 50.5419 36.8334 48.75C36.8333 46.9581 35.3751 45.5 33.5833 45.5ZM33.5833 49.8334H3.25C2.65413 49.8334 2.16663 49.348 2.16663 48.75C2.16663 48.152 2.65413 47.6666 3.25 47.6666H33.5834C34.1791 47.6666 34.6666 48.152 34.6666 48.75C34.6666 49.348 34.1791 49.8334 33.5833 49.8334Z" fill="white"/>
<path d="M26.2873 43.702C25.6946 43.7045 25.2976 43.2728 25.2949 42.6228C25.2779 38.5062 22.1023 35.0526 18.3484 35.0682C17.7557 35.0706 17.3587 34.639 17.3561 33.989C17.3534 33.339 17.7467 32.904 18.3394 32.9015C23.2788 32.8811 27.2482 37.198 27.2707 42.6146C27.2733 43.2646 26.88 43.6996 26.2873 43.702Z" fill="url(#paint0_linear)"/>
<defs>
<linearGradient id="paint0_linear" x1="17.3965" y1="43.7389" x2="27.2751" y2="43.6979" gradientUnits="userSpaceOnUse">
<stop stop-color="#FB8133"/>
<stop offset="1" stop-color="#FFBA08"/>
</linearGradient>
</defs>
</svg>
