<svg width="17" height="18" viewBox="0 0 17 18" fill="none" xmlns="http://www.w3.org/2000/svg">
<path d="M16.1323 12.9796V15.3882C16.1332 15.6118 16.0873 15.8331 15.9976 16.038C15.9078 16.2429 15.7762 16.4268 15.6111 16.578C15.446 16.7291 15.2511 16.8442 15.0388 16.9159C14.8266 16.9875 14.6017 17.0141 14.3786 16.994C11.9031 16.7255 9.52516 15.8813 7.43594 14.5291C5.49218 13.2964 3.84422 11.6517 2.60908 9.71183C1.2495 7.61728 0.403406 5.23255 0.139342 2.75085C0.119239 2.52882 0.145677 2.30506 0.216974 2.09379C0.288271 1.88252 0.402865 1.68839 0.553459 1.52374C0.704053 1.3591 0.887348 1.22755 1.09167 1.13748C1.296 1.0474 1.51688 1.00078 1.74025 1.00057H4.15368C4.54409 0.996731 4.92259 1.13471 5.21861 1.38879C5.51463 1.64286 5.70798 1.9957 5.76263 2.38152C5.86449 3.15234 6.0534 3.90919 6.32576 4.63762C6.434 4.92499 6.45742 5.2373 6.39326 5.53755C6.3291 5.8378 6.18004 6.11341 5.96375 6.3317L4.94206 7.35136C6.08728 9.36141 7.75487 11.0257 9.76892 12.1687L10.7906 11.149C11.0093 10.9331 11.2855 10.7844 11.5863 10.7203C11.8872 10.6563 12.2001 10.6797 12.488 10.7877C13.2179 11.0595 13.9763 11.248 14.7486 11.3497C15.1394 11.4047 15.4963 11.6012 15.7514 11.9017C16.0065 12.2022 16.1421 12.5858 16.1323 12.9796Z" stroke="white" stroke-linecap="round" stroke-linejoin="round"/>
</svg>
