<svg width="50" height="50" viewBox="0 0 50 50" fill="none" xmlns="http://www.w3.org/2000/svg">
<path d="M28.1253 50H21.8753C20.417 50 18.7503 48.75 18.7503 46.25V41.875C18.7503 39.7917 17.7087 37.9167 16.042 36.4584C12.292 33.5417 10.417 29.375 10.417 24.7917C10.6253 16.875 17.0837 10.625 24.792 10.4167C28.7503 10.4167 32.5003 11.875 35.2087 14.5834C37.917 17.2917 39.5837 21.0417 39.5837 25C39.5837 29.375 37.7087 33.5417 34.167 36.25C32.292 37.7084 31.2503 40 31.2503 42.0834V46.875C31.2503 48.5417 29.792 50 28.1253 50ZM25.0003 12.5C18.3337 12.5 12.7087 18.125 12.5003 24.7917C12.5003 28.75 14.167 32.5 17.292 34.7917C19.5837 36.6667 20.8337 39.1667 20.8337 41.875V46.25C20.8337 46.6667 20.8337 47.9167 21.8753 47.9167H28.1253C28.7503 47.9167 29.167 47.5 29.167 46.875V42.0834C29.167 39.375 30.6253 36.4584 32.917 34.5834C35.8337 32.2917 37.5003 28.75 37.5003 25C37.5003 21.6667 36.2503 18.5417 33.7503 16.0417C31.4587 13.75 28.3337 12.5 25.0003 12.5Z" fill="white"/>
<path d="M30.2083 43.75H19.7917C19.1667 43.75 18.75 43.3334 18.75 42.7084C18.75 42.0834 19.1667 41.6667 19.7917 41.6667H30.2083C30.8333 41.6667 31.25 42.0834 31.25 42.7084C31.25 43.3334 30.8333 43.75 30.2083 43.75Z" fill="white"/>
<path d="M24.9997 6.25C24.3747 6.25 23.958 5.83333 23.958 5.20833V1.04167C23.958 0.416667 24.3747 0 24.9997 0C25.6247 0 26.0413 0.416667 26.0413 1.04167V5.20833C26.0413 5.83333 25.6247 6.25 24.9997 6.25Z" fill="url(#paint0_linear)"/>
<path d="M38.9583 12.0833C38.75 12.0833 38.3333 12.0833 38.125 11.875C37.7083 11.4583 37.7083 10.8333 38.125 10.4167L41.0417 7.5C41.4583 7.08333 42.0833 7.08333 42.5 7.5C42.9167 7.91667 42.9167 8.54167 42.5 8.95833L39.5833 11.875C39.5833 11.875 39.1667 12.0833 38.9583 12.0833Z" fill="url(#paint1_linear)"/>
<path d="M48.9583 26.0416H44.7917C44.1667 26.0416 43.75 25.625 43.75 25C43.75 24.375 44.1667 23.9583 44.7917 23.9583H48.9583C49.5833 23.9583 50 24.375 50 25C50 25.625 49.5833 26.0416 48.9583 26.0416Z" fill="url(#paint2_linear)"/>
<path d="M41.875 42.9166C41.6667 42.9166 41.25 42.9166 41.0417 42.7083L38.125 39.7916C37.7083 39.375 37.7083 38.75 38.125 38.3333C38.5417 37.9166 39.1667 37.9166 39.5833 38.3333L42.5 41.25C42.9167 41.6666 42.9167 42.2916 42.5 42.7083C42.5 42.9166 42.2917 42.9166 41.875 42.9166Z" fill="url(#paint3_linear)"/>
<path d="M8.12533 42.9166C7.91699 42.9166 7.50033 42.9166 7.29199 42.7083C6.87533 42.2916 6.87533 41.6666 7.29199 41.25L10.2087 38.3333C10.6253 37.9166 11.2503 37.9166 11.667 38.3333C12.0837 38.75 12.0837 39.375 11.667 39.7916L8.75032 42.7083C8.54199 42.9166 8.33366 42.9166 8.12533 42.9166Z" fill="url(#paint4_linear)"/>
<path d="M5.20833 26.0416H1.04167C0.416667 26.0416 0 25.625 0 25C0 24.375 0.416667 23.9583 1.04167 23.9583H5.20833C5.83333 23.9583 6.25 24.375 6.25 25C6.25 25.625 5.83333 26.0416 5.20833 26.0416Z" fill="url(#paint5_linear)"/>
<path d="M11.042 12.0834C10.8337 12.0834 10.417 12.0834 10.2087 11.875L7.29199 8.75002C6.87533 8.33335 6.87533 7.70835 7.29199 7.29169C7.70866 6.87502 8.33366 6.87502 8.75032 7.29169L11.667 10.2084C12.0837 10.625 12.0837 11.25 11.667 11.6667C11.4587 11.875 11.2503 12.0834 11.042 12.0834Z" fill="url(#paint6_linear)"/>
<path d="M33.333 26.0417C32.708 26.0417 32.2913 25.625 32.2913 25C32.2913 21.0417 28.958 17.7083 24.9997 17.7083C24.3747 17.7083 23.958 17.2917 23.958 16.6667C23.958 16.0417 24.3747 15.625 24.9997 15.625C30.208 15.625 34.3747 19.7917 34.3747 25C34.3747 25.625 33.958 26.0417 33.333 26.0417Z" fill="url(#paint7_linear)"/>
<defs>
<linearGradient id="paint0_linear" x1="23.958" y1="6.25" x2="26.0413" y2="6.25" gradientUnits="userSpaceOnUse">
<stop stop-color="#FB8133"/>
<stop offset="1" stop-color="#FFBA08"/>
</linearGradient>
<linearGradient id="paint1_linear" x1="37.8125" y1="12.0833" x2="42.8125" y2="12.0833" gradientUnits="userSpaceOnUse">
<stop stop-color="#FB8133"/>
<stop offset="1" stop-color="#FFBA08"/>
</linearGradient>
<linearGradient id="paint2_linear" x1="43.75" y1="26.0416" x2="50" y2="26.0416" gradientUnits="userSpaceOnUse">
<stop stop-color="#FB8133"/>
<stop offset="1" stop-color="#FFBA08"/>
</linearGradient>
<linearGradient id="paint3_linear" x1="37.8125" y1="42.9166" x2="42.8125" y2="42.9166" gradientUnits="userSpaceOnUse">
<stop stop-color="#FB8133"/>
<stop offset="1" stop-color="#FFBA08"/>
</linearGradient>
<linearGradient id="paint4_linear" x1="6.97949" y1="42.9166" x2="11.9795" y2="42.9166" gradientUnits="userSpaceOnUse">
<stop stop-color="#FB8133"/>
<stop offset="1" stop-color="#FFBA08"/>
</linearGradient>
<linearGradient id="paint5_linear" x1="0" y1="26.0416" x2="6.25" y2="26.0416" gradientUnits="userSpaceOnUse">
<stop stop-color="#FB8133"/>
<stop offset="1" stop-color="#FFBA08"/>
</linearGradient>
<linearGradient id="paint6_linear" x1="6.97949" y1="12.0834" x2="11.9795" y2="12.0834" gradientUnits="userSpaceOnUse">
<stop stop-color="#FB8133"/>
<stop offset="1" stop-color="#FFBA08"/>
</linearGradient>
<linearGradient id="paint7_linear" x1="23.958" y1="26.0417" x2="34.3747" y2="26.0417" gradientUnits="userSpaceOnUse">
<stop stop-color="#FB8133"/>
<stop offset="1" stop-color="#FFBA08"/>
</linearGradient>
</defs>
</svg>
