<svg width="17" height="29" viewBox="0 0 17 29" fill="none" xmlns="http://www.w3.org/2000/svg">
<path fill-rule="evenodd" clip-rule="evenodd" d="M10.1558 0.17895C8.38699 0.528649 6.63124 1.81235 5.82774 3.34346C5.16096 4.61414 4.99818 5.46386 4.92206 8.07216L4.85341 10.4227H2.90599C1.16316 10.4227 0.938746 10.4445 0.770976 10.6299C0.607965 10.8101 0.583496 11.1774 0.583496 13.448C0.583496 15.7364 0.606606 16.0783 0.770524 16.2146C0.909067 16.3298 1.4655 16.3792 2.91992 16.4056L4.88252 16.4412L4.91367 22.5603C4.94369 28.4678 4.95241 28.6849 5.1647 28.8401C5.33938 28.9678 5.91712 29.0009 7.97589 29.0009C9.54552 29.0009 10.6535 28.9547 10.7863 28.8836C10.9988 28.7699 11.0054 28.5805 11.0054 22.5965V16.4267H13.2761H15.5469L15.831 16.1425L16.115 15.8586L16.0807 13.3012C16.0488 10.9224 16.0311 10.7328 15.8265 10.5834C15.6536 10.4572 15.1107 10.4227 13.2901 10.4227H10.9737L11.0323 8.58193C11.1226 5.7474 11.1236 5.74627 13.9053 5.66494C15.3119 5.62381 15.8936 5.5657 16.0293 5.45287C16.1926 5.31705 16.2163 4.98547 16.2163 2.83664C16.2163 0.596505 16.1977 0.359067 16.0091 0.188352C15.8291 0.0254536 15.4842 0.00223099 13.3753 0.0115201C11.8085 0.0184302 10.6678 0.0776763 10.1558 0.17895Z" fill="#4285F4"/>
</svg>
