<svg width="24" height="25" viewBox="0 0 24 25" fill="none" xmlns="http://www.w3.org/2000/svg">
<path d="M20 12.5V22.5H4V12.5" stroke="white" stroke-width="2" stroke-linecap="round" stroke-linejoin="round"/>
<path d="M22 7.5H2V12.5H22V7.5Z" stroke="white" stroke-width="2" stroke-linecap="round" stroke-linejoin="round"/>
<path d="M12 22.5V7.5" stroke="white" stroke-width="2" stroke-linecap="round" stroke-linejoin="round"/>
<path d="M12 7.5H7.5C6.83696 7.5 6.20107 7.23661 5.73223 6.76777C5.26339 6.29893 5 5.66304 5 5C5 4.33696 5.26339 3.70107 5.73223 3.23223C6.20107 2.76339 6.83696 2.5 7.5 2.5C11 2.5 12 7.5 12 7.5Z" stroke="white" stroke-width="2" stroke-linecap="round" stroke-linejoin="round"/>
<path d="M12 7.5H16.5C17.163 7.5 17.7989 7.23661 18.2678 6.76777C18.7366 6.29893 19 5.66304 19 5C19 4.33696 18.7366 3.70107 18.2678 3.23223C17.7989 2.76339 17.163 2.5 16.5 2.5C13 2.5 12 7.5 12 7.5Z" stroke="white" stroke-width="2" stroke-linecap="round" stroke-linejoin="round"/>
</svg>
