<svg width="30" height="28" viewBox="0 0 30 28" fill="none" xmlns="http://www.w3.org/2000/svg">
<path d="M26.7872 4.14672C26.1061 3.46539 25.2976 2.92492 24.4076 2.55617C23.5177 2.18742 22.5638 1.99762 21.6005 1.99762C20.6372 1.99762 19.6833 2.18742 18.7933 2.55617C17.9034 2.92492 17.0948 3.46539 16.4138 4.14672L15.0005 5.56005L13.5872 4.14672C12.2116 2.77113 10.3459 1.99833 8.40048 1.99833C6.45511 1.99833 4.58941 2.77113 3.21382 4.14672C1.83823 5.52231 1.06543 7.38801 1.06543 9.33339C1.06543 11.2788 1.83823 13.1445 3.21382 14.5201L4.62715 15.9334L15.0005 26.3067L25.3738 15.9334L26.7872 14.5201C27.4685 13.839 28.009 13.0305 28.3777 12.1405C28.7465 11.2506 28.9363 10.2967 28.9363 9.33339C28.9363 8.37007 28.7465 7.41619 28.3777 6.52625C28.009 5.6363 27.4685 4.82773 26.7872 4.14672V4.14672Z" stroke="white" stroke-width="2" stroke-linecap="round" stroke-linejoin="round"/>
</svg>
