<svg width="21" height="20" viewBox="0 0 21 20" fill="none" xmlns="http://www.w3.org/2000/svg">
<path d="M19.8514 2.62488H17.7186V3.93736H19.6874V18.3746H1.31265V3.93736H3.28137V2.62488H1.14859C0.995183 2.62744 0.843787 2.6602 0.703045 2.72128C0.562303 2.78237 0.434974 2.87058 0.328329 2.98088C0.221684 3.09118 0.137813 3.22141 0.0815068 3.36413C0.0252004 3.50685 -0.00243856 3.65927 0.000168687 3.81267V18.4993C-0.00243856 18.6527 0.0252004 18.8051 0.0815068 18.9479C0.137813 19.0906 0.221684 19.2208 0.328329 19.3311C0.434974 19.4414 0.562303 19.5296 0.703045 19.5907C0.843787 19.6518 0.995183 19.6845 1.14859 19.6871H19.8514C20.0048 19.6845 20.1562 19.6518 20.297 19.5907C20.4377 19.5296 20.565 19.4414 20.6717 19.3311C20.7783 19.2208 20.8622 19.0906 20.9185 18.9479C20.9748 18.8051 21.0024 18.6527 20.9998 18.4993V3.81267C21.0024 3.65927 20.9748 3.50685 20.9185 3.36413C20.8622 3.22141 20.7783 3.09118 20.6717 2.98088C20.565 2.87058 20.4377 2.78237 20.297 2.72128C20.1562 2.6602 20.0048 2.62744 19.8514 2.62488Z" fill="url(#paint0_linear_563_2690)"/>
<path d="M3.9375 7.87476H5.24998V9.18723H3.9375V7.87476Z" fill="url(#paint1_linear_563_2690)"/>
<path d="M7.875 7.87476H9.18748V9.18723H7.875V7.87476Z" fill="url(#paint2_linear_563_2690)"/>
<path d="M11.8125 7.87476H13.125V9.18723H11.8125V7.87476Z" fill="url(#paint3_linear_563_2690)"/>
<path d="M15.75 7.87476H17.0625V9.18723H15.75V7.87476Z" fill="url(#paint4_linear_563_2690)"/>
<path d="M3.9375 11.156H5.24998V12.4685H3.9375V11.156Z" fill="url(#paint5_linear_563_2690)"/>
<path d="M7.875 11.156H9.18748V12.4685H7.875V11.156Z" fill="url(#paint6_linear_563_2690)"/>
<path d="M11.8125 11.156H13.125V12.4685H11.8125V11.156Z" fill="url(#paint7_linear_563_2690)"/>
<path d="M15.75 11.156H17.0625V12.4685H15.75V11.156Z" fill="url(#paint8_linear_563_2690)"/>
<path d="M3.9375 14.4371H5.24998V15.7496H3.9375V14.4371Z" fill="url(#paint9_linear_563_2690)"/>
<path d="M7.875 14.4371H9.18748V15.7496H7.875V14.4371Z" fill="url(#paint10_linear_563_2690)"/>
<path d="M11.8125 14.4371H13.125V15.7496H11.8125V14.4371Z" fill="url(#paint11_linear_563_2690)"/>
<path d="M15.75 14.4371H17.0625V15.7496H15.75V14.4371Z" fill="url(#paint12_linear_563_2690)"/>
<path d="M5.24999 5.24992C5.42403 5.24992 5.59095 5.18078 5.71402 5.05771C5.83709 4.93464 5.90623 4.76772 5.90623 4.59368V0.656239C5.90623 0.482194 5.83709 0.315277 5.71402 0.192208C5.59095 0.0691393 5.42403 0 5.24999 0C5.07594 0 4.90903 0.0691393 4.78596 0.192208C4.66289 0.315277 4.59375 0.482194 4.59375 0.656239V4.59368C4.59375 4.76772 4.66289 4.93464 4.78596 5.05771C4.90903 5.18078 5.07594 5.24992 5.24999 5.24992Z" fill="url(#paint13_linear_563_2690)"/>
<path d="M15.75 5.24992C15.924 5.24992 16.091 5.18078 16.214 5.05771C16.3371 4.93464 16.4062 4.76772 16.4062 4.59368V0.656239C16.4062 0.482194 16.3371 0.315277 16.214 0.192208C16.091 0.0691393 15.924 0 15.75 0C15.5759 0 15.409 0.0691393 15.286 0.192208C15.1629 0.315277 15.0938 0.482194 15.0938 0.656239V4.59368C15.0938 4.76772 15.1629 4.93464 15.286 5.05771C15.409 5.18078 15.5759 5.24992 15.75 5.24992Z" fill="url(#paint14_linear_563_2690)"/>
<path d="M7.21875 2.62488H13.7811V3.93736H7.21875V2.62488Z" fill="url(#paint15_linear_563_2690)"/>
<defs>
<linearGradient id="paint0_linear_563_2690" x1="1.56462e-07" y1="11.156" x2="21" y2="11.156" gradientUnits="userSpaceOnUse">
<stop stop-color="#FB8530"/>
<stop offset="1" stop-color="#FEB50B"/>
</linearGradient>
<linearGradient id="paint1_linear_563_2690" x1="3.9375" y1="8.531" x2="5.24998" y2="8.531" gradientUnits="userSpaceOnUse">
<stop stop-color="#FB8530"/>
<stop offset="1" stop-color="#FEB50B"/>
</linearGradient>
<linearGradient id="paint2_linear_563_2690" x1="7.875" y1="8.531" x2="9.18748" y2="8.531" gradientUnits="userSpaceOnUse">
<stop stop-color="#FB8530"/>
<stop offset="1" stop-color="#FEB50B"/>
</linearGradient>
<linearGradient id="paint3_linear_563_2690" x1="11.8125" y1="8.531" x2="13.125" y2="8.531" gradientUnits="userSpaceOnUse">
<stop stop-color="#FB8530"/>
<stop offset="1" stop-color="#FEB50B"/>
</linearGradient>
<linearGradient id="paint4_linear_563_2690" x1="15.75" y1="8.531" x2="17.0625" y2="8.531" gradientUnits="userSpaceOnUse">
<stop stop-color="#FB8530"/>
<stop offset="1" stop-color="#FEB50B"/>
</linearGradient>
<linearGradient id="paint5_linear_563_2690" x1="3.9375" y1="11.8122" x2="5.24998" y2="11.8122" gradientUnits="userSpaceOnUse">
<stop stop-color="#FB8530"/>
<stop offset="1" stop-color="#FEB50B"/>
</linearGradient>
<linearGradient id="paint6_linear_563_2690" x1="7.875" y1="11.8122" x2="9.18748" y2="11.8122" gradientUnits="userSpaceOnUse">
<stop stop-color="#FB8530"/>
<stop offset="1" stop-color="#FEB50B"/>
</linearGradient>
<linearGradient id="paint7_linear_563_2690" x1="11.8125" y1="11.8122" x2="13.125" y2="11.8122" gradientUnits="userSpaceOnUse">
<stop stop-color="#FB8530"/>
<stop offset="1" stop-color="#FEB50B"/>
</linearGradient>
<linearGradient id="paint8_linear_563_2690" x1="15.75" y1="11.8122" x2="17.0625" y2="11.8122" gradientUnits="userSpaceOnUse">
<stop stop-color="#FB8530"/>
<stop offset="1" stop-color="#FEB50B"/>
</linearGradient>
<linearGradient id="paint9_linear_563_2690" x1="3.9375" y1="15.0934" x2="5.24998" y2="15.0934" gradientUnits="userSpaceOnUse">
<stop stop-color="#FB8530"/>
<stop offset="1" stop-color="#FEB50B"/>
</linearGradient>
<linearGradient id="paint10_linear_563_2690" x1="7.875" y1="15.0934" x2="9.18748" y2="15.0934" gradientUnits="userSpaceOnUse">
<stop stop-color="#FB8530"/>
<stop offset="1" stop-color="#FEB50B"/>
</linearGradient>
<linearGradient id="paint11_linear_563_2690" x1="11.8125" y1="15.0934" x2="13.125" y2="15.0934" gradientUnits="userSpaceOnUse">
<stop stop-color="#FB8530"/>
<stop offset="1" stop-color="#FEB50B"/>
</linearGradient>
<linearGradient id="paint12_linear_563_2690" x1="15.75" y1="15.0934" x2="17.0625" y2="15.0934" gradientUnits="userSpaceOnUse">
<stop stop-color="#FB8530"/>
<stop offset="1" stop-color="#FEB50B"/>
</linearGradient>
<linearGradient id="paint13_linear_563_2690" x1="4.59375" y1="2.62496" x2="5.90623" y2="2.62496" gradientUnits="userSpaceOnUse">
<stop stop-color="#FB8530"/>
<stop offset="1" stop-color="#FEB50B"/>
</linearGradient>
<linearGradient id="paint14_linear_563_2690" x1="15.0938" y1="2.62496" x2="16.4062" y2="2.62496" gradientUnits="userSpaceOnUse">
<stop stop-color="#FB8530"/>
<stop offset="1" stop-color="#FEB50B"/>
</linearGradient>
<linearGradient id="paint15_linear_563_2690" x1="7.21875" y1="3.28112" x2="13.7811" y2="3.28112" gradientUnits="userSpaceOnUse">
<stop stop-color="#FB8530"/>
<stop offset="1" stop-color="#FEB50B"/>
</linearGradient>
</defs>
</svg>
