<svg width="19" height="19" viewBox="0 0 19 19" fill="none" xmlns="http://www.w3.org/2000/svg">
<path d="M9.5 19C7.62108 19 5.78435 18.4428 4.22209 17.399C2.65982 16.3551 1.44218 14.8714 0.723149 13.1355C0.00411619 11.3996 -0.184015 9.48946 0.182544 7.64665C0.549104 5.80383 1.45389 4.11109 2.78249 2.78249C4.11109 1.45389 5.80383 0.549104 7.64665 0.182544C9.48946 -0.184015 11.3996 0.00411619 13.1355 0.723149C14.8714 1.44218 16.3551 2.65982 17.399 4.22209C18.4428 5.78435 19 7.62108 19 9.5C19 12.0196 17.9991 14.4359 16.2175 16.2175C14.4359 17.9991 12.0196 19 9.5 19ZM9.5 1.35715C7.8895 1.35715 6.31516 1.83472 4.97607 2.72947C3.63699 3.62421 2.5933 4.89595 1.97698 6.38387C1.36067 7.87178 1.19942 9.50903 1.51361 11.0886C1.8278 12.6682 2.60334 14.1191 3.74213 15.2579C4.88093 16.3967 6.33185 17.1722 7.91141 17.4864C9.49097 17.8006 11.1282 17.6393 12.6161 17.023C14.104 16.4067 15.3758 15.363 16.2705 14.0239C17.1653 12.6848 17.6429 11.1105 17.6429 9.5C17.6429 7.34038 16.785 5.26922 15.2579 3.74213C13.7308 2.21505 11.6596 1.35715 9.5 1.35715Z" fill="url(#paint0_linear_563_2694)"/>
<path d="M12.6135 13.5715L8.82031 9.7783V3.39294H10.1775V9.21509L13.5703 12.6147L12.6135 13.5715Z" fill="url(#paint1_linear_563_2694)"/>
<defs>
<linearGradient id="paint0_linear_563_2694" x1="1.41561e-07" y1="9.5" x2="19" y2="9.5" gradientUnits="userSpaceOnUse">
<stop stop-color="#FB8530"/>
<stop offset="1" stop-color="#FEB50B"/>
</linearGradient>
<linearGradient id="paint1_linear_563_2694" x1="8.82031" y1="8.48223" x2="13.5703" y2="8.48223" gradientUnits="userSpaceOnUse">
<stop stop-color="#FB8530"/>
<stop offset="1" stop-color="#FEB50B"/>
</linearGradient>
</defs>
</svg>
