<svg width="79" height="80" viewBox="0 0 79 80" fill="none" xmlns="http://www.w3.org/2000/svg">
<rect x="1.11979" y="1.11979" width="76.0844" height="77.7604" rx="6.32391" fill="#7B09D3" fill-opacity="0.5"/>
<path d="M24.9826 39.7797C24.6152 39.7797 24.1744 39.7062 23.8805 39.4858C22.9254 38.9715 21.7498 37.649 21.7498 34.1224C21.7498 26.7751 17.7823 22.5138 17.7823 22.5138L17.1211 21.779L20.5743 17.9585L21.1621 18.8402C21.2355 18.9136 23.0723 21.5586 25.9377 20.8239L26.3051 22.7342C23.4397 23.4689 21.3825 21.926 20.3539 20.8239L19.6191 21.779C20.8682 23.3954 23.5132 27.6568 23.5132 34.1224C23.5132 36.0326 23.8805 37.3551 24.6152 37.7225C25.1296 38.0164 25.9377 37.7225 26.6725 36.9878C28.5827 35.0775 29.9787 30.3753 29.9787 30.3753L31.5951 30.9631C31.5216 31.1835 30.0522 36.253 27.7745 38.4572C26.8194 39.3389 25.8643 39.7797 24.9826 39.7797Z" fill="#F2B200"/>
<path d="M53.3425 39.7797C53.7099 39.7797 54.1507 39.7062 54.4446 39.4858C55.3997 38.9715 56.5753 37.649 56.5753 34.1224C56.5753 26.7017 60.4693 22.5138 60.5428 22.4403L61.204 21.779L57.7508 17.9585L57.163 18.8402C57.0896 18.9136 55.2528 21.5586 52.3874 20.8239L52.02 22.7342C54.8854 23.4689 56.9426 21.926 57.9712 20.8239L58.8529 21.779C57.6039 23.3954 54.9589 27.6568 54.9589 34.1224C54.9589 36.0326 54.5915 37.3551 53.8568 37.7225C53.3425 38.0164 52.5343 37.7225 51.7996 36.9878C49.8893 35.0775 48.4933 30.3753 48.4933 30.3753L46.877 30.9631C46.9504 31.1835 48.4199 36.253 50.6975 38.4572C51.5057 39.3389 52.4608 39.7797 53.3425 39.7797Z" fill="#F2B200"/>
<path d="M36.959 34.7837H41.4408V52.7844H36.959V34.7837Z" fill="#F2B200"/>
<path d="M37.8379 34.7837H40.4829V52.7844H37.8379V34.7837Z" fill="#FFCE31"/>
<path d="M24.3203 17.9585C25.5693 29.2732 31.741 38.3103 39.1617 38.3103C46.5824 38.3103 52.754 29.2732 54.003 17.9585H24.3203Z" fill="#F2B200"/>
<path d="M27.1855 17.9585C28.2142 29.4201 33.2103 38.5307 39.1615 38.5307C45.1127 38.5307 50.1088 29.4201 51.1374 17.9585H27.1855Z" fill="#FFCE31"/>
<path d="M50.6225 56.164H27.6992C27.6992 56.164 32.8423 49.5515 39.1609 49.5515C45.4795 49.5515 50.6225 56.164 50.6225 56.164Z" fill="#F2B200"/>
<path d="M47.9024 56.1642H30.416C30.416 56.1642 34.31 49.4048 39.1592 49.4048C44.0084 49.4048 47.9024 56.1642 47.9024 56.1642Z" fill="#FFCE31"/>
<path d="M24.3203 57.6333H54.003V62.0416H24.3203V57.6333Z" fill="#BC845E"/>
<path d="M27.6992 56.1643H50.696V57.6337H27.6992V56.1643Z" fill="#916140"/>
<path d="M31.8145 58.7356H46.5089V60.9398H31.8145V58.7356Z" fill="#F2B200"/>
<path d="M24.3203 57.6333H25.7898V62.0416H24.3203V57.6333Z" fill="#CE9C7A"/>
<path d="M52.5312 57.6333H54.0007V62.0416H52.5312V57.6333Z" fill="#916140"/>
<path d="M32.5488 58.7356H45.7738V60.9398H32.5488V58.7356Z" fill="#FFCE31"/>
<rect x="1.11979" y="1.11979" width="76.0844" height="77.7604" rx="6.32391" stroke="white" stroke-width="2.23958"/>
</svg>
