<svg width="33" height="31" viewBox="0 0 33 31" fill="none" xmlns="http://www.w3.org/2000/svg">
<g clip-path="url(#clip0)">
<path d="M9.50002 23.25C9.24402 23.25 8.98802 23.1557 8.79336 22.9658C8.40269 22.5874 8.40269 21.9738 8.79336 21.5954L12.4187 18.0833L8.79202 14.57C8.40136 14.1915 8.40136 13.578 8.79202 13.1995C9.18269 12.8211 9.81602 12.8211 10.2067 13.1995L14.54 17.3975C14.9307 17.7759 14.9307 18.3895 14.54 18.7679L10.2067 22.9658C10.012 23.1557 9.75602 23.25 9.50002 23.25Z" fill="url(#paint0_linear)"/>
<path d="M23.5 23.25H17.5C16.948 23.25 16.5 22.816 16.5 22.2812C16.5 21.7465 16.948 21.3125 17.5 21.3125H23.5C24.052 21.3125 24.5 21.7465 24.5 22.2812C24.5 22.816 24.052 23.25 23.5 23.25Z" fill="url(#paint1_linear)"/>
<path d="M28.8333 29.7083H4.16667C2.144 29.7083 0.5 28.1157 0.5 26.1562V4.84375C0.5 2.88429 2.144 1.29166 4.16667 1.29166H28.8333C30.856 1.29166 32.5 2.88429 32.5 4.84375V26.1562C32.5 28.1157 30.856 29.7083 28.8333 29.7083ZM4.16667 3.22916C3.248 3.22916 2.5 3.95379 2.5 4.84375V26.1562C2.5 27.0462 3.248 27.7708 4.16667 27.7708H28.8333C29.752 27.7708 30.5 27.0462 30.5 26.1562V4.84375C30.5 3.95379 29.752 3.22916 28.8333 3.22916H4.16667Z" fill="white"/>
<path d="M31.5 7.75H1.5C0.948 7.75 0.5 7.316 0.5 6.78125C0.5 6.2465 0.948 5.8125 1.5 5.8125H31.5C32.052 5.8125 32.5 6.2465 32.5 6.78125C32.5 7.316 32.052 7.75 31.5 7.75Z" fill="white"/>
</g>
<defs>
<linearGradient id="paint0_linear" x1="8.49902" y1="23.25" x2="14.833" y2="23.25" gradientUnits="userSpaceOnUse">
<stop stop-color="#FB8133"/>
<stop offset="1" stop-color="#FFBA08"/>
</linearGradient>
<linearGradient id="paint1_linear" x1="16.5" y1="23.25" x2="24.5" y2="23.25" gradientUnits="userSpaceOnUse">
<stop stop-color="#FB8133"/>
<stop offset="1" stop-color="#FFBA08"/>
</linearGradient>
<clipPath id="clip0">
<rect width="32" height="31" fill="white" transform="translate(0.5)"/>
</clipPath>
</defs>
</svg>
