<svg width="41" height="55" viewBox="0 0 41 55" fill="none" xmlns="http://www.w3.org/2000/svg">
<path d="M13.0073 42.3479C13.0073 42.3479 10.9147 43.5648 14.4965 43.9766C18.8357 44.4716 21.0534 44.4006 25.8353 43.4956C25.8353 43.4956 27.0924 44.2839 28.8482 44.9666C18.1286 49.5609 4.58758 44.7005 13.0073 42.3479Z" fill="white"/>
<path d="M11.6972 36.3527C11.6972 36.3527 9.35016 38.09 12.9346 38.4607C17.5699 38.9389 21.2304 38.978 27.5647 37.7583C27.5647 37.7583 28.4408 38.6465 29.8184 39.1323C16.8577 42.9221 2.42189 39.4311 11.6972 36.3527Z" fill="white"/>
<path d="M22.74 26.1828C25.3813 29.2238 22.046 31.9603 22.046 31.9603C22.046 31.9603 28.7528 28.4981 25.6727 24.1626C22.796 20.1194 20.5899 18.1106 32.5326 11.1842C32.5326 11.1842 13.7865 15.8661 22.74 26.1828Z" fill="white"/>
<path d="M36.9171 46.7823C36.9171 46.7823 38.4656 48.0582 35.2116 49.0453C29.0241 50.9197 9.45856 51.4858 4.02333 49.12C2.0695 48.27 5.73348 47.0905 6.88603 46.843C8.08802 46.5823 8.77491 46.6309 8.77491 46.6309C6.60206 45.1002 -5.26952 49.6364 2.74474 50.9355C24.6008 54.48 42.5862 49.3395 36.9171 46.7823Z" fill="white"/>
<path d="M14.0138 30.141C14.0138 30.141 4.06151 32.5048 10.4894 33.3632C13.2035 33.7266 18.614 33.6444 23.6536 33.2221C27.7724 32.8747 31.908 32.136 31.908 32.136C31.908 32.136 30.4557 32.758 29.405 33.4754C19.2986 36.1334 -0.22501 34.8969 5.3956 32.1781C10.149 29.8803 14.0138 30.141 14.0138 30.141Z" fill="white"/>
<path d="M31.8666 40.1203C42.1402 34.7817 37.3901 29.6514 34.0746 30.3426C33.262 30.5117 32.8996 30.6583 32.8996 30.6583C32.8996 30.6583 33.2013 30.1857 33.7775 29.9811C40.3367 27.6751 45.3811 36.7823 31.6602 40.3893C31.6602 40.3895 31.8191 40.2473 31.8666 40.1203Z" fill="white"/>
<path d="M25.6716 0C25.6716 0 31.3613 5.6916 20.2752 14.4437C11.3853 21.4643 18.2481 25.4673 20.2715 30.0409C15.0824 25.359 11.2742 21.2375 13.829 17.4016C17.5789 11.7708 27.9673 9.04076 25.6716 0Z" fill="white"/>
<path d="M15.0229 54.5866C24.8843 55.2178 40.0275 54.2363 40.3862 49.5702C40.3862 49.5702 39.6968 51.3391 32.2363 52.7439C23.8194 54.3278 13.4384 54.1429 7.28125 53.1278C7.2814 53.1276 8.54169 54.1709 15.0229 54.5866Z" fill="white"/>
</svg>
