<svg width="41" height="46" viewBox="0 0 41 46" fill="none" xmlns="http://www.w3.org/2000/svg">
<path d="M20.5035 0C9.33316 0 0.285156 8.86426 0.285156 20.0647C0.285156 27.99 4.82033 34.8534 11.422 38.1957V41.8062C11.422 43.5947 12.8742 45.0479 14.6614 45.0479C19.2265 45.0479 23.2323 45.0479 26.3568 45.0479C28.1441 45.0479 29.5962 43.5947 29.5962 41.8062V38.1957C36.1979 34.8534 40.7331 27.99 40.7331 20.0647C40.7219 8.86426 31.6739 0 20.5035 0ZM27.8425 37.0779V41.6385C27.8425 42.7116 26.96 43.5947 25.8877 43.5947H14.9742C13.9018 43.5947 13.0194 42.7116 13.0194 41.6385V37.0667C6.38418 34.2498 1.73731 27.7776 1.73731 20.2324C1.73731 10.105 10.1151 1.90028 20.4477 1.90028C30.7803 1.90028 39.1581 10.105 39.1581 20.2324C39.1581 27.7888 34.5 34.2721 27.8425 37.0779Z" fill="white"/>
<path d="M31.6274 17.3341C31.6274 17.3341 35.5259 16.8869 36.7099 20.0951C37.894 23.3032 35.6152 25.1365 35.6152 25.1365C35.6152 25.1365 35.7046 23.4374 33.6828 22.1072L34.5205 20.8105C34.5205 20.8105 34.7439 19.7821 34.0402 20.4081L33.1577 21.4253C33.1577 21.4253 33.4705 19.2455 31.6274 17.3341ZM34.7439 16.9316C34.7439 16.9316 32.8561 16.2162 30.8902 16.7528C30.8902 16.7528 29.7061 15.9927 28.522 16.0821C28.522 16.0821 28.1311 13.6788 26.2433 13.1422C26.2433 13.1422 26.422 11.3984 25.8523 11.5773C25.8523 11.5773 26.2768 11.0519 26.9358 10.8618C27.6061 10.6718 28.4997 10.8283 29.4045 11.4208C31.2029 12.6056 30.1082 14.7854 30.1082 14.7854L30.3093 15.0984C30.3093 15.0984 31.2476 15.3667 31.2476 12.4715C31.2364 12.4715 35.0009 12.1585 34.7439 16.9316ZM25.4502 12.7621C25.4502 12.7621 24.4002 12.2256 22.881 12.9857C22.881 12.9857 22.5124 12.9857 22.1326 12.7845C22.1326 12.7845 19.8538 9.64341 20.9262 12.3597C20.9262 12.3597 18.8261 12.2703 18.1224 13.1869L17.307 12.2256C17.307 12.2256 16.8043 11.6555 17.5527 10.6942C17.5527 10.6942 18.6921 9.26335 20.1219 9.03979C21.5517 8.81622 22.7693 9.21864 22.7693 9.21864C22.7693 9.21864 24.9475 9.88933 25.4502 12.7621ZM16.4022 15.4114L17.1506 14.1371C17.1506 14.1371 17.2399 13.3099 16.7708 12.818C16.3016 12.3262 15.8213 11.9014 15.8213 11.9014C15.8213 11.9014 14.5926 10.873 12.7271 11.9014C12.7271 11.9014 11.9787 12.4827 11.5877 13.1757C11.5877 13.1757 11.5654 13.6676 11.9563 13.8464C11.9563 13.8464 12.7048 15.0202 11.342 14.383C9.97919 13.7347 9.74461 13.8464 9.74461 13.8464C9.74461 13.8464 7.5999 13.5558 6.9185 16.138C6.23711 18.7202 9.44301 19.8156 10.3143 19.7038C10.3255 19.715 10.1579 13.7347 16.4022 15.4114Z" fill="white"/>
<path d="M27.1147 24.9799C27.1147 24.9799 31.0801 26.0083 32.2865 21.5929C32.2865 21.5929 33.0573 17.1105 27.9524 16.9316C27.9524 16.9316 27.0141 11.9574 22.6688 13.9918C22.6688 13.9918 20.714 11.9685 18.1113 14.1483C18.1113 14.1483 22.8476 13.0975 22.9704 18.586L23.6295 19.089C23.6295 19.089 25.562 15.5791 27.6397 19.5026C27.6397 19.5026 29.1923 19.3461 29.8514 20.0168C30.5104 20.6875 29.3264 20.8663 29.2817 20.5981C29.237 20.3298 28.3657 19.9944 27.9636 20.218C27.9636 20.218 27.9859 23.0908 27.2375 24.0074C26.5003 24.9128 27.1147 24.9799 27.1147 24.9799Z" fill="white"/>
<path d="M32.7222 22.8784C32.7222 22.8784 31.8844 25.55 28.712 25.8183C28.712 25.8183 27.7961 27.0925 25.8412 27.8638C25.8412 27.8638 25.3386 30.8707 28.5333 30.6024C28.5333 30.6024 31.2254 29.9988 29.9631 27.3496L30.4434 26.8578C30.4434 26.8578 31.1248 27.372 31.0355 28.4227C31.0355 28.4227 31.0355 28.9146 31.9738 28.5792C32.9121 28.2439 33.7834 27.7744 34.3307 26.9249C34.8781 26.0753 35.1462 24.1192 33.5041 22.8673C33.5153 22.8784 32.8562 22.1854 32.7222 22.8784ZM24.5231 20.9223V22.3642C24.5231 22.3642 24.0316 23.605 23.8306 22.3642C23.6295 21.1235 23.2385 20.2292 23.2385 20.2292C23.2385 20.2292 21.8534 17.3677 19.1614 19.1114C16.4693 20.8552 17.3518 24.3316 17.3518 24.3316C17.3518 24.3316 18.3012 26.0977 20.0773 25.0805C20.0773 25.0805 20.4348 24.9352 20.0438 24.1974C19.6529 23.4597 19.7534 23.0908 19.7534 23.0908C19.7534 23.0908 19.6193 21.8165 20.58 22.9231C20.58 22.9231 20.9374 25.1923 23.3056 25.6618C25.6737 26.1312 27.0141 22.3195 27.0476 21.6489C27.0812 20.9782 27.07 19.4915 25.8412 18.5302C25.8412 18.5302 24.4785 18.2396 24.3221 19.4691C24.1545 20.7211 24.5231 20.9223 24.5231 20.9223Z" fill="white"/>
<path d="M27.6061 25.863C27.6061 25.863 26.7684 25.863 25.9976 25.4606C25.9976 25.4606 23.071 27.7297 21.1608 25.4606C21.1608 25.4606 19.4183 26.802 18.4353 26.4331C18.4353 26.4331 19.4406 33.3187 25.2157 29.6076L25.0034 28.0763C25.0034 28.0763 24.3109 28.9034 21.9428 28.3669C21.9428 28.3669 20.6582 27.998 22.1215 27.7968C22.1327 27.808 24.8471 28.2439 27.6061 25.863ZM17.7427 28.0874C17.7427 28.0874 16.2012 28.2104 15.7432 27.9086C15.2852 27.6068 14.8608 28.0874 14.8608 28.0874C14.8608 28.0874 13.7102 28.6799 13.0847 28.9146C12.4591 29.1493 13.9113 30.1889 13.9113 30.1889C13.9113 30.1889 16.0448 31.6979 18.1225 29.9877C18.1225 29.9877 18.9826 29.6188 18.4464 29.0823C17.9103 28.5457 17.7427 28.0874 17.7427 28.0874ZM17.6533 25.863V27.0367C17.6533 27.0367 17.4188 27.4726 16.9608 27.2714C16.5028 27.0702 16.7932 27.3609 15.0507 26.6008C15.0507 26.6008 12.7496 29.1493 10.7166 27.3273C8.68355 25.5053 9.85644 23.8621 9.83409 23.9963C9.80058 24.1304 10.3591 22.6549 11.2527 22.3196C11.2527 22.3196 13.107 24.3875 15.7767 23.6274C15.7767 23.6274 16.4469 23.4262 16.4469 24.1975C16.4358 24.9688 17.3182 25.7959 17.6533 25.863Z" fill="white"/>
<path d="M22.1326 17.7029C22.1326 17.7029 20.9373 12.5498 16.9607 16.3616C16.9607 16.3616 16.7149 16.7304 15.7655 16.1268C14.816 15.5232 12.6824 16.328 12.6824 16.328C12.6824 16.328 10.2808 17.6694 11.3308 20.8105C11.3308 20.8105 12.392 23.415 15.7543 22.9119C15.7543 22.9119 15.7766 22.8225 16.391 22.9119C16.391 22.9119 16.2681 22.3419 16.5921 21.347C16.5921 21.347 17.1282 20.6763 16.5921 20.408C16.5921 20.408 16.0894 18.9661 14.3133 19.3014C14.3133 19.3014 13.0957 19.0555 14.3468 18.4966C15.5979 17.9265 17.3405 19.715 17.3405 19.715C17.3405 19.715 19.541 16.9317 21.5517 17.8371C21.5629 17.8371 21.9538 18.3066 22.1326 17.7029ZM10.292 20.6204C10.292 20.6204 10.884 21.3582 10.6159 21.8277C10.6159 21.8277 9.36482 22.5319 8.97386 23.8621C8.97386 23.8621 8.0914 24.4322 7.75629 24.9017C7.43234 25.3711 6.67276 24.1974 6.67276 24.1974C6.67276 24.1974 4.79613 21.3694 7.13074 19.1114L10.292 20.6204ZM8.60523 25.1476C8.60523 25.1476 8.53821 27.4726 11.7888 29.0711C11.7888 29.0711 9.75578 30.0436 8.60523 28.7357C7.45468 27.4391 8.04671 25.3376 8.60523 25.1476ZM19.9767 31.0384C19.9767 31.0384 20.2783 31.5973 21.1496 31.4073V43.7815H19.9767V31.0384Z" fill="white"/>
</svg>
