<svg width="48" height="54" viewBox="0 0 48 54" fill="none" xmlns="http://www.w3.org/2000/svg">
<path d="M0.367676 38.9753V15.1412C0.367676 15.1412 0.367676 13.4459 2.01831 12.5484C3.66895 11.6509 21.826 0.830788 21.826 0.830788C21.826 0.830788 24.1269 -0.714938 26.5278 0.830788C26.5278 0.830788 48.0861 12.7478 47.736 13.4459L38.1823 19.0305C38.1823 19.0305 36.3816 14.8421 31.6297 12.5484C25.9776 9.80598 16.774 9.45694 10.1715 19.1801C10.1715 19.1801 5.8698 25.9114 10.3215 34.9365L0.81785 40.2718C0.81785 40.2718 0.367676 39.9726 0.367676 38.9753Z" fill="white"/>
<path d="M31.0293 23.0194C29.6288 20.6759 27.0778 19.0803 24.1266 19.0803C19.7249 19.0803 16.1235 22.6704 16.1235 27.0583C16.1235 28.4544 16.4737 29.7508 17.1239 30.8977L31.0293 23.0194Z" fill="white"/>
<path d="M17.0742 30.848C18.4748 33.1915 21.0257 34.7871 23.9769 34.7871C28.3786 34.7871 31.98 31.197 31.98 26.8091C31.98 25.413 31.6298 24.1166 30.9796 22.9697L17.0742 30.848Z" fill="white"/>
<path d="M47.7363 13.4456L24.5273 26.659L47.5863 40.1717C48.3866 39.6731 47.7363 13.4456 47.7363 13.4456ZM40.5335 27.9056H38.5828V29.8502H36.482V27.9056H34.4812V25.8612H36.482V23.8169H38.5828V25.8612H40.5335V27.9056ZM47.3362 27.9056H45.3854V29.8502H43.2846V27.9056H41.2838V25.8612H43.2846V23.8169H45.3854V25.8612H47.3362V27.9056Z" fill="white"/>
<path d="M10.2715 34.8865C10.2715 34.8865 14.8733 43.3631 24.527 42.9143C34.1808 42.4656 38.1823 34.6372 38.1823 34.6372L47.5359 40.0223C47.5359 40.0223 49.5867 40.4212 26.7279 52.8369C26.7279 52.8369 24.2769 54.4823 21.6259 52.8369C21.6259 52.8369 0.967929 41.3187 0.817871 40.2218C0.817871 40.2218 10.2715 34.8865 10.2715 34.8865Z" fill="white"/>
</svg>
