<svg width="51" height="50" viewBox="0 0 51 50" fill="none" xmlns="http://www.w3.org/2000/svg">
<rect x="5.83154" y="5.08057" width="39.7515" height="39.7514" rx="8.26087" fill="white"/>
<path d="M41.199 13.2649C41.199 11.1663 39.4978 9.46509 37.3992 9.46509H14.0161C11.9175 9.46509 10.2163 11.1663 10.2163 13.2649V36.648C10.2163 38.7466 11.9175 40.4478 14.0161 40.4478H37.3992C39.4978 40.4478 41.199 38.7466 41.199 36.648V13.2649ZM39.4453 36.648C39.4453 37.7778 38.529 38.694 37.3992 38.694H14.0161C12.8857 38.694 11.97 37.7778 11.97 36.648V13.2649C11.97 12.1345 12.8857 11.2188 14.0161 11.2188H37.3992C38.529 11.2188 39.4453 12.1345 39.4453 13.2649V36.648Z" fill="#15171E"/>
<path d="M43.523 11.3616C43.523 8.65861 41.4117 6.46753 38.8072 6.46753H12.608C10.0034 6.46753 7.89209 8.65861 7.89209 11.3616V38.551C7.89209 41.254 10.0034 43.4451 12.608 43.4451H38.8072C41.4117 43.4451 43.523 41.254 43.523 38.551V11.3616ZM41.9511 38.551C41.9511 40.3529 40.5434 41.8138 38.8072 41.8138H12.608C10.8712 41.8138 9.46404 40.3529 9.46404 38.551V11.3616C9.46404 9.55926 10.8712 8.09889 12.608 8.09889H38.8072C40.5434 8.09889 41.9511 9.55926 41.9511 11.3616V38.551Z" fill="white"/>
<path d="M28.9228 40.6772C28.4381 40.6772 28.0459 41.07 28.0459 41.5541V48.8614C28.0459 49.346 28.4381 49.7382 28.9228 49.7382C29.4069 49.7382 29.7996 49.346 29.7996 48.8614V41.5541C29.7996 41.07 29.4069 40.6772 28.9228 40.6772Z" fill="white"/>
<path d="M22.4921 40.6772C22.0074 40.6772 21.6152 41.07 21.6152 41.5541V48.8614C21.6152 49.346 22.0074 49.7382 22.4921 49.7382C22.9762 49.7382 23.369 49.346 23.369 48.8614V41.5541C23.369 41.07 22.9762 40.6772 22.4921 40.6772Z" fill="white"/>
<path d="M22.4921 9.23481C22.9762 9.23481 23.369 8.84204 23.369 8.35794V1.0507C23.369 0.566592 22.9762 0.173828 22.4921 0.173828C22.0074 0.173828 21.6152 0.566592 21.6152 1.0507V8.35794C21.6152 8.84204 22.0074 9.23481 22.4921 9.23481Z" fill="white"/>
<path d="M28.9228 9.23481C29.4069 9.23481 29.7996 8.84204 29.7996 8.35794V1.0507C29.7996 0.566592 29.4069 0.173828 28.9228 0.173828C28.4381 0.173828 28.0459 0.566592 28.0459 1.0507V8.35794C28.0459 8.84204 28.4381 9.23481 28.9228 9.23481Z" fill="white"/>
<path d="M49.6133 20.8645H42.3061C41.822 20.8645 41.4292 21.2567 41.4292 21.7414C41.4292 22.2255 41.822 22.6182 42.3061 22.6182H49.6133C50.098 22.6182 50.4902 22.2255 50.4902 21.7414C50.4902 21.2567 50.098 20.8645 49.6133 20.8645Z" fill="white"/>
<path d="M49.6128 27.2952H42.3056C41.8215 27.2952 41.4287 27.6874 41.4287 28.172C41.4287 28.6561 41.8215 29.0489 42.3056 29.0489H49.6128C50.0975 29.0489 50.4897 28.6561 50.4897 28.172C50.4897 27.6874 50.0975 27.2952 49.6128 27.2952Z" fill="white"/>
<path d="M9.10891 27.2947H1.80167C1.31757 27.2947 0.924805 27.6869 0.924805 28.1715C0.924805 28.6557 1.31757 29.0484 1.80167 29.0484H9.10891C9.59302 29.0484 9.98578 28.6557 9.98578 28.1715C9.98578 27.6869 9.59302 27.2947 9.10891 27.2947Z" fill="white"/>
<path d="M9.10891 20.8645H1.80167C1.31757 20.8645 0.924805 21.2567 0.924805 21.7414C0.924805 22.2255 1.31757 22.6182 1.80167 22.6182H9.10891C9.59302 22.6182 9.98578 22.2255 9.98578 21.7414C9.98578 21.2567 9.59302 20.8645 9.10891 20.8645Z" fill="white"/>
</svg>
