<svg width="33" height="34" viewBox="0 0 33 34" fill="none" xmlns="http://www.w3.org/2000/svg">
<path d="M31.5362 8.70531H25.4754C26.0338 7.82657 26.3623 6.78358 26.3623 5.66667C26.3623 2.54179 23.8205 0 20.6957 0C18.9957 0 17.464 0.755555 16.4251 1.94638C15.3862 0.755555 13.8546 0 12.1546 0C9.02971 0 6.48792 2.54179 6.48792 5.66667C6.48792 6.78358 6.81232 7.82657 7.37488 8.70531H1.31401C0.587198 8.70531 0 9.29251 0 10.0193V18.2319C0 18.4126 0.147826 18.5604 0.328502 18.5604H1.97101V32.686C1.97101 33.4128 2.55821 34 3.28502 34H29.5652C30.292 34 30.8792 33.4128 30.8792 32.686V18.5604H32.5217C32.7024 18.5604 32.8502 18.4126 32.8502 18.2319V10.0193C32.8502 9.29251 32.263 8.70531 31.5362 8.70531ZM17.8213 5.66667C17.8213 4.08164 19.1106 2.79227 20.6957 2.79227C22.2807 2.79227 23.57 4.08164 23.57 5.66667C23.57 7.25169 22.2807 8.54106 20.6957 8.54106H17.8213V5.66667ZM12.1546 2.79227C13.7396 2.79227 15.029 4.08164 15.029 5.66667V8.54106H12.1546C10.5696 8.54106 9.28019 7.25169 9.28019 5.66667C9.28019 4.08164 10.5696 2.79227 12.1546 2.79227ZM2.79227 15.7681V11.4976H15.029V15.7681H2.79227ZM4.76329 18.5604H15.029V31.2077H4.76329V18.5604ZM28.087 31.2077H17.8213V18.5604H28.087V31.2077ZM30.058 15.7681H17.8213V11.4976H30.058V15.7681Z" fill="url(#paint0_linear_563_2759)"/>
<defs>
<linearGradient id="paint0_linear_563_2759" x1="16.4251" y1="0" x2="16.4251" y2="34" gradientUnits="userSpaceOnUse">
<stop stop-color="#219653"/>
<stop offset="1" stop-color="#55C294"/>
</linearGradient>
</defs>
</svg>
