<svg width="54" height="57" viewBox="0 0 54 57" fill="none" xmlns="http://www.w3.org/2000/svg">
<path d="M24.7221 0.60516C26.1495 -0.20172 28.0051 -0.20172 29.4325 0.60516C36.5872 4.58694 43.7598 8.55118 50.9145 12.533C52.2527 13.2872 53.1627 14.7607 53.1448 16.2867V40.23C53.1627 41.8262 52.1635 43.3348 50.7361 44.0539C43.5992 48.0182 36.4623 51.9649 29.3254 55.9291C27.8624 56.7535 25.9711 56.6834 24.5616 55.8063C22.4205 54.5785 20.2794 53.3681 18.1383 52.1578C17.6923 51.8947 17.2105 51.7018 16.9072 51.2808C17.1749 50.9124 17.6744 50.8773 18.067 50.7195C18.9591 50.4388 19.7798 50.0003 20.6006 49.5618C20.8147 49.4214 21.0645 49.4741 21.2607 49.5968C23.0985 50.6318 24.9006 51.6842 26.7383 52.7191C27.1308 52.9472 27.5234 52.649 27.8624 52.456C34.8744 48.5619 41.8864 44.6854 48.8805 40.7913C49.1482 40.6685 49.2909 40.4054 49.2552 40.1248V16.427C49.2909 16.1113 49.0946 15.8131 48.8092 15.6903C41.7079 11.7261 34.6067 7.79692 27.4877 3.85022C27.2379 3.67482 26.8989 3.67482 26.6491 3.85022C19.53 7.79692 12.4288 11.7436 5.30977 15.6728C5.02429 15.7956 4.82803 16.0938 4.86371 16.4095V40.1072C4.84587 40.3879 4.98861 40.651 5.25624 40.7738C7.14752 41.8262 9.05664 42.8787 10.9479 43.9311C12.0185 44.4924 13.3388 44.8257 14.5164 44.4047C15.5512 44.0364 16.2827 43.0015 16.2649 41.9139C16.2827 34.0556 16.2649 26.2148 16.2649 18.3565C16.2471 18.0057 16.5682 17.7251 16.9251 17.7601C17.835 17.7601 18.745 17.7426 19.6549 17.7601C20.0296 17.7601 20.2973 18.1285 20.2437 18.4793C20.2437 26.3727 20.2616 34.2837 20.2437 42.177C20.2437 44.282 19.3695 46.5798 17.389 47.5972C14.9446 48.8426 11.9292 48.5795 9.52054 47.3867C7.433 46.3693 5.43466 45.159 3.38281 44.0539C1.95543 43.3348 0.974105 41.8087 0.991947 40.23V16.2867C0.974105 14.7256 1.91974 13.2346 3.31144 12.4979L24.7221 0.60516Z" fill="white"/>
<path d="M30.9492 17.42C34.0538 17.227 37.3903 17.2972 40.1915 18.8057C42.3682 19.9634 43.5636 22.384 43.5993 24.7521C43.5458 25.0678 43.2068 25.2432 42.8856 25.2257C41.9757 25.2257 41.0836 25.2432 40.1736 25.2257C39.799 25.2432 39.567 24.8924 39.5135 24.5591C39.2458 23.419 38.6214 22.2963 37.533 21.7526C35.8737 20.9282 33.9289 20.9808 32.1268 20.9983C30.8065 21.0685 29.3791 21.1737 28.2551 21.9455C27.3986 22.5244 27.131 23.6996 27.4343 24.6468C27.7198 25.3309 28.5227 25.5414 29.165 25.7519C32.9119 26.7166 36.8907 26.6289 40.5662 27.8919C42.0827 28.4181 43.5815 29.4179 44.0989 30.9791C44.7769 33.084 44.4736 35.5923 42.957 37.2762C41.7259 38.6619 39.9238 39.4162 38.1396 39.8372C35.7488 40.3634 33.2866 40.3809 30.86 40.1354C28.5762 39.8723 26.2211 39.2934 24.4547 37.7674C22.9559 36.4869 22.2244 34.4872 22.2958 32.5577C22.3136 32.2245 22.6348 31.9964 22.9559 32.0315C23.8659 32.0315 24.7758 32.014 25.6858 32.0315C26.0426 32.014 26.3103 32.3122 26.3281 32.6454C26.4887 33.733 26.9169 34.8556 27.8625 35.5046C29.7181 36.6798 32.0376 36.5921 34.143 36.6272C35.8915 36.557 37.872 36.522 39.2994 35.3818C40.0487 34.7328 40.2807 33.6453 40.0666 32.7156C39.8525 31.9263 39.0139 31.5579 38.2824 31.3123C34.5712 30.1546 30.5567 30.5756 26.8991 29.2776C25.4182 28.7689 23.9729 27.7866 23.402 26.2781C22.5991 24.1557 22.9738 21.5245 24.6509 19.8932C26.3281 18.2619 28.7011 17.6305 30.9492 17.42Z" fill="white"/>
</svg>
