<svg width="31" height="29" viewBox="0 0 31 29" fill="none" xmlns="http://www.w3.org/2000/svg">
<path d="M30.9992 23.25L29.4337 21.6845L26.5706 24.5476V15.5H24.3563V24.5476L21.4932 21.6845L19.9277 23.25L25.4634 28.7857L30.9992 23.25Z" fill="url(#paint0_linear_563_2760)"/>
<path d="M18.8223 11.0714H23.2508V13.2857H18.8223V11.0714Z" fill="url(#paint1_linear_563_2760)"/>
<path d="M18.8223 6.64282H26.5723V8.85711H18.8223V6.64282Z" fill="url(#paint2_linear_563_2760)"/>
<path d="M7.74916 15.5H14.392C15.2729 15.5 16.1177 15.8499 16.7406 16.4728C17.3635 17.0957 17.7134 17.9405 17.7134 18.8214V21.0357H15.4992V18.8214C15.4992 18.5278 15.3825 18.2462 15.1749 18.0386C14.9673 17.8309 14.6857 17.7143 14.392 17.7143H7.74916C7.45553 17.7143 7.17392 17.8309 6.9663 18.0386C6.75867 18.2462 6.64202 18.5278 6.64202 18.8214V21.0357H4.42773V18.8214C4.42773 17.9405 4.77767 17.0957 5.40056 16.4728C6.02345 15.8499 6.86827 15.5 7.74916 15.5V15.5Z" fill="url(#paint3_linear_563_2760)"/>
<path d="M15.4997 9.96422C15.4997 9.08833 15.24 8.23211 14.7534 7.50384C14.2668 6.77556 13.5751 6.20794 12.7659 5.87275C11.9567 5.53756 11.0662 5.44986 10.2072 5.62074C9.34812 5.79162 8.55903 6.2134 7.93968 6.83275C7.32033 7.45209 6.89855 8.24119 6.72767 9.10025C6.5568 9.95931 6.6445 10.8497 6.97969 11.659C7.31487 12.4682 7.8825 13.1598 8.61077 13.6464C9.33904 14.1331 10.1953 14.3928 11.0712 14.3928C12.2457 14.3928 13.3721 13.9262 14.2026 13.0957C15.0331 12.2652 15.4997 11.1387 15.4997 9.96422ZM13.2854 9.96422C13.2854 10.4022 13.1556 10.8303 12.9123 11.1944C12.669 11.5585 12.3231 11.8424 11.9185 12.01C11.5139 12.1775 11.0687 12.2214 10.6392 12.136C10.2096 12.0505 9.81509 11.8396 9.50542 11.53C9.19574 11.2203 8.98485 10.8257 8.89941 10.3962C8.81397 9.96668 8.85782 9.52146 9.02542 9.11685C9.19301 8.71224 9.47682 8.36642 9.84096 8.12311C10.2051 7.8798 10.6332 7.74993 11.0712 7.74993C11.6584 7.74993 12.2216 7.98322 12.6369 8.39848C13.0521 8.81374 13.2854 9.37695 13.2854 9.96422Z" fill="url(#paint4_linear_563_2760)"/>
<path d="M17.7143 24.3571H2.21429V2.21429H28.7857V13.2857H31V2.21429C31 1.62702 30.7667 1.06381 30.3514 0.648549C29.9362 0.23329 29.373 0 28.7857 0H2.21429C1.62702 0 1.06381 0.23329 0.648549 0.648549C0.23329 1.06381 0 1.62702 0 2.21429V24.3571C0 24.9444 0.23329 25.5076 0.648549 25.9229C1.06381 26.3381 1.62702 26.5714 2.21429 26.5714H17.7143V24.3571Z" fill="url(#paint5_linear_563_2760)"/>
<defs>
<linearGradient id="paint0_linear_563_2760" x1="19.9277" y1="22.1429" x2="30.9992" y2="22.1429" gradientUnits="userSpaceOnUse">
<stop stop-color="#FB8530"/>
<stop offset="1" stop-color="#FEB50B"/>
</linearGradient>
<linearGradient id="paint1_linear_563_2760" x1="18.8223" y1="12.1786" x2="23.2508" y2="12.1786" gradientUnits="userSpaceOnUse">
<stop stop-color="#FB8530"/>
<stop offset="1" stop-color="#FEB50B"/>
</linearGradient>
<linearGradient id="paint2_linear_563_2760" x1="18.8223" y1="7.74997" x2="26.5723" y2="7.74997" gradientUnits="userSpaceOnUse">
<stop stop-color="#FB8530"/>
<stop offset="1" stop-color="#FEB50B"/>
</linearGradient>
<linearGradient id="paint3_linear_563_2760" x1="4.42773" y1="18.2679" x2="17.7134" y2="18.2679" gradientUnits="userSpaceOnUse">
<stop stop-color="#FB8530"/>
<stop offset="1" stop-color="#FEB50B"/>
</linearGradient>
<linearGradient id="paint4_linear_563_2760" x1="6.64258" y1="9.96422" x2="15.4997" y2="9.96422" gradientUnits="userSpaceOnUse">
<stop stop-color="#FB8530"/>
<stop offset="1" stop-color="#FEB50B"/>
</linearGradient>
<linearGradient id="paint5_linear_563_2760" x1="2.30968e-07" y1="13.2857" x2="31" y2="13.2857" gradientUnits="userSpaceOnUse">
<stop stop-color="#FB8530"/>
<stop offset="1" stop-color="#FEB50B"/>
</linearGradient>
</defs>
</svg>
