<svg width="48" height="57" viewBox="0 0 48 57" fill="none" xmlns="http://www.w3.org/2000/svg">
<path d="M44.3016 18.3322C46.2093 18.3322 47.7588 19.8776 47.7588 21.7801V36.2626C47.7588 38.1652 46.2093 39.7105 44.3016 39.7105C42.394 39.7105 40.8445 38.1652 40.8445 36.2626V21.7801C40.8445 19.8776 42.394 18.3322 44.3016 18.3322ZM0.168274 21.7801C0.168274 19.8776 1.71777 18.3322 3.62544 18.3322C5.53311 18.3322 7.0826 19.8776 7.0826 21.7801V36.2626C7.0826 38.1652 5.53311 39.7105 3.62544 39.7105C1.71777 39.7105 0.168274 38.1652 0.168274 36.2626V21.7801ZM39.4351 18.9379H39.6064V41.6674C39.6064 43.5622 38.0491 45.1153 36.1493 45.1153H33.2371V53.036C33.2371 54.9386 31.6876 56.4839 29.78 56.4839C27.8723 56.4839 26.3228 54.9386 26.3228 53.036V45.1153H21.6043V53.036C21.6043 54.9386 20.0548 56.4839 18.1471 56.4839C16.2394 56.4839 14.6899 54.9386 14.6899 53.036V45.1153H11.7778C9.87793 45.1153 8.32064 43.5622 8.32064 41.6674V18.9379H39.4351ZM8.35179 17.7265V16.0647C8.39851 15.591 8.46858 15.1251 8.56202 14.6747C9.41853 10.6289 12.245 7.20434 16.1226 5.21638L13.74 0.828905C13.592 0.557114 13.6933 0.215434 13.9658 0.0678908C14.2383 -0.0796528 14.5809 0.0212988 14.7289 0.29309L17.1426 4.74269C19.1983 3.8652 21.503 3.36821 23.9324 3.36821C26.3851 3.36821 28.7055 3.87296 30.7689 4.75822L33.1982 0.29309C33.3462 0.0212988 33.6888 -0.0796528 33.9613 0.0678908C34.2338 0.215434 34.335 0.557114 34.1871 0.828905L31.7889 5.23968C35.4874 7.14998 38.2204 10.3649 39.1937 14.1777C39.4429 15.1639 39.5753 16.1967 39.5753 17.2528C39.5753 17.4081 39.5675 17.5712 39.5675 17.7265H8.35179ZM16.8468 9.28548C16.037 9.28548 15.3751 9.93778 15.3751 10.7531C15.3751 11.5608 16.0292 12.2208 16.8468 12.2208C17.6565 12.2208 18.3184 11.5685 18.3184 10.7531C18.3184 9.93778 17.6565 9.28548 16.8468 9.28548ZM31.0803 9.28548C30.2705 9.28548 29.6087 9.93778 29.6087 10.7531C29.6087 11.5608 30.2627 12.2208 31.0803 12.2208C31.8901 12.2208 32.5519 11.5685 32.5519 10.7531C32.5519 9.93778 31.8901 9.28548 31.0803 9.28548Z" fill="white"/>
</svg>
