<svg width="53" height="34" viewBox="0 0 53 34" fill="none" xmlns="http://www.w3.org/2000/svg">
<path d="M8.53913 0.315021C7.04427 0.810639 5.24489 2.3801 4.49746 3.81188C3.99917 4.74805 3.86076 5.60161 3.72234 8.85066C3.52856 13.2562 3.22405 14.0822 1.53541 14.5503C0.704929 14.7981 0.677246 14.8256 0.677246 16.4777C0.677246 18.1573 0.704929 18.1848 1.56309 18.4326C3.22405 18.9558 3.52856 19.7543 3.72234 24.1597C3.91612 28.4276 4.24831 29.5014 5.85391 31.0158C6.65671 31.7868 9.50803 33.2185 9.81254 33.0258C9.92327 32.9432 10.1724 32.365 10.3385 31.7042C10.6707 30.5202 10.6707 30.4926 9.72949 29.5565C8.48377 28.3174 8.15158 27.0784 8.15158 23.554C8.15158 20.0847 7.7917 18.763 6.49061 17.4689L5.49404 16.4777L6.49061 15.514C7.76402 14.2749 8.15158 12.9257 8.15158 9.51149C8.15158 5.84942 8.51145 4.4727 9.72949 3.39887C10.6984 2.57284 10.6984 2.57284 10.3662 1.33379C10.1724 0.672968 9.92327 0.0672116 9.84022 0.0121429C9.75717 -0.0429257 9.14815 0.0947465 8.53913 0.315021ZM42.9211 1.25119C42.5058 2.43516 42.5058 2.71051 42.8103 2.90325C43.0041 3.04092 43.2532 3.15106 43.364 3.15106C43.4747 3.15106 43.8346 3.56407 44.1945 4.03216C44.7481 4.83065 44.8588 5.3538 44.9973 8.79559C45.191 13.2011 45.6063 14.5503 47.0735 15.7618L48.0147 16.5327L47.1842 17.1385C45.6063 18.3225 45.1633 19.6717 45.0249 23.8018C44.8865 27.9044 44.4436 29.3362 43.1425 29.9144C42.7549 30.0796 42.5058 30.3825 42.5889 30.5752C42.6442 30.7405 42.8657 31.4013 43.0595 32.0346C43.3363 32.9983 43.4747 33.1359 43.973 32.9983C46.1322 32.3374 47.8486 30.9332 48.7621 29.0884C49.4542 27.6566 49.5372 27.1885 49.6203 24.0771C49.6756 22.1773 49.8417 20.2774 50.0078 19.8644C50.3123 19.0934 51.475 18.2949 52.3055 18.2949C52.6377 18.2949 52.7207 17.937 52.7207 16.5052C52.7207 15.1285 52.6377 14.7155 52.3055 14.7155C51.5304 14.7155 50.4507 14.0547 50.0632 13.3112C49.7864 12.7881 49.6756 11.6041 49.6756 9.53902C49.6756 4.77558 48.6237 2.35256 45.9108 0.920777C43.5577 -0.345802 43.5024 -0.345803 42.9211 1.25119ZM15.4044 22.2048C14.2695 22.5077 13.6881 23.3888 13.6881 24.7655C13.6881 26.7755 15.875 27.987 17.7852 26.9958C19.3908 26.1698 19.7229 24.4076 18.5326 23.0308C17.7852 22.1222 16.7609 21.8744 15.4044 22.2048ZM25.3702 22.2048C24.2352 22.5077 23.6539 23.3888 23.6539 24.7655C23.6539 26.7755 25.8408 27.987 27.7509 26.9958C29.3565 26.1698 29.6887 24.4076 28.4984 23.0308C27.7509 22.1222 26.7267 21.8744 25.3702 22.2048ZM35.6128 22.2048C34.4778 22.5077 33.8965 23.3888 33.8965 24.7655C33.8965 26.7755 36.0834 27.987 37.9935 26.9958C39.5991 26.1698 39.9313 24.4076 38.741 23.0308C37.9935 22.1222 36.9693 21.8744 35.6128 22.2048Z" fill="white"/>
</svg>
