<svg width="24" height="25" viewBox="0 0 24 25" fill="none" xmlns="http://www.w3.org/2000/svg">
<path d="M5.46919 15.4375L2.26317 17.1196C0.578944 17.8962 0.578944 19.1665 2.26317 19.9431L5.46919 21.4201L10.5269 23.7513C11.3371 24.1248 12.6629 24.1248 13.4731 23.75L21.7368 19.9418C23.4211 19.1665 23.4211 17.8962 21.7368 17.1196L18.5312 15.4375" stroke="white" stroke-width="1.6"/>
<path d="M5.46919 9.25L2.26317 10.9321C0.578944 11.7087 0.578944 12.979 2.26317 13.7556L5.46919 15.2326L10.5269 17.5638C11.3371 17.9373 12.6629 17.9373 13.4731 17.5625L21.7368 13.7543C23.4211 12.979 23.4211 11.7087 21.7368 10.9321L18.5312 9.25" stroke="url(#paint0_linear)" stroke-width="1.6"/>
<path d="M10.5269 11.7201L5.46919 9.38887L2.26317 7.91185C0.578944 7.13522 0.578944 5.86495 2.26317 5.08831L10.5269 1.28009C11.3371 0.906636 12.6629 0.906636 13.4731 1.28009L21.7368 5.08831C23.4211 5.86495 23.4211 7.13522 21.7368 7.91056L13.4731 11.7188C12.6629 12.0935 11.3371 12.0935 10.5269 11.7201Z" stroke="white" stroke-width="1.6"/>
<defs>
<linearGradient id="paint0_linear" x1="1" y1="17.8438" x2="23" y2="17.8438" gradientUnits="userSpaceOnUse">
<stop stop-color="#FB8133"/>
<stop offset="1" stop-color="#FFBA08"/>
</linearGradient>
</defs>
</svg>
