<svg width="49" height="44" viewBox="0 0 49 44" fill="none" xmlns="http://www.w3.org/2000/svg">
<path fill-rule="evenodd" clip-rule="evenodd" d="M4.59766 30.7999V12.5112C4.59766 11.746 4.97714 11.5165 4.97714 11.5165L4.98802 11.522C5.50762 10.5077 22.5172 1.87476 22.5172 1.87476C24.752 0.612148 26.8181 1.87476 26.8181 1.87476C42.2587 9.50875 44.2167 11.2221 44.3852 11.6016L44.401 11.5932C45.0737 11.9747 44.5306 31.9852 44.5275 32.1005L44.528 32.1008C44.8231 32.6365 26.65 41.7808 26.65 41.7808C24.6261 42.9669 22.6865 41.7808 22.6865 41.7808C22.6865 41.7808 7.38055 33.4782 5.9891 32.7895C4.59766 32.1008 4.59766 30.7999 4.59766 30.7999ZM24.9628 9.48868C17.2257 9.16129 13.3381 15.0247 12.974 15.603L12.9885 15.6104C9.23581 22.5356 12.862 27.7008 12.862 27.7008C18.4278 35.1617 26.1862 34.8938 30.9508 32.7895C34.5626 31.2025 36.1519 28.4335 36.4295 27.9044L30.4206 24.7903C29.2351 26.5692 27.0967 27.7775 24.6253 27.7775C20.9148 27.7775 17.8789 25.0227 17.8789 21.6557C17.8789 20.6028 18.164 19.6239 18.6941 18.7551L18.6797 18.7477C19.8603 16.9494 22.0107 15.7251 24.4985 15.7251C27.0872 15.7251 29.3476 17.066 30.4777 19.0202L36.4658 15.826C36.2803 15.5066 32.8718 9.82334 24.9628 9.48868ZM36.8113 21.0054H38.4557V22.5741H36.8113V24.1428H35.0403V22.5741H33.3537V21.0054H35.0403V19.5132H36.8113V21.0054ZM42.5457 21.0054H44.1901V22.5741H42.5457V24.1428H40.7748V22.5741H39.0882V21.0054H40.7748V19.5132H42.5457V21.0054Z" fill="url(#paint0_linear_370_4668)"/>
<defs>
<linearGradient id="paint0_linear_370_4668" x1="40.5802" y1="1.31361" x2="6.46129" y2="1.31361" gradientUnits="userSpaceOnUse">
<stop stop-color="#F24F60"/>
<stop offset="1" stop-color="#A5066C"/>
</linearGradient>
</defs>
</svg>
