<svg width="40" height="46" viewBox="0 0 40 46" fill="none" xmlns="http://www.w3.org/2000/svg">
<path d="M38.5609 38.5035L38.5689 38.5174L38.5778 38.5308C38.655 38.6467 38.6509 38.7873 38.5615 38.8946L38.5276 38.9352L38.5039 38.9825C38.4529 39.0847 38.3034 39.1848 38.1395 39.1848H30.8717H30.6048L30.4742 39.4174L27.1583 45.3225L27.1529 45.3321L27.148 45.3419C27.0969 45.444 26.9474 45.5441 26.7835 45.5441C26.6568 45.5441 26.5159 45.4748 26.3979 45.3035L19.9103 34.0977L19.5182 33.4204L19.1225 34.0956L12.6269 45.179L12.6192 45.192L12.6124 45.2056C12.5614 45.3077 12.4119 45.4078 12.248 45.4078C12.1213 45.4078 11.9806 45.3387 11.8627 45.1678L8.55506 39.4135L8.42361 39.1848H8.15983H0.892042C0.768523 39.1848 0.631525 39.119 0.51544 38.9571C0.432307 38.7745 0.445551 38.6112 0.499149 38.5308L0.508531 38.5167L0.516844 38.502L7.28497 26.5101L7.5385 26.0609L7.06154 25.8645C6.46113 25.6173 6.09614 25.0293 6.1594 24.4345L6.74894 20.217L6.77889 20.0028L6.63187 19.8441L3.77978 16.7656C3.28949 16.1609 3.34918 15.3435 3.80354 14.8891L3.80363 14.8892L3.81095 14.8815L6.67264 11.8836L6.82105 11.7281L6.79553 11.5147L6.29668 7.34251C6.22931 6.57027 6.71457 5.93091 7.42453 5.79415L11.5547 5.06797L11.7687 5.03034L11.8743 4.84037L13.9183 1.16106C14.0944 0.844167 14.3676 0.61165 14.6956 0.51326C15.0388 0.4103 15.4106 0.44734 15.7059 0.611389L15.7165 0.617285L15.7274 0.622608L19.4522 2.43956L19.6472 2.53469L19.844 2.44331L23.5683 0.714181H23.6008L23.6823 0.681575C24.3826 0.40146 25.1189 0.685799 25.4177 1.31651L25.4231 1.32789L25.4291 1.33896L27.4277 5.01828L27.5299 5.20635L27.7398 5.24788L31.8724 6.06532C31.8726 6.06535 31.8728 6.06539 31.8729 6.06542C32.5376 6.19862 33.0265 6.87995 32.9626 7.56339L32.3734 11.7782L32.3435 11.9925L32.4905 12.1512L35.3426 15.2296C35.8329 15.8344 35.7732 16.6518 35.3188 17.1061L35.3187 17.106L35.3114 17.1137L32.4497 20.1117L32.3013 20.2671L32.3268 20.4805L32.8247 24.6444C32.8557 25.2906 32.5326 25.8255 32.0416 26.0547L31.5937 26.2637L31.8382 26.6933L38.5609 38.5035ZM11.899 43.3668L12.2951 44.0505L12.6887 43.3653L18.8209 32.6908L18.951 32.4643L18.8214 32.2375L17.9129 30.6477L17.7052 30.2843L17.3254 30.4603L15.5542 31.2811H15.5215L15.44 31.3137C14.7397 31.5938 14.0035 31.3094 13.7047 30.6787L13.6993 30.6673L13.6933 30.6563L11.6947 26.977L11.5896 26.7836L11.3728 26.7455L8.78369 26.2913L8.4666 26.2357L8.30811 26.5159L2.03964 37.5993L1.65489 38.2796H2.43645H8.70492C8.83169 38.2796 8.97265 38.3488 9.09063 38.5202L11.899 43.3668ZM14.928 30.5575H15.0297H15.6402L15.5184 30.3279L18.892 28.7427L18.9044 28.7369L18.9164 28.7304C19.28 28.532 19.7515 28.532 20.1151 28.7304L20.1242 28.7353L20.1335 28.7399L23.8583 30.5568L24.2467 30.7463L24.4566 30.3685L26.5007 26.6892L26.5024 26.6861C26.7021 26.32 27.0759 26.0778 27.4526 26.0084L31.5371 25.3276L31.9665 25.2561L31.9148 24.8238L31.4152 20.6448L31.4139 20.6344L31.4122 20.624C31.3468 20.2319 31.4741 19.8327 31.7845 19.5223L31.7846 19.5224L31.7895 19.5173L34.6966 16.5194L34.9974 16.2092L34.7037 15.8922L31.842 12.8034L31.8361 12.797L31.83 12.7909C31.5777 12.5386 31.4347 12.0991 31.503 11.6892L31.5032 11.6892L31.5048 11.678L32.0953 7.49903L32.1556 7.07177L31.7323 6.98804L27.5988 6.17042L27.5754 6.16579L27.5516 6.16363C27.2437 6.13563 26.9046 5.89735 26.6807 5.52974L24.688 1.77089L24.5595 1.52854H24.2852H24.2852H24.2852H24.2852H24.2852H24.2852H24.2851H24.2851H24.2851H24.2851H24.2851H24.2851H24.285H24.285H24.285H24.285H24.285H24.285H24.2849H24.2849H24.2849H24.2849H24.2849H24.2848H24.2848H24.2848H24.2848H24.2847H24.2847H24.2847H24.2847H24.2846H24.2846H24.2846H24.2846H24.2846H24.2845H24.2845H24.2845H24.2845H24.2845H24.2845H24.2844H24.2844H24.2844H24.2844H24.2844H24.2844H24.2843H24.2843H24.2843H24.2843H24.2843H24.2842H24.2842H24.2842H24.2842H24.2841H24.2841H24.2841H24.2841H24.2841H24.284H24.284H24.284H24.284H24.2839H24.2839H24.2839H24.2839H24.2838H24.2838H24.2838H24.2837H24.2837H24.2837H24.2837H24.2836H24.2836H24.2836H24.2836H24.2835H24.2835H24.2835H24.2834H24.2834H24.2834H24.2833H24.2833H24.2833H24.2832H24.2832H24.2832H24.2831H24.2831H24.2831H24.283H24.283H24.283H24.2829H24.2829H24.2828H24.2828H24.2828H24.2827H24.2827H24.2827H24.2826H24.2826H24.2825H24.2825H24.2825H24.2824H24.2824H24.2823H24.2823H24.2822H24.2822H24.2822H24.2821H24.2821H24.282H24.282H24.2819H24.2819H24.2818H24.2818H24.2817H24.2817H24.2816H24.2816H24.2815H24.2815H24.2814H24.2814H24.2813H24.2813H24.2812H24.2812H24.2811H24.2811H24.281H24.281H24.2809H24.2808H24.2808H24.2807H24.2807H24.2806H24.2806H24.2805H24.2804H24.2804H24.2803H24.2803H24.2802H24.2801H24.2801H24.28H24.28H24.2799H24.2798H24.2798H24.2797H24.2796H24.2796H24.2795H24.2794H24.2794H24.2793H24.2792H24.2792H24.2791H24.279H24.2789H24.2789H24.2788H24.2787H24.2787H24.2786H24.2785H24.2784H24.2784H24.2783H24.2782H24.2781H24.278H24.278H24.2779H24.2778H24.2777H24.2777H24.2776H24.2775H24.2774H24.2773H24.2772H24.2772H24.2771H24.277H24.2769H24.2768H24.2767H24.2766H24.2766H24.2765H24.2764H24.2763H24.2762H24.2761H24.276H24.2759H24.2758H24.2757H24.2756H24.2755H24.2754H24.2754H24.2753H24.2752H24.2751H24.275H24.2749H24.2748H24.2747H24.2746H24.2745H24.2744H24.2743H24.2742H24.274H24.2739H24.2738H24.2737H24.2736H24.2735H24.2734H24.2733H24.2732H24.2731H24.273H24.2729H24.2727H24.2726H24.2725H24.2724H24.2723H24.2722H24.2721H24.2719H24.2718H24.2717H24.2716H24.2715H24.2713H24.2712H24.2711H24.271H24.2709H24.2707H24.2706H24.2705H24.2704H24.2702H24.2701H24.27H24.2698H24.2697H24.2696H24.2695H24.2693H24.2692H24.2691H24.2689H24.2688H24.2687H24.2685H24.2684H24.2682H24.2681H24.268H24.2678H24.2677H24.2675H24.2674H24.2673H24.2671H24.267H24.2668H24.2667H24.2665H24.2664H24.2662H24.2661H24.2659H24.2658H24.2656H24.2655H24.2653H24.2652H24.265H24.2649H24.2647H24.2645H24.2644H24.2642H24.2641H24.2639H24.2637H24.2636H24.2634H24.2633H24.2631H24.2629H24.2628H24.2626H24.2624H24.2623H24.2621H24.2619H24.2617H24.2616H24.2614H24.2612H24.2611H24.2609H24.2607H24.2605H24.2603H24.2602H24.26H24.2598H24.2596H24.2594H24.2593H24.2591H24.2589H24.2587H24.2585H24.2583H24.2581H24.258H24.2578H24.2576H24.2574H24.2572H24.257H24.2568H24.2566H24.2564H24.2562H24.256H24.2558H24.2556H24.2554H24.2552H24.255H24.2548H24.2546H24.2544H24.2542H24.254H24.2538H24.2536H24.2534H24.2532H24.2529H24.2527H24.2525H24.2523H24.2521H24.2519H24.2517H24.2514H24.2512H24.251H24.2508H24.2506H24.2503H24.2501H24.2499H24.2497H24.2494H24.2492H24.249H24.2487H24.2485H24.2483H24.248H24.2478H24.2476H24.2473H24.2471H24.2469H24.2466H24.2464H24.2462H24.2459H24.2457H24.2454H24.2452H24.2449H24.2447H24.2444H24.2442H24.2439H24.2437H24.2434H24.2432H24.2429H24.2427H24.2424H24.2422H24.2419H24.2417H24.2414H24.2411H24.2409H24.2406H24.2403H24.2401H24.2398H24.1404L24.05 1.56991L20.2799 3.29601L20.2654 3.30266L20.2514 3.3103C19.8878 3.50863 19.4163 3.50863 19.0527 3.3103L19.0436 3.30533L19.0343 3.30079L15.3095 1.48384L14.9211 1.29434L14.7112 1.67217L12.6671 5.35149L12.6671 5.35148L12.6654 5.35459C12.4654 5.72125 12.0907 5.96363 11.7134 6.03261C11.713 6.03269 11.7126 6.03276 11.7122 6.03284L7.58123 6.75915L7.43955 6.78406L7.33782 6.88578C7.25942 6.96419 7.21334 7.05027 7.18795 7.12643C7.17552 7.16372 7.1683 7.19778 7.16417 7.2267C7.1621 7.2412 7.16078 7.25457 7.15998 7.26662C7.15957 7.27265 7.1593 7.27837 7.15912 7.28376L7.15894 7.29161L7.15889 7.29536L7.15888 7.29718L7.15888 7.29809L7.15888 7.29853C7.15888 7.29876 7.15888 7.29898 7.61475 7.29898H7.15888V7.32643L7.16217 7.35369L7.66183 11.4872L7.66306 11.4974L7.66474 11.5075C7.73009 11.8996 7.60279 12.2988 7.2924 12.6092L7.29231 12.6091L7.28499 12.6167L4.4233 15.6147L4.12964 15.9224L4.41619 16.2366L7.23246 19.3254L7.23954 19.3332L7.24697 19.3406C7.49926 19.5929 7.64221 20.0324 7.57389 20.4423L7.57375 20.4423L7.57217 20.4535L6.98167 24.6325L6.92053 25.0651L7.35022 25.1445L11.5292 25.9167L11.5515 25.9209L11.5742 25.9228C11.9309 25.9525 12.2672 26.1954 12.4871 26.5563L14.4798 30.3152L14.8825 30.1017V30.2905V30.5575H14.8826H14.8826H14.8826H14.8826H14.8826H14.8826H14.8826H14.8827H14.8827H14.8827H14.8827H14.8827H14.8827H14.8828H14.8828H14.8828H14.8828H14.8828H14.8828H14.8829H14.8829H14.8829H14.8829H14.883H14.883H14.883H14.883H14.8831H14.8831H14.8831H14.8831H14.8831H14.8831H14.8832H14.8832H14.8832H14.8832H14.8832H14.8832H14.8832H14.8833H14.8833H14.8833H14.8833H14.8833H14.8834H14.8834H14.8834H14.8834H14.8834H14.8834H14.8835H14.8835H14.8835H14.8835H14.8835H14.8836H14.8836H14.8836H14.8836H14.8837H14.8837H14.8837H14.8837H14.8838H14.8838H14.8838H14.8838H14.8838H14.8839H14.8839H14.8839H14.884H14.884H14.884H14.884H14.8841H14.8841H14.8841H14.8841H14.8842H14.8842H14.8842H14.8843H14.8843H14.8843H14.8844H14.8844H14.8844H14.8844H14.8845H14.8845H14.8845H14.8846H14.8846H14.8846H14.8847H14.8847H14.8848H14.8848H14.8848H14.8849H14.8849H14.8849H14.885H14.885H14.885H14.8851H14.8851H14.8852H14.8852H14.8852H14.8853H14.8853H14.8854H14.8854H14.8855H14.8855H14.8855H14.8856H14.8856H14.8857H14.8857H14.8858H14.8858H14.8859H14.8859H14.886H14.886H14.886H14.8861H14.8861H14.8862H14.8862H14.8863H14.8863H14.8864H14.8864H14.8865H14.8866H14.8866H14.8867H14.8867H14.8868H14.8868H14.8869H14.8869H14.887H14.887H14.8871H14.8872H14.8872H14.8873H14.8873H14.8874H14.8875H14.8875H14.8876H14.8876H14.8877H14.8878H14.8878H14.8879H14.888H14.888H14.8881H14.8882H14.8882H14.8883H14.8884H14.8884H14.8885H14.8886H14.8886H14.8887H14.8888H14.8888H14.8889H14.889H14.8891H14.8891H14.8892H14.8893H14.8893H14.8894H14.8895H14.8896H14.8897H14.8897H14.8898H14.8899H14.89H14.89H14.8901H14.8902H14.8903H14.8904H14.8905H14.8905H14.8906H14.8907H14.8908H14.8909H14.891H14.8911H14.8911H14.8912H14.8913H14.8914H14.8915H14.8916H14.8917H14.8918H14.8919H14.892H14.892H14.8921H14.8922H14.8923H14.8924H14.8925H14.8926H14.8927H14.8928H14.8929H14.893H14.8931H14.8932H14.8933H14.8934H14.8935H14.8936H14.8937H14.8938H14.8939H14.894H14.8942H14.8943H14.8944H14.8945H14.8946H14.8947H14.8948H14.8949H14.895H14.8951H14.8953H14.8954H14.8955H14.8956H14.8957H14.8958H14.896H14.8961H14.8962H14.8963H14.8964H14.8966H14.8967H14.8968H14.8969H14.897H14.8972H14.8973H14.8974H14.8976H14.8977H14.8978H14.8979H14.8981H14.8982H14.8983H14.8985H14.8986H14.8987H14.8989H14.899H14.8991H14.8993H14.8994H14.8995H14.8997H14.8998H14.9H14.9001H14.9002H14.9004H14.9005H14.9007H14.9008H14.901H14.9011H14.9013H14.9014H14.9016H14.9017H14.9019H14.902H14.9022H14.9023H14.9025H14.9026H14.9028H14.9029H14.9031H14.9032H14.9034H14.9036H14.9037H14.9039H14.904H14.9042H14.9044H14.9045H14.9047H14.9049H14.905H14.9052H14.9054H14.9055H14.9057H14.9059H14.906H14.9062H14.9064H14.9066H14.9067H14.9069H14.9071H14.9073H14.9074H14.9076H14.9078H14.908H14.9082H14.9083H14.9085H14.9087H14.9089H14.9091H14.9093H14.9094H14.9096H14.9098H14.91H14.9102H14.9104H14.9106H14.9108H14.911H14.9112H14.9114H14.9116H14.9118H14.912H14.9122H14.9124H14.9126H14.9128H14.913H14.9132H14.9134H14.9136H14.9138H14.914H14.9142H14.9144H14.9146H14.9148H14.9151H14.9153H14.9155H14.9157H14.9159H14.9161H14.9163H14.9166H14.9168H14.917H14.9172H14.9175H14.9177H14.9179H14.9181H14.9184H14.9186H14.9188H14.919H14.9193H14.9195H14.9197H14.92H14.9202H14.9204H14.9207H14.9209H14.9211H14.9214H14.9216H14.9219H14.9221H14.9224H14.9226H14.9228H14.9231H14.9233H14.9236H14.9238H14.9241H14.9243H14.9246H14.9248H14.9251H14.9254H14.9256H14.9259H14.9261H14.9264H14.9266H14.9269H14.9272H14.9274H14.9277H14.928ZM29.9969 38.5018L30.0025 38.4919L30.0076 38.4818C30.0586 38.3797 30.2081 38.2796 30.372 38.2796H36.6405H37.424L37.0368 37.5984L30.8138 26.6513L30.6537 26.3698L30.3352 26.4282L27.6098 26.9279L27.3981 26.9667L27.2935 27.1549L25.2494 30.8342L25.2494 30.8342L25.2466 30.8394C25.0195 31.2612 24.5517 31.5082 24.0581 31.5082C23.8389 31.5082 23.6397 31.4723 23.4444 31.3746L23.4404 31.3726L19.7156 29.5557L19.528 29.4642L19.3362 29.5464L19.0182 29.6827L18.551 29.8829L18.8007 30.3257L19.8001 32.0972L19.8307 32.1515L19.8748 32.1955C19.8971 32.2178 19.9132 32.236 19.9463 32.3353L19.961 32.3792L19.9841 32.4193L26.3888 43.5026L26.7885 44.1942L27.1807 43.4984L29.9969 38.5018Z" fill="url(#paint0_linear_370_4758)" stroke="url(#paint1_linear_370_4758)" stroke-width="0.911743"/>
<path d="M19.5164 7.39156C24.2612 7.39156 28.1452 11.2756 28.1452 16.0204C28.1452 20.7653 24.2612 24.6493 19.5164 24.6493C14.7715 24.6493 10.8875 20.7653 10.8875 16.0204C10.8875 11.2756 14.7715 7.39156 19.5164 7.39156ZM11.7927 16.0204C11.7927 20.2695 15.2673 23.7441 19.5164 23.7441C23.7654 23.7441 27.24 20.2695 27.24 16.0204C27.24 11.7714 23.7654 8.29677 19.5164 8.29677C15.2673 8.29677 11.7927 11.7714 11.7927 16.0204Z" fill="url(#paint2_linear_370_4758)" stroke="url(#paint3_linear_370_4758)" stroke-width="0.911743"/>
<defs>
<linearGradient id="paint0_linear_370_4758" x1="5.56843" y1="46" x2="37.8871" y2="46" gradientUnits="userSpaceOnUse">
<stop stop-color="#E74E4B"/>
<stop offset="1" stop-color="#FB8133"/>
</linearGradient>
<linearGradient id="paint1_linear_370_4758" x1="19.5441" y1="-3.8147e-05" x2="19.5441" y2="46" gradientUnits="userSpaceOnUse">
<stop stop-color="#D88EF4"/>
<stop offset="1" stop-color="#AE4DED"/>
</linearGradient>
<linearGradient id="paint2_linear_370_4758" x1="13.02" y1="25.1052" x2="28.0428" y2="25.1052" gradientUnits="userSpaceOnUse">
<stop stop-color="#E74E4B"/>
<stop offset="1" stop-color="#FB8133"/>
</linearGradient>
<linearGradient id="paint3_linear_370_4758" x1="19.5164" y1="6.93569" x2="19.5164" y2="25.1052" gradientUnits="userSpaceOnUse">
<stop stop-color="#D88EF4"/>
<stop offset="1" stop-color="#AE4DED"/>
</linearGradient>
</defs>
</svg>
