<svg width="53" height="34" viewBox="0 0 53 34" fill="none" xmlns="http://www.w3.org/2000/svg">
<path d="M7.86189 0.314991C6.36702 0.810608 4.56765 2.38007 3.82021 3.81185C3.32192 4.74802 3.18351 5.60158 3.0451 8.85063C2.85132 13.2561 2.54681 14.0822 0.858164 14.5502C0.0276828 14.798 0 14.8256 0 16.4776C0 18.1572 0.0276829 18.1848 0.885847 18.4326C2.54681 18.9557 2.85132 19.7542 3.0451 24.1597C3.23888 28.4275 3.57107 29.5014 5.17667 31.0158C5.97946 31.7867 8.83078 33.2185 9.13529 33.0258C9.24602 32.9432 9.49517 32.3649 9.66126 31.7041C9.99346 30.5201 9.99346 30.4926 9.05224 29.5564C7.80652 28.3174 7.47433 27.0784 7.47433 23.554C7.47433 20.0846 7.11445 18.763 5.81337 17.4689L4.81679 16.4776L5.81337 15.5139C7.08677 14.2749 7.47433 12.9257 7.47433 9.51146C7.47433 5.84939 7.8342 4.47267 9.05224 3.39884C10.0211 2.57281 10.0211 2.57281 9.68895 1.33376C9.49517 0.672937 9.24602 0.0671811 9.16297 0.0121124C9.07993 -0.0429562 8.47091 0.094716 7.86189 0.314991V0.314991ZM42.2438 1.25116C41.8286 2.43513 41.8286 2.71048 42.1331 2.90322C42.3268 3.04089 42.576 3.15103 42.6867 3.15103C42.7975 3.15103 43.1573 3.56404 43.5172 4.03212C44.0709 4.83062 44.1816 5.35377 44.32 8.79556C44.5138 13.2011 44.929 14.5502 46.3962 15.7617L47.3374 16.5327L46.5069 17.1385C44.929 18.3224 44.4861 19.6716 44.3477 23.8018C44.2093 27.9044 43.7663 29.3362 42.4653 29.9144C42.0777 30.0796 41.8286 30.3825 41.9116 30.5752C41.967 30.7404 42.1884 31.4012 42.3822 32.0345C42.659 32.9982 42.7975 33.1359 43.2957 32.9982C45.455 32.3374 47.1713 30.9332 48.0849 29.0884C48.7769 27.6566 48.86 27.1885 48.943 24.0771C48.9984 22.1772 49.1645 20.2774 49.3306 19.8644C49.6351 19.0934 50.7978 18.2949 51.6282 18.2949C51.9604 18.2949 52.0435 17.937 52.0435 16.5052C52.0435 15.1285 51.9604 14.7154 51.6282 14.7154C50.8531 14.7154 49.7735 14.0546 49.3859 13.3112C49.1091 12.788 48.9984 11.6041 48.9984 9.53899C48.9984 4.77555 47.9464 2.35253 45.2335 0.920746C42.8805 -0.345833 42.8251 -0.345834 42.2438 1.25116V1.25116ZM14.7272 22.2048C13.5922 22.5077 13.0109 23.3888 13.0109 24.7655C13.0109 26.7755 15.1978 27.987 17.1079 26.9958C18.7135 26.1697 19.0457 24.4075 17.8553 23.0308C17.1079 22.1222 16.0836 21.8744 14.7272 22.2048ZM24.693 22.2048C23.558 22.5077 22.9766 23.3888 22.9766 24.7655C22.9766 26.7755 25.1636 27.987 27.0737 26.9958C28.6793 26.1697 29.0115 24.4075 27.8211 23.0308C27.0737 22.1222 26.0494 21.8744 24.693 22.2048ZM34.9356 22.2048C33.8006 22.5077 33.2192 23.3888 33.2192 24.7655C33.2192 26.7755 35.4062 27.987 37.3163 26.9958C38.9219 26.1697 39.2541 24.4075 38.0637 23.0308C37.3163 22.1222 36.292 21.8744 34.9356 22.2048Z" fill="url(#paint0_linear_370_4678)"/>
<defs>
<linearGradient id="paint0_linear_370_4678" x1="0" y1="33.0434" x2="52.0435" y2="33.0434" gradientUnits="userSpaceOnUse">
<stop stop-color="#258EE8"/>
<stop offset="1" stop-color="#2AB5ED"/>
</linearGradient>
</defs>
</svg>
