<svg width="41" height="44" viewBox="0 0 41 44" fill="none" xmlns="http://www.w3.org/2000/svg">
<path d="M18.4906 0.47121C19.6028 -0.15707 21.0486 -0.15707 22.1609 0.47121C27.7358 3.57164 33.3246 6.6584 38.8995 9.75883C39.9422 10.3461 40.6512 11.4934 40.6373 12.6817V31.3252C40.6512 32.5681 39.8727 33.7428 38.7605 34.3027C33.1995 37.3895 27.6385 40.4626 22.0774 43.5494C20.9374 44.1913 19.4638 44.1367 18.3655 43.4538C16.6972 42.4977 15.0288 41.5553 13.3605 40.6129C13.013 40.408 12.6376 40.2577 12.4013 39.9299C12.6098 39.6431 12.9991 39.6158 13.3049 39.4929C14.0001 39.2743 14.6396 38.9329 15.2791 38.5914C15.4459 38.4822 15.6406 38.5231 15.7935 38.6188C17.2255 39.4246 18.6296 40.2441 20.0616 41.0499C20.3674 41.2275 20.6733 40.9953 20.9374 40.8451C26.4011 37.8129 31.8648 34.7944 37.3146 31.7623C37.5232 31.6667 37.6344 31.4618 37.6066 31.2433V12.791C37.6344 12.5451 37.4815 12.3129 37.259 12.2173C31.7258 9.13055 26.1926 6.0711 20.6455 2.99799C20.4508 2.86141 20.1867 2.86141 19.9921 2.99799C14.4449 6.0711 8.91173 9.14421 3.36461 12.2037C3.14217 12.2993 2.98924 12.5315 3.01705 12.7773V31.2296C3.00314 31.4482 3.11436 31.653 3.3229 31.7486C4.79657 32.5681 6.28414 33.3876 7.75781 34.2071C8.59197 34.6442 9.62075 34.9037 10.5383 34.5759C11.3447 34.2891 11.9147 33.4832 11.9008 32.6364C11.9147 26.5175 11.9008 20.4123 11.9008 14.2934C11.8869 14.0202 12.1371 13.8017 12.4152 13.829C13.1242 13.829 13.8332 13.8153 14.5423 13.829C14.8342 13.829 15.0427 14.1158 15.001 14.389C15.001 20.5352 15.0149 26.6951 15.001 32.8413C15.001 34.4803 14.3198 36.2695 12.7766 37.0617C10.872 38.0314 8.52245 37.8266 6.64561 36.8978C5.01901 36.1056 3.46193 35.1632 1.86313 34.3027C0.75093 33.7428 -0.0137091 32.5545 0.000193412 31.3252V12.6817C-0.0137091 11.4661 0.723126 10.3052 1.80752 9.73152L18.4906 0.47121Z" fill="url(#paint0_linear_370_4674)"/>
<path d="M23.3421 13.5641C25.7612 13.4138 28.361 13.4685 30.5437 14.6431C32.2398 15.5445 33.1712 17.4294 33.1991 19.2732C33.1573 19.5191 32.8932 19.6557 32.643 19.642C31.9339 19.642 31.2388 19.6557 30.5298 19.642C30.2378 19.6557 30.0571 19.3825 30.0154 19.123C29.8068 18.2352 29.3202 17.3611 28.4722 16.9377C27.1792 16.2957 25.6639 16.3367 24.2597 16.3504C23.2309 16.405 22.1187 16.487 21.2429 17.0879C20.5755 17.5386 20.367 18.4537 20.6033 19.1913C20.8258 19.724 21.4514 19.8879 21.9519 20.0518C24.8714 20.803 27.9717 20.7347 30.8356 21.7181C32.0173 22.1278 33.1852 22.9063 33.5883 24.1219C34.1166 25.7609 33.8803 27.7141 32.6986 29.0252C31.7393 30.1042 30.3351 30.6916 28.9449 31.0194C27.0819 31.4291 25.1634 31.4428 23.2726 31.2515C21.4931 31.0467 19.658 30.5959 18.2816 29.4077C17.1138 28.4106 16.5438 26.8536 16.5994 25.3512C16.6133 25.0917 16.8636 24.9141 17.1138 24.9414C17.8228 24.9414 18.5319 24.9278 19.2409 24.9414C19.5189 24.9278 19.7275 25.16 19.7414 25.4195C19.8665 26.2663 20.2002 27.1404 20.937 27.6458C22.3829 28.5609 24.1902 28.4926 25.8307 28.5199C27.1932 28.4653 28.7363 28.4379 29.8485 27.5502C30.4324 27.0448 30.6132 26.198 30.4463 25.4741C30.2795 24.8595 29.6261 24.5727 29.0561 24.3814C26.1644 23.48 23.0363 23.8078 20.1863 22.7971C19.0324 22.401 17.9063 21.6361 17.4614 20.4615C16.8358 18.8089 17.1277 16.7601 18.4346 15.4899C19.7414 14.2197 21.5904 13.728 23.3421 13.5641Z" fill="url(#paint1_linear_370_4674)"/>
<defs>
<linearGradient id="paint0_linear_370_4674" x1="20.3188" y1="0" x2="20.3188" y2="44" gradientUnits="userSpaceOnUse">
<stop stop-color="#34A866"/>
<stop offset="1" stop-color="#087D4C"/>
</linearGradient>
<linearGradient id="paint1_linear_370_4674" x1="25.2254" y1="13.504" x2="25.2254" y2="31.3705" gradientUnits="userSpaceOnUse">
<stop stop-color="#34A866"/>
<stop offset="1" stop-color="#087D4C"/>
</linearGradient>
</defs>
</svg>
