<svg width="1252" height="530" viewBox="0 0 1252 530" fill="none" xmlns="http://www.w3.org/2000/svg">
<path d="M10 25V196C10 218.091 27.9086 236 50 236H311.143C333.235 236 351.143 218.091 351.143 196V65C351.143 42.9086 369.052 25 391.143 25H425.34C447.432 25 465.34 42.9086 465.34 65V196C465.34 218.091 483.249 236 505.34 236H821.14C843.232 236 861.14 218.091 861.14 196V55C861.14 32.9086 879.049 15 901.14 15H1201.06C1223.15 15 1241.06 32.9086 1241.06 55V236V273.5C1241.06 295.591 1223.15 313.5 1201.06 313.5H1026.5C1004.41 313.5 986.5 331.409 986.5 353.5V480C986.5 502.091 968.591 520 946.5 520H628.5C606.409 520 588.5 502.091 588.5 480V378C588.5 355.909 570.591 338 548.5 338H496C473.909 338 456 355.909 456 378V480C456 502.091 438.091 520 416 520H10" stroke="url(#paint0_linear_14_598)" stroke-width="20" stroke-linecap="round"/>
<path d="M10 25V196C10 218.091 27.9086 236 50 236H311.143C333.235 236 351.143 218.091 351.143 196V65C351.143 42.9086 369.052 25 391.143 25H425.34C447.432 25 465.34 42.9086 465.34 65V196C465.34 218.091 483.249 236 505.34 236H821.14C843.232 236 861.14 218.091 861.14 196V55C861.14 32.9086 879.049 15 901.14 15H1201.06C1223.15 15 1241.06 32.9086 1241.06 55V236V273.5C1241.06 295.591 1223.15 313.5 1201.06 313.5H1026.5C1004.41 313.5 986.5 331.409 986.5 353.5V480C986.5 502.091 968.591 520 946.5 520H628.5C606.409 520 588.5 502.091 588.5 480V378C588.5 355.909 570.591 338 548.5 338H496C473.909 338 456 355.909 456 378V480C456 502.091 438.091 520 416 520H10" stroke="#F2F2F2" stroke-width="0.5" stroke-dasharray="5.99 5.99"/>
<path d="M1083.29 29.14H1086.39L1093.35 16.7384H1101.35C1101.35 16.7384 1106 16.7384 1106 14.57C1106 12.4 1101.35 12.4 1101.35 12.4H1093.35L1086.39 0H1083.29L1087.15 12.4H1081.59L1078.1 9.29845H1075L1077.48 14.5684L1075 19.84H1078.1L1081.59 16.7384H1087.15L1083.29 29.14Z" fill="white"/>
<path d="M172.292 250.14H175.392L182.349 237.738H190.35C190.35 237.738 195 237.738 195 235.57C195 233.4 190.35 233.4 190.35 233.4H182.349L175.392 221H172.292L176.149 233.4H170.589L167.1 230.298H164L166.482 235.568L164 240.84H167.1L170.589 237.738H176.149L172.292 250.14Z" fill="white"/>
<path d="M1113.71 300L1110.61 300L1103.65 312.402L1095.65 312.402C1095.65 312.402 1091 312.402 1091 314.57C1091 316.74 1095.65 316.74 1095.65 316.74L1103.65 316.74L1110.61 329.14L1113.71 329.14L1109.85 316.74L1115.41 316.74L1118.9 319.842L1122 319.842L1119.52 314.572L1122 309.3L1118.9 309.3L1115.41 312.402L1109.85 312.402L1113.71 300Z" fill="white"/>
<path d="M40.3774 476.043C40.5932 475.395 41.0576 474.859 41.6686 474.553C42.2795 474.248 42.9868 474.197 43.635 474.413L50.7918 476.8L63.5918 472L66.7918 473.6L57.1918 480L63.5918 483.2L69.9918 480L71.5918 481.6L65.1918 488L41.9166 479.272C41.2921 479.038 40.7828 478.57 40.4958 477.968C40.2088 477.366 40.1663 476.676 40.3774 476.043Z" fill="white"/>
<rect x="79.4824" y="495.5" width="1.48741" height="11" rx="0.743703" transform="rotate(120 79.4824 495.5)" fill="white"/>
<rect x="93.2695" y="494.5" width="1.48741" height="11" rx="0.743703" transform="rotate(120 93.2695 494.5)" fill="white" fill-opacity="0.8"/>
<defs>
<linearGradient id="paint0_linear_14_598" x1="34.7865" y1="15.0001" x2="1291.71" y2="257.58" gradientUnits="userSpaceOnUse">
<stop stop-color="#1C1E25"/>
<stop offset="1" stop-color="#1F222C"/>
</linearGradient>
</defs>
</svg>
