<svg width="60" height="58" viewBox="0 0 60 58" fill="none" xmlns="http://www.w3.org/2000/svg">
<rect x="1.48917" y="1.48917" width="56.5883" height="41.3115" rx="4.09521" stroke="white" stroke-width="2.97833"/>
<path d="M28.8225 42.3642V55.8437" stroke="white" stroke-width="2.97833"/>
<path d="M19.2153 55.8438H41.3126" stroke="white" stroke-width="2.97833" stroke-linecap="round"/>
<path d="M29 20C26.25 20 24 17.75 24 15C24 12.25 26.25 10 29 10C31.75 10 34 12.25 34 15C34 17.75 31.75 20 29 20ZM29 12.5C27.5 12.5 26.5 13.5 26.5 15C26.5 16.5 27.5 17.5 29 17.5C30.5 17.5 31.5 16.5 31.5 15C31.5 13.5 30.5 12.5 29 12.5Z" fill="url(#paint0_linear_70_2935)"/>
<path d="M37.75 32.5C37 32.5 36.5 32 36.5 31.25V28.75C36.5 26.75 34.75 25 32.75 25H25.25C23.25 25 21.5 26.75 21.5 28.75V31.25C21.5 32 21 32.5 20.25 32.5C19.5 32.5 19 32 19 31.25V28.75C19 25.25 21.75 22.5 25.25 22.5H32.75C36.25 22.5 39 25.25 39 28.75V31.25C39 32 38.5 32.5 37.75 32.5Z" fill="url(#paint1_linear_70_2935)"/>
<defs>
<linearGradient id="paint0_linear_70_2935" x1="24" y1="20" x2="34" y2="20" gradientUnits="userSpaceOnUse">
<stop stop-color="#FB8133"/>
<stop offset="1" stop-color="#FFBA08"/>
</linearGradient>
<linearGradient id="paint1_linear_70_2935" x1="19" y1="32.5" x2="39" y2="32.5" gradientUnits="userSpaceOnUse">
<stop stop-color="#FB8133"/>
<stop offset="1" stop-color="#FFBA08"/>
</linearGradient>
</defs>
</svg>
