<svg width="48" height="65" viewBox="0 0 48 65" fill="none" xmlns="http://www.w3.org/2000/svg">
<path d="M15.3825 50.0814C15.3825 50.0814 12.9078 51.5205 17.1437 52.0075C22.2753 52.593 24.898 52.509 30.5531 51.4387C30.5531 51.4387 32.0399 52.3709 34.1163 53.1784C21.4391 58.6116 5.42521 52.8637 15.3825 50.0814Z" fill="white"/>
<path d="M13.833 42.9914C13.833 42.9914 11.0574 45.046 15.2964 45.4845C20.7782 46.05 25.1073 46.0962 32.5982 44.6538C32.5982 44.6538 33.6343 45.7042 35.2636 46.2786C19.936 50.7606 2.86391 46.6321 13.833 42.9914Z" fill="white"/>
<path d="M26.8924 30.9643C30.0161 34.5607 26.0717 37.7969 26.0717 37.7969C26.0717 37.7969 34.0032 33.7024 30.3606 28.5752C26.9586 23.7937 24.3496 21.4179 38.4733 13.2267C38.4733 13.2267 16.3038 18.7636 26.8924 30.9643Z" fill="white"/>
<path d="M43.6588 55.3257C43.6588 55.3257 45.4902 56.8346 41.642 58.002C34.3245 60.2187 11.1859 60.8881 4.75807 58.0903C2.44743 57.0851 6.78053 55.6901 8.14355 55.3974C9.56505 55.0891 10.3774 55.1466 10.3774 55.1466C7.80773 53.3364 -6.23184 58.701 3.24598 60.2374C29.0934 64.4291 50.3633 58.3498 43.6588 55.3257Z" fill="white"/>
<path d="M16.5725 35.6453C16.5725 35.6453 4.80272 38.4408 12.4045 39.456C15.6142 39.8857 22.0127 39.7885 27.9728 39.2891C32.8436 38.8782 37.7346 38.0046 37.7346 38.0046C37.7346 38.0046 36.017 38.7402 34.7744 39.5886C22.8224 42.732 -0.266607 41.2697 6.38043 38.0544C12.0018 35.3371 16.5725 35.6453 16.5725 35.6453Z" fill="white"/>
<path d="M37.6856 47.447C49.8354 41.1335 44.2178 35.0663 40.2968 35.8837C39.3357 36.0838 38.9072 36.2571 38.9072 36.2571C38.9072 36.2571 39.264 35.6982 39.9454 35.4563C47.7024 32.7292 53.668 43.4995 37.4414 47.7652C37.4414 47.7654 37.6294 47.5973 37.6856 47.447Z" fill="white"/>
<path d="M30.3602 0C30.3602 0 37.0889 6.731 23.9783 17.0814C13.4649 25.3841 21.5809 30.1182 23.9739 35.527C17.8371 29.99 13.3335 25.1159 16.3548 20.5794C20.7895 13.9203 33.0751 10.6918 30.3602 0Z" fill="white"/>
<path d="M17.7668 64.5551C29.429 65.3017 47.3377 64.1409 47.7619 58.6227C47.7619 58.6227 46.9466 60.7146 38.1236 62.3759C28.1697 64.2491 15.8928 64.0304 8.61133 62.8299C8.6115 62.8297 10.1019 64.0636 17.7668 64.5551Z" fill="white"/>
</svg>
