<svg width="285" height="237" viewBox="0 0 285 237" fill="none" xmlns="http://www.w3.org/2000/svg">
<path d="M232.031 90.1835V149.089C232.031 156.659 226.483 162.793 219.641 162.793H138.792V163.566H113.459C112.895 163.656 112.324 163.7 111.753 163.699H28.7343C21.9257 163.699 16.416 157.564 16.416 150V91.0899C16.416 83.5244 21.9304 77.3906 28.7343 77.3906C28.7343 77.3906 52.7546 80.3528 70.7717 80.3528C88.7894 80.3528 111.753 77.3906 111.753 77.3906C117.794 77.3906 122.821 82.2221 123.868 88.5998C124.574 81.7736 129.813 76.4795 136.186 76.4795C136.186 76.4795 160.349 79.4417 178.456 79.4417C196.563 79.4417 219.675 76.4795 219.675 76.4795C226.482 76.4795 232.031 82.6133 232.031 90.1835Z" fill="#292F3D"/>
<path opacity="0.4" d="M111.422 77.3901H28.6914C28.6914 77.3901 47.0647 85.1752 70.5733 85.1752C94.0818 85.1752 111.422 77.3901 111.422 77.3901Z" fill="#555E78"/>
<path d="M232.708 213.689C234.276 213.212 235.138 211.418 234.655 209.644L228.112 182.397L219.262 185.097L228.856 211.414C229.434 213.159 231.139 214.166 232.708 213.689Z" fill="#292F3D"/>
<path d="M16.0323 213.689C14.464 213.212 13.6014 211.418 14.0849 209.644L20.6275 182.397L29.459 185.097L19.8841 211.414C19.3056 213.159 17.6148 214.166 16.0323 213.689Z" fill="#292F3D"/>
<path d="M173.241 160.913V161.171C172.463 161.16 171.687 161.109 170.915 161.018C171.691 161.03 172.468 160.995 173.241 160.913Z" fill="url(#paint0_linear_75_2287)"/>
<path d="M246.125 150.73C244.704 155.8 243.416 160.508 240.914 165.65C238.631 170.392 229.543 179.96 228.975 179.96C208.162 179.96 193.532 179.903 173.221 179.917H170.644C143.914 179.917 40.8299 179.96 19.9126 179.96C19.3537 179.96 10.2569 170.42 7.97344 165.65C5.49539 160.508 4.21662 155.8 2.76211 150.73C0.39315 142.277 -2.09905 130.218 2.89477 122.19C5.07853 118.689 9.49394 116.29 13.3699 117.654C18.8041 119.562 20.5617 125.525 21.3623 130.7C23.3003 143.155 28.7009 156.172 41.8481 159.706C49.0782 161.657 56.8767 161.214 64.3149 161.219C65.1862 161.219 154.152 161.319 170.63 161.009H170.914C171.686 161.099 172.463 161.151 173.24 161.162C177.083 161.286 183.891 161.224 184.577 161.224C192.016 161.224 199.809 161.662 207.039 159.711C220.191 156.162 225.606 143.145 227.525 130.69C228.326 125.515 230.083 119.548 235.518 117.645C239.393 116.281 243.809 118.68 245.988 122.181C250.982 130.209 248.509 142.277 246.125 150.73Z" fill="#181C25"/>
<path d="M170.915 161.018H170.644V160.909C170.644 160.952 170.73 160.985 170.915 161.018Z" fill="url(#paint1_linear_75_2287)"/>
<path d="M124.489 143.297C124.489 148.205 129.796 161.9 174.179 161.9C218.562 161.9 223.863 148.191 223.863 143.297C223.863 138.403 201.62 134.425 174.179 134.425C146.738 134.425 124.489 138.394 124.489 143.297Z" fill="#292F3D"/>
<path opacity="0.3" d="M124.489 143.297C131.857 138.642 216.269 138.575 223.863 143.297C223.863 138.394 201.597 134.416 174.179 134.416C146.761 134.416 124.489 138.394 124.489 143.297Z" fill="#3B4255"/>
<path opacity="0.3" d="M124.574 143.297C124.574 148.206 129.885 161.9 174.263 161.9C218.642 161.9 223.953 148.192 223.953 143.297C218.13 161.915 129.795 161.915 124.574 143.297Z" fill="black"/>
<path d="M25.1621 143.297C25.1621 148.205 30.4684 161.9 74.8472 161.9C119.225 161.9 124.537 148.191 124.537 143.297C124.537 138.403 102.293 134.425 74.8472 134.425C47.4014 134.425 25.1621 138.394 25.1621 143.297Z" fill="#292F3D"/>
<path opacity="0.3" d="M25.1621 143.297C32.5296 138.642 116.942 138.575 124.537 143.297C124.537 138.394 102.293 134.416 74.8472 134.416C47.4014 134.416 25.1621 138.394 25.1621 143.297Z" fill="#3B4255"/>
<path opacity="0.3" d="M25.2471 143.297C25.2471 148.206 30.5581 161.9 74.9368 161.9C119.315 161.9 124.621 148.192 124.621 143.297C118.803 161.915 30.4685 161.915 25.2471 143.297Z" fill="black"/>
<path opacity="0.4" d="M219.684 76.4795H136.532C136.532 76.4795 155.009 84.2638 178.641 84.2638C202.273 84.2638 219.684 76.4795 219.684 76.4795Z" fill="#555E78"/>
<path d="M19.979 185.26H228.999V179.941H19.979V185.26Z" fill="#292F3D"/>
<path d="M18.1692 117.458C18.4345 118.746 22.1866 132.875 22.433 134.759C22.541 137.009 22.4888 139.262 22.2768 141.504C22.3051 140.45 22.163 143.741 24.2235 143.441C25.2471 143.288 47.2493 138.899 55.1993 137.741C63.1492 136.582 71.2413 136.691 72.0231 136.557C73.5867 136.295 74.1503 135.446 74.7045 133.023C75.2587 130.6 71.8621 120.721 71.3551 117.535C70.848 114.349 72.0514 112.24 71.7053 110.671C71.2319 108.601 69.2844 107.923 67.5882 108.133C66.6407 108.257 56.6585 110.232 48.8836 111.19C41.2184 112.145 21.5805 114.029 20.7744 114.129C19.1449 114.329 17.9038 116.175 18.1692 117.458Z" fill="#181C25"/>
<path opacity="0.25" d="M18.3118 117.444C18.5772 118.727 22.3292 132.861 22.5757 134.74C22.6861 136.991 22.6339 139.247 22.4195 141.49C22.443 140.436 22.3104 143.722 24.3662 143.421C25.3945 143.274 47.3967 138.881 55.3419 137.721C63.2872 136.562 71.384 136.672 72.1705 136.543C73.7294 136.281 74.293 135.432 74.8519 133.004C75.1031 131.902 74.5394 129.264 73.8001 126.416C57.0193 134.778 22.7225 144.256 22.8645 114.015C21.8363 114.048 21.1636 114.062 20.9218 114.091C19.2828 114.31 18.0465 116.156 18.3118 117.444Z" fill="black"/>
<path opacity="0.2" d="M71.691 110.671C71.2176 108.601 69.2702 107.923 67.5739 108.133C66.6265 108.257 56.6442 110.232 48.8693 111.19C44.7334 111.705 27.0759 113.871 24.6025 113.981C34.3296 125.706 72.0371 112.24 71.691 110.671Z" fill="#3B4255"/>
<path d="M121.519 75.6164C119.065 76.5926 116.409 76.9522 113.784 76.6636C111.159 76.3751 108.645 75.4472 106.462 73.9612C102.231 70.9316 98.313 68.6805 92.9118 68.5182C89.5529 68.4179 86.4116 69.83 83.2137 70.636C80.4043 71.3471 78.2583 73.6171 75.226 74.0373C71.2463 74.5854 67.1717 72.1289 65.367 68.4994C63.5617 64.8692 63.9455 60.3663 65.9684 56.8606C67.4323 54.2896 68.7824 52.3813 67.134 49.5194C66.727 48.9278 66.3749 48.3003 66.0821 47.6447C65.8713 46.9991 65.7892 46.3185 65.8404 45.6413C65.9872 41.9397 68.773 39.1681 70.6255 36.1015C71.1018 35.4125 71.4412 34.6385 71.6254 33.8214C71.9567 31.7178 70.2989 29.9003 69.4127 27.9683C66.5468 21.7005 71.4403 14.574 76.2018 10.7964C79.0064 8.57823 82.3612 7.68128 85.4076 5.87391C86.786 5.05306 88.0419 4.03221 89.4392 3.23559C91.8741 1.85246 94.5273 1.80465 97.2282 2.17704C104.927 3.25983 113.682 8.89808 115.463 17.007C116.676 22.5018 114.696 28.8936 120.102 32.748C121.732 33.9069 123.793 34.5985 124.901 36.2631C127.27 39.8125 123.793 45.0595 125.953 48.7369C126.489 49.5198 127.112 50.2399 127.81 50.8836C129.531 52.719 130.843 54.8983 131.659 57.2778C132.476 59.6573 132.779 62.1829 132.548 64.688C132.472 65.9146 132.141 67.1119 131.577 68.2038C130.757 69.6724 129.364 70.7074 128 71.6858C126.012 73.218 123.854 74.5176 121.57 75.5592L121.519 75.6164Z" fill="#181C25"/>
<path d="M128.501 55.0854C126.109 53.0201 125.597 49.4 126.289 46.3045C126.739 44.2816 127.634 42.3066 127.554 40.2319C127.484 38.9326 127.037 37.6819 126.268 36.6323C125.499 35.5828 124.441 34.7798 123.224 34.3216C121.982 33.8785 120.613 33.8448 119.433 33.2489C117.638 32.3849 116.647 30.5627 115.989 28.7553C115.274 26.7897 115.572 25.1063 115.563 23.0309C115.582 20.3955 115.468 17.7608 115.221 15.1368C114.913 12.1126 113.113 9.11677 111.052 6.94173C110.759 6.63197 110.45 6.33164 110.128 6.04543C104.78 1.23206 94.551 -0.871591 88.207 3.04011C86.9465 3.81718 86.1599 4.89528 85.1559 5.90199C84.0734 6.92798 82.8763 7.8259 81.5883 8.57802C79.0619 10.0828 76.4606 11.4582 73.7946 12.6991C72.1172 13.5388 70.4075 14.4405 69.1752 15.862C67.7211 17.6411 66.98 19.897 67.0958 22.1918C67.222 24.4701 67.8514 26.6921 68.9388 28.6981C69.6728 30.129 70.559 31.4933 71.0229 33.034C71.7811 35.5383 70.3314 37.8945 68.493 39.4972C67.1004 40.7187 65.5039 41.8298 64.7409 43.5233C64.4283 44.2307 64.2791 44.9994 64.3045 45.7724C64.3299 46.5453 64.5293 47.3026 64.8877 47.9879C65.5698 49.2518 66.759 50.1872 67.3941 51.4794C67.6938 52.1035 67.8533 52.7856 67.8614 53.4778C67.8695 54.1701 67.7261 54.8558 67.4412 55.4867C66.7072 57.0847 65.0345 58.5681 65.584 60.2563" stroke="#292F3D" stroke-width="1.74081" stroke-miterlimit="10"/>
<path d="M119.05 129.298C118.46 130.934 117.684 132.498 116.738 133.958C112.904 140.105 107.655 145.245 101.43 148.95C96.6352 151.726 91.6084 151.602 86.7048 150.524C83.3554 149.79 80.0201 147.471 76.7845 145.316C73.1955 142.97 69.9327 140.16 67.081 136.958C64.6414 134.201 62.4529 130.757 62.0785 124.246C61.9317 121.68 62.1876 118.837 63.0636 117.091C64.1249 114.992 65.7309 115.064 67.1619 115.312C75.2586 116.71 83.1042 122.801 91.2583 122.916C95.811 122.977 100.056 120.335 104.429 117.945C107.807 116.099 111.536 114.072 115.065 114.458C118.249 114.816 121.4 122.682 119.05 129.298Z" fill="url(#paint2_linear_75_2287)"/>
<path opacity="0.2" d="M119.05 129.298C118.46 130.934 117.684 132.498 116.738 133.958C112.904 140.105 107.655 145.245 101.43 148.95C96.6352 151.726 91.6084 151.602 86.7048 150.524C83.3554 149.79 80.0201 147.471 76.7845 145.316C73.1955 142.97 69.9327 140.16 67.081 136.958C64.6414 134.201 62.4529 130.757 62.0785 124.246C61.9317 121.68 62.1876 118.837 63.0636 117.091C64.1249 114.992 65.7309 115.064 67.1619 115.312C75.2586 116.71 83.1042 122.801 91.2583 122.916C95.811 122.977 100.056 120.335 104.429 117.945C107.807 116.099 111.536 114.072 115.065 114.458C118.249 114.816 121.4 122.682 119.05 129.298Z" fill="url(#paint3_linear_75_2287)"/>
<path d="M68.1669 114.019C67.9676 113.571 67.7689 113.108 67.5602 112.636C65.3661 107.694 63.7647 102.51 62.7893 97.1909C62.4391 95.2825 62.0836 93.1789 60.629 91.8961C58.6156 90.117 54.6972 90.346 52.205 90.68C51.0401 90.8369 49.8817 91.1846 49.1658 92.134C48.7413 93.6011 47.9258 96.4613 48.0266 99.1942C47.7472 110.695 56.7773 120.182 64.1347 127.962C65.5562 129.455 67.0868 130.967 69.0477 131.573C71.0093 132.179 73.4968 131.573 74.354 129.665C74.9843 128.286 74.6004 126.67 74.1035 125.239C73.2096 122.804 71.9936 120.5 70.4881 118.388C69.5729 117.012 68.7955 115.548 68.1669 114.019Z" fill="#FFC5AB"/>
<path d="M103.619 54.4988C103.676 54.2988 103.733 54.0982 103.785 53.8982C104.529 51.1124 104.581 49.8861 101.336 50.0201L78.5942 50.9737C79.0353 52.9581 79.0683 54.7897 79.675 56.7742C81.0581 61.1243 83.6924 65.4413 88.326 66.7295C92.7555 67.9551 97.1238 66.1329 99.8288 62.5552C101.571 60.1221 102.855 57.3921 103.619 54.4988Z" fill="#F4F4F4"/>
<path d="M111.375 51.5272C111.7 53.5282 111.422 55.5809 110.574 57.4227C108.206 62.3599 102.383 63.3235 97.4609 63.5141C95.6379 63.5894 93.8118 63.492 92.0071 63.2232C90.4011 62.9848 88.9661 63.2232 87.3453 63.1902C84.1127 63.1175 80.9612 62.1641 78.2303 60.4327C76.8642 59.6397 75.7441 58.4842 74.9941 57.094C74.0466 55.1479 74.3355 52.8436 74.8284 50.7352C75.0741 49.5112 75.4986 48.33 76.0883 47.2296C76.7516 46.07 77.7045 45.0876 78.2539 43.8903C79.2916 41.6102 78.4384 38.9436 79.3623 36.7019C80.3026 34.789 81.6927 33.1325 83.4134 31.8744C85.4692 30.3815 88.1177 29.9095 90.6428 30.0859C93.168 30.2623 95.6131 31.0401 98.0198 31.8172C99.9147 32.4421 101.544 32.0562 102.933 33.6299C104.036 34.8797 103.653 36.9167 104.003 38.4332C105.188 43.5139 110.579 46.1798 111.375 51.5272Z" fill="#181C25"/>
<path d="M76.524 74.1321C73.3113 79.6848 69.6918 85.0079 66.2286 90.4078C64.3007 93.4178 62.3439 96.4844 61.3062 99.9146C56.54 99.8002 52.6819 98.8148 48.02 97.9131C48.7681 91.5402 51.1818 85.7379 54.171 80.1858C57.284 74.4041 60.6334 68.7376 63.5613 62.8657C65.9303 58.0954 70.3928 52.3717 76.353 55.2335C80.9299 57.447 80.2195 63.7815 79.2714 67.8743C78.6753 70.0865 77.7491 72.1961 76.524 74.1321Z" fill="#FFC5AB"/>
<path d="M64.8827 82.3937C64.575 85.232 64.6551 88.6568 67.0288 90.2164C68.6537 91.285 70.89 91.013 72.5297 89.9639C74.1687 88.9147 75.2959 87.2306 76.168 85.4852C79.124 79.3663 79.5479 72.3286 77.3477 65.8991C76.7888 64.2486 74.5808 57.8185 72.2213 58.8441C71.0893 59.3215 70.0139 62.6601 69.5257 63.7577C68.7403 65.5302 68.0602 67.3475 67.4887 69.2C66.1953 73.5033 65.3226 77.9219 64.8827 82.3937Z" fill="#FCB08E"/>
<path d="M112.554 114.019C112.753 113.571 112.952 113.108 113.161 112.636C115.353 107.693 116.954 102.509 117.932 97.1909C118.283 95.2825 118.638 93.1789 120.092 91.8961C122.105 90.117 126.024 90.346 128.516 90.68C129.681 90.8369 130.783 91.1658 131.498 92.1153C131.867 93.4091 132.761 96.3416 132.694 99.1942C132.974 110.695 123.944 120.182 116.586 127.962C115.165 129.455 113.635 130.967 111.673 131.573C109.712 132.179 107.22 131.573 106.362 129.665C105.732 128.286 106.121 126.67 106.618 125.239C107.512 122.804 108.728 120.5 110.233 118.388C111.146 117.011 111.923 115.547 112.554 114.019Z" fill="#FFC5AB"/>
<path d="M104.197 74.1321C107.409 79.6848 111.029 85.0079 114.487 90.4078C116.42 93.4178 118.377 96.4844 119.415 99.9146C124.181 99.8002 128.017 98.9685 132.679 98.0669C131.925 91.6939 129.539 85.7379 126.55 80.1858C123.437 74.4041 120.087 68.7376 117.159 62.8657C114.79 58.0954 110.327 52.3717 104.367 55.2335C99.7908 57.447 100.501 63.7815 101.449 67.8743C102.045 70.0865 102.972 72.1961 104.197 74.1321Z" fill="#FFC5AB"/>
<path d="M115.837 82.3937C116.145 85.232 116.065 88.6568 113.691 90.2164C112.066 91.285 109.83 91.013 108.19 89.9639C106.551 88.9147 105.424 87.2306 104.547 85.4852C101.592 79.3657 101.17 72.328 103.372 65.8991C103.931 64.2486 106.139 57.8185 108.498 58.8441C109.63 59.3215 110.706 62.6601 111.194 63.7577C111.977 65.5311 112.657 67.3482 113.231 69.2C114.525 73.5032 115.397 77.9218 115.837 82.3937Z" fill="#FCB08E"/>
<path d="M114.19 119.333C112.863 115.784 110.873 112.884 109.717 109.216C108.163 104.241 107.106 97.143 108.888 91.9916C110.783 86.525 113.114 82.208 113.251 76.1165C113.374 70.9032 112.332 65.7612 111.29 60.6812C110.248 55.6012 109.797 54.1891 104.904 53.4208C103.16 53.1494 101.435 52.672 99.6917 52.3622C96.7401 51.8443 93.7486 51.5872 90.7519 51.5939H90.5149C87.5176 51.5932 84.526 51.8566 81.575 52.3811C79.8316 52.6915 78.1118 53.1683 76.363 53.4403C71.4695 54.208 71.0049 55.6678 69.9719 60.7001C68.9389 65.7323 67.8925 70.922 68.0103 76.136C68.1531 82.2268 70.479 86.5439 72.3739 92.0104C74.1604 97.1618 73.1038 104.26 71.5449 109.235C70.3981 112.903 68.4036 115.803 67.077 119.352C66.947 119.622 66.9039 119.925 66.9538 120.221C67.0269 120.395 67.1348 120.553 67.271 120.685C67.4068 120.816 67.5682 120.917 67.745 120.983C74.2452 124.408 81.5366 125.434 88.6671 125.963L90.5007 126.092H90.7566L92.5902 125.963C99.72 125.434 107.007 124.408 113.512 120.983C113.689 120.917 113.85 120.815 113.986 120.684C114.122 120.553 114.23 120.395 114.303 120.221C114.36 119.92 114.32 119.609 114.19 119.333Z" fill="#FB8133"/>
<g style="mix-blend-mode:soft-light">
<path opacity="0.5" d="M107.889 62.9675C105.662 63.1343 103.429 63.1625 101.199 63.0522C93.192 62.6572 89.9851 60.7022 83.798 60.5962C80.1784 60.5496 76.5725 61.1203 73.0952 62.29V58.9024C76.5614 57.6727 80.1753 57.1008 83.798 57.2086C90.1842 57.4308 93.4108 59.7818 100.981 59.9187C103.291 59.9603 105.601 59.7904 107.889 59.4105V62.9675Z" fill="#F3F7F8"/>
<path opacity="0.5" d="M107.889 69.0306C106.004 69.01 103.492 69.0965 100.714 68.9692C92.8562 68.6172 89.6173 67.0888 83.1913 66.9717C79.7898 66.8722 76.3934 67.3581 73.0952 68.416V64.6054C76.3801 63.4837 79.7791 62.9917 83.1791 63.1458C89.7279 63.3762 92.9917 65.3582 100.52 65.4659C103.359 65.5096 105.93 65.2359 107.889 65.0664V69.0306Z" fill="#F3F7F8"/>
<path opacity="0.5" d="M107.889 74.2225C105.567 74.0729 102.895 74.1145 100.228 74.0215C92.5204 73.7654 89.2495 72.8976 82.5845 72.7865C79.3998 72.6612 76.2139 72.989 73.0952 73.763V70.0869C76.1982 69.2535 79.3815 68.9154 82.5603 69.0817C89.2715 69.2865 92.5726 70.5991 100.059 70.6613C102.772 70.6883 105.497 70.49 107.889 70.4315L107.889 74.2225Z" fill="#F3F7F8"/>
<path opacity="0.5" d="M107.889 79.4041C105.13 79.1459 102.298 79.148 99.743 79.0862C92.1847 78.9173 88.8817 78.6338 81.9778 78.5298C79.2337 78.4885 76.1531 78.4751 73.0952 79.0862V75.5891C76.1224 74.9232 79.1868 74.9217 81.9414 74.993C88.8151 75.1721 92.1534 75.8852 99.5974 75.907C102.186 75.9193 105.065 75.7893 107.889 75.8275V79.4041Z" fill="#F3F7F8"/>
<path opacity="0.5" d="M107.889 86.0672C104.693 85.6603 101.701 85.6235 99.2576 85.5829C91.849 85.4735 88.5139 85.7248 81.3711 85.6114C78.5265 85.5662 75.6489 85.4686 73.0952 85.8393V81.9649C75.6162 81.5383 78.4764 81.6068 81.3225 81.68C88.3588 81.8621 91.7343 82.0936 99.1362 82.0788C101.599 82.0785 104.633 81.9957 107.889 82.1358L107.889 86.0672Z" fill="#F3F7F8"/>
<path opacity="0.5" d="M107.889 91.2074C104.863 90.7632 101.819 90.5452 98.7723 90.5546C91.5132 90.516 88.1461 91.357 80.7643 91.2371C77.8193 91.1893 75.1446 91.001 73.0952 91.0888V86.9346C75.1099 86.7919 77.766 86.9362 80.7037 87.0088C87.9024 87.1876 91.3151 86.8711 98.6751 86.8159C101.013 86.8014 104.2 86.7745 107.889 87.0236V91.2074Z" fill="#F3F7F8"/>
<g style="mix-blend-mode:soft-light">
<path d="M113.86 96.5272C109.602 95.9287 105.305 95.6355 101.005 95.6499C91.4859 95.69 86.9347 97.2452 76.7313 97.1121C72.6535 97.0589 69.3441 96.7579 67.2754 96.5272V91.848C69.295 92.0219 72.578 92.2598 76.6338 92.3354C86.4899 92.5192 91.109 91.5621 100.907 91.4581C103.869 91.4266 108.343 91.4621 113.86 91.848V96.5272Z" fill="#F3F7F8"/>
</g>
</g>
<path d="M83.7387 61.4061C86.6194 64.7023 92.1627 64.965 96.0569 63.6148C98.6959 62.699 100.563 60.6 100.619 57.724C100.681 54.5039 97.8764 52.2144 97.1653 49.2138C96.8379 47.5064 96.7297 45.7642 96.8434 44.0294C96.8953 42.0066 96.9094 39.9844 97.0043 37.9663C95.1427 37.5272 93.2302 37.3428 91.319 37.4181C89.5709 37.4895 87.8274 37.3084 86.0841 37.4181C85.9432 37.4113 85.8042 37.4534 85.6908 37.5373C85.6034 37.6428 85.5579 37.7768 85.5629 37.9137C85.3306 40.6423 85.5629 43.4045 85.373 46.1378C85.2073 48.6515 84.6484 51.1794 83.1892 53.2588C82.3548 54.4821 81.9554 55.9501 82.055 57.4275C82.1547 58.9049 82.7476 60.306 83.7387 61.4061Z" fill="#FFC5AB"/>
<path d="M89.0405 8.71582C90.513 7.97485 92.1307 7.56766 93.7784 7.52325C95.4105 7.46875 97.0423 7.6357 98.6295 8.01953C101.863 8.74772 104.821 10.3826 107.158 12.7326C109.54 15.0888 111.096 18.1527 111.592 21.4664C111.747 23.1104 111.806 24.7622 111.767 26.4131C111.717 28.0276 112.001 29.6351 112.602 31.1348C113.337 32.5636 114.42 33.7843 115.752 34.6842C117.059 35.6377 118.504 36.3967 119.902 37.2647C120.65 37.6668 121.307 38.2169 121.835 38.8814C122.289 39.6194 122.51 40.4771 122.47 41.3426C122.481 42.185 122.374 43.0247 122.153 43.8375C121.911 44.63 121.61 45.4034 121.253 46.1513C120.912 46.8725 120.762 47.6688 120.817 48.4644C120.909 49.2635 121.137 50.0411 121.49 50.764C122.181 52.238 123.034 53.6494 123.735 55.1376C124.474 56.6207 124.938 58.2256 125.104 59.8742C125.249 61.5205 125.044 63.1788 124.502 64.7401C124.999 63.1726 125.161 61.5182 124.976 59.8843C124.787 58.2632 124.304 56.6903 123.55 55.2427C122.83 53.7733 121.968 52.3808 121.243 50.8926C120.867 50.1443 120.621 49.3379 120.513 48.5075C120.445 47.6576 120.593 46.8042 120.945 46.0274C121.283 45.2883 121.57 44.5264 121.802 43.7473C122.003 42.9684 122.1 42.1664 122.091 41.3622C122.128 40.576 121.928 39.7967 121.518 39.1252C121.017 38.5121 120.398 38.0059 119.698 37.6363C118.32 36.7832 116.856 36.0242 115.515 35.0559C114.114 34.1174 112.973 32.839 112.199 31.3402C111.575 29.7816 111.284 28.1096 111.346 26.4319C111.387 24.7973 111.335 23.1617 111.189 21.533C110.711 18.3049 109.218 15.3128 106.926 12.9898C104.652 10.6504 101.76 9.00595 98.5871 8.24847C97.0145 7.82713 95.3923 7.6201 93.7643 7.63299C92.1295 7.64471 90.5172 8.01431 89.0405 8.71582Z" fill="#292F3D"/>
<path d="M97.0339 48.8083C96.7761 47.221 96.695 45.6101 96.7921 44.005C96.8399 41.9828 96.8541 39.96 96.949 37.9425C95.0874 37.5036 93.1749 37.319 91.2637 37.3937C89.5155 37.4651 87.7769 37.2839 86.0281 37.3937C85.961 37.3811 85.8919 37.3841 85.8261 37.4025C85.7604 37.4214 85.7 37.4553 85.6497 37.5015C85.599 37.5479 85.5598 37.6055 85.535 37.6696C85.5103 37.7337 85.5006 37.8027 85.5069 37.8711C85.2753 40.599 85.5069 43.366 85.3224 46.0992C85.2694 46.8833 85.1713 47.6637 85.0288 48.4365C85.3035 48.6749 85.5783 48.9133 85.8672 49.1234C86.9522 49.9177 88.203 50.4561 89.5257 50.6981C90.8484 50.9401 92.2088 50.8794 93.5047 50.5207C94.7707 50.1568 95.9646 49.5775 97.0339 48.8083Z" fill="#FCB08E"/>
<path d="M104.392 27.1283C104.37 24.6487 103.974 22.1867 103.217 19.8254C100.137 10.7623 88.8372 8.68763 82.1478 15.3131C74.686 22.7021 77.8267 40.0647 85.8858 46.0652C86.9695 46.8603 88.2192 47.3996 89.5412 47.6425C90.8632 47.8855 92.223 47.8257 93.5186 47.4679C101.322 45.2262 104.557 35.4904 104.392 27.1283Z" fill="#FFC5AB"/>
<path d="M94.4127 30.8172C94.3743 30.9314 94.3632 31.053 94.3805 31.1722C94.3977 31.2915 94.4428 31.405 94.512 31.5036C94.5812 31.6022 94.6727 31.6831 94.779 31.7398C94.8853 31.7965 95.0034 31.8274 95.1239 31.83C95.2443 31.8326 95.3637 31.8069 95.4723 31.7548C95.5809 31.7027 95.6758 31.6258 95.7492 31.5303C95.8226 31.4348 95.8725 31.3233 95.8949 31.205C95.9173 31.0866 95.9115 30.9646 95.878 30.8489C95.8841 30.2981 95.5757 29.8422 95.1669 29.8294C94.7589 29.8166 94.4255 30.2664 94.4127 30.8172Z" fill="#292F3D"/>
<path d="M84.499 30.8103C84.499 31.3611 84.8074 31.817 85.2095 31.8231C85.6121 31.8291 85.9515 31.3928 85.9643 30.8419C85.9764 30.2911 85.6559 29.8352 85.2539 29.8292C84.8512 29.8231 84.5118 30.2594 84.499 30.8103Z" fill="#292F3D"/>
<path d="M104.377 19.2765C101.946 10.0228 90.8321 7.12725 83.6827 13.2665C82.6077 14.2552 81.6834 15.3962 80.9393 16.653C80.2478 17.7122 79.2862 18.5135 78.6795 19.6724C78.0524 20.873 77.663 22.1834 77.5327 23.5316C77.4095 24.8386 77.8317 25.9834 77.8647 27.2426C77.8516 26.5854 77.9792 25.933 78.239 25.3291C78.4989 24.7253 78.8848 24.184 79.3711 23.7417C80.1784 23.1252 81.0488 22.5959 81.9676 22.1626C82.8942 21.7199 83.6318 20.9604 84.047 20.0212C86.8901 23.7699 91.3007 24.9194 95.6454 26.0076C99.2837 26.9133 103.282 29.227 103.368 33.5105C103.368 33.9918 103.463 34.4685 103.647 34.9131C103.876 34.336 104.02 33.7284 104.073 33.1098C104.15 32.4135 104.354 31.7172 104.486 31.0156C104.766 29.5782 104.945 28.1231 105.022 26.6608C105.178 24.1809 104.961 21.6916 104.377 19.2765Z" fill="#FCB08E"/>
<path d="M106.448 35.1568C107.172 34.5801 107.721 33.8116 108.03 32.9386C109.001 30.0768 108.897 26.8856 108.779 23.8042C108.78 22.0883 108.577 20.3784 108.177 18.71C107.646 16.9671 106.755 15.3551 105.562 13.9782C103.999 12.0959 102.009 10.614 99.7574 9.65574C97.5061 8.69745 95.0585 8.29042 92.6182 8.46851C90.7233 8.6355 89.3254 9.55131 87.6581 10.3291C85.9901 11.1062 84.114 11.5021 82.4036 12.0698C80.4279 12.7283 78.3909 13.4152 76.8226 14.7936C75.6957 15.8335 74.8166 17.1133 74.2503 18.5383C73.5991 20.2475 73.3983 22.0954 73.6671 23.9045C73.7639 25.4363 74.108 26.9424 74.686 28.3643C75.2968 29.6619 76.6617 30.5057 77.8839 31.1548C77.6994 31.0592 77.8839 28.9179 77.8509 28.5886C77.7633 26.6822 77.9889 24.7743 78.5189 22.9409C79.0826 21.1712 80.2098 20.079 81.6737 19.0103C82.2741 18.5896 82.8313 18.1102 83.337 17.5794C83.5834 17.3074 84.6494 16.0528 84.4743 15.671C85.3028 17.6026 86.5928 19.3012 88.2312 20.6177C91.3226 22.819 94.6939 24.5981 98.2558 25.9078L99.0282 26.2129C100.014 26.5621 100.928 27.0891 101.724 27.7677C103.487 29.3805 103.619 31.8558 103.548 34.0928C103.525 34.3366 103.547 34.5826 103.615 34.8181C103.98 35.9103 105.737 35.686 106.448 35.1568Z" fill="#181C25"/>
<path d="M57.8002 89.005L57.2358 90.3458H124.062L123.389 88.8428L57.8002 89.005Z" fill="#B8D1CE"/>
<path d="M119.447 132.856H61.8224L57.6959 89.6638C57.6794 89.4836 57.7002 89.3019 57.7571 89.1301C57.814 88.9582 57.9058 88.8 58.0266 88.6652C58.1468 88.5311 58.2935 88.4234 58.4576 88.349C58.6216 88.2746 58.7993 88.2351 58.9794 88.2329H122.319C122.59 88.2366 122.854 88.325 123.073 88.4858C123.292 88.6466 123.456 88.8717 123.541 89.1299C123.598 89.3017 123.619 89.4835 123.603 89.6638L119.447 132.856Z" fill="#292F3D"/>
<path d="M119.903 134.077H61.3724L57.18 90.8845C57.1557 90.6111 57.2174 90.3368 57.3566 90.1002C57.4958 89.8635 57.7055 89.6763 57.9563 89.5647C58.1222 89.4913 58.3016 89.4535 58.483 89.4536H122.793C122.975 89.4536 123.154 89.4915 123.32 89.5647C123.571 89.6765 123.78 89.8637 123.919 90.1003C124.058 90.337 124.12 90.6112 124.096 90.8845L119.903 134.077Z" fill="#555E78"/>
<path d="M119.87 134.078H61.373V136.696H119.87V134.078Z" fill="#292F3D"/>
<path d="M99.9658 29.3068L102.726 29.0859" stroke="#292F3D" stroke-width="0.478726" stroke-miterlimit="10"/>
<path d="M80.7088 29.3068L77.9546 29.0859" stroke="#292F3D" stroke-width="0.478726" stroke-miterlimit="10"/>
<path d="M91.2834 30.3964C91.2635 31.262 91.5001 32.1142 91.9634 32.8456C92.4268 33.577 93.0962 34.155 93.8873 34.5068C94.6764 34.8556 95.5517 34.961 96.401 34.8095C97.2503 34.6579 98.0351 34.2564 98.6549 33.6563C99.1205 33.206 99.481 32.6585 99.7107 32.0529C99.9405 31.4473 100.034 30.7985 99.984 30.1527C99.9342 29.5069 99.7426 28.88 99.4228 28.3168C99.1029 27.7535 98.6628 27.2678 98.1337 26.8942C97.3087 26.3134 96.307 26.0386 95.3011 26.1172C94.2952 26.1957 93.3483 26.6227 92.6234 27.3244C91.7892 28.1318 91.3077 29.2358 91.2834 30.3964V30.3964Z" stroke="#292F3D" stroke-width="0.478726" stroke-miterlimit="10"/>
<path d="M80.7087 30.168C80.6888 31.0333 80.9252 31.8851 81.3882 32.6163C81.8512 33.3476 82.52 33.9256 83.3106 34.2777C84.0994 34.6268 84.9744 34.7327 85.8237 34.5818C86.673 34.4309 87.458 34.0301 88.0782 33.4306C88.544 32.9807 88.9048 32.4337 89.135 31.8284C89.3652 31.2232 89.4591 30.5746 89.4099 29.9289C89.3608 29.2833 89.1699 28.6564 88.8508 28.0929C88.5317 27.5295 88.0922 27.0433 87.5637 26.6691C86.7395 26.0866 85.7376 25.8105 84.7312 25.8884C83.7249 25.9664 82.7775 26.3935 82.0528 27.096C81.2174 27.9028 80.7343 29.0069 80.7087 30.168V30.168Z" stroke="#292F3D" stroke-width="0.478726" stroke-miterlimit="10"/>
<path d="M91.7799 28.0862C91.7799 28.0862 90.755 27.4532 88.9375 28.029" stroke="#292F3D" stroke-width="0.478726" stroke-miterlimit="10"/>
<path d="M94.6992 111.758C94.7015 112.565 94.465 113.354 94.0195 114.027C93.574 114.7 92.9394 115.226 92.1956 115.538C91.4537 115.848 90.6361 115.93 89.8476 115.772C89.0591 115.615 88.3355 115.226 87.7694 114.655C87.3441 114.227 87.0184 113.71 86.8158 113.141C86.6131 112.572 86.5384 111.966 86.597 111.365C86.6556 110.764 86.846 110.184 87.1547 109.665C87.4634 109.146 87.8828 108.702 88.3829 108.364C89.1626 107.839 90.1011 107.602 91.0366 107.695C91.9721 107.787 92.8461 108.203 93.508 108.871C94.2704 109.638 94.6986 110.676 94.6992 111.758Z" fill="#292F3D"/>
<path d="M83.726 153.2C86.4027 152.723 89.07 152.189 91.7137 151.745C104.979 149.517 118.819 146.904 130.871 140.645C133.647 139.214 136.556 136.92 137.978 134.077C141.768 126.597 134.212 119.586 126.835 121.709C114.516 125.248 103.819 132.932 92.0072 137.926C90.0369 138.766 88.0518 139.639 86.0572 140.517C84.3421 141.27 82.6223 142.029 80.8931 142.768" fill="url(#paint4_linear_75_2287)"/>
<path d="M80.9016 142.764C78.9259 143.608 76.9455 144.433 74.9556 145.201C72.9658 145.969 61.1451 148.602 63.77 153.077C64.2811 153.954 65.4232 154.183 66.4279 154.312C72.2075 155.041 78.002 154.226 83.7392 153.191" fill="#FFC5AB"/>
<path d="M70.6773 154.608C68.1325 154.899 65.4653 154.808 63.097 154.946C62.0303 155.013 60.9643 155.075 59.8984 155.066C58.2026 155.02 56.5105 154.885 54.8291 154.66L51.1572 154.235C50.4082 154.269 49.6718 154.034 49.0811 153.572C48.4884 153.108 48.0792 152.449 47.9263 151.712C47.2216 150.268 46.5984 148.785 46.0596 147.271C45.7566 146.264 45.4294 145.277 46.1021 144.343C46.453 143.898 46.8798 143.518 47.3626 143.221C47.9503 142.803 48.5866 142.457 49.2575 142.191C51.4844 141.37 53.5551 142.248 55.6345 143.054C57.81 143.982 60.0489 144.753 62.334 145.363C64.8336 145.85 67.3688 146.133 69.9143 146.207C71.9372 146.337 75.0785 146.179 76.7411 147.548C77.4185 148.111 78.4279 149.394 78.4138 150.309C78.4138 151.469 76.9923 152.509 76.1115 153.014C74.4281 153.912 72.5786 154.454 70.6773 154.608Z" fill="#FFC5AB"/>
<path d="M82.5693 196.722C83.9195 198.911 85.644 200.962 86.9995 202.923C87.615 203.805 88.2264 204.688 88.8944 205.522C89.9793 206.835 91.1338 208.088 92.3529 209.276L94.9589 211.915C95.3927 212.529 96.033 212.967 96.7628 213.148C97.4926 213.329 98.2632 213.242 98.9339 212.902C101.819 212.096 104.553 212.029 104.619 208.332C104.662 205.99 103.79 203.343 101.833 202.012C99.5635 200.476 97.0956 199.317 94.9347 197.585C93.0194 195.909 91.2345 194.09 89.5954 192.143C88.2406 190.626 86.4164 188.041 84.3127 187.583C83.4555 187.392 81.8353 187.392 81.1289 187.974C80.2387 188.704 80.2953 190.463 80.4468 191.47C80.7963 193.345 81.518 195.131 82.5693 196.722Z" fill="#FFC5AB"/>
<path d="M61.6757 155.018C59.5196 154.54 56.8052 153.768 55.5163 151.974C54.5692 150.577 54.1959 148.869 54.4739 147.205C54.6732 145.559 56.1041 144.4 57.6529 143.827C56.1164 142.716 54.3497 141.963 52.4834 141.625C50.6171 141.288 48.6988 141.373 46.87 141.876C46.4665 141.982 46.0745 142.127 45.6997 142.31C40.7018 144.767 43.0991 150.982 46.6949 153.496C48.338 154.638 50.2535 155.326 52.2477 155.49C53.849 155.618 54.9291 155.561 56.5351 155.556C58.4778 155.556 59.4819 155.208 61.6757 155.018Z" fill="#E6E6E6"/>
<path d="M87.6489 203.896C89.3492 205.327 91.6428 206.968 93.8454 206.892C95.5173 206.768 97.077 206.004 98.1995 204.759C99.3652 203.576 99.3746 201.73 98.8628 200.151C100.689 200.682 102.374 201.613 103.794 202.879C105.214 204.144 106.332 205.711 107.069 207.464C107.239 207.846 107.369 208.243 107.457 208.651C108.642 214.123 102.312 216.084 98.1241 214.805C96.2106 214.213 94.4877 213.125 93.1303 211.652C92.036 210.469 91.4057 209.582 90.4206 208.313C89.2219 206.777 88.8711 205.761 87.6489 203.896Z" fill="#E6E6E6"/>
<path d="M84.1902 176.005C85.2083 179.912 86.2366 183.852 87.4257 187.692C87.4395 187.77 87.4651 187.846 87.5018 187.916C88.0607 189.51 88.7382 191.05 89.2735 192.648C89.6224 193.664 89.9133 194.699 90.1449 195.748C90.252 196.243 90.3327 196.743 90.3866 197.246C90.4363 197.478 90.4508 197.716 90.4297 197.952C90.3722 198.082 90.2898 198.198 90.1873 198.296C90.0851 198.393 89.9644 198.47 89.8324 198.52C89.588 198.618 89.328 198.671 89.0648 198.677C88.0201 198.685 86.9843 198.484 86.0184 198.086C85.4123 197.866 84.8103 197.609 84.2184 197.371C83.6404 197.152 83.0823 196.883 82.5505 196.569C82.3258 196.368 82.1326 196.135 81.9774 195.877C81.7875 195.625 81.5983 195.371 81.4138 195.114C81.0441 194.602 80.6838 194.082 80.333 193.555C78.7513 191.141 77.2918 188.649 75.96 186.089C74.6005 183.542 73.317 181.009 71.9379 178.496C65.4471 166.637 58.8998 154.087 56.3033 140.688C55.7066 137.597 55.6925 133.901 57.0143 131C60.4917 123.368 70.6396 124.99 73.5628 132.131C78.4381 144.056 79.0872 157.273 82.508 169.704C83.0858 171.779 83.6353 173.888 84.1902 176.005Z" fill="#FFC5AB"/>
<path d="M75.7613 185.712C74.4771 183.299 73.2361 180.866 71.9425 178.501C65.447 166.642 58.9044 154.092 56.3078 140.693C55.7159 137.597 55.7018 133.906 57.0237 131.005C60.501 123.373 70.6489 124.995 73.5721 132.136C78.4474 144.061 79.0966 157.279 82.5173 169.709C83.0904 171.784 83.6399 173.893 84.1947 176.01C84.6681 177.833 85.1422 179.664 85.6391 181.486" fill="url(#paint5_linear_75_2287)"/>
<path d="M202.88 126.69H150.253V136.531H202.88V126.69Z" fill="url(#paint6_linear_75_2287)"/>
<path d="M155.181 126.69H149.945V136.574H155.181V126.69Z" fill="#FB8133"/>
<path d="M199.639 131.632C199.639 132.087 199.504 132.533 199.252 132.913C199.001 133.291 198.643 133.586 198.224 133.759C197.805 133.933 197.343 133.978 196.898 133.889C196.453 133.8 196.045 133.581 195.725 133.259C195.405 132.937 195.188 132.527 195.102 132.081C195.013 131.635 195.058 131.172 195.231 130.751C195.404 130.329 195.698 129.969 196.075 129.714C196.516 129.418 197.045 129.284 197.573 129.337C198.101 129.389 198.594 129.624 198.968 130.001C199.398 130.434 199.639 131.021 199.639 131.632Z" fill="#FB8133"/>
<path d="M205.182 116.806H152.555V126.647H205.182V116.806Z" fill="url(#paint7_linear_75_2287)"/>
<path d="M157.798 116.806H152.562V126.69H157.798V116.806Z" fill="#2273E5"/>
<path d="M202.301 121.748C202.301 122.204 202.167 122.649 201.915 123.029C201.607 123.493 201.143 123.831 200.608 123.982C200.072 124.132 199.5 124.084 198.996 123.848C198.492 123.612 198.09 123.202 197.863 122.694C197.636 122.185 197.6 121.612 197.76 121.079C197.921 120.547 198.267 120.089 198.737 119.791C199.207 119.492 199.768 119.372 200.319 119.453C200.87 119.534 201.373 119.811 201.736 120.232C202.1 120.653 202.301 121.191 202.301 121.748Z" fill="#2167E3"/>
<path d="M202.387 116.848H155.053V111.649L160.965 110.523L155.053 109.822V98.8604H193.149L204.292 100.778L203.586 106.168L198.005 106.731L203.586 107.852L202.387 116.848Z" fill="#F3F7F8"/>
<path d="M159.671 104.198C162.097 104.069 164.523 104.007 166.948 103.955C169.374 103.902 171.805 103.908 174.23 103.879C176.656 103.85 179.082 103.902 181.512 103.955L185.151 104.041C186.364 104.098 187.577 104.126 188.789 104.198C187.577 104.27 186.364 104.303 185.151 104.355L181.512 104.446C179.082 104.499 176.656 104.494 174.23 104.518C171.805 104.542 169.377 104.518 166.948 104.446C164.518 104.375 162.116 104.332 159.671 104.198Z" fill="#D1D1D3"/>
<path d="M167.645 112.225C170.071 112.097 172.496 112.035 174.926 111.982C177.357 111.93 179.778 111.934 182.204 111.906C184.63 111.877 187.057 111.903 189.486 111.982L193.125 112.073C194.337 112.126 195.55 112.154 196.763 112.225C195.55 112.302 194.337 112.33 193.125 112.383L189.486 112.474C187.06 112.526 184.63 112.522 182.204 112.545C179.778 112.569 177.352 112.546 174.926 112.474C172.501 112.402 170.071 112.359 167.645 112.225Z" fill="#D1D1D3"/>
<path d="M155.053 98.8604H201.767L204.292 100.778L155.053 98.8604Z" fill="#D1D1D3"/>
<path d="M163.603 119.373H165.343C165.698 119.351 166.049 119.46 166.329 119.68C166.441 119.788 166.531 119.918 166.592 120.061C166.653 120.205 166.684 120.359 166.684 120.515C166.684 120.671 166.653 120.825 166.592 120.969C166.531 121.112 166.441 121.242 166.329 121.35C166.049 121.569 165.698 121.678 165.343 121.657H164.443V123.208H163.603V119.373ZM165.235 121.016C165.674 121.016 165.893 120.851 165.893 120.52C165.893 120.186 165.673 120.019 165.235 120.019H164.443V121.016H165.235ZM169.005 121.722V123.208H168.165V121.716L166.581 119.373H167.534L168.579 121.011L169.635 119.373H170.594L169.005 121.722ZM171.684 120.057H170.482V119.373H173.736V120.057H172.535V123.208H171.684V120.057ZM177.609 119.373V123.208H176.785V121.598H175.007V123.208H174.183V119.373H175.007V120.924H176.785V119.373L177.609 119.373ZM180.142 123.257C179.795 123.265 179.452 123.183 179.145 123.02C178.866 122.858 178.639 122.619 178.494 122.33C178.337 122.005 178.259 121.647 178.267 121.285C178.259 120.926 178.336 120.569 178.494 120.246C178.64 119.96 178.866 119.724 179.145 119.567C179.451 119.4 179.794 119.316 180.142 119.324C180.488 119.316 180.83 119.399 181.133 119.567C181.412 119.723 181.637 119.96 181.78 120.246C181.937 120.569 182.015 120.926 182.006 121.285C182.014 121.647 181.937 122.005 181.78 122.33C181.638 122.619 181.413 122.859 181.133 123.02C180.829 123.184 180.487 123.266 180.142 123.257ZM180.142 122.6C180.286 122.607 180.429 122.58 180.56 122.521C180.691 122.462 180.806 122.373 180.896 122.26C181.097 121.976 181.194 121.632 181.171 121.285C181.194 120.94 181.097 120.597 180.896 120.316C180.806 120.205 180.69 120.117 180.559 120.059C180.428 120.001 180.285 119.974 180.142 119.982C179.998 119.975 179.855 120.001 179.723 120.059C179.591 120.117 179.475 120.205 179.382 120.316C179.185 120.599 179.09 120.941 179.113 121.285C179.09 121.633 179.185 121.978 179.382 122.266C179.475 122.376 179.591 122.464 179.723 122.522C179.855 122.58 179.998 122.607 180.142 122.6ZM185.987 119.373V123.208H185.362L183.45 120.763V123.208H182.663V119.373H183.283L185.195 121.813V119.373L185.987 119.373Z" fill="white"/>
<path d="M161.199 133.594C161.326 133.614 161.454 133.625 161.582 133.627C161.645 133.635 161.71 133.628 161.77 133.608C161.831 133.587 161.886 133.553 161.932 133.508C162.006 133.383 162.038 133.238 162.023 133.093V129.473H162.864V133.083C162.892 133.415 162.802 133.747 162.611 134.02C162.498 134.131 162.362 134.215 162.213 134.267C162.064 134.32 161.906 134.338 161.749 134.322C161.565 134.32 161.381 134.304 161.199 134.273V133.594ZM166.198 132.458H164.404L164.038 133.309H163.192L164.953 129.473H165.632L167.394 133.309H166.564L166.198 132.458ZM165.923 131.817L165.304 130.378L164.684 131.817H165.923ZM171 129.473L169.276 133.309H168.603L166.879 129.473H167.752L168.948 132.258L170.155 129.473H171ZM173.489 132.458H171.695L171.329 133.309H170.483L172.245 129.473H172.924L174.685 133.309H173.856L173.489 132.458ZM173.214 131.817L172.595 130.378L171.975 131.817H173.214ZM174.647 133.638L176.059 129.242H176.733L175.316 133.638H174.647ZM178.716 133.357C178.361 133.366 178.011 133.282 177.698 133.115C177.415 132.954 177.185 132.714 177.035 132.425C176.875 132.103 176.796 131.746 176.804 131.386C176.796 131.029 176.875 130.676 177.035 130.357C177.183 130.066 177.413 129.826 177.698 129.667C178.011 129.5 178.361 129.417 178.716 129.425C178.963 129.424 179.209 129.464 179.443 129.543C179.656 129.607 179.851 129.717 180.014 129.867L179.75 130.47C179.597 130.351 179.426 130.256 179.244 130.19C179.08 130.128 178.907 130.097 178.732 130.098C178.584 130.089 178.435 130.114 178.298 130.171C178.161 130.228 178.038 130.315 177.94 130.427C177.739 130.704 177.642 131.044 177.665 131.386C177.642 131.731 177.739 132.074 177.94 132.355C178.038 132.467 178.161 132.555 178.298 132.611C178.435 132.668 178.584 132.693 178.732 132.684C178.906 132.685 179.08 132.656 179.244 132.598C179.426 132.528 179.596 132.431 179.75 132.312L180.014 132.916C179.85 133.066 179.655 133.178 179.443 133.244C179.208 133.321 178.963 133.359 178.716 133.357ZM183.164 132.027H182.119V133.077H181.558V132.027H180.513V131.472H181.558V130.421H182.119V131.472H183.164V132.027ZM186.394 132.027H185.349V133.077H184.789V132.027H183.743V131.472H184.789V130.421H185.349V131.472H186.394V132.027Z" fill="white"/>
<path d="M236.333 234.752C262.719 234.752 284.109 229.737 284.109 223.55C284.109 217.364 262.719 212.349 236.333 212.349C209.948 212.349 188.558 217.364 188.558 223.55C188.558 229.737 209.948 234.752 236.333 234.752Z" fill="#292F3D"/>
<path d="M236.333 230.798C257.297 230.798 274.291 227.406 274.291 223.221C274.291 219.036 257.297 215.643 236.333 215.643C215.369 215.643 198.374 219.036 198.374 223.221C198.374 227.406 215.369 230.798 236.333 230.798Z" stroke="#3A4355" stroke-width="4.38685" stroke-miterlimit="10"/>
<path d="M227.811 219.352C223.074 219.123 218.336 219.896 213.598 220.659C212.115 220.903 210.542 221.732 211.66 223.521C212.276 224.499 213.555 224.79 214.693 224.919C219.606 225.486 224.642 224.861 229.588 224.866" fill="url(#paint8_linear_75_2287)"/>
<path d="M262.813 212.707C263.533 217.153 261.463 223.569 256.654 224.866C254.711 225.391 252.39 225.205 250.367 225.195L243.047 225.143L228.673 225.038C225.513 225.014 222.154 224.933 219.515 223.182C216.383 221.098 214.825 217.249 216.904 213.933C218.695 211.071 222.045 209.34 225.233 208.648C230.582 207.489 236.13 209.025 241.455 208.062C242.326 207.906 243.182 207.677 244.014 207.375C248.813 205.624 253.584 203.21 258.483 206.068C259.643 206.795 260.631 207.765 261.378 208.911C262.126 210.058 262.615 211.353 262.813 212.707Z" fill="url(#paint9_linear_75_2287)"/>
<path d="M223.106 203.144C222.306 202.29 221.818 202.123 221.33 203.339C220.741 204.745 220.431 206.252 220.416 207.776C218.407 208.212 216.529 209.116 214.934 210.413C213.677 209.552 212.261 208.951 210.769 208.643C209.505 208.357 209.348 208.858 209.604 210.003C209.934 211.41 210.349 212.796 210.845 214.153C211.134 215.012 211.4 215.875 211.693 216.729C211.896 217.596 212.282 218.409 212.826 219.114C214.247 220.864 217.009 221.885 219.169 222.171C221.614 222.496 223.907 221.871 225.575 220.001C227.063 218.237 228.052 216.108 228.441 213.833C228.667 212.555 228.557 211.24 228.124 210.017C227.65 208.662 226.665 207.675 225.821 206.54C224.982 205.357 224.076 204.223 223.106 203.144Z" fill="url(#paint10_linear_75_2287)"/>
<path d="M259.209 209.177C263.809 213.59 263.331 218.67 260.787 223.168C257.968 228.153 253.325 231.53 248.147 233.724C242.035 236.319 235.037 237.645 228.49 236.109C227.173 235.799 225.732 235.155 225.348 233.843C224.197 229.979 230.181 230.051 232.313 229.87C236.696 229.493 241.339 229.445 245.579 228.01C250.26 226.435 253.585 223.077 255.926 218.78" fill="url(#paint11_linear_75_2287)"/>
<path d="M262.544 216.285C262.527 214.197 261.825 212.172 260.544 210.523C257.29 206.402 250.955 206.273 246.592 208.51C241.584 211.071 240.792 217.86 242.754 222.639C242.844 222.858 241.001 222.796 240.859 222.806C239.537 222.901 236.799 222.648 236.268 224.28C236.122 224.863 236.189 225.479 236.458 226.017C236.726 226.553 237.178 226.974 237.732 227.203C238.195 227.329 238.675 227.379 239.153 227.352H249.439C252.121 227.352 254.148 226.875 255.759 224.552C256.593 223.354 257.228 222.014 258.128 220.855" fill="url(#paint12_linear_75_2287)"/>
<path d="M222.609 217.807C222.722 218.011 222.771 218.245 222.749 218.477C222.727 218.709 222.635 218.93 222.485 219.109C222.374 219.242 222.234 219.348 222.075 219.419C221.916 219.49 221.744 219.523 221.57 219.517C221.396 219.51 221.227 219.464 221.074 219.382C220.921 219.299 220.789 219.183 220.687 219.042C220.585 218.901 220.517 218.738 220.487 218.566C220.457 218.394 220.466 218.218 220.515 218.05C220.563 217.882 220.648 217.728 220.765 217.598C220.882 217.468 221.026 217.367 221.188 217.301C221.314 217.24 221.451 217.205 221.591 217.197C221.732 217.189 221.872 217.21 222.004 217.257C222.136 217.304 222.258 217.377 222.362 217.471C222.465 217.566 222.549 217.68 222.609 217.807Z" fill="url(#paint13_linear_75_2287)"/>
<path d="M227.437 208.562C227.612 208.858 227.83 209.111 228.033 209.397C228.143 209.545 228.237 209.706 228.313 209.874C228.386 210.041 228.445 210.213 228.488 210.389C228.569 210.721 228.63 211.057 228.673 211.395C228.733 211.74 228.776 212.087 228.801 212.435C228.902 213.864 228.697 215.299 228.2 216.642C227.699 217.976 226.913 219.184 225.897 220.182C225.395 220.676 224.833 221.106 224.225 221.46C223.914 221.634 223.583 221.767 223.239 221.856C222.896 221.942 222.538 221.942 222.196 221.856C222.856 221.785 223.475 221.504 223.964 221.055C224.469 220.631 224.935 220.164 225.356 219.657C226.192 218.651 226.855 217.513 227.318 216.29C227.783 215.068 228.047 213.779 228.1 212.474V211.491C228.106 211.157 228.094 210.822 228.062 210.489C228.051 210.328 228.027 210.169 227.991 210.012C227.953 209.848 227.899 209.689 227.83 209.536C227.671 209.223 227.539 208.898 227.437 208.562Z" fill="url(#paint14_linear_75_2287)"/>
<defs>
<linearGradient id="paint0_linear_75_2287" x1="5858.01" y1="9.28399" x2="5904.41" y2="9.28399" gradientUnits="userSpaceOnUse">
<stop stop-color="#FF7A01"/>
<stop offset="1" stop-color="#FEB800"/>
</linearGradient>
<linearGradient id="paint1_linear_75_2287" x1="619.602" y1="77.8182" x2="619.679" y2="77.8182" gradientUnits="userSpaceOnUse">
<stop stop-color="#FF7A01"/>
<stop offset="1" stop-color="#FEB800"/>
</linearGradient>
<linearGradient id="paint2_linear_75_2287" x1="2000.41" y1="18961.9" x2="7839.23" y2="18961.9" gradientUnits="userSpaceOnUse">
<stop stop-color="#258EE8"/>
<stop offset="1" stop-color="#2AB5ED"/>
</linearGradient>
<linearGradient id="paint3_linear_75_2287" x1="62.0396" y1="151.235" x2="119.867" y2="151.235" gradientUnits="userSpaceOnUse">
<stop stop-color="#258EE8"/>
<stop offset="1" stop-color="#2AB5ED"/>
</linearGradient>
<linearGradient id="paint4_linear_75_2287" x1="80.8931" y1="153.2" x2="138.99" y2="153.2" gradientUnits="userSpaceOnUse">
<stop stop-color="#258EE8"/>
<stop offset="1" stop-color="#2AB5ED"/>
</linearGradient>
<linearGradient id="paint5_linear_75_2287" x1="55.9233" y1="185.712" x2="85.6391" y2="185.712" gradientUnits="userSpaceOnUse">
<stop stop-color="#258EE8"/>
<stop offset="1" stop-color="#2AB5ED"/>
</linearGradient>
<linearGradient id="paint6_linear_75_2287" x1="10343.2" y1="-4894.75" x2="15179.1" y2="-4894.75" gradientUnits="userSpaceOnUse">
<stop stop-color="#FB8133"/>
<stop offset="1" stop-color="#FFBA08"/>
</linearGradient>
<linearGradient id="paint7_linear_75_2287" x1="10234.1" y1="5344.19" x2="15070.1" y2="5344.19" gradientUnits="userSpaceOnUse">
<stop stop-color="#258EE8"/>
<stop offset="1" stop-color="#2AB5ED"/>
</linearGradient>
<linearGradient id="paint8_linear_75_2287" x1="5918.29" y1="-2009.06" x2="6503.43" y2="-2009.06" gradientUnits="userSpaceOnUse">
<stop stop-color="#FB8133"/>
<stop offset="1" stop-color="#FFBA08"/>
</linearGradient>
<linearGradient id="paint9_linear_75_2287" x1="14744.2" y1="-7461.65" x2="18600.5" y2="-7461.65" gradientUnits="userSpaceOnUse">
<stop stop-color="#FB8133"/>
<stop offset="1" stop-color="#FFBA08"/>
</linearGradient>
<linearGradient id="paint10_linear_75_2287" x1="6077.56" y1="-7292.57" x2="6711.57" y2="-7292.57" gradientUnits="userSpaceOnUse">
<stop stop-color="#FB8133"/>
<stop offset="1" stop-color="#FFBA08"/>
</linearGradient>
<linearGradient id="paint11_linear_75_2287" x1="12485.6" y1="-9696.2" x2="14939.8" y2="-9696.2" gradientUnits="userSpaceOnUse">
<stop stop-color="#FB8133"/>
<stop offset="1" stop-color="#FFBA08"/>
</linearGradient>
<linearGradient id="paint12_linear_75_2287" x1="9455.59" y1="-7314.67" x2="10668.1" y2="-7314.67" gradientUnits="userSpaceOnUse">
<stop stop-color="#FB8133"/>
<stop offset="1" stop-color="#FFBA08"/>
</linearGradient>
<linearGradient id="paint13_linear_75_2287" x1="5794.5" y1="-769.394" x2="5837.24" y2="-769.394" gradientUnits="userSpaceOnUse">
<stop stop-color="#FF7A01"/>
<stop offset="1" stop-color="#FEB800"/>
</linearGradient>
<linearGradient id="paint14_linear_75_2287" x1="41166.3" y1="-4833.61" x2="42246.1" y2="-4833.61" gradientUnits="userSpaceOnUse">
<stop stop-color="#FF7A01"/>
<stop offset="1" stop-color="#FEB800"/>
</linearGradient>
</defs>
</svg>
