<svg width="159" height="117" viewBox="0 0 159 117" fill="none" xmlns="http://www.w3.org/2000/svg">
<path d="M0 10C0 4.47715 4.47715 0 10 0H159V47C159 85.6599 127.66 117 89 117H0V10Z" fill="#15171F"/>
<path fill-rule="evenodd" clip-rule="evenodd" d="M48.1641 69.3054V44.7897C48.1641 43.7639 48.6728 43.4562 48.6728 43.4562L48.6873 43.4636C49.3843 42.1037 72.1849 30.5316 72.1849 30.5316C75.1806 28.8391 77.9501 30.5316 77.9501 30.5316C98.6455 40.7635 101.272 43.061 101.499 43.5702L101.519 43.5591C102.421 44.0702 101.694 70.8664 101.689 71.0486L101.69 71.0492C102.086 71.7673 77.7249 84.0252 77.7249 84.0252C75.0119 85.6151 72.4119 84.0252 72.4119 84.0252C72.4119 84.0252 51.8945 72.8956 50.0293 71.9724C48.1641 71.0492 48.1641 69.3054 48.1641 69.3054ZM75.4632 40.738C65.0918 40.2991 59.8806 48.1587 59.3924 48.9341L59.4119 48.944C54.3815 58.2272 59.2423 65.1511 59.2423 65.1511C66.7032 75.1523 77.1032 74.7933 83.4901 71.9724C88.3313 69.8453 90.4617 66.134 90.8341 65.4242L82.7788 61.2496C81.1897 63.6342 78.3231 65.2538 75.0103 65.2538C70.0364 65.2538 65.9668 61.5611 65.9668 57.0477C65.9668 55.6365 66.3489 54.3244 67.0593 53.16L67.0391 53.1495C68.6217 50.739 71.5043 49.0977 74.8391 49.0977C78.3095 49.0977 81.3397 50.8955 82.8545 53.5153L90.8827 49.2329C90.6329 48.8027 86.0635 41.1865 75.4632 40.738ZM91.3455 56.176H93.5498V58.2788H91.3455V60.3816H88.9716V58.2788H86.7107V56.176H88.9716V54.1757H91.3455V56.176ZM99.0324 56.176H101.237V58.2788H99.0324V60.3816H96.6585V58.2788H94.3977V56.176H96.6585V54.1757H99.0324V56.176Z" fill="url(#paint0_linear_14_598)"/>
<defs>
<linearGradient id="paint0_linear_14_598" x1="96.3977" y1="29.7794" x2="50.6622" y2="29.7794" gradientUnits="userSpaceOnUse">
<stop stop-color="#F24F60"/>
<stop offset="1" stop-color="#A5066C"/>
</linearGradient>
</defs>
</svg>
