<svg width="159" height="117" viewBox="0 0 159 117" fill="none" xmlns="http://www.w3.org/2000/svg">
<path d="M0 10C0 4.47715 4.47715 0 10 0H159V47C159 85.6599 127.66 117 89 117H0V10Z" fill="#15171F"/>
<path d="M72.072 29.6375C71.8995 29.6591 71.2205 29.7345 70.5631 29.7992C67.2111 30.1333 64.6244 30.9632 63.4604 32.1057C62.8245 32.72 62.4688 33.3775 62.2102 34.369C62.0161 35.1235 61.9946 35.5654 61.9946 38.5401V41.8597H74.9281V43.4656L65.2603 43.498C56.2499 43.5303 55.5386 43.5519 54.8811 43.7351C52.1435 44.5111 50.1604 46.3757 49.2335 49.0378C48.6407 50.7407 48.1234 53.6939 48.0156 55.9249C47.8755 59.1152 48.6946 63.5665 49.8694 65.9808C50.3867 67.0262 50.6023 67.328 51.3029 68.0394C51.7987 68.5351 52.3914 69.0094 52.7902 69.2141C53.9758 69.8285 54.45 69.9039 57.4786 69.9578L60.2486 70.0117L60.3025 66.4227C60.3456 63.1354 60.3671 62.7582 60.5827 62.036C61.5096 58.8781 64.0101 56.5932 67.168 56.0219C67.7931 55.9142 69.593 55.8818 75.1437 55.871C81.1362 55.871 82.4188 55.8387 83.0008 55.7094C85.2534 55.1705 87.215 53.1981 87.8078 50.8593C88.0557 49.9001 88.0449 36.2875 87.8078 35.3498C87.5383 34.3044 86.9132 33.2589 86.0833 32.4182C84.0247 30.3596 81.5458 29.7022 75.467 29.6267C73.7749 29.6052 72.2552 29.616 72.072 29.6375ZM68.6338 33.7655C69.4422 34.1319 70.0781 35.1235 70.0781 36.0396C70.0781 37.3438 68.914 38.5185 67.6315 38.5185C67.1141 38.5185 66.392 38.2168 65.9932 37.8395C64.9909 36.8911 64.9693 35.2421 65.9393 34.272C66.6291 33.5822 67.7608 33.3667 68.6338 33.7655V33.7655Z" fill="url(#paint0_linear_904_2823)"/>
<path d="M89.5857 46.9037C89.5857 49.9754 89.5642 50.4281 89.3702 51.1933C88.7881 53.5106 87.2038 55.5045 85.059 56.6146C83.4207 57.4661 83.9812 57.4122 75.251 57.4877C66.661 57.5631 67.0275 57.5308 65.5509 58.2529C64.5916 58.7271 63.2552 60.0744 62.7271 61.0983C61.9834 62.5425 61.9942 62.3701 61.9942 70.3242C61.9942 78.1598 61.9834 78.0196 62.6408 79.2483C63.0504 80.0136 64.333 81.2854 65.2599 81.8243C68.0298 83.4733 72.7398 84.4325 76.4689 84.12C81.3945 83.7104 85.4901 82.029 86.9774 79.8088C87.8828 78.4508 87.9043 78.3214 87.9475 74.7539L87.9798 71.6068H74.9277V69.9901H84.8219C90.5881 69.9901 95.007 69.947 95.4274 69.8823C97.9171 69.5158 99.4044 67.9423 100.719 64.2239C101.291 62.6395 101.517 61.7773 101.765 60.333C102.077 58.5547 102.077 55.9464 101.765 53.8555C100.816 47.3456 99.0595 44.3062 95.8477 43.6272C95.3411 43.5194 94.328 43.4763 92.3664 43.4763H89.5857V46.9037ZM83.2052 75.1204C84.477 75.6485 85.0805 77.1466 84.5093 78.3969C84.0674 79.3669 83.3453 79.8411 82.3106 79.8411C80.8448 79.8411 79.8101 78.731 79.9071 77.2544C80.0149 75.5731 81.6962 74.4845 83.2052 75.1204Z" fill="url(#paint1_linear_904_2823)"/>
<defs>
<linearGradient id="paint0_linear_904_2823" x1="48" y1="70.0117" x2="87.9897" y2="70.0117" gradientUnits="userSpaceOnUse">
<stop stop-color="#258EE8"/>
<stop offset="1" stop-color="#2AB5ED"/>
</linearGradient>
<linearGradient id="paint1_linear_904_2823" x1="61.9941" y1="84.1787" x2="101.999" y2="84.1787" gradientUnits="userSpaceOnUse">
<stop stop-color="#258EE8"/>
<stop offset="1" stop-color="#2AB5ED"/>
</linearGradient>
</defs>
</svg>
