<svg width="34" height="23" viewBox="0 0 34 23" fill="none" xmlns="http://www.w3.org/2000/svg">
<path d="M33.15 18.4011C33.15 18.9774 33.1495 19.4378 33.1193 19.8326C33.0892 20.2256 33.0329 20.4956 32.9498 20.695C32.8217 21.0025 32.57 21.3028 31.656 21.5465C30.6996 21.8015 29.1964 21.9431 26.803 22.014C24.428 22.0844 21.2556 22.0845 17 22.0845C12.7444 22.0845 9.57203 22.0844 7.19705 22.014C4.8036 21.9431 3.30036 21.8015 2.34401 21.5465C1.43004 21.3028 1.17835 21.0025 1.05024 20.695C0.967147 20.4956 0.910802 20.2256 0.880725 19.8326C0.850511 19.4378 0.85 18.9774 0.85 18.4011C0.85 9.48172 8.0806 2.25112 17 2.25112C25.9194 2.25112 33.15 9.48172 33.15 18.4011Z" stroke="white" stroke-width="1.7"/>
<rect x="25.8018" width="6.8" height="6.8" transform="rotate(41.8523 25.8018 0)" fill="#08090C"/>
<path d="M14.4831 16.3822C14.7613 16.6608 15.0917 16.8817 15.4554 17.0325C15.8191 17.1833 16.2089 17.2609 16.6026 17.2609C16.9963 17.2609 17.3861 17.1833 17.7498 17.0325C18.1135 16.8817 18.4439 16.6608 18.7221 16.3822L27.2001 3.66528L14.4831 12.1433C14.2046 12.4215 13.9836 12.7519 13.8328 13.1156C13.6821 13.4792 13.6045 13.8691 13.6045 14.2627C13.6045 14.6564 13.6821 15.0463 13.8328 15.4099C13.9836 15.7736 14.2046 16.104 14.4831 16.3822Z" fill="url(#paint0_linear_271_3539)"/>
<defs>
<linearGradient id="paint0_linear_271_3539" x1="13.6045" y1="10.4631" x2="27.2001" y2="10.4631" gradientUnits="userSpaceOnUse">
<stop stop-color="#FB8530"/>
<stop offset="1" stop-color="#FEB50B"/>
</linearGradient>
</defs>
</svg>
