<svg width="63" height="27" viewBox="0 0 63 27" fill="none" xmlns="http://www.w3.org/2000/svg">
<rect width="62.9477" height="26.7051" rx="1.90751" fill="url(#paint0_linear_658_2774)"/>
<path d="M30.5186 17.7224V9.11575H32.0935V16.3917H36.1465V17.7224H30.5186ZM37.2278 17.7224V11.5574H38.7538V17.7224H37.2278ZM37.1424 10.3976V8.90821H38.8393V10.3976H37.1424ZM42.2177 17.7224L39.5564 11.5574H41.1801L43.1089 16.3795H42.7305L44.7082 11.5574H46.2342L43.5606 17.7224H42.2177ZM49.911 17.8445C49.2192 17.8445 48.6251 17.7183 48.1286 17.466C47.6403 17.2056 47.2619 16.8353 46.9933 16.3551C46.7328 15.8749 46.6026 15.3052 46.6026 14.646C46.6026 14.003 46.7288 13.4415 46.9811 12.9613C47.2334 12.4811 47.5833 12.1067 48.031 11.8381C48.4867 11.5696 49.0157 11.4353 49.618 11.4353C50.2121 11.4353 50.7086 11.5614 51.1074 11.8137C51.5062 12.066 51.8073 12.4201 52.0108 12.8758C52.2224 13.3316 52.3282 13.8647 52.3282 14.4751V14.8779H47.8356V14.0722H51.2417L51.0341 14.2431C51.0341 13.6734 50.9121 13.238 50.6679 12.9369C50.4319 12.6357 50.086 12.4852 49.6302 12.4852C49.2884 12.4852 48.9995 12.5666 48.7634 12.7293C48.5356 12.8921 48.3606 13.1241 48.2385 13.4252C48.1164 13.7263 48.0554 14.0926 48.0554 14.5239V14.6826C48.0554 15.35 48.2182 15.8505 48.5437 16.1842C48.8774 16.5097 49.3454 16.6725 49.9476 16.6725C50.2976 16.6725 50.6231 16.6278 50.9243 16.5382C51.2335 16.4406 51.5265 16.2859 51.8032 16.0743L52.2549 17.0998C51.962 17.3358 51.612 17.5189 51.2051 17.6492C50.7981 17.7794 50.3668 17.8445 49.911 17.8445Z" fill="white"/>
<path d="M10.9232 7.85042C10.8595 7.78153 10.7837 7.72662 10.7 7.68883C10.6163 7.65104 10.5264 7.6311 10.4354 7.63016C10.3445 7.62922 10.2542 7.6473 10.1698 7.68336C10.0855 7.71941 10.0086 7.77274 9.94369 7.8403C9.20926 8.61453 8.62667 9.5353 8.22954 10.5495C7.83242 11.5637 7.62861 12.6512 7.62989 13.7493C7.6287 14.8896 7.84854 16.0179 8.27577 17.0643C8.70301 18.1107 9.32851 19.0529 10.1135 19.8323C10.2456 19.9617 10.4201 20.0315 10.5999 20.0268C10.7798 20.0221 10.9508 19.9432 11.0768 19.807C11.3781 19.4874 11.3409 18.9787 11.051 18.6844C10.421 18.0479 9.91974 17.2821 9.57756 16.4337C9.23538 15.5853 9.05947 14.672 9.06052 13.7493C9.06052 11.8825 9.76725 10.1895 10.9137 8.95779C11.1902 8.65945 11.2189 8.16392 10.9232 7.85042V7.85042Z" fill="white"/>
<path d="M12.6031 9.6324C12.4775 9.49535 12.3058 9.4167 12.1256 9.41367C11.9454 9.41063 11.7714 9.48347 11.6418 9.61622C11.1256 10.1563 10.7159 10.7999 10.4366 11.5095C10.1573 12.219 10.0138 12.9804 10.0147 13.7494C10.0147 15.4605 10.7109 16.9986 11.8201 18.0615C11.951 18.1841 12.1214 18.2486 12.2959 18.2417C12.4705 18.2347 12.6358 18.1568 12.7576 18.0241C13.0705 17.6924 13.0123 17.1706 12.7185 16.8773C12.3159 16.4759 11.9951 15.9913 11.7761 15.4533C11.5571 14.9153 11.4445 14.3353 11.4453 13.7494C11.4453 12.5864 11.8811 11.5306 12.5898 10.7559C12.8626 10.4586 12.9074 9.95399 12.6031 9.6324Z" fill="white"/>
<path d="M17.9166 9.6324C18.0422 9.49535 18.2139 9.4167 18.3942 9.41367C18.5744 9.41063 18.7484 9.48347 18.878 9.61622C19.3941 10.1563 19.8038 10.7999 20.0832 11.5095C20.3625 12.2191 20.5059 12.9805 20.5051 13.7494C20.5051 15.4605 19.8089 16.9987 18.6996 18.0616C18.5687 18.1842 18.3984 18.2487 18.2238 18.2417C18.0493 18.2348 17.8839 18.1569 17.7621 18.0241C17.4493 17.6924 17.5075 17.1706 17.8012 16.8773C18.2039 16.476 18.5246 15.9913 18.7436 15.4533C18.9626 14.9153 19.0752 14.3354 19.0745 13.7494C19.0745 12.5864 18.6386 11.5306 17.93 10.7559C17.6572 10.4586 17.6124 9.95399 17.9166 9.6324V9.6324Z" fill="white"/>
<path d="M19.5964 7.85042C19.66 7.78153 19.7359 7.72662 19.8196 7.68883C19.9033 7.65104 19.9932 7.6311 20.0841 7.63016C20.1751 7.62922 20.2653 7.6473 20.3497 7.68336C20.4341 7.71941 20.5109 7.77274 20.5759 7.8403C21.3103 8.61453 21.8929 9.5353 22.29 10.5495C22.6871 11.5637 22.8909 12.6512 22.8897 13.7493C22.8908 14.8896 22.671 16.0179 22.2438 17.0643C21.8165 18.1107 21.191 19.0529 20.4061 19.8323C20.274 19.9617 20.0995 20.0315 19.9196 20.0268C19.7397 20.0221 19.5687 19.9432 19.4428 19.807C19.1414 19.4874 19.1786 18.9787 19.4695 18.6844C20.0993 18.0478 20.6004 17.282 20.9424 16.4336C21.2844 15.5852 21.4602 14.672 21.459 13.7493C21.459 11.8825 20.7523 10.1895 19.6059 8.95779C19.3293 8.65945 19.3007 8.16392 19.5964 7.85042Z" fill="white"/>
<path d="M15.2597 12.2324C14.8803 12.2324 14.5164 12.3922 14.2481 12.6767C13.9798 12.9612 13.8291 13.347 13.8291 13.7494C13.8291 14.1517 13.9798 14.5375 14.2481 14.822C14.5164 15.1065 14.8803 15.2663 15.2597 15.2663C15.6392 15.2663 16.003 15.1065 16.2713 14.822C16.5396 14.5375 16.6904 14.1517 16.6904 13.7494C16.6904 13.347 16.5396 12.9612 16.2713 12.6767C16.003 12.3922 15.6392 12.2324 15.2597 12.2324Z" fill="white"/>
<defs>
<linearGradient id="paint0_linear_658_2774" x1="4.68997e-07" y1="13.3525" x2="62.9477" y2="13.3525" gradientUnits="userSpaceOnUse">
<stop stop-color="#FF6E3F"/>
<stop offset="1" stop-color="#FF5634"/>
</linearGradient>
</defs>
</svg>
