<svg width="60" height="60" viewBox="0 0 60 60" fill="none" xmlns="http://www.w3.org/2000/svg">
<path d="M23.6516 59.2748C23.6516 59.2749 23.6515 59.2749 23.6514 59.275C23.3322 59.5909 22.9161 59.75 22.5 59.75C22.0841 59.75 21.6682 59.591 21.349 59.2754C20.9168 58.8413 15.6369 53.5147 10.4655 46.3536C7.87846 42.7713 5.32228 38.7349 3.41364 34.6264C1.5039 30.5154 0.25 26.3483 0.25 22.5C0.25 10.2293 10.2293 0.25 22.5 0.25C34.7707 0.25 44.75 10.2293 44.75 22.5C44.75 23.229 44.7056 23.9945 44.5772 24.7573L44.5771 24.7579C44.4316 25.6373 43.5814 26.2292 42.7042 26.0895C41.8173 25.9395 41.2233 25.1014 41.3728 24.2179L41.3729 24.2168C41.4696 23.6294 41.5 23.0451 41.5 22.5C41.5 12.0232 32.9768 3.5 22.5 3.5C12.0232 3.5 3.5 12.0232 3.5 22.5C3.5 28.5381 7.1083 35.6241 11.2385 41.7678C15.3769 47.9237 20.0744 53.1838 22.3175 55.5808L22.5001 55.776L22.6826 55.5808C23.333 54.8853 24.1896 53.946 25.1737 52.8192C25.7736 52.1449 26.7979 52.0785 27.4694 52.6621C28.1459 53.2543 28.2165 54.2813 27.6256 54.9566L27.6252 54.9571C26.4595 56.2968 25.4652 57.3771 24.7626 58.1222C24.4114 58.4948 24.133 58.7835 23.9427 58.9789C23.8476 59.0766 23.7744 59.1509 23.7252 59.2008L23.6694 59.257L23.6554 59.271L23.652 59.2745L23.6516 59.2748Z" fill="white" stroke="white" stroke-width="0.5"/>
<path d="M11.5 22.5C11.5 16.4356 16.4356 11.5 22.5 11.5C28.5644 11.5 33.5 16.4356 33.5 22.5C33.5 28.5644 28.5644 33.5 22.5 33.5C16.4356 33.5 11.5 28.5644 11.5 22.5ZM14.75 22.5C14.75 26.7743 18.2257 30.25 22.5 30.25C26.7743 30.25 30.25 26.7743 30.25 22.5C30.25 18.2257 26.7743 14.75 22.5 14.75C18.2257 14.75 14.75 18.2257 14.75 22.5Z" fill="white" stroke="white" stroke-width="0.5"/>
<path d="M43.026 59.2105C34.1023 59.2105 26.8418 51.95 26.8418 43.0263C26.8418 34.1025 34.1023 26.842 43.026 26.842C51.9497 26.842 59.2102 34.1025 59.2102 43.0263C59.2102 51.95 51.9497 59.2105 43.026 59.2105ZM43.026 29.3319C35.4742 29.3319 29.3317 35.4769 29.3317 43.0263C29.3317 50.5756 35.4742 56.7206 43.026 56.7206C50.5778 56.7206 56.7203 50.5756 56.7203 43.0263C56.7203 35.4769 50.5778 29.3319 43.026 29.3319Z" fill="url(#paint0_linear)"/>
<path d="M40.9858 48.5012C40.6559 48.5012 40.336 48.372 40.101 48.1454L35.1019 43.2714C34.6145 42.7962 34.6145 42.0236 35.1019 41.5484C35.5893 41.0732 36.3817 41.0732 36.8691 41.5484L40.9233 45.5012L48.7919 36.7329C49.2469 36.2236 50.0367 36.1748 50.5566 36.6184C51.0765 37.0619 51.129 37.8295 50.6741 38.3364L41.9257 48.0845C41.6982 48.3379 41.3708 48.489 41.0258 48.5012C41.0133 48.5012 40.9983 48.5012 40.9858 48.5012Z" fill="white"/>
<defs>
<linearGradient id="paint0_linear" x1="26.8418" y1="59.2105" x2="59.2102" y2="59.2105" gradientUnits="userSpaceOnUse">
<stop stop-color="#FB8133"/>
<stop offset="1" stop-color="#FFBA08"/>
</linearGradient>
</defs>
</svg>
