<svg width="30" height="33" viewBox="0 0 30 33" fill="none" xmlns="http://www.w3.org/2000/svg">
<path d="M15.0645 0C6.942 0 0.362793 6.4456 0.362793 14.59C0.362793 20.3528 3.66052 25.3435 8.46091 27.7738V30.3992C8.46091 31.6997 9.51683 32.7563 10.8164 32.7563C14.1359 32.7563 17.0487 32.7563 19.3207 32.7563C20.6203 32.7563 21.6762 31.6997 21.6762 30.3992V27.7738C26.4766 25.3435 29.7743 20.3528 29.7743 14.59C29.7662 6.4456 23.187 0 15.0645 0ZM20.401 26.961V30.2772C20.401 31.0575 19.7593 31.6997 18.9795 31.6997H11.0439C10.2641 31.6997 9.62242 31.0575 9.62242 30.2772V26.9528C4.79767 24.9046 1.41872 20.1984 1.41872 14.7119C1.41872 7.34782 7.51058 1.38178 15.0239 1.38178C22.5372 1.38178 28.629 7.34782 28.629 14.7119C28.629 20.2065 25.242 24.9208 20.401 26.961Z" fill="white"/>
<path d="M23.1537 12.6045C23.1537 12.6045 25.9884 12.2793 26.8494 14.6121C27.7104 16.9449 26.0534 18.278 26.0534 18.278C26.0534 18.278 26.1184 17.0425 24.6482 16.0752L25.2574 15.1323C25.2574 15.1323 25.4198 14.3845 24.9081 14.8397L24.2665 15.5794C24.2665 15.5794 24.4939 13.9944 23.1537 12.6045ZM25.4198 12.3119C25.4198 12.3119 24.0471 11.7916 22.6176 12.1818C22.6176 12.1818 21.7566 11.6291 20.8956 11.6941C20.8956 11.6941 20.6113 9.94655 19.2386 9.55639C19.2386 9.55639 19.3686 8.28839 18.9543 8.41844C18.9543 8.41844 19.263 8.03642 19.7422 7.89824C20.2296 7.76006 20.8794 7.87385 21.5373 8.30465C22.845 9.16624 22.049 10.7512 22.049 10.7512L22.1952 10.9788C22.1952 10.9788 22.8775 11.1739 22.8775 9.0687C22.8694 9.0687 25.6067 8.84111 25.4198 12.3119ZM18.6619 9.28003C18.6619 9.28003 17.8984 8.88988 16.7938 9.4426C16.7938 9.4426 16.5257 9.4426 16.2496 9.29629C16.2496 9.29629 14.5926 7.01226 15.3723 8.98742C15.3723 8.98742 13.8453 8.92239 13.3336 9.5889L12.7406 8.88988C12.7406 8.88988 12.3751 8.47534 12.9193 7.77631C12.9193 7.77631 13.7478 6.7359 14.7875 6.57334C15.8272 6.41077 16.7125 6.70339 16.7125 6.70339C16.7125 6.70339 18.2964 7.19108 18.6619 9.28003ZM12.0827 11.2064L12.6269 10.2798C12.6269 10.2798 12.6919 9.67831 12.3508 9.32067C12.0096 8.96303 11.6603 8.65416 11.6603 8.65416C11.6603 8.65416 10.7669 7.90637 9.41042 8.65416C9.41042 8.65416 8.86621 9.07683 8.58192 9.58078C8.58192 9.58078 8.56568 9.93842 8.84996 10.0685C8.84996 10.0685 9.39417 10.9219 8.40323 10.4586C7.41228 9.98719 7.24171 10.0685 7.24171 10.0685C7.24171 10.0685 5.68219 9.85714 5.18672 11.7348C4.69125 13.6124 7.0224 14.4089 7.65596 14.3277C7.66408 14.3358 7.54224 9.98719 12.0827 11.2064Z" fill="white"/>
<path d="M19.8719 18.1641C19.8719 18.1641 22.7554 18.9119 23.6326 15.7013C23.6326 15.7013 24.1931 12.4419 20.4811 12.3118C20.4811 12.3118 19.7988 8.69482 16.6392 10.1741C16.6392 10.1741 15.2177 8.70295 13.3252 10.2879C13.3252 10.2879 16.7691 9.52389 16.8585 13.5148L17.3377 13.8806C17.3377 13.8806 18.7429 11.3283 20.2537 14.1813C20.2537 14.1813 21.3827 14.0675 21.8619 14.5552C22.3412 15.0429 21.4802 15.1729 21.4477 14.9779C21.4152 14.7828 20.7816 14.5389 20.4892 14.7015C20.4892 14.7015 20.5055 16.7904 19.9613 17.4569C19.4252 18.1153 19.8719 18.1641 19.8719 18.1641Z" fill="white"/>
<path d="M23.9495 16.6361C23.9495 16.6361 23.3403 18.5787 21.0335 18.7738C21.0335 18.7738 20.3675 19.7004 18.9461 20.2612C18.9461 20.2612 18.5806 22.4476 20.9036 22.2526C20.9036 22.2526 22.8611 21.8137 21.9433 19.8873L22.2925 19.5297C22.2925 19.5297 22.788 19.9036 22.723 20.6676C22.723 20.6676 22.723 21.0252 23.4053 20.7814C24.0876 20.5376 24.7212 20.1962 25.1192 19.5784C25.5172 18.9607 25.7121 17.5383 24.5181 16.628C24.5262 16.6361 24.047 16.1322 23.9495 16.6361ZM17.9876 15.2137V16.2622C17.9876 16.2622 17.6302 17.1644 17.484 16.2622C17.3378 15.36 17.0535 14.7097 17.0535 14.7097C17.0535 14.7097 16.0463 12.629 14.0888 13.8969C12.1313 15.1649 12.773 17.6927 12.773 17.6927C12.773 17.6927 13.4634 18.977 14.7549 18.2373C14.7549 18.2373 15.0148 18.1317 14.7305 17.5952C14.4462 17.0588 14.5193 16.7905 14.5193 16.7905C14.5193 16.7905 14.4218 15.8639 15.1204 16.6686C15.1204 16.6686 15.3803 18.3186 17.1023 18.66C18.8242 19.0014 19.7989 16.2297 19.8233 15.742C19.8477 15.2543 19.8395 14.1733 18.9461 13.4743C18.9461 13.4743 17.9551 13.263 17.8414 14.157C17.7196 15.0674 17.9876 15.2137 17.9876 15.2137Z" fill="white"/>
<path d="M20.2297 18.8062C20.2297 18.8062 19.6205 18.8062 19.06 18.5136C19.06 18.5136 16.9319 20.1636 15.543 18.5136C15.543 18.5136 14.2759 19.489 13.5611 19.2207C13.5611 19.2207 14.2921 24.2276 18.4915 21.5291L18.3371 20.4155C18.3371 20.4155 17.8335 21.017 16.1116 20.6269C16.1116 20.6269 15.1775 20.3587 16.2415 20.2123C16.2497 20.2205 18.2234 20.5375 20.2297 18.8062ZM13.0575 20.4237C13.0575 20.4237 11.9366 20.5131 11.6036 20.2936C11.2706 20.0742 10.9619 20.4237 10.9619 20.4237C10.9619 20.4237 10.1253 20.8545 9.67045 21.0252C9.21559 21.1958 10.2715 21.9517 10.2715 21.9517C10.2715 21.9517 11.8229 23.049 13.3337 21.8054C13.3337 21.8054 13.9591 21.5372 13.5692 21.1471C13.1794 20.7569 13.0575 20.4237 13.0575 20.4237ZM12.9925 18.8062V19.6596C12.9925 19.6596 12.822 19.9766 12.489 19.8303C12.1559 19.684 12.3671 19.8954 11.1 19.3426C11.1 19.3426 9.42678 21.1958 7.94849 19.871C6.4702 18.5461 7.32306 17.3513 7.30681 17.4488C7.28245 17.5464 7.68857 16.4735 8.33837 16.2296C8.33837 16.2296 9.6867 17.7333 11.628 17.1806C11.628 17.1806 12.1153 17.0343 12.1153 17.5951C12.1072 18.156 12.7489 18.7574 12.9925 18.8062Z" fill="white"/>
<path d="M16.2494 12.8727C16.2494 12.8727 15.3803 9.12565 12.4887 11.8973C12.4887 11.8973 12.31 12.1656 11.6196 11.7266C10.9292 11.2877 9.37782 11.8729 9.37782 11.8729C9.37782 11.8729 7.63148 12.8483 8.395 15.1323C8.395 15.1323 9.16663 17.0262 11.6115 16.6604C11.6115 16.6604 11.6277 16.5954 12.0745 16.6604C12.0745 16.6604 11.9851 16.2459 12.2207 15.5225C12.2207 15.5225 12.6106 15.0348 12.2207 14.8397C12.2207 14.8397 11.8552 13.7912 10.5637 14.035C10.5637 14.035 9.67835 13.8562 10.5881 13.4498C11.4978 13.0353 12.7649 14.3358 12.7649 14.3358C12.7649 14.3358 14.365 12.3119 15.8271 12.9702C15.8352 12.9702 16.1195 13.3116 16.2494 12.8727ZM7.63961 14.9941C7.63961 14.9941 8.0701 15.5306 7.87516 15.872C7.87516 15.872 6.96544 16.384 6.68115 17.3513C6.68115 17.3513 6.03948 17.7658 5.7958 18.1072C5.56025 18.4486 5.00792 17.5951 5.00792 17.5951C5.00792 17.5951 3.64334 15.5387 5.34094 13.8968L7.63961 14.9941ZM6.41311 18.286C6.41311 18.286 6.36437 19.9767 8.72802 21.139C8.72802 21.139 7.24973 21.8461 6.41311 20.8952C5.57649 19.9523 6.00698 18.4242 6.41311 18.286ZM14.6818 22.5695C14.6818 22.5695 14.9011 22.9759 15.5347 22.8378V31.8356H14.6818V22.5695Z" fill="white"/>
</svg>
