<svg width="345" height="432" viewBox="0 0 345 432" fill="none" xmlns="http://www.w3.org/2000/svg">
<path d="M242.235 268.463C198.803 326.187 151.649 372.526 110.535 400.787C89.9759 414.919 70.9508 424.515 54.6743 428.765C38.3912 433.017 24.9449 431.9 15.4352 424.745C5.92555 417.59 1.12735 404.979 0.701564 388.156C0.27597 371.339 4.22474 350.4 12.1079 326.73C27.8724 279.396 59.3336 221.249 102.765 163.525C146.197 105.801 193.351 59.4619 234.465 31.2006C255.024 17.0684 274.05 7.47312 290.326 3.22294C306.609 -1.02894 320.055 0.0876921 329.565 7.2428C339.075 14.3979 343.873 27.0085 344.299 43.8322C344.724 60.6491 340.776 81.5878 332.893 105.258C317.128 152.592 285.667 210.738 242.235 268.463Z" stroke="url(#paint0_linear_70_2611)" stroke-opacity="0.8"/>
<defs>
<linearGradient id="paint0_linear_70_2611" x1="113" y1="182" x2="242.634" y2="268.763" gradientUnits="userSpaceOnUse">
<stop stop-color="#FB8530" stop-opacity="0"/>
<stop offset="0.878125" stop-color="#FB8530"/>
<stop offset="1" stop-color="#FEB50B"/>
</linearGradient>
</defs>
</svg>
