<svg width="11" height="14" viewBox="0 0 11 14" fill="none" xmlns="http://www.w3.org/2000/svg">
<path fill-rule="evenodd" clip-rule="evenodd" d="M10.8252 5.4866C10.8252 7.26933 9.96338 8.85077 8.63358 9.83696L5.39648 13.0741L2.05325 9.73082C0.802369 8.73939 0 7.2067 0 5.4866C0 2.49729 2.42331 0.0739746 5.41262 0.0739746C8.40193 0.0739746 10.8252 2.49729 10.8252 5.4866ZM5.47596 7.81691C6.93616 7.81691 8.11989 6.63319 8.11989 5.17298C8.11989 3.71278 6.93616 2.52905 5.47596 2.52905C4.01576 2.52905 2.83203 3.71278 2.83203 5.17298C2.83203 6.63319 4.01576 7.81691 5.47596 7.81691Z" fill="url(#paint0_linear_55_7294)"/>
<defs>
<linearGradient id="paint0_linear_55_7294" x1="8.06544e-08" y1="6.57398" x2="10.8252" y2="6.57398" gradientUnits="userSpaceOnUse">
<stop stop-color="#FB8530"/>
<stop offset="1" stop-color="#FEB50B"/>
</linearGradient>
</defs>
</svg>
