<svg xmlns="http://www.w3.org/2000/svg" height="800" width="1200" version="1.1" id="Layer_1" viewBox="-27.5715 -14.265 238.953 85.59"><defs id="defs4"><style id="style2">.cls-1{fill:#fff}</style></defs><path id="path8" d="M2.71 2.69c0-.46-1.25-1.64-1.64-1.64H0V0h6.23l6.43 16.13h.13L19.55 0h5.57v1.05h-1c-.39 0-1.64 1.18-1.64 1.64v16.07c0 .46 1.25 1.64 1.64 1.64h1v1.06h-8.24V20.4h1.05c.39 0 1.64-1.18 1.64-1.64V3.15l-7.81 18.62L4 2.82v15.87c0 .46 1.25 1.64 1.64 1.64h1.05v1.05H0v-1.05h1c.39 0 1.64-1.18 1.64-1.64z" class="cls-1"/><path id="path10" d="M34.13 12.26c.39-2.16 0-4.06-2.37-4.06-2.75 0-4.13 2.23-4.13 5.44 0 3.21 2 5.64 5.12 5.64a4.35 4.35 0 004.39-2.49H38c-.92 3-2.76 4.92-6.24 4.92-3.86 0-6.36-3.25-6.36-7.25 0-4.46 2.95-7.41 6.63-7.41a6.3 6.3 0 014.92 2l-2 3.15z" class="cls-1"/><path id="path12" d="M62.13 4.26a1.74 1.74 0 001.77-1.8A1.68 1.68 0 0062.13.69a1.81 1.81 0 100 3.61z" class="cls-1"/><path id="path14" d="M81.81 20.33c-.39 0-1.51-1-1.51-1.44v-7.74a3.77 3.77 0 00-3.87-3.94c-2.49 0-3.8 1.45-5.44 3.15l-.53-2.9h-4.39v1h.85c.39 0 1.51 1.05 1.51 1.45v8.85c0 .46-1.12 1.44-1.51 1.44h-1.7c-.4 0-1.51-1-1.51-1.44V7.46h-5v1h.85c.4 0 1.51 1.05 1.51 1.45v8.85c0 .46-1.11 1.44-1.51 1.44H58a7.88 7.88 0 01-2.56-1.74L48 8.59l5.18-5.58a10.16 10.16 0 012.75-2h1V0h-7.74v1.05h1.05c.39 0 1.64 1.44 1.31 1.83l-7.65 8.58V2.69c0-.46 1.24-1.64 1.64-1.64h1V0h-8.28v1.05h1c.39 0 1.64 1.18 1.64 1.64v16.07c0 .46-1.25 1.64-1.64 1.64h-1v1.06h8.33V20.4h-1c-.4 0-1.64-1.18-1.64-1.64v-5.64l2.16-2.37 7.36 10.71h19.88V20.4h-.79c-.39 0-1.51-1-1.51-1.45V11.8c0-.91 2.56-2.88 4.53-2.88a2.13 2.13 0 012.23 2.36v7.61c0 .46-1.12 1.44-1.51 1.44h-.79v1.05h7.09v-1.05z" class="cls-1"/><path id="path16" d="M84.37 16.53c0 1.31 1.9 4.06 4.85 4.06 1.71 0 2.69-.59 2.69-1.9 0-1.57-1.38-2.1-2.62-2.62-1-.4-1.77-.72-2.89-1.25-1.7-.79-3-1.9-3-3.8 0-2.5 1.51-3.94 4.2-3.94 1.51 0 2.36.72 3.41.72.39 0 .65-.06.78-.39h.79v4.26h-.85a4.45 4.45 0 00-4.2-3.6c-1.64 0-2.36.72-2.36 1.83s.85 1.64 2.23 2.23c1.05.46 1.84.79 3 1.25 1.51.59 3.21 1.77 3.21 4 0 2.62-1.84 4.2-4.46 4.2-1.77 0-2.82-.86-4-.86a1.15 1.15 0 00-1.05.46h-.66v-4.85h.86z" class="cls-1"/><path id="path18" d="M94.53 14.46c0-4.13 2.82-7.35 6.37-7.28a4.82 4.82 0 015 4.85l.06 1-9.25.73c0 2.82 2 5.57 5.05 5.57a4.31 4.31 0 004.33-2.49h.91c-.92 3-2.63 4.92-6 4.92-3.91-.05-6.47-3.4-6.47-7.3zm9.12-2.23c.26-2-.07-3.94-2.82-3.94s-4 2.36-4.13 4.53z" class="cls-1"/><path id="path20" d="M108.44 10.1a4.43 4.43 0 00-1.77-1.58h-.59V7.46h7.34v1h-.85c-.39 0-1.25 1-1.25 1.51l3.22 7.49 3.15-7.41a2.09 2.09 0 00-1.18-1.51h-.86V7.46h5.58v1h-.66c-.33 0-1.31 1.05-1.64 1.51l-4.72 10.69-3.48 7.68-1.24-.59 3.67-7.61z" class="cls-1"/><path id="path22" d="M41.34 32.46a4.21 4.21 0 003 3.81c2.75 2.95 6.1 6.1 9 8.72a8.1 8.1 0 001.12-4.53c0-2-1.31-3.15-3.41-3.22v-1h7.61v1h-.86a4.5 4.5 0 00-1.9 2.3 11.06 11.06 0 01-1.83 6 51.21 51.21 0 004.32 3.47h1.32v1h-2.37A7.24 7.24 0 0152 47.88a9.46 9.46 0 01-7 2.58 6.53 6.53 0 01-6.75-6.3 7.85 7.85 0 013.41-6.49A6.62 6.62 0 0140 33.19c0-3.09 2-4.79 5.12-4.79 2 0 3 .65 3.93.65.46 0 .79 0 1-.39h.92v5H50c0-1.44-2.1-4.33-5-4.33-2.28.05-3.66 1.13-3.66 3.13zm-.92 10.24c0 3.08 3.28 6 6.3 6a7.59 7.59 0 004.66-1.44 108.36 108.36 0 01-9.25-9.05 5.82 5.82 0 00-1.71 4.49z" class="cls-1"/><path id="path24" d="M81.61 36.2c0-2.23-2.49-6.69-6.49-6.69-3.67 0-5.9 2-6.3 6.89a38 38 0 00.07 5.44 7.09 7.09 0 007.28 6.82c3.67 0 5.51-1.57 6.89-4.39h1.11a8.73 8.73 0 01-8.66 6.1c-6.16 0-10.1-5-10.1-11.15s3.61-11 9.58-11c2.29 0 3.74.92 5.38.92a1.5 1.5 0 001.31-.59h.79v7.61h-.86z" class="cls-1"/><path id="path26" d="M85.61 43.09c0-4.53 3.22-7.35 6.89-7.35 3.67 0 6.89 2.82 6.89 7.35 0 4.53-3.22 7.37-6.89 7.37a7 7 0 01-6.89-7.37zm11 2.3a18.72 18.72 0 000-4.73c-.26-2.23-1.51-3.74-4.06-3.74s-3.74 1.51-4.07 3.68a18.64 18.64 0 000 4.72c.33 2.16 1.51 3.74 4.07 3.74 2.56 0 3.82-1.51 4.08-3.67z" class="cls-1"/><path id="path28" d="M122 47.46c0 .46 1.05 1.45 1.44 1.45h.66v1h-7v-1h.78c.4 0 1.45-1 1.45-1.45v-7.65a2 2 0 00-2.17-2.3c-1.83 0-4.06 1.78-4.06 2.69v7.26c0 .46 1 1.45 1.44 1.45h.79v1h-7.09v-1h.76c.39 0 1.44-1 1.44-1.45v-7.65a2.06 2.06 0 00-2.23-2.3c-1.84 0-4.07 1.84-4.07 2.82v7.22c0 .46 1.05 1.44 1.45 1.44h.78v1h-7.08v-1h.79c.39 0 1.44-1 1.44-1.44v-8.92c0-.46-1.05-1.44-1.44-1.44h-.79v-1h4.26l.59 2.69c1.58-1.71 2.63-3 5.06-3a3.41 3.41 0 013.67 3c1.7-1.71 2.82-2.89 5.11-2.89a3.69 3.69 0 013.81 3.94v7.53z" class="cls-1"/><path id="path30" d="M128.18 36.14l.46 2.82a5.28 5.28 0 015.05-3.22c3.41 0 5.44 2.82 5.44 7.09s-2.36 7.47-5.7 7.47a4.72 4.72 0 01-4.72-2.75v6.62c0 .46 1.11 1.45 1.44 1.45h.92v1h-7.35v-1h.92c.39 0 1.44-1 1.44-1.45V38.63c0-.46-1.05-1.44-1.44-1.44h-.92v-1zm.46 5v3.72a4 4 0 004 4c2.36 0 3.48-1.51 3.8-3.67a14.29 14.29 0 000-4.13c-.26-2.23-1.5-3.61-3.47-3.61-2.36-.07-3.67 1.57-4.33 3.74z" class="cls-1"/><path id="path32" d="M169.3 48.99c-.39 0-1.5-1-1.5-1.44v-7.74a3.78 3.78 0 00-3.87-3.94c-2.5 0-3.81 1.45-5.45 3.15L158 36.2h-4.4v1h.86c.39 0 1.5 1.05 1.5 1.45v8.81c0 .46-1.11 1.45-1.5 1.45h-1.71c-.39 0-1.51-1-1.51-1.45v-7.52c0-2.75-2.23-4.13-5.18-4.13a7.11 7.11 0 00-5.57 2.16l1.83 2.82h1c-1.05-2.36-.27-3.93 2.09-3.93s3.28 1.11 3.28 3.08v1.71l-3.6.72c-2 .39-4.53 1.38-4.53 4.13a3.63 3.63 0 003.54 3.8c2 0 3.54-1.64 4.66-3.08l.33 2.82h11.8v-1h-.78c-.4 0-1.51-1-1.51-1.44v-7.2c0-.92 2.56-2.89 4.52-2.89a2.14 2.14 0 012.23 2.37v7.58c0 .46-1.11 1.45-1.5 1.45H163v1h7.08v-1h-.79zm-20.66-3c-.59 1-2 2.42-3.41 2.42a2.18 2.18 0 01-2.23-2.24c0-1.38.59-2.29 2.3-2.75l3.34-.86v3.42z" class="cls-1"/><path id="path34" d="M171 38.76a4.4 4.4 0 00-1.77-1.57h-.59v-1H176v1h-.85c-.39 0-1.24 1-1.24 1.51l3.21 7.41 3.15-7.41a2 2 0 00-1.18-1.51h-.86v-1h5.58v1h-.66c-.32 0-1.31 1.05-1.64 1.51l-4.72 10.69-3.47 7.67-1.26-.6 3.67-7.61z" class="cls-1"/></svg>