<svg width="60" height="60" viewBox="0 0 60 60" fill="none" xmlns="http://www.w3.org/2000/svg">
<path d="M23.6516 59.2748C23.6516 59.2749 23.6515 59.2749 23.6514 59.275C23.3322 59.5909 22.9161 59.75 22.5 59.75C22.0841 59.75 21.6682 59.591 21.349 59.2754C20.9168 58.8413 15.6369 53.5147 10.4655 46.3536C7.87846 42.7713 5.32228 38.7349 3.41364 34.6264C1.5039 30.5154 0.25 26.3483 0.25 22.5C0.25 10.2293 10.2293 0.25 22.5 0.25C34.7707 0.25 44.75 10.2293 44.75 22.5C44.75 23.229 44.7056 23.9945 44.5772 24.7573L44.5771 24.7579C44.4316 25.6373 43.5814 26.2292 42.7042 26.0895C41.8173 25.9395 41.2233 25.1014 41.3728 24.2179L41.3729 24.2168C41.4696 23.6294 41.5 23.0451 41.5 22.5C41.5 12.0232 32.9768 3.5 22.5 3.5C12.0232 3.5 3.5 12.0232 3.5 22.5C3.5 28.5381 7.1083 35.6241 11.2385 41.7678C15.3769 47.9237 20.0744 53.1838 22.3175 55.5808L22.5001 55.776L22.6826 55.5808C23.333 54.8853 24.1896 53.946 25.1737 52.8192C25.7736 52.1449 26.7979 52.0785 27.4694 52.6621C28.1459 53.2543 28.2165 54.2813 27.6256 54.9566L27.6252 54.9571C26.4595 56.2968 25.4652 57.3771 24.7626 58.1222C24.4114 58.4948 24.133 58.7835 23.9427 58.9789C23.8476 59.0766 23.7744 59.1509 23.7252 59.2008L23.6694 59.257L23.6554 59.271L23.652 59.2745L23.6516 59.2748Z" fill="white" stroke="white" stroke-width="0.5"/>
<path d="M11.5 22.5C11.5 16.4356 16.4356 11.5 22.5 11.5C28.5644 11.5 33.5 16.4356 33.5 22.5C33.5 28.5644 28.5644 33.5 22.5 33.5C16.4356 33.5 11.5 28.5644 11.5 22.5ZM14.75 22.5C14.75 26.7743 18.2257 30.25 22.5 30.25C26.7743 30.25 30.25 26.7743 30.25 22.5C30.25 18.2257 26.7743 14.75 22.5 14.75C18.2257 14.75 14.75 18.2257 14.75 22.5Z" fill="white" stroke="white" stroke-width="0.5"/>
<path d="M43.0263 59.2105C34.1025 59.2105 26.842 51.95 26.842 43.0263C26.842 34.1026 34.1025 26.8421 43.0263 26.8421C51.95 26.8421 59.2105 34.1026 59.2105 43.0263C59.2105 51.95 51.95 59.2105 43.0263 59.2105ZM43.0263 29.332C35.4745 29.332 29.3319 35.477 29.3319 43.0263C29.3319 50.5756 35.4745 56.7206 43.0263 56.7206C50.5781 56.7206 56.7206 50.5756 56.7206 43.0263C56.7206 35.477 50.5781 29.332 43.0263 29.332Z" fill="url(#paint0_linear_70_2937)"/>
<path d="M40.9863 48.5013C40.6564 48.5013 40.3364 48.3722 40.1015 48.1455L35.1024 43.2715C34.615 42.7963 34.615 42.0237 35.1024 41.5485C35.5898 41.0733 36.3821 41.0733 36.8696 41.5485L40.9238 45.5014L48.7924 36.733C49.2473 36.2237 50.0372 36.1749 50.5571 36.6185C51.077 37.062 51.1295 37.8297 50.6746 38.3366L41.9262 48.0846C41.6987 48.338 41.3713 48.4891 41.0263 48.5013C41.0138 48.5013 40.9988 48.5013 40.9863 48.5013Z" fill="white"/>
<defs>
<linearGradient id="paint0_linear_70_2937" x1="26.842" y1="59.2105" x2="59.2105" y2="59.2105" gradientUnits="userSpaceOnUse">
<stop stop-color="#FB8133"/>
<stop offset="1" stop-color="#FFBA08"/>
</linearGradient>
</defs>
</svg>
