<svg width="1506" height="89" viewBox="0 0 1506 89" fill="none" xmlns="http://www.w3.org/2000/svg">
<path d="M755.233 17.7046L768.631 37.553H820.733L808.824 17.7046H755.233Z" fill="#6B4986" fill-opacity="0.5"/>
<path d="M906.081 23.1628L914.404 35.0719H946.77L939.372 23.1628H906.081Z" fill="#6B4986" fill-opacity="0.5"/>
<path d="M1124.41 1.32959H1004.83L1008.8 44.9961H1120.44L1124.41 1.32959Z" fill="#6B4986" fill-opacity="0.5"/>
<path d="M1411.22 0.337158L1394.35 46.981H1269.31L1281.22 0.337158H1411.22Z" fill="#6B4986" fill-opacity="0.5"/>
<path d="M1284.19 85.1892L1290.15 59.3862H1364.08L1354.66 85.1892H1284.19Z" fill="#6B4986" fill-opacity="0.5"/>
<path d="M1506 53.928H1409.24L1393.36 88.6627H1487.14L1506 53.928Z" fill="#6B4986" fill-opacity="0.5"/>
<path d="M29.2764 39.0415L0 19.1931H58.0567L84.3559 39.0415H29.2764Z" fill="#6B4986" fill-opacity="0.5"/>
<path d="M172.185 46.981H113.136L138.443 67.3256L196.5 65.3408L172.185 46.981Z" fill="#6B4986" fill-opacity="0.5"/>
<path d="M187.072 33.0872L177.644 23.6592H200.965L210.393 33.0872H187.072Z" fill="#6B4986" fill-opacity="0.5"/>
<path d="M501.173 23.1628H477.851L485.79 32.0946L507.624 31.5984L501.173 23.1628Z" fill="#6B4986" fill-opacity="0.5"/>
<path d="M354.791 23.6592H327.996L334.943 32.0948H363.227L354.791 23.6592Z" fill="#6B4986" fill-opacity="0.5"/>
</svg>
