<svg width="1506" height="88" viewBox="0 0 1506 88" fill="none" xmlns="http://www.w3.org/2000/svg">
<path d="M755.233 71.6251L768.631 51.7766H820.733L808.824 71.6251H755.233Z" fill="#573779" fill-opacity="0.5"/>
<path d="M906.081 66.1667L914.404 54.2577H946.77L939.372 66.1667H906.081Z" fill="#573779" fill-opacity="0.5"/>
<path d="M1124.41 88H1004.83L1008.8 44.3334H1120.44L1124.41 88Z" fill="#573779" fill-opacity="0.5"/>
<path d="M1284.19 4.14039L1290.15 29.9434H1364.08L1354.66 4.14039H1284.19Z" fill="#573779" fill-opacity="0.5"/>
<path d="M1506 35.4017H1409.24L1393.36 0.666912H1487.14L1506 35.4017Z" fill="#573779" fill-opacity="0.5"/>
<path d="M29.2764 50.288L0 70.1364H58.0567L84.3559 50.288H29.2764Z" fill="#573779" fill-opacity="0.5"/>
<path d="M172.185 42.3486H113.136L138.443 22.004L196.5 23.9888L172.185 42.3486Z" fill="#573779" fill-opacity="0.5"/>
<path d="M187.072 56.2425L177.644 65.6705H200.965L210.393 56.2425H187.072Z" fill="#573779" fill-opacity="0.5"/>
<path d="M501.173 66.1667H477.851L485.79 57.235L507.624 57.7312L501.173 66.1667Z" fill="#573779" fill-opacity="0.5"/>
<path d="M354.791 65.6705H327.996L334.943 57.2349H363.227L354.791 65.6705Z" fill="#573779" fill-opacity="0.5"/>
</svg>
