<svg width="76" height="27" viewBox="0 0 76 27" fill="none" xmlns="http://www.w3.org/2000/svg">
<rect width="76" height="27" rx="1.90751" fill="url(#paint0_linear_658_2754)"/>
<path d="M25.6714 13.6906C25.6714 12.7872 25.8342 12.0059 26.1598 11.3466C26.4934 10.6874 26.9696 10.1787 27.5881 9.82062C28.2066 9.45437 28.9432 9.27125 29.7978 9.27125C30.6442 9.27125 31.3767 9.45437 31.9952 9.82062C32.6137 10.1787 33.0899 10.6874 33.4235 11.3466C33.7654 12.0059 33.9363 12.7831 33.9363 13.6784C33.9363 14.5817 33.7654 15.3671 33.4235 16.0345C33.0899 16.6937 32.6137 17.2065 31.9952 17.5727C31.3767 17.939 30.6442 18.1221 29.7978 18.1221C28.9432 18.1221 28.2066 17.939 27.5881 17.5727C26.9777 17.2065 26.5057 16.6937 26.172 16.0345C25.8383 15.3671 25.6714 14.5858 25.6714 13.6906ZM27.3195 13.6906C27.3195 14.3335 27.4091 14.887 27.5881 15.3509C27.7753 15.8148 28.052 16.1688 28.4183 16.413C28.7926 16.6571 29.2525 16.7792 29.7978 16.7792C30.5954 16.7792 31.2098 16.5066 31.6412 15.9613C32.0725 15.416 32.2882 14.6591 32.2882 13.6906C32.2882 13.0395 32.1905 12.486 31.9952 12.0303C31.808 11.5664 31.5272 11.2164 31.1529 10.9804C30.7866 10.7362 30.3349 10.6141 29.7978 10.6141C28.9758 10.6141 28.3572 10.8827 27.9421 11.4199C27.5271 11.957 27.3195 12.7139 27.3195 13.6906ZM35.4392 18V13.3732C35.4392 13.1209 35.4311 12.8645 35.4148 12.604C35.3985 12.3436 35.3741 12.0872 35.3415 11.8349H36.8187L36.9408 13.0557H36.7943C36.9896 12.6244 37.2786 12.2948 37.6611 12.0669C38.0436 11.8309 38.4871 11.7129 38.9917 11.7129C39.7161 11.7129 40.2614 11.9163 40.6276 12.3233C40.9939 12.7302 41.177 13.365 41.177 14.2277V18H39.651V14.301C39.651 13.8045 39.5533 13.4505 39.358 13.2389C39.1708 13.0191 38.8859 12.9092 38.5034 12.9092C38.0314 12.9092 37.657 13.0557 37.3803 13.3487C37.1036 13.6417 36.9652 14.0324 36.9652 14.5207V18H35.4392ZM42.795 18V9.01488H44.321V18H42.795ZM45.9782 18V11.8349H47.5042V18H45.9782ZM45.8927 10.6752V9.1858H47.5896V10.6752H45.8927ZM49.1613 18V13.3732C49.1613 13.1209 49.1532 12.8645 49.1369 12.604C49.1206 12.3436 49.0962 12.0872 49.0637 11.8349H50.5408L50.6629 13.0557H50.5164C50.7117 12.6244 51.0007 12.2948 51.3832 12.0669C51.7657 11.8309 52.2093 11.7129 52.7139 11.7129C53.4382 11.7129 53.9835 11.9163 54.3497 12.3233C54.716 12.7302 54.8991 13.365 54.8991 14.2277V18H53.3731V14.301C53.3731 13.8045 53.2754 13.4505 53.0801 13.2389C52.8929 13.0191 52.6081 12.9092 52.2255 12.9092C51.7535 12.9092 51.3791 13.0557 51.1024 13.3487C50.8257 13.6417 50.6873 14.0324 50.6873 14.5207V18H49.1613ZM59.4959 18.1221C58.8041 18.1221 58.21 17.9959 57.7135 17.7436C57.2252 17.4832 56.8468 17.1129 56.5782 16.6327C56.3177 16.1525 56.1875 15.5828 56.1875 14.9236C56.1875 14.2806 56.3137 13.719 56.566 13.2389C56.8183 12.7587 57.1682 12.3843 57.6159 12.1157C58.0716 11.8471 58.6006 11.7129 59.2029 11.7129C59.797 11.7129 60.2935 11.839 60.6923 12.0913C61.0911 12.3436 61.3922 12.6976 61.5957 13.1534C61.8073 13.6092 61.9131 14.1423 61.9131 14.7527V15.1555H57.4205V14.3498H60.8266L60.619 14.5207C60.619 13.951 60.497 13.5156 60.2528 13.2144C60.0168 12.9133 59.6709 12.7628 59.2151 12.7628C58.8733 12.7628 58.5844 12.8441 58.3484 13.0069C58.1205 13.1697 57.9455 13.4016 57.8234 13.7028C57.7013 14.0039 57.6403 14.3701 57.6403 14.8015V14.9602C57.6403 15.6276 57.8031 16.1281 58.1286 16.4618C58.4623 16.7873 58.9303 16.9501 59.5325 16.9501C59.8825 16.9501 60.208 16.9053 60.5092 16.8158C60.8184 16.7182 61.1114 16.5635 61.3882 16.3519L61.8398 17.3774C61.5469 17.6134 61.1969 17.7965 60.79 17.9268C60.383 18.057 59.9517 18.1221 59.4959 18.1221Z" fill="white"/>
<path d="M17.2821 14.2412L10.3179 18.2621C10.1321 18.3693 9.9 18.2353 9.9 18.0208L9.9 9.97917C9.9 9.76472 10.1321 9.6307 10.3179 9.73792L17.2821 13.7587C17.4679 13.866 17.4679 14.134 17.2821 14.2412Z" stroke="white" stroke-width="1.3"/>
<defs>
<linearGradient id="paint0_linear_658_2754" x1="5.66244e-07" y1="13.5" x2="76" y2="13.5" gradientUnits="userSpaceOnUse">
<stop stop-color="#FF6E3F"/>
<stop offset="1" stop-color="#FF5634"/>
</linearGradient>
</defs>
</svg>
