<svg width="902" height="1611" viewBox="0 0 902 1611" fill="none" xmlns="http://www.w3.org/2000/svg">
<path d="M169.101 1611H111.476V1477.01C111.565 1401.59 141.447 1329.28 194.569 1275.95C247.69 1222.61 319.713 1192.61 394.838 1192.53H633.283C717.9 1192.53 724.026 1146.64 724.026 1071C724.026 974.086 680.383 961.663 642.381 961.663H166.523C144.762 961.96 123.16 957.913 102.969 949.758C82.7794 941.603 64.4044 929.502 48.9116 914.158C33.4187 898.814 21.1169 880.532 12.7203 860.375C4.32381 840.217 0 818.586 0 796.737C0 774.888 4.32381 753.257 12.7203 733.1C21.1169 712.943 33.4187 694.661 48.9116 679.317C64.4044 663.973 82.7794 651.872 102.969 643.716C123.16 635.561 144.762 631.515 166.523 631.812H476.362C489.739 631.787 502.561 626.442 512.021 616.945C521.48 607.448 526.805 594.575 526.829 581.145V558.887C526.877 514.745 544.365 472.425 575.455 441.211C606.545 409.998 648.698 392.441 692.666 392.393H730.699C821.351 392.393 843.491 367.76 843.491 266.944V0H901.116V266.944C901.116 334.936 890.349 376.286 865.055 405.242C837.759 436.361 796.482 450.246 730.699 450.246H692.666C663.974 450.27 636.464 461.724 616.175 482.093C595.886 502.462 584.477 530.081 584.453 558.887V581.145C584.421 609.916 573.023 637.5 552.759 657.844C532.494 678.188 505.02 689.632 476.362 689.664H166.523C152.366 689.425 138.303 692.017 125.155 697.29C112.006 702.564 100.035 710.412 89.9387 720.379C79.8427 730.345 71.8242 742.23 66.3507 755.34C60.8772 768.45 58.0582 782.522 58.0582 796.737C58.0582 810.952 60.8772 825.025 66.3507 838.135C71.8242 851.245 79.8427 863.129 89.9387 873.096C100.035 883.062 112.006 890.911 125.155 896.184C138.303 901.458 152.366 904.05 166.523 903.81H642.381C694.395 903.81 781.651 925.52 781.651 1071C781.651 1103.46 781.651 1147.89 762.726 1184.43C740.07 1228.21 696.518 1250.38 633.283 1250.38H394.838C334.991 1250.45 277.616 1274.35 235.298 1316.84C192.979 1359.32 169.173 1416.92 169.101 1477.01V1611Z" fill="#08090C"/>
<path d="M140.288 1599.5V1476.76C140.288 1408.99 167.107 1343.99 214.844 1296.06C262.581 1248.13 327.327 1221.21 394.837 1221.21H633.282C750.897 1221.21 752.838 1137.05 752.838 1070.76C752.838 1004.5 733.306 932.493 642.381 932.493H166.523C148.731 932.493 131.114 928.975 114.677 922.14C98.2401 915.304 83.3051 905.286 70.7247 892.655C58.1444 880.025 48.1651 865.031 41.3566 848.529C34.5482 832.027 31.0439 814.34 31.0439 796.479C31.1082 760.45 45.4112 725.92 70.8122 700.47C96.2133 675.02 130.636 660.73 166.523 660.738H476.361C497.387 660.738 517.552 652.352 532.42 637.426C547.288 622.499 555.641 602.254 555.641 581.145V558.887C555.637 540.82 559.178 522.93 566.063 506.237C572.948 489.545 583.041 474.378 595.766 461.603C608.49 448.828 623.597 438.695 640.224 431.783C656.85 424.871 674.67 421.315 692.666 421.319H730.698C842.399 421.319 872.303 379.117 872.303 266.944V18.2692" stroke="#E5E5E5" stroke-miterlimit="10" stroke-dasharray="5.99 5.99"/>
<circle cx="871.5" cy="166.5" r="8.5" fill="url(#paint0_linear)"/>
<circle cx="662.5" cy="427.5" r="8.5" fill="url(#paint1_linear)"/>
<circle cx="32.5" cy="800.5" r="8.5" fill="url(#paint2_linear)"/>
<circle cx="547.5" cy="618.5" r="8.5" fill="url(#paint3_linear)"/>
<circle cx="752.5" cy="1078.5" r="8.5" fill="url(#paint4_linear)"/>
<circle cx="257.5" cy="1262.5" r="8.5" fill="url(#paint5_linear)"/>
<circle cx="143.5" cy="1450.5" r="8.5" fill="url(#paint6_linear)"/>
<defs>
<linearGradient id="paint0_linear" x1="863" y1="175" x2="880" y2="175" gradientUnits="userSpaceOnUse">
<stop stop-color="#FB8133"/>
<stop offset="1" stop-color="#FFBA08"/>
</linearGradient>
<linearGradient id="paint1_linear" x1="654" y1="436" x2="671" y2="436" gradientUnits="userSpaceOnUse">
<stop stop-color="#FB8133"/>
<stop offset="1" stop-color="#FFBA08"/>
</linearGradient>
<linearGradient id="paint2_linear" x1="24" y1="809" x2="41" y2="809" gradientUnits="userSpaceOnUse">
<stop stop-color="#FB8133"/>
<stop offset="1" stop-color="#FFBA08"/>
</linearGradient>
<linearGradient id="paint3_linear" x1="539" y1="627" x2="556" y2="627" gradientUnits="userSpaceOnUse">
<stop stop-color="#FB8133"/>
<stop offset="1" stop-color="#FFBA08"/>
</linearGradient>
<linearGradient id="paint4_linear" x1="744" y1="1087" x2="761" y2="1087" gradientUnits="userSpaceOnUse">
<stop stop-color="#FB8133"/>
<stop offset="1" stop-color="#FFBA08"/>
</linearGradient>
<linearGradient id="paint5_linear" x1="249" y1="1271" x2="266" y2="1271" gradientUnits="userSpaceOnUse">
<stop stop-color="#FB8133"/>
<stop offset="1" stop-color="#FFBA08"/>
</linearGradient>
<linearGradient id="paint6_linear" x1="135" y1="1459" x2="152" y2="1459" gradientUnits="userSpaceOnUse">
<stop stop-color="#FB8133"/>
<stop offset="1" stop-color="#FFBA08"/>
</linearGradient>
</defs>
</svg>
