<svg width="107" height="106" viewBox="0 0 107 106" fill="none" xmlns="http://www.w3.org/2000/svg">
<circle cx="53.6686" cy="52.8937" r="52.8937" fill="#15171E"/>
<path d="M54.0273 74.4169C42.3868 74.4169 32.8628 64.8929 32.8628 53.2524C32.8628 41.612 42.3868 32.088 54.0273 32.088C65.6677 32.088 75.1917 41.612 75.1917 53.2524C75.1917 64.8929 65.6677 74.4169 54.0273 74.4169ZM54.0273 34.2044C43.445 34.2044 34.9792 42.6702 34.9792 53.2524C34.9792 63.8347 43.445 72.3004 54.0273 72.3004C64.6095 72.3004 73.0753 63.8347 73.0753 53.2524C73.0753 42.6702 64.6095 34.2044 54.0273 34.2044Z" fill="white"/>
<path d="M54.027 38.4373C53.392 38.4373 52.9688 38.014 52.9688 37.3791V28.9133C52.9688 28.2784 53.392 27.8551 54.027 27.8551C54.6619 27.8551 55.0852 28.2784 55.0852 28.9133V37.3791C55.0852 38.014 54.6619 38.4373 54.027 38.4373Z" fill="white"/>
<path d="M78.3656 54.3107H69.8998C69.2648 54.3107 68.8416 53.8874 68.8416 53.2525C68.8416 52.6176 69.2648 52.1943 69.8998 52.1943H78.3656C79.0005 52.1943 79.4238 52.6176 79.4238 53.2525C79.4238 53.8874 79.0005 54.3107 78.3656 54.3107Z" fill="white"/>
<path d="M54.027 78.6499C53.392 78.6499 52.9688 78.2266 52.9688 77.5916V69.1259C52.9688 68.4909 53.392 68.0676 54.027 68.0676C54.6619 68.0676 55.0852 68.4909 55.0852 69.1259V77.5916C55.0852 78.2266 54.6619 78.6499 54.027 78.6499Z" fill="white"/>
<path d="M38.1534 54.3107H29.6876C29.0527 54.3107 28.6294 53.8874 28.6294 53.2524C28.6294 52.6175 29.0527 52.1942 29.6876 52.1942H38.1534C38.7883 52.1942 39.2116 52.6175 39.2116 53.2524C39.2116 53.8874 38.7883 54.3107 38.1534 54.3107Z" fill="white"/>
<path d="M54.0271 51.136C51.699 51.136 49.7942 49.2312 49.7942 46.9031C49.7942 44.575 51.699 42.6702 54.0271 42.6702C56.3552 42.6702 58.26 44.575 58.26 46.9031C58.26 49.2312 56.3552 51.136 54.0271 51.136ZM54.0271 44.7867C52.7572 44.7867 51.9106 45.6333 51.9106 46.9031C51.9106 48.173 52.7572 49.0196 54.0271 49.0196C55.297 49.0196 56.1435 48.173 56.1435 46.9031C56.1435 45.6333 55.297 44.7867 54.0271 44.7867Z" fill="url(#paint0_linear_70_2964)"/>
<path d="M61.4344 61.7182C60.7995 61.7182 60.3762 61.2949 60.3762 60.66V58.5436C60.3762 56.8504 58.8947 55.3689 57.2015 55.3689H50.8522C49.159 55.3689 47.6775 56.8504 47.6775 58.5436V60.66C47.6775 61.2949 47.2542 61.7182 46.6193 61.7182C45.9843 61.7182 45.561 61.2949 45.561 60.66V58.5436C45.561 55.5805 47.8891 53.2524 50.8522 53.2524H57.2015C60.1645 53.2524 62.4926 55.5805 62.4926 58.5436V60.66C62.4926 61.2949 62.0693 61.7182 61.4344 61.7182Z" fill="url(#paint1_linear_70_2964)"/>
<defs>
<linearGradient id="paint0_linear_70_2964" x1="49.7942" y1="51.136" x2="58.26" y2="51.136" gradientUnits="userSpaceOnUse">
<stop stop-color="#FB8133"/>
<stop offset="1" stop-color="#FFBA08"/>
</linearGradient>
<linearGradient id="paint1_linear_70_2964" x1="45.561" y1="61.7182" x2="62.4926" y2="61.7182" gradientUnits="userSpaceOnUse">
<stop stop-color="#FB8133"/>
<stop offset="1" stop-color="#FFBA08"/>
</linearGradient>
</defs>
</svg>
