<svg width="1324" height="700" viewBox="0 0 1324 700" fill="none" xmlns="http://www.w3.org/2000/svg">
<path d="M-80 27.0492H620.123C620.123 27.0492 664.788 25.4713 697.17 40.1931C724.659 52.6903 724.527 100.657 724.527 100.657V174.265C724.527 174.265 717.941 257.718 746.302 289.45C779.998 327.152 858.522 320.471 858.522 320.471H1215.28C1215.28 320.471 1249.47 319.617 1271.67 334.141C1300.4 352.931 1295.83 373.463 1296.45 404.068C1298.23 492.679 1295.12 595.407 1295.12 595.407C1295.12 595.407 1299.79 644.349 1284.51 658.5C1267.39 674.361 1236.06 673.36 1198.53 672.696C1061.18 670.265 744.949 668.298 495.962 669.143C443.747 669.32 381.816 669.143 285.203 669.143C188.59 669.143 193.339 534.953 193.339 534.953V393.935" stroke="#1C1E25" stroke-width="52.5875" stroke-linecap="round" stroke-linejoin="round"/>
<path d="M-80 27.0492H620.123C620.123 27.0492 664.788 25.4713 697.17 40.1931C724.659 52.6903 724.527 100.657 724.527 100.657V174.265C724.527 174.265 717.941 257.718 746.302 289.45C779.998 327.152 858.522 320.471 858.522 320.471H1215.28C1215.28 320.471 1249.47 319.617 1271.67 334.141C1300.4 352.931 1295.83 373.463 1296.45 404.068C1298.23 492.679 1295.12 595.407 1295.12 595.407C1295.12 595.407 1299.79 644.349 1284.51 658.5C1267.39 674.361 1236.06 673.36 1198.53 672.696C1061.18 670.265 744.949 668.298 495.962 669.143C443.747 669.32 381.816 669.143 285.203 669.143C188.59 669.143 193.339 534.953 193.339 534.953V398" stroke="white" stroke-linecap="round" stroke-linejoin="round" stroke-dasharray="5.99 5.99"/>
<circle cx="193.5" cy="27.5" r="8.5" fill="url(#paint0_linear_14_598)"/>
<circle cx="723.5" cy="145.5" r="8.5" fill="url(#paint1_linear_14_598)"/>
<circle cx="1296.5" cy="494.5" r="8.5" fill="url(#paint2_linear_14_598)"/>
<circle cx="193.5" cy="397.5" r="8.5" fill="url(#paint3_linear_14_598)"/>
<defs>
<linearGradient id="paint0_linear_14_598" x1="185" y1="36" x2="202" y2="36" gradientUnits="userSpaceOnUse">
<stop stop-color="#FB8133"/>
<stop offset="1" stop-color="#FFBA08"/>
</linearGradient>
<linearGradient id="paint1_linear_14_598" x1="715" y1="154" x2="732" y2="154" gradientUnits="userSpaceOnUse">
<stop stop-color="#FB8133"/>
<stop offset="1" stop-color="#FFBA08"/>
</linearGradient>
<linearGradient id="paint2_linear_14_598" x1="1288" y1="503" x2="1305" y2="503" gradientUnits="userSpaceOnUse">
<stop stop-color="#FB8133"/>
<stop offset="1" stop-color="#FFBA08"/>
</linearGradient>
<linearGradient id="paint3_linear_14_598" x1="185" y1="406" x2="202" y2="406" gradientUnits="userSpaceOnUse">
<stop stop-color="#FB8133"/>
<stop offset="1" stop-color="#FFBA08"/>
</linearGradient>
</defs>
</svg>
