<svg width="93" height="93" viewBox="0 0 93 93" fill="none" xmlns="http://www.w3.org/2000/svg">
<rect width="93" height="93" rx="5" fill="url(#paint0_linear)"/>
<path d="M43.8279 21.6236C43.6706 21.6433 43.0509 21.7121 42.4509 21.7711C39.392 22.076 37.0315 22.8334 35.9692 23.876C35.3889 24.4366 35.0643 25.0366 34.8282 25.9415C34.6512 26.63 34.6315 27.0332 34.6315 29.7479V32.7773H46.4344V34.2428L37.6118 34.2723C29.3891 34.3019 28.7399 34.3215 28.1399 34.4887C25.6417 35.1969 23.8319 36.8985 22.986 39.3279C22.4451 40.882 21.9729 43.577 21.8746 45.6129C21.7467 48.5243 22.4942 52.5865 23.5663 54.7897C24.0384 55.7438 24.2352 56.0192 24.8745 56.6683C25.3269 57.1208 25.8679 57.5535 26.2318 57.7404C27.3137 58.301 27.7465 58.3699 30.5104 58.4191L33.0381 58.4683L33.0873 55.193C33.1267 52.1931 33.1463 51.8488 33.3431 51.1898C34.1889 48.3079 36.4708 46.2228 39.3527 45.7015C39.9232 45.6031 41.5657 45.5736 46.6311 45.5638C52.0998 45.5638 53.2703 45.5343 53.8014 45.4162C55.857 44.9244 57.6472 43.1245 58.1881 40.9902C58.4143 40.1148 58.4045 27.6922 58.1881 26.8365C57.9422 25.8825 57.3718 24.9284 56.6144 24.1612C54.7358 22.2826 52.4736 21.6826 46.9262 21.6137C45.382 21.5941 43.9952 21.6039 43.8279 21.6236ZM40.6903 25.3907C41.428 25.7251 42.0083 26.63 42.0083 27.466C42.0083 28.6561 40.9461 29.7282 39.7756 29.7282C39.3035 29.7282 38.6445 29.4528 38.2806 29.1086C37.3659 28.243 37.3462 26.7382 38.2314 25.853C38.8609 25.2235 39.8937 25.0268 40.6903 25.3907Z" fill="white"/>
<path d="M59.8113 37.3805C59.8113 40.1836 59.7917 40.5967 59.6146 41.2951C59.0835 43.4098 57.6376 45.2294 55.6803 46.2424C54.1853 47.0195 54.6968 46.9703 46.7298 47.0391C38.8907 47.108 39.2251 47.0785 37.8776 47.7375C37.0023 48.1703 35.7826 49.3997 35.3007 50.3341C34.622 51.6521 34.6318 51.4947 34.6318 58.7535C34.6318 65.9041 34.622 65.7762 35.222 66.8975C35.5957 67.5958 36.7662 68.7565 37.6121 69.2482C40.1399 70.7531 44.4381 71.6285 47.8412 71.3433C52.3362 70.9695 56.0738 69.4351 57.4311 67.409C58.2573 66.1697 58.277 66.0516 58.3163 62.796L58.3458 59.924H46.4347V58.4486H55.4639C60.7261 58.4486 64.7587 58.4093 65.1423 58.3502C67.4144 58.0158 68.7717 56.5798 69.9717 53.1865C70.493 51.7406 70.6995 50.9538 70.9257 49.6358C71.211 48.0129 71.211 45.6326 70.9257 43.7245C70.0602 37.7837 68.457 35.01 65.5259 34.3904C65.0636 34.292 64.1391 34.2527 62.349 34.2527H59.8113V37.3805ZM53.9886 63.1304C55.1492 63.6124 55.7 64.9795 55.1787 66.1205C54.7754 67.0057 54.1164 67.4385 53.1722 67.4385C51.8346 67.4385 50.8903 66.4254 50.9788 65.0779C51.0772 63.5435 52.6116 62.5501 53.9886 63.1304Z" fill="white"/>
<defs>
<linearGradient id="paint0_linear" x1="-25.9071" y1="93" x2="46.5" y2="93" gradientUnits="userSpaceOnUse">
<stop stop-color="#8008DB"/>
<stop offset="1" stop-color="#430CD7"/>
</linearGradient>
</defs>
</svg>
