<svg width="50" height="50" viewBox="0 0 50 50" fill="none" xmlns="http://www.w3.org/2000/svg">
<path d="M21.9676 0.0205584C21.8102 0.0402298 21.1906 0.10908 20.5906 0.168094C17.5317 0.473002 15.1711 1.23035 14.1088 2.27294C13.5285 2.83358 13.204 3.43356 12.9679 4.33845C12.7909 5.02695 12.7712 5.43021 12.7712 8.14488V11.1743H24.5741V12.6398L15.7514 12.6693C7.52873 12.6988 6.87957 12.7185 6.27959 12.8857C3.78132 13.5939 1.97154 15.2955 1.12567 17.7249C0.584703 19.2789 0.112587 21.9739 0.01423 24.0099C-0.113635 26.9213 0.633881 30.9835 1.70598 33.1867C2.17809 34.1407 2.37481 34.4161 3.01413 35.0653C3.46657 35.5177 4.00754 35.9505 4.37146 36.1374C5.45339 36.698 5.88616 36.7669 8.65001 36.8161L11.1778 36.8652L11.227 33.5899C11.2663 30.59 11.286 30.2458 11.4827 29.5868C12.3286 26.7049 14.6105 24.6197 17.4923 24.0984C18.0628 24.0001 19.7054 23.9706 24.7708 23.9607C30.2394 23.9607 31.4099 23.9312 31.941 23.8132C33.9967 23.3214 35.7868 21.5215 36.3278 19.3871C36.554 18.5117 36.5442 6.08921 36.3278 5.2335C36.0819 4.27943 35.5114 3.32537 34.7541 2.55818C32.8754 0.679553 30.6132 0.0795728 25.0659 0.0107226C23.5216 -0.00894885 22.1348 0.000886882 21.9676 0.0205584ZM18.83 3.78765C19.5677 4.12206 20.148 5.02695 20.148 5.86299C20.148 7.05311 19.0857 8.12521 17.9153 8.12521C17.4432 8.12521 16.7842 7.8498 16.4202 7.50555C15.5055 6.64001 15.4858 5.13514 16.3711 4.24993C17.0005 3.62044 18.0333 3.42372 18.83 3.78765V3.78765Z" fill="white"/>
<path d="M37.951 15.7774C37.951 18.5806 37.9313 18.9937 37.7543 19.692C37.2231 21.8067 35.7773 23.6263 33.82 24.6394C32.3249 25.4164 32.8364 25.3673 24.8695 25.4361C17.0304 25.505 17.3648 25.4755 16.0173 26.1345C15.1419 26.5672 13.9223 27.7967 13.4403 28.7311C12.7617 30.0491 12.7715 29.8917 12.7715 37.1505C12.7715 44.3011 12.7617 44.1732 13.3616 45.2945C13.7354 45.9928 14.9059 47.1534 15.7517 47.6452C18.2795 49.1501 22.5777 50.0255 25.9809 49.7402C30.4758 49.3665 34.2134 47.8321 35.5707 45.8059C36.3969 44.5666 36.4166 44.4486 36.456 41.193L36.4855 38.3209H24.5744V36.8456H33.6036C38.8657 36.8456 42.8984 36.8062 43.282 36.7472C45.554 36.4128 46.9113 34.9768 48.1113 31.5835C48.6326 30.1376 48.8391 29.3507 49.0654 28.0328C49.3506 26.4099 49.3506 24.0296 49.0654 22.1215C48.1998 16.1807 46.5966 13.407 43.6656 12.7874C43.2033 12.689 42.2787 12.6497 40.4886 12.6497H37.951V15.7774ZM32.1282 41.5274C33.2888 42.0093 33.8396 43.3765 33.3184 44.5174C32.9151 45.4027 32.2561 45.8354 31.3119 45.8354C29.9742 45.8354 29.03 44.8224 29.1185 43.4749C29.2169 41.9405 30.7512 40.9471 32.1282 41.5274Z" fill="white"/>
</svg>
