<svg width="173" height="173" viewBox="0 0 173 173" fill="none" xmlns="http://www.w3.org/2000/svg">
<rect x="1.5" y="1.5" width="170" height="170" rx="85" fill="url(#paint0_linear)" stroke="white" stroke-width="3"/>
<path d="M134.737 86.5098C134.737 80.1189 126.734 74.0623 114.463 70.3064C117.295 57.7999 116.036 47.8497 110.491 44.6641C109.213 43.9168 107.718 43.5629 106.086 43.5629V47.948C106.991 47.948 107.718 48.125 108.328 48.4593C111.002 49.9931 112.162 55.8334 111.258 63.3452C111.041 65.1937 110.687 67.1404 110.255 69.1265C106.401 68.1826 102.192 67.4551 97.768 66.9831C95.1133 63.3452 92.3603 60.0416 89.5876 57.1509C95.9982 51.1926 102.015 47.9284 106.106 47.9284V43.5432C100.698 43.5432 93.6188 47.3974 86.461 54.0833C79.3032 47.4368 72.224 43.6219 66.8163 43.6219V48.007C70.8868 48.007 76.9238 51.2516 83.3344 57.1706C80.5814 60.0613 77.8283 63.3452 75.213 66.9831C70.7688 67.4551 66.5607 68.1826 62.7065 69.1462C62.2542 67.1798 61.9199 65.2723 61.6839 63.4435C60.7597 55.9318 61.9002 50.0914 64.5549 48.538C65.1448 48.184 65.9117 48.0267 66.8163 48.0267V43.6415C65.1645 43.6415 63.67 43.9955 62.3722 44.7427C56.8465 47.9284 55.6076 57.8589 58.459 70.3261C46.2277 74.1016 38.2637 80.1386 38.2637 86.5098C38.2637 92.9007 46.2671 98.9573 58.5376 102.713C55.7059 115.22 56.9645 125.17 62.5098 128.356C63.788 129.103 65.2825 129.457 66.9343 129.457C72.342 129.457 79.4212 125.603 86.579 118.917C93.7368 125.563 100.816 129.378 106.224 129.378C107.875 129.378 109.37 129.024 110.668 128.277C116.193 125.091 117.432 115.161 114.581 102.694C126.773 98.9377 134.737 92.8811 134.737 86.5098ZM109.134 73.3937C108.406 75.9304 107.502 78.5457 106.479 81.1611C105.673 79.588 104.827 78.0148 103.903 76.4417C102.999 74.8685 102.035 73.3347 101.072 71.8402C103.864 72.2532 106.558 72.7644 109.134 73.3937ZM100.128 94.3362C98.5939 96.9909 97.0208 99.5079 95.3886 101.848C92.4586 102.104 89.4893 102.241 86.5003 102.241C83.531 102.241 80.5617 102.104 77.6514 101.868C76.0192 99.5276 74.4264 97.0302 72.8926 94.3952C71.3981 91.8192 70.0413 89.2038 68.8024 86.5688C70.0216 83.9338 71.3981 81.2988 72.8729 78.7227C74.4067 76.068 75.9799 73.551 77.612 71.2109C80.542 70.9553 83.5113 70.8177 86.5003 70.8177C89.4696 70.8177 92.439 70.9553 95.3493 71.1913C96.9814 73.5313 98.5742 76.0287 100.108 78.6637C101.603 81.2398 102.959 83.8551 104.198 86.4901C102.959 89.1252 101.603 91.7602 100.128 94.3362ZM106.479 91.7799C107.541 94.4149 108.446 97.0499 109.193 99.6063C106.617 100.236 103.903 100.766 101.091 101.179C102.055 99.6653 103.018 98.1118 103.923 96.519C104.827 94.9458 105.673 93.353 106.479 91.7799ZM86.5397 112.762C84.7109 110.874 82.8821 108.77 81.073 106.469C82.8428 106.548 84.6519 106.607 86.4807 106.607C88.3291 106.607 90.1579 106.567 91.9473 106.469C90.1776 108.77 88.3488 110.874 86.5397 112.762ZM71.9094 101.179C69.117 100.766 66.423 100.255 63.847 99.6259C64.5746 97.0892 65.4791 94.4739 66.5017 91.8585C67.3079 93.4317 68.1535 95.0048 69.0777 96.578C70.0019 98.1511 70.9458 99.6849 71.9094 101.179ZM86.4413 60.2579C88.2701 62.1457 90.0989 64.2498 91.908 66.5505C90.1382 66.4718 88.3291 66.4128 86.5003 66.4128C84.6519 66.4128 82.8231 66.4522 81.0336 66.5505C82.8034 64.2498 84.6322 62.1457 86.4413 60.2579ZM71.8897 71.8402C70.9262 73.3544 69.9626 74.9078 69.058 76.5007C68.1535 78.0738 67.3079 79.647 66.5017 81.2201C65.4398 78.5851 64.5352 75.9501 63.788 73.3937C66.364 72.7841 69.0777 72.2532 71.8897 71.8402ZM54.0935 96.46C47.1323 93.4907 42.6292 89.5971 42.6292 86.5098C42.6292 83.4225 47.1323 79.5093 54.0935 76.5597C55.7846 75.8321 57.6331 75.1831 59.5405 74.5736C60.6614 78.4278 62.1362 82.4393 63.965 86.5491C62.1559 90.6393 60.7007 94.6312 59.5995 98.4657C57.6527 97.8561 55.8043 97.1876 54.0935 96.46ZM64.6729 124.56C61.9985 123.027 60.8383 117.186 61.7429 109.674C61.9592 107.826 62.3132 105.879 62.7458 103.893C66.6 104.837 70.8082 105.565 75.2327 106.037C77.8873 109.674 80.6403 112.978 83.413 115.869C77.0024 121.827 70.9851 125.091 66.895 125.091C66.0101 125.072 65.2628 124.895 64.6729 124.56ZM111.317 109.576C112.241 117.088 111.1 122.928 108.446 124.482C107.856 124.836 107.089 124.993 106.184 124.993C102.114 124.993 96.0769 121.748 89.6663 115.829C92.4193 112.939 95.1723 109.655 97.7877 106.017C102.232 105.545 106.44 104.817 110.294 103.854C110.746 105.84 111.1 107.747 111.317 109.576ZM118.888 96.46C117.196 97.1876 115.348 97.8365 113.44 98.4461C112.32 94.5919 110.845 90.5803 109.016 86.4705C110.825 82.3803 112.28 78.3884 113.381 74.5539C115.328 75.1635 117.177 75.8321 118.907 76.5597C125.868 79.529 130.371 83.4225 130.371 86.5098C130.352 89.5971 125.849 93.5103 118.888 96.46Z" fill="white"/>
<path d="M86.5003 95.4866C91.4634 95.4866 95.4869 91.4632 95.4869 86.5C95.4869 81.5369 91.4634 77.5134 86.5003 77.5134C81.5371 77.5134 77.5137 81.5369 77.5137 86.5C77.5137 91.4632 81.5371 95.4866 86.5003 95.4866Z" fill="white"/>
<defs>
<linearGradient id="paint0_linear" x1="0" y1="173" x2="173" y2="173" gradientUnits="userSpaceOnUse">
<stop stop-color="#D93764"/>
<stop offset="1" stop-color="#F24F60"/>
</linearGradient>
</defs>
</svg>