<svg width="34" height="34" viewBox="0 0 34 34" fill="none" xmlns="http://www.w3.org/2000/svg">
<path d="M17.5 18L1.5 2V33H32L30 31" stroke="white" stroke-width="1.5"/>
<path d="M8 18.5V26H15" stroke="white" stroke-width="1.5"/>
<path fill-rule="evenodd" clip-rule="evenodd" d="M22.9599 7.41221C23.4547 6.67004 24.5453 6.67004 25.0401 7.41221L26.0401 8.91221C26.177 9.11754 26.25 9.3588 26.25 9.60558V22.25H21.75V9.60558C21.75 9.3588 21.823 9.11754 21.9599 8.91221L22.9599 7.41221ZM21.75 23.75V26.5C21.75 27.1904 22.3096 27.75 23 27.75H25C25.6904 27.75 26.25 27.1904 26.25 26.5V23.75H21.75ZM26.2881 6.58016C25.1996 4.94739 22.8004 4.94739 21.7119 6.58016L20.7119 8.08016C20.4107 8.53189 20.25 9.06266 20.25 9.60558V26.5C20.25 28.0188 21.4812 29.25 23 29.25H25C26.5188 29.25 27.75 28.0188 27.75 26.5V9.60558C27.75 9.06266 27.5893 8.53189 27.2881 8.08016L26.2881 6.58016Z" fill="url(#paint0_linear_781_2805)"/>
<defs>
<linearGradient id="paint0_linear_781_2805" x1="20.25" y1="17.3028" x2="27.75" y2="17.3028" gradientUnits="userSpaceOnUse">
<stop stop-color="#FB8530"/>
<stop offset="1" stop-color="#FEB50B"/>
</linearGradient>
</defs>
</svg>
