<svg width="31" height="29" viewBox="0 0 31 29" fill="none" xmlns="http://www.w3.org/2000/svg">
<path d="M17.5 5C16.796 5 8.81182 5 3.49859 5C2.39402 5 1.5 5.89543 1.5 7V25.5C1.5 26.6046 2.39543 27.5 3.5 27.5H26C27.1046 27.5 28 26.6046 28 25.5V13.5" stroke="white" stroke-width="1.5"/>
<path d="M4.5 18L7.5 21L13 13L18 21L24.5 13" stroke="url(#paint0_linear_781_2792)" stroke-width="1.5"/>
<path d="M18.191 10.0593L18.2063 10.0368L18.22 10.0133L23.4716 0.960726C23.4717 0.960437 23.4719 0.960148 23.4721 0.95986C23.5095 0.896111 23.563 0.843225 23.6271 0.806423C23.6916 0.769453 23.7646 0.75 23.8389 0.75C23.9131 0.75 23.9861 0.769453 24.0506 0.806422C24.1147 0.843236 24.1682 0.896143 24.2057 0.959918C24.2058 0.960187 24.206 0.960456 24.2062 0.960726L29.4578 10.0133L29.4714 10.0368L29.4867 10.0593C29.5309 10.1242 29.5563 10.2001 29.56 10.2786C29.5638 10.357 29.5457 10.435 29.5079 10.5038C29.47 10.5727 29.4138 10.6297 29.3455 10.6686C29.2773 10.7074 29.1996 10.7266 29.121 10.724L29.1087 10.7236H29.0963H18.5814H18.569L18.5567 10.724C18.4782 10.7266 18.4004 10.7074 18.3322 10.6686C18.2639 10.6297 18.2077 10.5727 18.1699 10.5038C18.132 10.435 18.1139 10.357 18.1177 10.2786C18.1214 10.2001 18.1468 10.1242 18.191 10.0593Z" stroke="white" stroke-width="1.5"/>
<defs>
<linearGradient id="paint0_linear_781_2792" x1="4.5" y1="17" x2="24.5" y2="17" gradientUnits="userSpaceOnUse">
<stop stop-color="#FB8530"/>
<stop offset="1" stop-color="#FEB50B"/>
</linearGradient>
</defs>
</svg>
