<svg width="29" height="29" viewBox="0 0 29 29" fill="none" xmlns="http://www.w3.org/2000/svg">
<path d="M14.3151 1H1.73973C1.33119 1 1 1.33119 1 1.73973V27.2603C1 27.6688 1.33119 28 1.73973 28H27.2603C27.6688 28 28 27.6688 28 27.2603V14.6849" stroke="white" stroke-width="1.5"/>
<path d="M24.1602 1.14142L9.93553 15.3661C9.89802 15.4036 9.87695 15.4545 9.87695 15.5075V18.9233C9.87695 19.0337 9.9665 19.1233 10.077 19.1233H13.4927C13.5458 19.1233 13.5967 19.1022 13.6342 19.0647L27.8588 4.84005C27.9369 4.76195 27.9369 4.63531 27.8588 4.55721L24.443 1.14142C24.3649 1.06332 24.2383 1.06332 24.1602 1.14142Z" stroke="url(#paint0_linear_781_2812)" stroke-width="1.5"/>
<defs>
<linearGradient id="paint0_linear_781_2812" x1="9.87695" y1="10.0616" x2="28.0002" y2="10.0616" gradientUnits="userSpaceOnUse">
<stop stop-color="#FB8530"/>
<stop offset="1" stop-color="#FEB50B"/>
</linearGradient>
</defs>
</svg>
