<svg width="54" height="25" viewBox="0 0 54 25" fill="none" xmlns="http://www.w3.org/2000/svg">
<path d="M52.8921 4.0432C52.6763 3.39503 52.2119 2.85913 51.601 2.55338C50.9901 2.24762 50.2827 2.19706 49.6345 2.4128L42.4777 4.8L29.6777 0L26.4777 1.6L36.0777 8L29.6777 11.2L23.2777 8L21.6777 9.6L28.0777 16L51.3529 7.272C51.9774 7.03756 52.4867 6.57015 52.7737 5.96803C53.0608 5.36591 53.1032 4.67596 52.8921 4.0432Z" fill="white"/>
<rect width="1.48741" height="11" rx="0.743703" transform="matrix(0.5 0.866025 0.866025 -0.5 13.7871 23.5)" fill="white"/>
<rect width="1.48741" height="11" rx="0.743703" transform="matrix(0.5 0.866025 0.866025 -0.5 0 22.5)" fill="white" fill-opacity="0.8"/>
</svg>
