<svg width="18" height="17" viewBox="0 0 18 17" fill="none" xmlns="http://www.w3.org/2000/svg">
<path d="M11.5747 5.43375L11.6917 5.66822L11.951 5.7055L17.3455 6.48087C17.3457 6.4809 17.3459 6.48093 17.3461 6.48096C17.4537 6.49706 17.5109 6.58976 17.498 6.6721L17.498 6.6721L17.4972 6.67768C17.4922 6.71248 17.4754 6.74653 17.4468 6.77444C17.4466 6.77456 17.4465 6.77467 17.4464 6.77478L13.5432 10.5384L13.3523 10.7225L13.3976 10.9838L14.32 16.2994L14.3201 16.2998C14.3352 16.3867 14.2769 16.4791 14.1739 16.4967L14.1732 16.4968C14.1325 16.5038 14.0915 16.4967 14.0594 16.4799L14.0572 16.4787L9.23071 13.969L9.00004 13.8491L8.76937 13.969L3.9429 16.4787L3.94213 16.4791C3.91214 16.4948 3.8779 16.502 3.8434 16.4995C3.80892 16.4971 3.77629 16.4852 3.7492 16.4657C3.72214 16.4463 3.70187 16.4203 3.68992 16.3912C3.67799 16.3621 3.67462 16.3307 3.67996 16.3001L3.68008 16.2994L4.60244 10.9838L4.64779 10.7225L4.45686 10.5384L0.552751 6.77388L0.552719 6.77385C0.518899 6.74125 0.500607 6.69789 0.500015 6.65365C0.499426 6.6097 0.516324 6.56624 0.54876 6.53294C0.576954 6.50476 0.612949 6.48676 0.651812 6.48127L0.653001 6.4811L6.04905 5.7055L6.30841 5.66822L6.42535 5.43375L8.83631 0.599734C8.83645 0.59946 8.83659 0.599186 8.83673 0.598913C8.8809 0.512671 8.9914 0.474217 9.08246 0.518678L9.08304 0.518958C9.11843 0.536179 9.14598 0.563979 9.16234 0.596869L9.16256 0.597303L11.5747 5.43375Z" stroke="#999999"/>
</svg>
