<svg width="50" height="50" viewBox="0 0 50 50" fill="none" xmlns="http://www.w3.org/2000/svg">
<path d="M48.9583 20.8333C48.75 20.8333 48.5417 20.8333 48.3333 20.625L43.125 17.0833C42.7083 16.875 42.0833 16.6667 41.4583 16.6667H28.125C26.4583 16.6667 25 15.2083 25 13.5417V3.125C25 1.45833 26.4583 0 28.125 0H46.875C48.5417 0 50 1.45833 50 3.125V19.7917C50 20.2083 49.7917 20.625 49.375 20.625C49.375 20.8333 49.1667 20.8333 48.9583 20.8333ZM28.125 2.08333C27.5 2.08333 27.0833 2.5 27.0833 3.125V13.5417C27.0833 14.1667 27.5 14.5833 28.125 14.5833H41.4583C42.5 14.5833 43.5417 14.7917 44.375 15.4167L47.9167 17.9167V3.125C47.9167 2.5 47.5 2.08333 46.875 2.08333H28.125Z" fill="url(#paint0_linear)"/>
<path d="M1.04167 24.9999C0.833333 24.9999 0.625 24.9999 0.625 24.7916C0.208333 24.7916 0 24.3749 0 23.9582V7.29156C0 5.6249 1.45833 4.16656 3.125 4.16656H19.7917C20.4167 4.16656 20.8333 4.58323 20.8333 5.20823C20.8333 5.83323 20.4167 6.2499 19.7917 6.2499H3.125C2.5 6.2499 2.08333 6.66656 2.08333 7.29156V22.0832L5.625 19.7916C6.45833 19.1666 7.5 18.7499 8.54166 18.7499H26.0417C26.6667 18.7499 27.0833 19.1666 27.0833 19.7916C27.0833 20.4166 26.6667 20.8332 26.0417 20.8332H8.54166C7.91666 20.8332 7.29166 21.0416 6.875 21.4582L1.66667 24.9999C1.45833 24.9999 1.25 24.9999 1.04167 24.9999Z" fill="white"/>
<path d="M11.4585 37.5C7.91683 37.5 5.2085 34.7917 5.2085 31.25C5.2085 27.7083 7.91683 25 11.4585 25C15.0002 25 17.7085 27.7083 17.7085 31.25C17.7085 34.7917 15.0002 37.5 11.4585 37.5ZM11.4585 27.0833C9.16683 27.0833 7.29183 28.9583 7.29183 31.25C7.29183 33.5417 9.16683 35.4167 11.4585 35.4167C13.7502 35.4167 15.6252 33.5417 15.6252 31.25C15.6252 28.9583 13.7502 27.0833 11.4585 27.0833Z" fill="white"/>
<path d="M21.875 50.0001C21.25 50.0001 20.8333 49.5834 20.8333 48.9584V44.7918C20.8333 43.1251 19.375 41.6668 17.7083 41.6668H5.20833C3.54167 41.6668 2.08333 43.1251 2.08333 44.7918V48.9584C2.08333 49.5834 1.66667 50.0001 1.04167 50.0001C0.416667 50.0001 0 49.5834 0 48.9584V44.7918C0 41.8751 2.29167 39.5834 5.20833 39.5834H17.7083C20.625 39.5834 22.9167 41.8751 22.9167 44.7918V48.9584C22.9167 49.5834 22.5 50.0001 21.875 50.0001Z" fill="white"/>
<path d="M38.5415 37.5C34.9998 37.5 32.2915 34.7917 32.2915 31.25C32.2915 27.7083 34.9998 25 38.5415 25C42.0832 25 44.7915 27.7083 44.7915 31.25C44.7915 34.7917 42.0832 37.5 38.5415 37.5ZM38.5415 27.0833C36.2498 27.0833 34.3748 28.9583 34.3748 31.25C34.3748 33.5417 36.2498 35.4167 38.5415 35.4167C40.8332 35.4167 42.7082 33.5417 42.7082 31.25C42.7082 28.9583 40.8332 27.0833 38.5415 27.0833Z" fill="white"/>
<path d="M48.9585 50.0001C48.3335 50.0001 47.9168 49.5834 47.9168 48.9584V44.7918C47.9168 43.1251 46.4585 41.6668 44.7918 41.6668H32.2918C30.6252 41.6668 29.1668 43.1251 29.1668 44.7918V48.9584C29.1668 49.5834 28.7502 50.0001 28.1252 50.0001C27.5002 50.0001 27.0835 49.5834 27.0835 48.9584V44.7918C27.0835 41.8751 29.3752 39.5834 32.2918 39.5834H44.7918C47.7085 39.5834 50.0002 41.8751 50.0002 44.7918V48.9584C50.0002 49.5834 49.5835 50.0001 48.9585 50.0001Z" fill="white"/>
<defs>
<linearGradient id="paint0_linear" x1="25" y1="20.8333" x2="50" y2="20.8333" gradientUnits="userSpaceOnUse">
<stop stop-color="#FB8133"/>
<stop offset="1" stop-color="#FFBA08"/>
</linearGradient>
</defs>
</svg>
