<svg width="50" height="50" viewBox="0 0 50 50" fill="none" xmlns="http://www.w3.org/2000/svg">
<path d="M36.4582 44.7917C35.8832 44.7917 35.4165 44.3251 35.4165 43.7501V41.6667C35.4165 41.0917 35.8832 40.6251 36.4582 40.6251C37.0332 40.6251 37.4998 41.0917 37.4998 41.6667V43.7501C37.4998 44.3251 37.0332 44.7917 36.4582 44.7917Z" fill="url(#paint0_linear)"/>
<path d="M36.4582 32.2917C35.8832 32.2917 35.4165 31.825 35.4165 31.25V29.1667C35.4165 28.5917 35.8832 28.125 36.4582 28.125C37.0332 28.125 37.4998 28.5917 37.4998 29.1667V31.25C37.4998 31.825 37.0332 32.2917 36.4582 32.2917Z" fill="url(#paint1_linear)"/>
<path d="M36.979 42.7084H33.3332C32.7582 42.7084 32.2915 42.2418 32.2915 41.6668C32.2915 41.0918 32.7582 40.6251 33.3332 40.6251H36.979C37.8415 40.6251 38.5415 39.9251 38.5415 39.0626C38.5415 38.2001 37.8415 37.5001 36.979 37.5001H35.9373C33.9269 37.5001 32.2915 35.8647 32.2915 33.8543C32.2915 31.8439 33.9269 30.2084 35.9373 30.2084H39.5832C40.1582 30.2084 40.6248 30.6751 40.6248 31.2501C40.6248 31.8251 40.1582 32.2918 39.5832 32.2918H35.9373C35.0748 32.2918 34.3748 32.9918 34.3748 33.8543C34.3748 34.7168 35.0748 35.4168 35.9373 35.4168H36.979C38.9894 35.4168 40.6248 37.0522 40.6248 39.0626C40.6248 41.073 38.9894 42.7084 36.979 42.7084Z" fill="url(#paint2_linear)"/>
<path d="M36.4582 50C28.9915 50 22.9165 43.925 22.9165 36.4583C22.9165 28.9916 28.9915 22.9166 36.4582 22.9166C43.9249 22.9166 49.9999 28.9916 49.9999 36.4583C49.9999 43.925 43.9249 50 36.4582 50ZM36.4582 25C30.1394 25 24.9998 30.1396 24.9998 36.4583C24.9998 42.7771 30.1394 47.9167 36.4582 47.9167C42.7769 47.9167 47.9165 42.7771 47.9165 36.4583C47.9165 30.1396 42.7769 25 36.4582 25Z" fill="url(#paint3_linear)"/>
<path d="M17.7084 43.75H5.20834C2.3375 43.75 0 41.4125 0 38.5417V5.20834C0 2.3375 2.3375 0 5.20834 0H28.125C30.9959 0 33.3334 2.3375 33.3334 5.20834V17.7084C33.3334 18.2834 32.8667 18.75 32.2917 18.75C31.7167 18.75 31.25 18.2834 31.25 17.7084V5.20834C31.25 3.48542 29.8479 2.08334 28.125 2.08334H5.20834C3.48542 2.08334 2.08334 3.48542 2.08334 5.20834V38.5417C2.08334 40.2646 3.48542 41.6667 5.20834 41.6667H17.7084C18.2834 41.6667 18.75 42.1334 18.75 42.7084C18.75 43.2834 18.2834 43.75 17.7084 43.75Z" fill="white"/>
<path d="M8.11173 25C7.82727 25 7.54281 24.8938 7.32502 24.6836C6.89166 24.2611 6.89166 23.5742 7.32502 23.1516L12.8809 17.7343C13.2187 17.4027 13.7343 17.3204 14.1632 17.5306L17.8923 19.3486L25.1038 12.3169C25.5371 11.8944 26.2416 11.8944 26.675 12.3169C27.1083 12.7395 27.1083 13.4264 26.675 13.8489L18.8968 21.4332C18.5568 21.7648 18.0389 21.8428 17.6145 21.6369L13.8854 19.8189L8.89622 24.6836C8.68065 24.8938 8.39619 25 8.11173 25Z" fill="white"/>
<defs>
<linearGradient id="paint0_linear" x1="35.4165" y1="44.7917" x2="37.4998" y2="44.7917" gradientUnits="userSpaceOnUse">
<stop stop-color="#FB8133"/>
<stop offset="1" stop-color="#FFBA08"/>
</linearGradient>
<linearGradient id="paint1_linear" x1="35.4165" y1="32.2917" x2="37.4998" y2="32.2917" gradientUnits="userSpaceOnUse">
<stop stop-color="#FB8133"/>
<stop offset="1" stop-color="#FFBA08"/>
</linearGradient>
<linearGradient id="paint2_linear" x1="32.2915" y1="42.7084" x2="40.6248" y2="42.7084" gradientUnits="userSpaceOnUse">
<stop stop-color="#FB8133"/>
<stop offset="1" stop-color="#FFBA08"/>
</linearGradient>
<linearGradient id="paint3_linear" x1="22.9165" y1="50" x2="49.9999" y2="50" gradientUnits="userSpaceOnUse">
<stop stop-color="#FB8133"/>
<stop offset="1" stop-color="#FFBA08"/>
</linearGradient>
</defs>
</svg>
