<svg width="52" height="52" viewBox="0 0 52 52" fill="none" xmlns="http://www.w3.org/2000/svg">
<path d="M19.5 45.5C8.66667 45.5 0 36.8333 0 26C0 15.1667 8.66667 6.5 19.5 6.5C24.7 6.5 29.6833 8.45 33.3667 12.1333C35.1 13.8667 36.4 15.8167 37.4833 17.9833C37.7 18.6333 37.4833 19.0667 37.05 19.5C36.4 19.7167 35.9667 19.5 35.5333 19.0667C34.6667 17.1167 33.3667 15.3833 32.0667 13.8667C28.3833 10.4 24.05 8.66667 19.5 8.66667C9.96667 8.66667 2.16667 16.4667 2.16667 26C2.16667 35.5333 9.96667 43.3333 19.5 43.3333C20.15 43.3333 20.5833 43.7667 20.5833 44.4167C20.5833 45.0667 20.15 45.5 19.5 45.5Z" fill="white"/>
<path d="M18.4168 37.9166C12.1335 37.2666 7.5835 32.2833 7.5835 25.9999C7.5835 19.4999 13.0002 14.0833 19.5002 14.0833C22.7502 14.0833 25.5668 15.3833 27.9502 17.55C28.6002 18.2 29.2502 19.0666 29.9002 20.1499C30.1168 20.5833 30.1168 21.2333 29.4668 21.6666C29.0335 21.8833 28.3835 21.8833 27.9502 21.2333C27.5168 20.3666 27.0835 19.7166 26.4335 19.0666C24.4835 17.3333 22.1002 16.2499 19.5002 16.2499C14.0835 16.2499 9.75016 20.5833 9.75016 25.9999C9.75016 30.9833 13.4335 35.3166 18.6335 35.75C19.0668 35.75 19.5002 36.1833 19.5002 36.8333C19.5002 37.4833 19.0668 37.9166 18.4168 37.9166Z" fill="white"/>
<path d="M19.4998 27.0834C19.2831 27.0834 18.8498 27.0834 18.6331 26.8667C18.1998 26.4334 18.1998 25.7834 18.6331 25.35L32.7164 11.2667C33.1498 10.8334 33.7998 10.8334 34.2331 11.2667C34.6664 11.7 34.6664 12.35 34.2331 12.7834L20.1498 26.8667C20.1498 27.0834 19.7164 27.0834 19.4998 27.0834Z" fill="white"/>
<path d="M39 13H33.5833C32.9333 13 32.5 12.5667 32.5 11.9167V6.5C32.5 6.28333 32.7167 5.85 32.7167 5.63333L38.1333 0.216667C38.5667 0 39 0 39.4333 0C39.8667 0.216667 40.0833 0.65 40.0833 1.08333V5.41667H44.4167C44.85 5.41667 45.2833 5.63333 45.5 6.06667C45.5 6.5 45.5 6.93333 45.2833 7.36667L39.8667 12.7833C39.65 12.7833 39.2167 13 39 13ZM34.6667 10.8333H38.5667L41.8167 7.58333H39C38.35 7.58333 37.9167 7.15 37.9167 6.5V3.68333L34.6667 6.93333V10.8333Z" fill="white"/>
<path d="M37.9168 52C30.1168 52 23.8335 45.7166 23.8335 37.9166C23.8335 30.1166 30.1168 23.8333 37.9168 23.8333C45.7168 23.8333 52.0002 30.1166 52.0002 37.9166C52.0002 45.7166 45.7168 52 37.9168 52ZM37.9168 25.9999C31.4168 25.9999 26.0002 31.4166 26.0002 37.9166C26.0002 44.4166 31.4168 49.8333 37.9168 49.8333C44.4168 49.8333 49.8335 44.4166 49.8335 37.9166C49.8335 31.4166 44.4168 25.9999 37.9168 25.9999Z" fill="url(#paint0_linear)"/>
<path d="M35.4454 43.3333C35.2287 43.3333 35.1407 43.2656 34.8834 43.1166L30.5501 38.7833C30.1168 38.3499 30.1168 37.6999 30.5501 37.2666C30.9834 36.8333 31.6334 36.8333 32.0668 37.2666L35.5334 40.7333L42.2501 32.9333C42.6834 32.4999 43.3334 32.4999 43.7668 32.9333C44.2001 33.3666 44.2001 34.0166 43.7668 34.4499L36.1834 43.1166C36.1056 43.2148 35.8787 43.3333 35.4454 43.3333Z" fill="url(#paint1_linear)"/>
<defs>
<linearGradient id="paint0_linear" x1="23.8335" y1="52" x2="52.0002" y2="52" gradientUnits="userSpaceOnUse">
<stop stop-color="#FB8133"/>
<stop offset="1" stop-color="#FFBA08"/>
</linearGradient>
<linearGradient id="paint1_linear" x1="30.2251" y1="43.3333" x2="44.0918" y2="43.3333" gradientUnits="userSpaceOnUse">
<stop stop-color="#FB8133"/>
<stop offset="1" stop-color="#FFBA08"/>
</linearGradient>
</defs>
</svg>
