<svg width="50" height="48" viewBox="0 0 50 48" fill="none" xmlns="http://www.w3.org/2000/svg">
<path d="M25.0002 47.9166C24.4252 47.9166 23.9585 47.45 23.9585 46.875V34.375C23.9585 33.8 24.4252 33.3333 25.0002 33.3333C25.5752 33.3333 26.0418 33.8 26.0418 34.375V46.875C26.0418 47.45 25.5752 47.9166 25.0002 47.9166Z" fill="white"/>
<path d="M34.375 47.9168C34.1771 47.9168 33.9771 47.8605 33.7979 47.7418L24.4229 41.4918C23.9437 41.173 23.8146 40.5272 24.1333 40.048C24.4521 39.5688 25.0958 39.4397 25.5771 39.7584L34.9521 46.0084C35.4312 46.3272 35.5604 46.973 35.2417 47.4522C35.0417 47.7543 34.7104 47.9168 34.375 47.9168Z" fill="white"/>
<path d="M15.6251 47.9164C15.2876 47.9164 14.9584 47.7539 14.7564 47.4518C14.4376 46.9727 14.5668 46.3268 15.0459 46.0081L24.4209 39.7581C24.9001 39.4372 25.548 39.5685 25.8647 40.0477C26.1834 40.5268 26.0543 41.1727 25.5751 41.4914L16.2001 47.7414C16.0251 47.8602 15.8251 47.9164 15.6251 47.9164Z" fill="white"/>
<path d="M45.8333 8.33333H4.16667C1.86875 8.33333 0 6.46458 0 4.16667C0 1.86875 1.86875 0 4.16667 0H45.8333C48.1312 0 50 1.86875 50 4.16667C50 6.46458 48.1312 8.33333 45.8333 8.33333ZM4.16667 2.08333C3.01875 2.08333 2.08333 3.01875 2.08333 4.16667C2.08333 5.31458 3.01875 6.25 4.16667 6.25H45.8333C46.9812 6.25 47.9167 5.31458 47.9167 4.16667C47.9167 3.01875 46.9812 2.08333 45.8333 2.08333H4.16667Z" fill="white"/>
<path d="M42.7082 35.4164H7.2915C5.56859 35.4164 4.1665 34.0143 4.1665 32.2914V7.29136C4.1665 6.71636 4.63317 6.24969 5.20817 6.24969H44.7915C45.3665 6.24969 45.8332 6.71636 45.8332 7.29136V32.2914C45.8332 34.0143 44.4311 35.4164 42.7082 35.4164ZM6.24984 8.33303V32.2914C6.24984 32.8664 6.7165 33.333 7.2915 33.333H42.7082C43.2832 33.333 43.7498 32.8664 43.7498 32.2914V8.33303H6.24984Z" fill="white"/>
<path d="M13.5417 29.1666C13.275 29.1666 13.0084 29.0645 12.8042 28.8624C12.3979 28.4562 12.3979 27.7958 12.8042 27.3895L21.1375 19.0562C21.4896 18.7041 22.0396 18.6499 22.4521 18.9249L27.9084 22.5624L35.6438 12.8916C36.0042 12.4457 36.6584 12.3687 37.1084 12.7291C37.5563 13.0895 37.6292 13.7437 37.2709 14.1937L28.9375 24.6103C28.6 25.0312 27.998 25.1291 27.5459 24.827L22.0063 21.1353L14.2771 28.8645C14.075 29.0645 13.8084 29.1666 13.5417 29.1666Z" fill="url(#paint0_linear)"/>
<defs>
<linearGradient id="paint0_linear" x1="12.4995" y1="29.1666" x2="37.4984" y2="29.1666" gradientUnits="userSpaceOnUse">
<stop stop-color="#FB8133"/>
<stop offset="1" stop-color="#FFBA08"/>
</linearGradient>
</defs>
</svg>
