<svg width="29" height="31" viewBox="0 0 29 31" fill="none" xmlns="http://www.w3.org/2000/svg">
<path d="M15.9092 17.9089H17.7274V19.7271H15.9092V17.9089ZM19.5456 17.9089H21.3638V19.7271H19.5456V17.9089ZM15.9092 21.5453H17.7274V23.3635H15.9092V21.5453ZM19.5456 21.5453H21.3638V23.3635H19.5456V21.5453ZM23.182 17.9089H25.0002V19.7271H23.182V17.9089ZM23.182 21.5453H25.0002V23.3635H23.182V21.5453ZM15.9092 14.2725H17.7274V16.0907H15.9092V14.2725ZM19.5456 14.2725H21.3638V16.0907H19.5456V14.2725ZM23.182 14.2725H25.0002V16.0907H23.182V14.2725ZM15.9092 10.6361H17.7274V12.4543H15.9092V10.6361ZM19.5456 10.6361H21.3638V12.4543H19.5456V10.6361ZM23.182 10.6361H25.0002V12.4543H23.182V10.6361ZM23.182 6.99976H25.0002V8.81795H23.182V6.99976Z" fill="white"/>
<path d="M12 14.5V30" stroke="white"/>
<path d="M1.5 30H17.5C17.7761 30 18 29.7761 18 29.5V26.5C18 26.2239 18.2239 26 18.5 26H22.5C22.7761 26 23 26.2239 23 26.5V29.5C23 29.7761 23.2239 30 23.5 30H28C28.2761 30 28.5 29.7761 28.5 29.5V1.32002C28.5 0.945694 28.1038 0.704108 27.771 0.875533L12.271 8.86038C12.1046 8.94612 12 9.11765 12 9.30487V14.6643C12 14.8674 11.8772 15.0502 11.6893 15.1271L1.31068 19.3729C1.12277 19.4498 1 19.6326 1 19.8357V29.5C1 29.7761 1.22386 30 1.5 30Z" stroke="white"/>
</svg>
