<svg width="60" height="60" viewBox="0 0 60 60" fill="none" xmlns="http://www.w3.org/2000/svg">
<path d="M30 55C16.25 55 5 43.75 5 30C5 16.25 16.25 5 30 5C43.75 5 55 16.25 55 30C55 43.75 43.75 55 30 55ZM30 7.5C17.5 7.5 7.5 17.5 7.5 30C7.5 42.5 17.5 52.5 30 52.5C42.5 52.5 52.5 42.5 52.5 30C52.5 17.5 42.5 7.5 30 7.5Z" fill="white"/>
<path d="M30 12.5C29.25 12.5 28.75 12 28.75 11.25V1.25C28.75 0.5 29.25 0 30 0C30.75 0 31.25 0.5 31.25 1.25V11.25C31.25 12 30.75 12.5 30 12.5Z" fill="white"/>
<path d="M58.75 31.25H48.75C48 31.25 47.5 30.75 47.5 30C47.5 29.25 48 28.75 48.75 28.75H58.75C59.5 28.75 60 29.25 60 30C60 30.75 59.5 31.25 58.75 31.25Z" fill="white"/>
<path d="M30 60C29.25 60 28.75 59.5 28.75 58.75V48.75C28.75 48 29.25 47.5 30 47.5C30.75 47.5 31.25 48 31.25 48.75V58.75C31.25 59.5 30.75 60 30 60Z" fill="white"/>
<path d="M11.25 31.25H1.25C0.5 31.25 0 30.75 0 30C0 29.25 0.5 28.75 1.25 28.75H11.25C12 28.75 12.5 29.25 12.5 30C12.5 30.75 12 31.25 11.25 31.25Z" fill="white"/>
<path d="M30 27.5C27.25 27.5 25 25.25 25 22.5C25 19.75 27.25 17.5 30 17.5C32.75 17.5 35 19.75 35 22.5C35 25.25 32.75 27.5 30 27.5ZM30 20C28.5 20 27.5 21 27.5 22.5C27.5 24 28.5 25 30 25C31.5 25 32.5 24 32.5 22.5C32.5 21 31.5 20 30 20Z" fill="url(#paint0_linear)"/>
<path d="M38.75 40C38 40 37.5 39.5 37.5 38.75V36.25C37.5 34.25 35.75 32.5 33.75 32.5H26.25C24.25 32.5 22.5 34.25 22.5 36.25V38.75C22.5 39.5 22 40 21.25 40C20.5 40 20 39.5 20 38.75V36.25C20 32.75 22.75 30 26.25 30H33.75C37.25 30 40 32.75 40 36.25V38.75C40 39.5 39.5 40 38.75 40Z" fill="url(#paint1_linear)"/>
<defs>
<linearGradient id="paint0_linear" x1="25" y1="27.5" x2="35" y2="27.5" gradientUnits="userSpaceOnUse">
<stop stop-color="#FB8133"/>
<stop offset="1" stop-color="#FFBA08"/>
</linearGradient>
<linearGradient id="paint1_linear" x1="20" y1="40" x2="40" y2="40" gradientUnits="userSpaceOnUse">
<stop stop-color="#FB8133"/>
<stop offset="1" stop-color="#FFBA08"/>
</linearGradient>
</defs>
</svg>
