<svg width="214" height="23" viewBox="0 0 214 23" fill="none" xmlns="http://www.w3.org/2000/svg">
<path d="M4.66555 9.38633C6.36466 9.38633 8.06378 9.2771 9.75492 9.21752L11.821 9.09836L20.9388 8.53237C24.5444 8.30068 28.1766 8.06236 31.8355 7.81743L47.4067 6.73509L50.9725 6.52656L60.0424 5.96057L69.1123 5.46408C70.3009 5.39457 71.5054 5.3052 72.6701 5.25556L87.1405 4.68956L96.0429 4.34202C97.1996 4.34202 98.3643 4.23279 99.5289 4.21293L113.513 3.97462L127.321 3.71645C128.542 3.71645 129.714 3.71645 130.967 3.71645L139.981 3.6668L153.98 3.55757H158.567H168.14H168.937C161.737 3.67673 154.536 3.8025 147.336 3.9349L138.345 4.17321C137.053 4.17321 135.753 4.17321 134.453 4.24272L121.402 4.67963L106.317 5.18605C105.472 5.18605 104.626 5.27541 103.789 5.32506L95.7478 5.79176L79.4506 6.72516C78.6529 6.72516 77.8552 6.83438 77.0575 6.90389L69.0804 7.58904L54.8334 8.82033C53.5251 8.92956 52.2169 9.08844 50.9086 9.22745L41.7829 10.2204L30.1762 11.4021L14.0386 13.1596L10.1618 13.5767C7.8484 13.8249 5.54303 14.1923 3.23765 14.5101C3.17343 14.4994 3.10813 14.506 3.04611 14.5293C2.98409 14.5526 2.92678 14.5921 2.87804 14.6453C2.8293 14.6984 2.79023 14.7639 2.76347 14.8373C2.73671 14.9107 2.72286 14.9905 2.72286 15.0711C2.72286 15.1517 2.73671 15.2315 2.76347 15.3049C2.79023 15.3784 2.8293 15.4438 2.87804 15.4969C2.92678 15.5501 2.98409 15.5896 3.04611 15.6129C3.10813 15.6362 3.17343 15.6428 3.23765 15.6321L5.76638 15.7712C5.65766 16.0427 5.60035 16.3416 5.59886 16.645C5.60096 17.1919 5.77645 17.7158 6.08716 18.1025C6.39787 18.4893 6.81869 18.7077 7.2581 18.7104C13.8551 18.194 20.4522 17.6379 27.0572 17.2507L44.2558 16.2577L63.2651 15.1356L69.2559 14.7782C69.8303 14.7782 70.4046 14.6987 70.979 14.6789L101.611 13.6859L117.98 13.1497C119.958 13.0901 121.929 13.0305 123.899 12.9908L155.225 12.3851L168.65 12.117C172.471 12.0376 176.292 12.0078 180.113 11.829L189.582 11.3822C191.178 11.3127 192.773 11.263 194.305 11.1439L205.034 10.2403C204.834 10.6735 204.779 11.1873 204.882 11.6702C204.985 12.1382 205.232 12.5374 205.568 12.7823C205.739 12.9102 205.929 12.993 206.127 13.0255C206.324 13.0579 206.525 13.0394 206.717 12.971C207.515 12.5837 208.312 12.1865 209.054 11.7794H209.006L209.174 11.69L209.373 11.5808H209.301L210.538 10.9354L211.838 10.2502C212.301 9.99204 212.755 9.68422 213.202 9.38633C213.448 9.2002 213.651 8.93753 213.791 8.62415C213.931 8.31076 214.003 7.95745 214 7.59897C213.999 7.14867 213.881 6.71093 213.662 6.35242C213.443 5.99391 213.136 5.73426 212.787 5.61303C212.381 5.52366 211.99 5.45415 211.583 5.39457H211.312C211.04 5.39457 210.761 5.39457 210.514 5.46408C209.908 5.46408 209.301 5.63289 208.695 5.68253L207.203 5.82155L203.215 6.17902L202.178 6.26839C202.303 6.09017 202.396 5.88007 202.449 5.65275C202.512 5.47375 202.547 5.2818 202.553 5.08675L202.601 4.65977C202.599 4.47991 202.572 4.30182 202.521 4.13349L202.625 4.07392C202.873 3.89207 203.082 3.63615 203.231 3.32919C203.364 3.01701 203.435 2.66973 203.438 2.31635C203.434 1.94673 203.355 1.58447 203.207 1.2638L202.944 0.846751C202.738 0.590155 202.483 0.405239 202.202 0.310545C201.69 0.0857504 201.149 -0.0186303 200.606 0.00272309C200.168 0.00272309 199.713 0.00272309 199.274 0.0523718H197.344C196.434 0.0523718 195.533 0.0523718 194.624 0.0523718H187.444C185.187 0.0523718 182.929 0.0523718 180.672 0.0523718H174.513C166.329 0.0523718 158.152 0.11195 149.968 0.211248L131.557 0.568718C128.813 0.568718 126.077 0.648156 123.333 0.727594L104.89 1.21415L99.6326 1.35317C98.6115 1.35317 97.5985 1.44254 96.5774 1.49218L78.3498 2.34614L72.7658 2.61424C71.7288 2.66389 70.6838 2.74333 69.6468 2.81284L51.5707 4.02427C48.4517 4.23279 45.3406 4.47111 42.2216 4.70942L26.2276 5.96057C21.6089 6.31804 16.9901 6.63579 12.3714 6.95354L10.1777 7.11242L6.62791 7.35073C5.57493 7.41031 4.52196 7.4401 3.43708 7.41031C3.38721 7.23687 3.29504 7.08717 3.17347 6.98213C3.0519 6.87709 2.907 6.82196 2.75903 6.82445C2.08098 6.89396 1.40292 6.98333 0.724872 7.0727C0.567309 7.08611 0.416489 7.15743 0.291521 7.27763C0.166552 7.39784 0.0730601 7.56151 0.0228899 7.74792C-0.0255327 7.98492 0.00354316 8.23616 0.103739 8.44651C0.203935 8.65686 0.367069 8.80916 0.557354 8.86998L1.44281 9.12815C1.73721 9.20377 2.03595 9.25025 2.33624 9.26717C3.11002 9.35654 3.89177 9.3764 4.66555 9.38633ZM191.329 6.19888H194.305C194.391 6.47552 194.527 6.7236 194.703 6.92375C194.32 6.96347 193.938 6.99326 193.555 7.01312L191.385 7.11242L181.9 7.5394C180.456 7.6089 179.012 7.7082 177.569 7.73799L170.796 7.86708L155.321 8.1749L125.279 8.77068C118.1 8.9097 110.92 9.18773 103.741 9.42605L71.3858 10.4885C69.224 10.568 67.0542 10.7368 64.8925 10.8659L46.4973 11.9681L28.4452 13.0405L26.77 13.1398L31.636 12.6631L48.6352 11.0446L54.5701 10.4786L57.6333 10.2403L75.3105 8.93949C76.4592 8.85012 77.6079 8.74089 78.7646 8.68132L83.7822 8.41321L102.01 7.52947L105.998 7.3408C106.349 7.3408 106.7 7.3408 107.059 7.3408L109.875 7.27129L128.135 6.80459C130.935 6.73509 133.719 6.65565 136.543 6.62586C145.597 6.53649 154.643 6.41734 163.665 6.36769C172.894 6.28825 182.116 6.20881 191.337 6.19888H191.329Z" fill="url(#paint0_linear)"/>
<defs>
<linearGradient id="paint0_linear" x1="0" y1="18.7104" x2="214" y2="18.7104" gradientUnits="userSpaceOnUse">
<stop stop-color="#258EE8"/>
<stop offset="1" stop-color="#2AB5ED"/>
</linearGradient>
</defs>
</svg>
