<svg width="214" height="20" viewBox="0 0 214 20" fill="none" xmlns="http://www.w3.org/2000/svg">
<path d="M4.66555 9.93197C6.36466 9.93197 8.06378 9.82257 9.75492 9.7629L11.821 9.64355L20.9388 9.07666C24.5444 8.8446 28.1766 8.60591 31.8355 8.36059L47.4067 7.27653L50.9725 7.06767L60.0424 6.50078L69.1123 6.00351C70.3009 5.93389 71.5054 5.84438 72.6701 5.79465L87.1405 5.22776L96.0429 4.87967C97.1996 4.87967 98.3643 4.77027 99.5289 4.75037L113.513 4.51168L127.321 4.2531C128.542 4.2531 129.714 4.2531 130.967 4.2531L139.981 4.20337L153.98 4.09397H158.567H168.14H168.937C161.737 4.21332 154.536 4.33929 147.336 4.4719L138.345 4.71059C137.053 4.71059 135.753 4.71059 134.453 4.78021L121.402 5.21781L106.317 5.72503C105.472 5.72503 104.626 5.81454 103.789 5.86427L95.7478 6.33171L79.4506 7.26658C78.6529 7.26658 77.8552 7.37598 77.0575 7.4456L69.0804 8.13184L54.8334 9.36508C53.5251 9.47448 52.2169 9.63361 50.9086 9.77284L41.7829 10.7674L30.1762 11.9509L14.0386 13.7113L10.1618 14.129C7.8484 14.3776 5.54303 14.7456 3.23765 15.0638C3.17343 15.0532 3.10813 15.0597 3.04611 15.0831C2.98409 15.1064 2.92678 15.146 2.87804 15.1992C2.8293 15.2524 2.79023 15.318 2.76347 15.3916C2.73671 15.4651 2.72286 15.545 2.72286 15.6258C2.72286 15.7065 2.73671 15.7864 2.76347 15.8599C2.79023 15.9335 2.8293 15.9991 2.87804 16.0523C2.92678 16.1055 2.98409 16.1451 3.04611 16.1684C3.10813 16.1918 3.17343 16.1984 3.23765 16.1877L5.76638 16.3269C5.65766 16.5989 5.60035 16.8983 5.59886 17.2021C5.60096 17.75 5.77645 18.2746 6.08716 18.662C6.39787 19.0494 6.81869 19.2682 7.2581 19.2708C13.8551 18.7536 20.4522 18.1967 27.0572 17.8088L44.2558 16.8142L63.2651 15.6904L69.2559 15.3324C69.8303 15.3324 70.4046 15.2528 70.979 15.2329L101.611 14.2384L117.98 13.7013C119.958 13.6416 121.929 13.582 123.899 13.5422L155.225 12.9355L168.65 12.667C172.471 12.5874 176.292 12.5576 180.113 12.3786L189.582 11.931C191.178 11.8614 192.773 11.8117 194.305 11.6923L205.034 10.7873C204.834 11.2212 204.779 11.7358 204.882 12.2194C204.985 12.6882 205.232 13.0881 205.568 13.3333C205.739 13.4615 205.929 13.5444 206.127 13.5769C206.324 13.6094 206.525 13.5908 206.717 13.5223C207.515 13.1344 208.312 12.7366 209.054 12.3288H209.006L209.174 12.2393L209.373 12.1299H209.301L210.538 11.4835L211.838 10.7972C212.301 10.5386 212.755 10.2303 213.202 9.93197C213.448 9.74555 213.651 9.48246 213.791 9.16858C213.931 8.8547 214.003 8.50083 214 8.14178C213.999 7.69077 213.881 7.25234 213.662 6.89325C213.443 6.53417 213.136 6.27412 212.787 6.15269C212.381 6.06318 211.99 5.99356 211.583 5.93389H211.312C211.04 5.93389 210.761 5.93389 210.514 6.00351C209.908 6.00351 209.301 6.17258 208.695 6.22231L207.203 6.36154L203.215 6.71958L202.178 6.80909C202.303 6.63058 202.396 6.42015 202.449 6.19247C202.512 6.01319 202.547 5.82094 202.553 5.62558L202.601 5.19792C202.599 5.01778 202.572 4.83941 202.521 4.67081L202.625 4.61114C202.873 4.429 203.082 4.17268 203.231 3.86523C203.364 3.55256 203.435 3.20472 203.438 2.85079C203.434 2.48058 203.355 2.11775 203.207 1.79657L202.944 1.37886C202.738 1.12185 202.483 0.936643 202.202 0.841799C201.69 0.616648 201.149 0.512102 200.606 0.533489C200.168 0.533489 199.713 0.533489 199.274 0.583217H197.344C196.434 0.583217 195.533 0.583217 194.624 0.583217H187.444C185.187 0.583217 182.929 0.583217 180.672 0.583217H174.513C166.329 0.583217 158.152 0.642889 149.968 0.742344L131.557 1.10038C128.813 1.10038 126.077 1.17995 123.333 1.25951L104.89 1.74684L99.6326 1.88608C98.6115 1.88608 97.5985 1.97558 96.5774 2.02531L78.3498 2.88062L72.7658 3.14915C71.7288 3.19888 70.6838 3.27844 69.6468 3.34806L51.5707 4.56141C48.4517 4.77027 45.3406 5.00896 42.2216 5.24765L26.2276 6.50078C21.6089 6.85882 16.9901 7.17707 12.3714 7.49533L10.1777 7.65446L6.62791 7.89315C5.57493 7.95282 4.52196 7.98266 3.43708 7.95282C3.38721 7.77911 3.29504 7.62917 3.17347 7.52396C3.0519 7.41875 2.907 7.36354 2.75903 7.36604C2.08098 7.43566 1.40292 7.52516 0.724872 7.61467C0.567309 7.6281 0.416489 7.69954 0.291521 7.81994C0.166552 7.94033 0.0730601 8.10426 0.0228899 8.29097C-0.0255327 8.52835 0.00354316 8.77998 0.103739 8.99067C0.203935 9.20135 0.367069 9.35389 0.557354 9.41481L1.44281 9.67339C1.73721 9.74912 2.03595 9.79568 2.33624 9.81263C3.11002 9.90214 3.89177 9.92203 4.66555 9.93197ZM191.329 6.73947H194.305C194.391 7.01655 194.527 7.26502 194.703 7.46549C194.32 7.50527 193.938 7.53511 193.555 7.555L191.385 7.65446L181.9 8.08211C180.456 8.15173 179.012 8.25118 177.569 8.28102L170.796 8.41031L155.321 8.71862L125.279 9.31535C118.1 9.45459 110.92 9.73306 103.741 9.97175L71.3858 11.0359C69.224 11.1155 67.0542 11.2846 64.8925 11.4138L46.4973 12.5178L28.4452 13.5919L26.77 13.6914L31.636 13.214L48.6352 11.5929L54.5701 11.026L57.6333 10.7873L75.3105 9.48443C76.4592 9.39492 77.6079 9.28552 78.7646 9.22584L83.7822 8.95732L102.01 8.07217L105.998 7.8832C106.349 7.8832 106.7 7.8832 107.059 7.8832L109.875 7.81358L128.135 7.34615C130.935 7.27653 133.719 7.19696 136.543 7.16713C145.597 7.07762 154.643 6.95827 163.665 6.90854C172.894 6.82898 182.116 6.74942 191.337 6.73947H191.329Z" fill="url(#paint0_linear)"/>
<defs>
<linearGradient id="paint0_linear" x1="0" y1="19.2708" x2="214" y2="19.2708" gradientUnits="userSpaceOnUse">
<stop stop-color="#D93764"/>
<stop offset="1" stop-color="#F24F60"/>
</linearGradient>
</defs>
</svg>
