<svg width="34" height="28" viewBox="0 0 34 28" fill="none" xmlns="http://www.w3.org/2000/svg">
<path d="M8.45669 18.3299C5.84324 18.3299 3.84473 16.3327 3.84473 13.7211C3.84473 11.1094 5.84324 9.1123 8.45669 9.1123C11.0701 9.1123 13.0686 11.1094 13.0686 13.7211C13.0686 16.3327 11.0701 18.3299 8.45669 18.3299ZM8.45669 10.6486C6.76563 10.6486 5.38205 12.0312 5.38205 13.7211C5.38205 15.411 6.76563 16.7936 8.45669 16.7936C10.1477 16.7936 11.5313 15.411 11.5313 13.7211C11.5313 12.0312 10.1477 10.6486 8.45669 10.6486Z" fill="white"/>
<path d="M16.1419 27.5464C15.6807 27.5464 15.3733 27.2392 15.3733 26.7783V23.7058C15.3733 22.4768 14.2971 21.4015 13.0673 21.4015H3.84332C2.61346 21.4015 1.53733 22.4768 1.53733 23.7058V26.7783C1.53733 27.2392 1.22986 27.5464 0.768664 27.5464C0.307465 27.5464 0 27.2392 0 26.7783V23.7058C0 21.5551 1.69106 19.8652 3.84332 19.8652H13.0673C15.2195 19.8652 16.9106 21.5551 16.9106 23.7058V26.7783C16.9106 27.2392 16.6031 27.5464 16.1419 27.5464Z" fill="white"/>
<path d="M25.5082 0.000666705C22.303 -0.0443153 19.2287 2.19162 18.3088 5.26909C17.6017 7.48228 18.0149 10.0149 19.3968 11.8844L15.9737 11.2218L15.6836 12.7205L21.8389 13.912L23.0307 7.80606L21.5324 7.51362L20.8091 11.2195C19.0443 9.11288 19.0697 5.77773 20.8647 3.69648C22.6128 1.51205 25.943 0.885016 28.3795 2.24627C30.7104 3.44928 32.0036 6.29919 31.3676 8.84531C30.7981 11.5029 28.2203 13.5183 25.5082 13.4638C24.8024 13.4137 24.4476 14.4331 25.032 14.8321C25.5421 15.1499 26.1876 14.9257 26.7469 14.889C29.904 14.4088 32.5671 11.7157 32.9741 8.54228C33.4447 5.51433 31.8116 2.32247 29.0967 0.906527C28.0005 0.311572 26.7551 -0.00130516 25.5082 0.000653894V0.000666705Z" fill="url(#paint0_linear_426_3289)"/>
<defs>
<linearGradient id="paint0_linear_426_3289" x1="15.6836" y1="7.5" x2="33.0546" y2="7.5" gradientUnits="userSpaceOnUse">
<stop stop-color="#FB8530"/>
<stop offset="1" stop-color="#FEB50B"/>
</linearGradient>
</defs>
</svg>
